<svg width="32" height="32" viewBox="0 0 32 32" fill="none" xmlns="http://www.w3.org/2000/svg">
<path fill-rule="evenodd" clip-rule="evenodd" d="M16 0C24.835 0 32 7.165 32 16C32 24.835 24.835 32 16 32C7.165 32 0 24.835 0 16C0 7.165 7.165 0 16 0ZM12.6774 21.1969L8.76021 17.2765C8.09285 16.6087 8.09272 15.5198 8.76021 14.8522C9.42784 14.1847 10.5216 14.1889 11.1844 14.8522L13.946 17.616L20.8159 10.746C21.4835 10.0784 22.5725 10.0784 23.24 10.746C23.9077 11.4135 23.9067 12.5035 23.24 13.1702L15.1561 21.2542C14.4894 21.9208 13.3994 21.9218 12.7319 21.2542C12.7132 21.2354 12.6951 21.2164 12.6774 21.1969Z" fill="#00BA00"/>
</svg>
