<svg width="41" height="40" viewBox="0 0 41 40" fill="none" xmlns="http://www.w3.org/2000/svg">
<g clip-path="url(#clip0_4720_64218)">
<path d="M12.8183 8.01667C12.4724 8.01667 12.192 8.29706 12.192 8.643C12.192 9.40276 11.5738 10.0209 10.8141 10.0209C10.0543 10.0209 9.43617 9.40276 9.43617 8.643C9.43617 7.88323 10.0543 7.26511 10.8141 7.26511C11.1599 7.26511 11.4404 6.98472 11.4404 6.63878C11.4404 6.29284 11.16 6.01245 10.8141 6.01245C9.36359 6.01245 8.18359 7.19253 8.18359 8.64292C8.18359 10.0933 9.36367 11.2734 10.8141 11.2734C12.2645 11.2734 13.4445 10.0933 13.4445 8.64292C13.4446 8.29706 13.1641 8.01667 12.8183 8.01667Z" fill="white"/>
<path d="M12.8183 15.3653C12.4724 15.3653 12.192 15.6457 12.192 15.9916C12.192 16.7514 11.5738 17.3695 10.8141 17.3695C10.0543 17.3695 9.43617 16.7514 9.43617 15.9916C9.43617 15.2319 10.0543 14.6137 10.8141 14.6137C11.1599 14.6137 11.4404 14.3333 11.4404 13.9874C11.4404 13.6415 11.16 13.3611 10.8141 13.3611C9.36359 13.3611 8.18359 14.5412 8.18359 15.9916C8.18359 17.4419 9.36367 18.622 10.8141 18.622C12.2645 18.622 13.4445 17.4419 13.4445 15.9916C13.4446 15.6458 13.1641 15.3653 12.8183 15.3653Z" fill="white"/>
<path d="M20.166 16.7014H15.4896C15.1437 16.7014 14.8633 16.9818 14.8633 17.3277C14.8633 17.6737 15.1437 17.9541 15.4896 17.9541H20.166C20.5119 17.9541 20.7923 17.6737 20.7923 17.3277C20.7923 16.9818 20.512 16.7014 20.166 16.7014Z" fill="white"/>
<path d="M20.166 14.0293H15.4896C15.1437 14.0293 14.8633 14.3097 14.8633 14.6556C14.8633 15.0016 15.1437 15.282 15.4896 15.282H20.166C20.5119 15.282 20.7923 15.0016 20.7923 14.6556C20.7923 14.3097 20.512 14.0293 20.166 14.0293Z" fill="white"/>
<path d="M18.8299 24.05H15.4896C15.1437 24.05 14.8633 24.3304 14.8633 24.6764C14.8633 25.0223 15.1437 25.3027 15.4896 25.3027H18.8299C19.1758 25.3027 19.4563 25.0223 19.4563 24.6764C19.4563 24.3304 19.1758 24.05 18.8299 24.05Z" fill="white"/>
<path d="M20.166 21.3779H15.4896C15.1437 21.3779 14.8633 21.6583 14.8633 22.0043C14.8633 22.3502 15.1437 22.6306 15.4896 22.6306H20.166C20.5119 22.6306 20.7923 22.3502 20.7923 22.0043C20.7923 21.6583 20.512 21.3779 20.166 21.3779Z" fill="white"/>
<path d="M26.1786 9.35278H15.4896C15.1437 9.35278 14.8633 9.63317 14.8633 9.97911C14.8633 10.325 15.1437 10.6054 15.4896 10.6054H26.1785C26.5244 10.6054 26.8048 10.325 26.8048 9.97911C26.8048 9.63317 26.5245 9.35278 26.1786 9.35278Z" fill="white"/>
<path d="M23.5063 6.68066H15.4896C15.1437 6.68066 14.8633 6.96105 14.8633 7.30699C14.8633 7.65293 15.1437 7.93332 15.4896 7.93332H23.5063C23.8522 7.93332 24.1327 7.65293 24.1327 7.30699C24.1327 6.96105 23.8523 6.68066 23.5063 6.68066Z" fill="white"/>
<path d="M12.8183 22.7139C12.4724 22.7139 12.192 22.9943 12.192 23.3403C12.192 24.1 11.5738 24.7182 10.8141 24.7182C10.0543 24.7182 9.43617 24.1 9.43617 23.3403C9.43617 22.5805 10.0543 21.9624 10.8141 21.9624C11.1599 21.9624 11.4404 21.682 11.4404 21.336C11.4404 20.9901 11.16 20.7097 10.8141 20.7097C9.36359 20.7097 8.18359 21.8898 8.18359 23.3402C8.18359 24.7906 9.36367 25.9707 10.8141 25.9707C12.2645 25.9707 13.4445 24.7906 13.4445 23.3402C13.4446 22.9943 13.1641 22.7139 12.8183 22.7139Z" fill="white"/>
<path d="M28.8502 0H6.13625C5.05422 0 4.17383 0.880312 4.17383 1.96242V30.0209C4.17383 31.103 5.05414 31.9833 6.13625 31.9833H17.4933C17.8391 31.9833 18.1196 31.7029 18.1196 31.357C18.1196 31.0111 17.8392 30.7306 17.4933 30.7306H6.13625C5.74484 30.7306 5.42641 30.4122 5.42641 30.0208V1.96242C5.42641 1.57102 5.74484 1.25258 6.13625 1.25258H28.8502C29.2416 1.25258 29.5601 1.57102 29.5601 1.96242V22.6723C29.5601 23.0182 29.8405 23.2987 30.1864 23.2987C30.5323 23.2987 30.8127 23.0183 30.8127 22.6723V1.96242C30.8127 0.880312 29.9323 0 28.8502 0Z" fill="white"/>
<path d="M34.7638 25.398C34.1817 25.3399 33.5999 25.5049 33.1394 25.8545C32.7726 25.2391 32.1471 24.8024 31.4235 24.7299C30.8412 24.672 30.2595 24.837 29.7991 25.1865C29.4323 24.571 28.8068 24.1344 28.0832 24.0619C27.6386 24.0175 27.1947 24.1031 26.8046 24.3016V16.3257C26.8046 15.6781 26.5292 15.0573 26.0486 14.6226C25.5686 14.1882 24.9216 13.9762 24.2736 14.041C23.1174 14.1568 22.2118 15.2022 22.2118 16.421V24.4171L20.3707 26.2582C19.3923 27.2366 18.9974 28.6247 19.3143 29.9716L20.7121 35.912C21.2784 38.3191 23.401 40.0002 25.8738 40.0002H31.5228C34.4467 40.0002 36.8255 37.6214 36.8255 34.6974V27.7781C36.8256 26.5591 35.92 25.5138 34.7638 25.398ZM35.5729 34.6973C35.5729 36.9305 33.7561 38.7473 31.5228 38.7473H25.8739C23.9852 38.7473 22.3639 37.4634 21.9314 35.6248L20.5336 29.6845C20.3168 28.763 20.587 27.8131 21.2564 27.1438L22.2118 26.1884V28.3507C22.2118 28.6966 22.4921 28.977 22.8381 28.977C23.184 28.977 23.4644 28.6966 23.4644 28.3507V16.4209C23.4644 15.8377 23.8746 15.3398 24.3985 15.2874C24.6993 15.2572 24.9871 15.3511 25.2083 15.5514C25.4268 15.7491 25.5521 16.0314 25.5521 16.3258V27.3488C25.5521 27.6946 25.8325 27.9751 26.1785 27.9751C26.5244 27.9751 26.8048 27.6947 26.8048 27.3488V26.3466C26.8048 26.0523 26.93 25.77 27.1486 25.5723C27.37 25.372 27.6576 25.278 27.9585 25.3083C28.4822 25.3607 28.8925 25.8587 28.8925 26.4419V28.0166C28.8925 28.3625 29.1729 28.643 29.5189 28.643C29.8647 28.643 30.1452 28.3626 30.1452 28.0166V27.0145C30.1452 26.7202 30.2704 26.4379 30.489 26.2402C30.7104 26.0398 30.9981 25.9459 31.2989 25.9762C31.8226 26.0286 32.2329 26.5266 32.2329 27.1098V28.6846C32.2329 29.0305 32.5133 29.3109 32.8593 29.3109C33.2051 29.3109 33.4856 29.0306 33.4856 28.6846V27.6825C33.4856 27.3881 33.6108 27.1059 33.8294 26.9081C34.0508 26.7079 34.3382 26.6138 34.6393 26.6442C35.163 26.6966 35.5733 27.1945 35.5733 27.7777V34.6973H35.5729Z" fill="white"/>
</g>
<defs>
<clipPath id="clip0_4720_64218">
<rect width="40" height="40" fill="white" transform="translate(0.5)"/>
</clipPath>
</defs>
</svg>
