<svg width="231" height="231" viewBox="0 0 231 231" fill="none" xmlns="http://www.w3.org/2000/svg">
<path d="M208.439 76.2849C205.183 114.103 203.994 166.662 187.875 181.263C182.538 186.095 174.304 189.545 164.455 191.948C158.897 193.303 152.827 194.33 146.475 195.083C114.683 198.858 75.8419 195.837 58.9951 193.743C44.0706 191.895 34.0221 171.17 27.993 144.989C26.2961 137.608 24.917 129.802 23.8401 121.861C19.0824 86.9483 20.1182 49.4866 25.2857 35.038C28.941 22.9867 46.0392 15.1447 68.3362 11.2187C73.0736 10.381 78.0415 9.72131 83.1683 9.23991C92.1662 8.39167 101.635 8.07798 111.161 8.28172C114.724 8.36534 118.287 8.51179 121.84 8.73171C121.871 8.73171 121.901 8.7317 121.927 8.73679C153.017 10.6735 182.922 18.1025 196.687 30.4619C197.328 31.0375 197.938 31.6293 198.502 32.2313C201.204 35.0583 203.075 38.1209 203.973 41.4187C208.311 52.2456 209.49 64.1029 208.439 76.2849Z" fill="url(#paint0_linear_7199_47871)"/>
<path d="M94.8773 167C94.8773 167 97.1637 168.788 99.3721 166.473C101.58 164.159 107.16 157.355 107.185 155.848C107.21 154.341 103.7 151.088 101.54 152.865C99.3804 154.641 93.6183 162.183 93.1466 163.43C92.9073 164.063 93.1854 166.078 94.8773 167Z" fill="white"/>
<path d="M102.561 162.022C100.241 162.026 98.0696 160.564 97.1668 158.433C97.0222 158.092 96.5247 158.386 96.6683 158.725C97.6473 161.035 100.058 162.604 102.562 162.6C102.933 162.599 102.933 162.021 102.561 162.022Z" fill="#FFE6DE"/>
<path d="M59.8866 38.3158C59.8866 38.3158 57.5969 30.3805 51.11 33.9919C51.11 33.9919 54.7496 31.2204 53.8348 27.9628C52.9205 24.7053 50.6738 22.5888 50.6738 22.5888C50.6738 22.5888 55.6805 24.2978 58.2229 21.669C61.717 18.0566 61.5368 15.4468 61.5368 15.4468C61.5368 15.4468 63.4532 18.8462 66.2737 19.6718C69.0942 20.4974 71.3428 18.247 71.3428 18.247C71.3428 18.247 67.5401 22.5556 68.6586 26.0058C69.7775 29.4555 72.5116 31.3271 72.5116 31.3271C72.5116 31.3271 67.8417 29.4639 63.6329 33.249C59.4236 37.0342 59.8866 38.3158 59.8866 38.3158Z" fill="white"/>
<path d="M121.648 170.26C121.648 170.26 127.42 164.354 121.078 160.493C121.078 160.493 125.285 162.291 127.667 159.888C130.049 157.485 130.782 154.487 130.782 154.487C130.782 154.487 131.766 159.685 135.306 160.6C140.173 161.856 142.354 160.412 142.354 160.412C142.354 160.412 140.342 163.756 141.016 166.617C141.689 169.477 144.756 170.323 144.756 170.323C144.756 170.323 139.132 169.141 136.683 171.816C134.235 174.492 133.955 177.793 133.955 177.793C133.955 177.793 133.272 172.812 127.903 171.019C122.534 169.225 121.648 170.26 121.648 170.26Z" fill="white"/>
<path d="M50.8829 66.3699C47.7557 63.9426 42.9324 66.2826 41.3043 68.546C40.5337 66.2036 35.581 62.765 32.3175 64.7622C27.1588 67.9195 30.3572 74.6471 32.9661 77.7929C34.5901 79.7513 38.9107 83.87 39.8818 84.7695C39.9645 84.8462 40.0786 84.8569 40.1742 84.7977C41.3145 84.0904 46.3212 80.7423 48.0828 78.91C50.743 76.1435 55.3246 69.8174 50.8829 66.3699Z" fill="white"/>
<path d="M28.5164 75.5761C31.2191 75.7452 33.9218 75.9142 36.625 76.0833C36.7465 76.0907 36.8758 75.9886 36.9036 75.8713C37.1036 75.0157 37.3429 74.166 37.6155 73.3303C37.7194 73.0124 38.4457 70.5842 38.9585 70.7477C39.0685 70.7828 39.1586 71.3478 39.1844 71.4998C39.2727 72.0173 39.3027 72.5458 39.3309 73.0693C39.4057 74.4539 39.4131 75.8408 39.4681 77.2259C39.4968 77.954 39.4233 82.5236 41.1918 81.4661C41.7236 81.1482 42.0142 80.4844 42.2424 79.9397C42.5751 79.1455 42.8107 78.3139 43.0505 77.4878C43.2902 76.6627 43.4464 75.541 44.3681 75.2129C44.6827 75.1011 44.9701 75.1441 45.2921 75.1644C47.603 75.31 49.9139 75.4555 52.2249 75.6006C52.5958 75.6241 52.5945 75.0462 52.2249 75.0231C50.0835 74.8881 47.9421 74.7537 45.8003 74.6188C44.8019 74.556 43.8423 74.4733 43.1789 75.4319C42.7312 76.0792 42.5926 76.9967 42.3746 77.7405C42.1311 78.5694 41.8932 79.4254 41.4917 80.1942C41.3619 80.4428 40.9156 81.2102 40.6287 81.0078C40.3838 80.8355 40.3297 80.2663 40.2817 80.0053C40.0516 78.7565 40.047 77.4569 40.0105 76.1915C39.9722 74.8521 39.9689 73.5058 39.8442 72.1711C39.7934 71.6269 39.7883 70.3984 39.1151 70.1882C38.0918 69.8685 37.482 71.9651 37.2565 72.5943C36.8911 73.6135 36.5922 74.6632 36.3459 75.7174C36.4388 75.6468 36.5316 75.5761 36.6245 75.5054C33.9218 75.3363 31.2186 75.1672 28.5159 74.9981C28.145 74.975 28.1463 75.553 28.5164 75.5761Z" fill="#FFE6DE"/>
<path d="M58.2487 90.2282C59.3626 90.8196 88.8701 155.05 87.4614 157.759C86.0528 160.468 50.2968 178.078 46.5056 174.427C42.7149 170.777 15.4421 109.483 16.3277 106.805C17.2139 104.128 50.9824 86.37 58.2487 90.2282Z" fill="white"/>
<path d="M44.2814 101.299C42.8584 104.64 44.4135 108.502 47.7542 109.925C51.0954 111.348 54.9573 109.793 56.3803 106.452C57.8032 103.111 56.2481 99.2493 52.9074 97.8264C49.5662 96.4034 45.7044 97.958 44.2814 101.299Z" fill="#FFE6DE"/>
<path d="M45.3165 100.883C43.8936 104.224 45.4487 108.086 48.7894 109.509C52.1306 110.932 55.9924 109.377 57.4154 106.036C58.8384 102.695 57.2833 98.8328 53.9426 97.4099C50.6018 95.9869 46.7395 97.5415 45.3165 100.883Z" fill="#FFE6DE"/>
<path d="M50.7928 109.588C48.4495 109.285 46.3211 107.613 45.5315 105.374C44.7083 103.04 45.3791 100.352 47.1264 98.6211C47.3906 98.3592 46.9822 97.9508 46.718 98.2127C44.796 100.117 44.0545 103.13 45.0312 105.682C45.9612 108.112 48.2278 109.834 50.7928 110.166C51.1605 110.213 51.1569 109.635 50.7928 109.588Z" fill="white"/>
<path d="M57.659 103.452C54.4722 103.041 51.271 102.756 48.0614 102.598C47.69 102.58 47.6909 103.158 48.0614 103.176C51.271 103.333 54.4722 103.618 57.659 104.029C58.0263 104.076 58.0231 103.499 57.659 103.452Z" fill="white"/>
<path d="M60.5778 125.017C63.574 122.965 64.3397 118.873 62.288 115.877C60.2363 112.88 56.1441 112.115 53.1478 114.166C50.1516 116.218 49.3859 120.31 51.4376 123.307C53.4894 126.303 57.5816 127.068 60.5778 125.017Z" fill="#FFE6DE"/>
<path d="M60.0972 125.373C63.5194 124.158 65.309 120.399 64.0943 116.977C62.8796 113.555 59.1206 111.765 55.6984 112.98C52.2762 114.194 50.4867 117.953 51.7014 121.376C52.916 124.798 56.675 126.587 60.0972 125.373Z" fill="#FFE6DE"/>
<path d="M57.3201 125.307C54.9769 125.004 52.8484 123.332 52.0589 121.093C51.2356 118.759 51.9064 116.071 53.6537 114.34C53.918 114.078 53.5096 113.67 53.2453 113.932C51.3234 115.836 50.5819 118.85 51.5585 121.401C52.4885 123.83 54.7551 125.553 57.3201 125.885C57.6879 125.932 57.6842 125.354 57.3201 125.307Z" fill="white"/>
<path d="M64.1883 119.171C61.0014 118.759 57.8003 118.474 54.5907 118.317C54.2193 118.298 54.2202 118.876 54.5907 118.894C57.8003 119.052 61.0014 119.337 64.1883 119.748C64.5556 119.796 64.5524 119.218 64.1883 119.171Z" fill="white"/>
<path d="M66.6091 140.838C69.9394 139.39 71.4655 135.516 70.0177 132.186C68.5698 128.856 64.6964 127.33 61.366 128.777C58.0357 130.225 56.5096 134.099 57.9575 137.429C59.4053 140.759 63.2788 142.285 66.6091 140.838Z" fill="#FFE6DE"/>
<path d="M69.5686 139.143C72.1927 136.633 72.2848 132.47 69.7744 129.846C67.2641 127.222 63.1018 127.13 60.4778 129.641C57.8538 132.151 57.7616 136.313 60.272 138.937C62.7824 141.561 66.9446 141.653 69.5686 139.143Z" fill="#FFE6DE"/>
<path d="M64.4451 140.519C62.1019 140.216 59.9734 138.544 59.1839 136.305C58.3606 133.97 59.0314 131.283 60.7787 129.552C61.043 129.29 60.6346 128.881 60.3703 129.143C58.4484 131.047 57.7069 134.061 58.6835 136.613C59.6135 139.042 61.8801 140.765 64.4451 141.097C64.8129 141.144 64.8092 140.566 64.4451 140.519Z" fill="white"/>
<path d="M71.3133 134.383C68.1265 133.971 64.9253 133.686 61.7157 133.529C61.3443 133.511 61.3452 134.088 61.7157 134.106C64.9253 134.264 68.1265 134.549 71.3133 134.96C71.6806 135.007 71.6774 134.429 71.3133 134.383Z" fill="white"/>
<path d="M77.1804 155.701C79.7481 153.133 79.7481 148.97 77.1804 146.402C74.6126 143.835 70.4495 143.835 67.8817 146.402C65.314 148.97 65.314 153.133 67.8817 155.701C70.4495 158.269 74.6126 158.269 77.1804 155.701Z" fill="#FFE6DE"/>
<path d="M67.5177 148.059C66.0948 151.4 67.6499 155.262 70.9906 156.685C74.3318 158.108 78.1936 156.553 79.6166 153.212C81.0395 149.872 79.4844 146.009 76.1437 144.586C72.8025 143.163 68.9407 144.718 67.5177 148.059Z" fill="#FFE6DE"/>
<path d="M72.994 156.764C70.6507 156.461 68.5223 154.789 67.7327 152.55C66.9094 150.216 67.5803 147.529 69.3275 145.797C69.5918 145.535 69.1839 145.127 68.9191 145.389C66.9972 147.293 66.2557 150.307 67.2324 152.858C68.1628 155.288 70.4289 157.01 72.994 157.342C73.3617 157.389 73.358 156.811 72.994 156.764Z" fill="white"/>
<path d="M79.8602 150.628C76.6733 150.216 73.4721 149.931 70.2626 149.774C69.8912 149.755 69.8921 150.333 70.2626 150.351C73.4721 150.509 76.6733 150.794 79.8602 151.205C80.2275 151.253 80.2243 150.675 79.8602 150.628Z" fill="white"/>
<path d="M47.0724 156.619C45.6494 159.96 47.2045 163.822 50.5453 165.245C53.886 166.668 57.7483 165.113 59.1713 161.772C60.5942 158.431 59.0391 154.569 55.6984 153.146C52.3572 151.723 48.4954 153.278 47.0724 156.619Z" fill="#FFE6DE"/>
<path d="M59.4539 162.675C61.6033 159.748 60.9731 155.633 58.0462 153.484C55.1193 151.334 51.0042 151.964 48.8547 154.891C46.7053 157.818 47.3356 161.933 50.2625 164.083C53.1894 166.232 57.3045 165.602 59.4539 162.675Z" fill="#FFE6DE"/>
<path d="M53.5838 164.908C51.2401 164.605 49.1121 162.933 48.3226 160.694C47.4993 158.36 48.1701 155.672 49.9174 153.941C50.1816 153.679 49.7732 153.271 49.509 153.533C47.587 155.436 46.8455 158.45 47.8222 161.002C48.7522 163.431 51.0188 165.154 53.5838 165.485C53.9511 165.533 53.9479 164.955 53.5838 164.908Z" fill="white"/>
<path d="M60.45 158.771C57.2632 158.36 54.062 158.075 50.8525 157.917C50.481 157.899 50.4819 158.477 50.8525 158.495C54.062 158.652 57.2632 158.938 60.45 159.349C60.8178 159.396 60.8141 158.818 60.45 158.771Z" fill="white"/>
<path d="M46.9781 150.18C50.5474 149.512 52.8992 146.077 52.231 142.507C51.5629 138.938 48.1277 136.586 44.5585 137.255C40.9892 137.923 38.6374 141.358 39.3055 144.927C39.9737 148.496 43.4088 150.848 46.9781 150.18Z" fill="#FFE6DE"/>
<path d="M40.754 140.729C39.3311 144.07 40.8862 147.932 44.2269 149.355C47.5681 150.778 51.4299 149.223 52.8529 145.882C54.2759 142.541 52.7208 138.679 49.3801 137.256C46.0389 135.833 42.177 137.388 40.754 140.729Z" fill="#FFE6DE"/>
<path d="M46.2283 149.435C43.8846 149.132 41.7566 147.46 40.9671 145.221C40.1438 142.886 40.8146 140.199 42.5619 138.468C42.8262 138.206 42.4178 137.797 42.1535 138.059C40.2316 139.963 39.4901 142.977 40.4667 145.529C41.3967 147.958 43.6633 149.681 46.2283 150.013C46.5961 150.06 46.5924 149.482 46.2283 149.435Z" fill="white"/>
<path d="M53.0965 143.298C49.9097 142.887 46.7085 142.602 43.4989 142.444C43.1275 142.426 43.1284 143.004 43.4989 143.022C46.7085 143.179 49.9097 143.464 53.0965 143.876C53.4638 143.923 53.4606 143.345 53.0965 143.298Z" fill="white"/>
<path d="M40.2125 134.794C43.7818 134.126 46.1336 130.691 45.4654 127.122C44.7972 123.552 41.3621 121.201 37.7928 121.869C34.2236 122.537 31.8717 125.972 32.5399 129.541C33.2081 133.111 36.6432 135.462 40.2125 134.794Z" fill="#FFE6DE"/>
<path d="M41.4943 134.328C45.0345 133.52 47.2495 129.995 46.4415 126.454C45.6335 122.914 42.1086 120.699 38.5683 121.507C35.0281 122.315 32.8132 125.84 33.6212 129.38C34.4292 132.921 37.9541 135.136 41.4943 134.328Z" fill="#FFE6DE"/>
<path d="M39.4627 134.048C37.1195 133.745 34.991 132.073 34.2015 129.834C33.3782 127.5 34.049 124.812 35.7963 123.081C36.0605 122.819 35.6521 122.411 35.3879 122.673C33.466 124.577 32.7244 127.59 33.7011 130.142C34.6311 132.572 36.8977 134.294 39.4627 134.626C39.83 134.673 39.8268 134.095 39.4627 134.048Z" fill="white"/>
<path d="M46.3309 127.912C43.144 127.501 39.9428 127.216 36.7333 127.058C36.3619 127.04 36.3628 127.618 36.7333 127.636C39.9428 127.794 43.144 128.078 46.3309 128.489C46.6987 128.536 46.695 127.958 46.3309 127.912Z" fill="white"/>
<path d="M38.7808 113.562C39.116 109.946 36.4565 106.743 32.8408 106.408C29.225 106.073 26.0221 108.732 25.687 112.348C25.3518 115.964 28.0112 119.167 31.627 119.502C35.2428 119.837 38.4456 117.178 38.7808 113.562Z" fill="#FFE6DE"/>
<path d="M39.8319 112.944C40.0611 109.319 37.3089 106.196 33.6848 105.967C30.0607 105.737 26.937 108.49 26.7079 112.114C26.4787 115.738 29.2309 118.862 32.855 119.091C36.4791 119.32 39.6028 116.568 39.8319 112.944Z" fill="#FFE6DE"/>
<path d="M32.6971 118.662C30.3538 118.359 28.2254 116.687 27.4358 114.448C26.6126 112.113 27.2834 109.426 29.0307 107.695C29.2949 107.433 28.8865 107.025 28.6223 107.286C26.7003 109.19 25.9588 112.204 26.9355 114.756C27.8655 117.185 30.1321 118.908 32.6971 119.24C33.0648 119.287 33.0611 118.709 32.6971 118.662Z" fill="white"/>
<path d="M39.5653 112.525C36.3784 112.114 33.1772 111.829 29.9677 111.671C29.5962 111.653 29.5972 112.231 29.9677 112.249C33.1772 112.407 36.3784 112.691 39.5653 113.103C39.9326 113.15 39.9293 112.572 39.5653 112.525Z" fill="white"/>
<path d="M65.5896 159.316C61.7758 152.638 58.2355 145.806 54.9858 138.836C51.7162 131.824 48.7405 124.676 46.0683 117.416C44.5608 113.321 43.1517 109.191 41.8373 105.03C41.7259 104.677 41.1678 104.827 41.2806 105.183C43.6183 112.584 46.2609 119.888 49.2071 127.069C52.1353 134.206 55.3568 141.223 58.8657 148.094C60.8504 151.98 62.9276 155.819 65.0916 159.607C65.2755 159.93 65.7744 159.64 65.5896 159.316Z" fill="#FFE6DE"/>
<path d="M200.193 106.295C200.193 106.295 201.146 103.553 198.242 102.212C195.337 100.87 187.095 97.7902 185.661 98.2536C184.227 98.7165 182.283 103.09 184.663 104.56C187.043 106.03 196.041 109.044 197.375 109.087C198.05 109.108 199.867 108.194 200.193 106.295Z" fill="white"/>
<path d="M192.994 100.617C193.745 102.811 193.088 105.335 191.362 106.883C191.085 107.132 191.494 107.539 191.77 107.292C193.639 105.616 194.364 102.839 193.551 100.464C193.431 100.114 192.873 100.264 192.994 100.617Z" fill="#FFE6DE"/>
<path d="M49.1829 53.3392C49.1829 53.3392 51.3349 51.3914 49.4305 48.8203C47.5261 46.2493 41.7747 39.5919 40.294 39.3096C38.8133 39.0273 35.0087 41.931 36.391 44.3625C37.7733 46.794 44.221 53.7577 45.37 54.4355C45.9526 54.7788 47.9854 54.849 49.1829 53.3392Z" fill="white"/>
<path d="M45.5938 44.8926C45.2053 47.1754 43.4141 49.0908 41.1558 49.6152C40.7941 49.6993 40.947 50.256 41.3092 50.1719C43.7444 49.6064 45.7305 47.5131 46.1505 45.0455C46.2124 44.6824 45.6562 44.5263 45.5938 44.8926Z" fill="#FFE6DE"/>
<path d="M127.54 29.4133C127.54 29.4133 129.636 31.4221 132.065 29.3407C134.495 27.2594 140.729 21.0506 140.906 19.5537C141.082 18.0569 137.916 14.4671 135.589 16.0181C133.261 17.569 126.771 24.4934 126.177 25.6877C125.875 26.2929 125.95 28.3257 127.54 29.4133Z" fill="white"/>
<path d="M135.655 25.2304C133.388 25.0068 131.363 23.3343 130.692 21.1629C130.583 20.809 130.025 20.9601 130.135 21.3163C130.887 23.751 133.124 25.5584 135.655 25.8074C136.024 25.8444 136.021 25.2664 135.655 25.2304Z" fill="#FFE6DE"/>
<path d="M202.157 57.5074C202.157 57.5074 199.697 57.5892 196.682 57.7005C196.57 54.8325 196.459 52.5243 196.391 52.3423C196.213 51.8687 190.672 52.2124 190.676 52.7802C190.676 52.7802 190.681 55.0593 190.761 57.9343C188.065 58.0507 185.909 58.1639 185.737 58.2346C185.284 58.4203 185.613 64.2147 186.156 64.2106C186.156 64.2106 188.317 64.205 191.051 64.1223C191.26 66.965 191.587 69.2783 192.094 69.4829C192.694 69.7246 197.086 69.512 197.086 69.512C197.086 69.512 197.009 66.9618 196.903 63.8262C199.666 63.6077 201.93 63.2649 202.128 62.7276C202.36 62.1006 202.157 57.5074 202.157 57.5074Z" fill="white"/>
<path d="M164.192 23.1418L164.794 21.3086L165.478 23.1418C165.478 23.1418 166.844 23.3742 166.86 23.5012C166.875 23.626 165.552 24.0159 165.552 24.0159C165.552 24.0159 164.997 25.7932 164.794 25.3908C164.591 24.9884 164.394 24.0972 164.394 24.0972C164.394 24.0972 162.674 23.7401 162.674 23.5645C162.674 23.3742 164.192 23.1418 164.192 23.1418Z" fill="white"/>
<path d="M197.319 83.4392L197.921 81.606L198.605 83.4392C198.605 83.4392 199.971 83.6716 199.987 83.7991C200.002 83.9238 198.679 84.3137 198.679 84.3137C198.679 84.3137 198.124 86.0911 197.921 85.6887C197.718 85.2863 197.521 84.3951 197.521 84.3951C197.521 84.3951 195.801 84.0379 195.801 83.8624C195.801 83.672 197.319 83.4392 197.319 83.4392Z" fill="white"/>
<path d="M139.45 182.868L140.052 181.035L140.736 182.868C140.736 182.868 142.102 183.1 142.117 183.228C142.133 183.353 140.81 183.742 140.81 183.742C140.81 183.742 140.255 185.52 140.052 185.117C139.849 184.715 139.652 183.824 139.652 183.824C139.652 183.824 137.932 183.467 137.932 183.291C137.932 183.101 139.45 182.868 139.45 182.868Z" fill="white"/>
<path d="M29.1451 51.1589L29.7471 49.3257L30.4308 51.1589C30.4308 51.1589 31.7965 51.3913 31.8127 51.5183C31.8284 51.6431 30.5052 52.033 30.5052 52.033C30.5052 52.033 29.9499 53.8103 29.7471 53.4079C29.5443 53.0055 29.347 52.1143 29.347 52.1143C29.347 52.1143 27.627 51.7572 27.627 51.5816C27.6274 51.3917 29.1451 51.1589 29.1451 51.1589Z" fill="white"/>
<path d="M198.055 34.3431C195.418 31.8852 190.84 31.0827 187.328 31.8977C183.816 32.7127 180.783 35.3581 179.498 38.7265C178.959 40.1412 178.715 41.7018 179.034 43.182C179.354 44.6623 180.288 46.0464 181.652 46.7029C180.885 47.5147 179.964 48.1809 178.956 48.6609C178.513 48.872 178.501 49.6163 178.986 49.6944C181.276 50.0631 183.146 49.8233 184.626 48.8462C187.032 50.0857 190.593 49.9148 193.282 49.602C195.971 49.2888 198.596 47.7993 199.873 45.4126C201.527 42.319 201.455 37.2648 198.055 34.3431Z" fill="url(#paint1_linear_7199_47871)"/>
<path d="M182.433 43.0947C184.187 42.5325 185.613 41.152 186.149 39.3742C186.349 38.709 186.443 37.8076 185.797 37.3502C185.156 36.8961 184.345 37.2971 183.979 37.9018C182.96 39.5886 184.035 42.3518 185.387 43.5544C186.847 44.8536 188.95 44.7732 190.182 43.2171C191.09 42.0714 191.952 38.7491 190.054 38.0497C188.123 37.3377 187.956 40.332 188.32 41.45C188.913 43.2754 190.635 44.5034 192.569 44.3047C194.39 44.1176 195.781 42.714 195.933 40.8882C196.003 40.0354 195.778 38.8914 195.069 38.331C194.338 37.7535 193.636 38.3509 193.497 39.1261C193.096 41.3701 195.076 43.2726 197.209 43.3373C197.663 43.3511 197.662 42.6457 197.209 42.6323C195.805 42.5898 194.569 41.6745 194.247 40.2802C194.179 39.9864 194.147 39.6755 194.178 39.3747C194.21 39.0605 194.154 39.0675 194.53 39.0924C194.923 39.1187 194.772 39.067 194.928 39.2814C195.288 39.7743 195.294 40.611 195.187 41.1802C194.674 43.8866 191.049 44.4114 189.512 42.2682C188.928 41.4542 188.402 39.8348 189.144 38.9543C189.465 38.574 190.01 38.6923 190.246 39.1197C190.446 39.4842 190.438 39.9707 190.42 40.3745C190.39 41.091 190.232 41.8381 189.854 42.4567C189.114 43.669 187.704 44.1485 186.43 43.4412C185.261 42.7926 184.608 41.4001 184.383 40.1291C184.303 39.6768 184.268 39.1959 184.391 38.7468C184.425 38.6202 184.466 38.5029 184.525 38.3856C184.634 38.1712 184.988 37.7651 185.289 37.8718C186.008 38.1264 185.364 39.5512 185.169 39.936C184.567 41.122 183.508 42.009 182.245 42.4133C181.814 42.5528 181.998 43.2338 182.433 43.0947Z" fill="white"/>
<path d="M79.5936 210.67C79.5936 210.67 79.3515 207.777 76.1526 207.731C72.9537 207.684 65.5844 208.381 64.4617 209.386C63.3391 210.391 63.3377 215.178 66.1092 215.555C68.8808 215.932 76.9154 214.868 78.1512 214.366C78.7773 214.111 80.0667 212.538 79.5936 210.67Z" fill="url(#paint2_linear_7199_47871)"/>
<path d="M70.7278 208.425C72.2741 210.094 72.7135 212.671 71.7807 214.751C71.6301 215.088 72.1272 215.382 72.2792 215.043C73.3224 212.716 72.8729 209.891 71.1358 208.017C70.883 207.744 70.4756 208.153 70.7278 208.425Z" fill="#421B36"/>
<path d="M131.677 170.54H106.473C106.473 170.54 107.442 205.652 108.496 206.605C109.314 208.302 114.265 209.607 119.977 209.607C126.232 209.607 131.304 208.042 131.304 206.111C131.304 206.085 131.299 206.059 131.297 206.032C131.982 201.672 131.677 170.54 131.677 170.54Z" fill="white"/>
<path d="M119.94 206.955C115.218 206.955 112.025 206.278 111.212 205.879C110.66 203.9 109.865 194.538 109.502 186.228H128.794C128.885 194.236 128.693 203.767 128.291 205.955C127.367 206.356 124.406 206.955 119.94 206.955Z" fill="#421B36"/>
<path d="M133.492 174.959C133.492 177.638 127.107 179.811 119.23 179.811C111.352 179.811 104.621 177.638 104.621 174.959C104.621 172.279 111.352 170.107 119.23 170.107C127.107 170.107 133.492 172.279 133.492 174.959Z" fill="url(#paint3_linear_7199_47871)"/>
<path d="M104.621 169.478C104.621 169.478 104.164 174.49 104.621 174.959C105.077 175.429 133.492 174.959 133.492 174.959C133.492 174.959 133.668 169.449 133.392 168.911C133.116 168.373 104.621 169.478 104.621 169.478Z" fill="url(#paint4_linear_7199_47871)"/>
<path d="M133.492 169.389C133.492 171.737 127.107 173.641 119.23 173.641C111.352 173.641 104.621 171.737 104.621 169.389C104.621 167.041 111.352 165.137 119.23 165.137C127.107 165.138 133.492 167.041 133.492 169.389Z" fill="url(#paint5_linear_7199_47871)"/>
<path d="M119.23 173.872C112.094 173.872 104.391 172.158 104.391 169.39C104.391 166.621 112.093 164.907 119.23 164.907C127.358 164.907 133.724 166.876 133.724 169.39C133.724 171.903 127.358 173.872 119.23 173.872ZM119.23 165.369C111.571 165.369 104.853 167.247 104.853 169.39C104.853 171.531 111.571 173.41 119.23 173.41C127.624 173.41 133.262 171.331 133.262 169.39C133.262 167.448 127.624 165.369 119.23 165.369Z" fill="#421B36"/>
<path d="M128.794 186.228C128.794 187.848 124.475 189.16 119.148 189.16C113.821 189.16 109.502 187.848 109.502 186.228C109.502 184.609 113.821 183.296 119.148 183.296C124.475 183.296 128.794 184.609 128.794 186.228Z" fill="#421B36"/>
<path d="M119.148 189.391C114.293 189.391 109.271 188.208 109.271 186.228C109.271 184.248 114.293 183.065 119.148 183.065C124.003 183.065 129.025 184.248 129.025 186.228C129.025 188.207 124.003 189.391 119.148 189.391ZM119.148 183.527C113.516 183.527 109.733 184.924 109.733 186.228C109.733 187.532 113.517 188.929 119.148 188.929C124.78 188.929 128.563 187.532 128.563 186.228C128.563 184.924 124.78 183.527 119.148 183.527Z" fill="white"/>
<path d="M117.927 197.534C122.366 196.556 126.551 194.613 130.16 191.85C130.451 191.627 130.164 191.125 129.869 191.351C126.295 194.087 122.169 196.009 117.774 196.977C117.411 197.057 117.564 197.614 117.927 197.534Z" fill="white"/>
<path d="M124.339 197.945C125.735 197.264 127.13 196.584 128.526 195.903C128.86 195.74 128.567 195.242 128.234 195.405C126.839 196.085 125.443 196.766 124.048 197.446C123.714 197.609 124.006 198.107 124.339 197.945Z" fill="white"/>
<path d="M105.777 171.589C105.035 173.397 105.087 175.443 105.865 177.228C106.014 177.568 106.511 177.274 106.364 176.936C105.646 175.29 105.655 173.398 106.333 171.742C106.474 171.399 105.916 171.249 105.777 171.589Z" fill="#421B36"/>
<path d="M109.241 172.548C108.921 174.615 109.094 176.725 109.774 178.705C109.894 179.054 110.452 178.904 110.331 178.551C109.686 176.674 109.494 174.665 109.798 172.702C109.854 172.338 109.298 172.181 109.241 172.548Z" fill="#421B36"/>
<path d="M114.434 173.646C114.437 175.413 114.517 177.178 114.674 178.938C114.707 179.306 115.284 179.309 115.251 178.938C115.095 177.178 115.014 175.413 115.011 173.646C115.01 173.274 114.433 173.273 114.434 173.646Z" fill="#421B36"/>
<path d="M119.411 173.998C119.8 175.91 119.899 177.866 119.719 179.809C119.685 180.179 120.262 180.177 120.296 179.809C120.482 177.815 120.367 175.807 119.968 173.844C119.894 173.48 119.337 173.634 119.411 173.998Z" fill="#421B36"/>
<path d="M123.936 173.693C124.6 175.476 124.854 177.373 124.682 179.268C124.648 179.638 125.226 179.636 125.259 179.268C125.436 177.328 125.173 175.365 124.493 173.54C124.364 173.195 123.805 173.344 123.936 173.693Z" fill="#421B36"/>
<path d="M128.872 172.854C129.504 174.479 129.592 176.201 129.593 177.926C129.594 178.298 130.171 178.298 130.171 177.926C130.169 176.155 130.078 174.369 129.429 172.7C129.296 172.358 128.738 172.507 128.872 172.854Z" fill="#421B36"/>
<path d="M108.419 187.383C108.175 187.257 108.844 200.874 108.844 200.874C108.844 200.874 111.693 203.774 115.946 203.926L115.437 190.301C115.437 190.301 111.074 188.756 108.419 187.383Z" fill="white"/>
<path d="M105.922 177.994H76.6992C76.6992 177.994 77.8228 218.705 79.0453 219.809C79.9933 221.776 85.7336 223.29 92.3564 223.29C99.6093 223.29 105.489 221.475 105.489 219.237C105.489 219.206 105.484 219.176 105.482 219.145C106.276 214.09 105.922 177.994 105.922 177.994Z" fill="white"/>
<path d="M92.3551 223.521C85.6534 223.521 79.8511 221.975 78.8421 219.922C77.6307 217.998 76.6531 184.728 76.4674 178.001L76.4609 177.763H106.15L106.152 177.992C106.167 179.463 106.496 214.029 105.713 219.151C105.717 219.19 105.719 219.213 105.719 219.237C105.719 221.639 99.8492 223.521 92.3551 223.521ZM76.9359 178.225C77.3849 194.388 78.3537 218.586 79.2052 219.644L79.2523 219.71C80.1579 221.588 85.913 223.059 92.3551 223.059C100.073 223.059 105.257 221.083 105.257 219.237L105.248 219.136L105.252 219.109C106.002 214.34 105.72 181.311 105.692 178.225H76.9359Z" fill="#421B36"/>
<path d="M92.3135 220.216C86.8383 220.216 83.1359 219.431 82.1934 218.968C81.5535 216.673 80.6314 205.818 80.2109 196.184H102.579C102.685 205.469 102.462 216.519 101.995 219.056C100.925 219.521 97.4907 220.216 92.3135 220.216Z" fill="url(#paint6_linear_7199_47871)"/>
<path d="M108.027 183.118C108.027 186.225 100.623 188.744 91.4901 188.744C82.3573 188.744 74.5527 186.225 74.5527 183.118C74.5527 180.012 82.3573 177.493 91.4901 177.493C100.623 177.493 108.027 180.012 108.027 183.118Z" fill="#421B36"/>
<path d="M74.5517 176.763C74.5517 176.763 74.0223 182.575 74.5517 183.118C75.0812 183.662 108.026 183.118 108.026 183.118C108.026 183.118 108.23 176.73 107.91 176.106C107.59 175.482 74.5517 176.763 74.5517 176.763Z" fill="#421B36"/>
<path d="M108.025 176.66C108.025 179.383 100.621 181.59 91.4882 181.59C82.3553 181.59 74.5508 179.383 74.5508 176.66C74.5508 173.938 82.3553 171.731 91.4882 171.731C100.621 171.731 108.025 173.938 108.025 176.66Z" fill="#421B36"/>
<path d="M91.4887 181.821C82.0219 181.821 74.3203 179.506 74.3203 176.661C74.3203 173.815 82.0223 171.5 91.4887 171.5C100.891 171.5 108.256 173.767 108.256 176.661C108.256 179.555 100.891 181.821 91.4887 181.821ZM91.4887 171.962C82.5892 171.962 74.7823 174.157 74.7823 176.661C74.7823 179.164 82.5892 181.359 91.4887 181.359C100.327 181.359 107.794 179.208 107.794 176.661C107.794 174.114 100.327 171.962 91.4887 171.962Z" fill="url(#paint7_linear_7199_47871)"/>
<path d="M91.3946 199.583C97.5711 199.583 102.578 198.061 102.578 196.184C102.578 194.307 97.5711 192.785 91.3946 192.785C85.218 192.785 80.2109 194.307 80.2109 196.184C80.2109 198.061 85.218 199.583 91.3946 199.583Z" fill="url(#paint8_linear_7199_47871)"/>
<path d="M91.3951 199.814C84.9941 199.814 79.9805 198.22 79.9805 196.184C79.9805 194.148 84.9941 192.554 91.3951 192.554C97.7957 192.554 102.81 194.148 102.81 196.184C102.81 198.22 97.7957 199.814 91.3951 199.814ZM91.3951 193.016C84.8435 193.016 80.4425 194.654 80.4425 196.184C80.4425 197.714 84.8435 199.353 91.3951 199.353C97.9467 199.353 102.348 197.714 102.348 196.184C102.348 194.654 97.9467 193.016 91.3951 193.016Z" fill="white"/>
<path d="M89.966 209.248C95.1067 208.118 99.9604 205.864 104.138 202.662C104.429 202.439 104.142 201.937 103.847 202.164C99.704 205.339 94.9103 207.571 89.8126 208.691C89.4499 208.771 89.6033 209.328 89.966 209.248Z" fill="white"/>
<path d="M97.3903 209.729C99.0083 208.94 100.626 208.151 102.244 207.362C102.578 207.199 102.285 206.701 101.952 206.863C100.334 207.652 98.7163 208.441 97.0984 209.231C96.7648 209.393 97.0572 209.892 97.3903 209.729Z" fill="white"/>
<path d="M75.935 179.224C75.0808 181.308 75.1362 183.667 76.0334 185.726C76.1817 186.066 76.6793 185.772 76.5319 185.434C75.6952 183.515 75.6999 181.309 76.4917 179.377C76.6326 179.033 76.0741 178.884 75.935 179.224Z" fill="url(#paint9_linear_7199_47871)"/>
<path d="M79.9522 180.335C79.5826 182.723 79.785 185.161 80.5699 187.449C80.69 187.798 81.2477 187.648 81.1266 187.295C80.3768 185.111 80.1555 182.773 80.5089 180.489C80.5653 180.126 80.009 179.969 79.9522 180.335Z" fill="url(#paint10_linear_7199_47871)"/>
<path d="M85.9727 181.595C85.9768 183.644 86.0697 185.691 86.2512 187.731C86.2841 188.099 86.862 188.102 86.8287 187.731C86.6472 185.691 86.5543 183.644 86.5502 181.595C86.5492 181.224 85.9717 181.223 85.9727 181.595Z" fill="url(#paint11_linear_7199_47871)"/>
<path d="M91.7431 181.991C92.1949 184.212 92.3113 186.485 92.1016 188.741C92.0674 189.111 92.6449 189.109 92.6791 188.741C92.8939 186.433 92.7622 184.109 92.3002 181.838C92.2259 181.474 91.6692 181.628 91.7431 181.991Z" fill="url(#paint12_linear_7199_47871)"/>
<path d="M96.9903 181.639C97.7618 183.71 98.057 185.914 97.857 188.115C97.8233 188.485 98.4012 188.482 98.4345 188.115C98.6387 185.87 98.3347 183.598 97.5474 181.486C97.4181 181.141 96.86 181.29 96.9903 181.639Z" fill="url(#paint13_linear_7199_47871)"/>
<path d="M101.867 180.665C102.626 182.596 103.193 184.594 103.562 186.635C103.629 187 104.185 186.846 104.119 186.482C103.75 184.441 103.182 182.443 102.424 180.512C102.289 180.17 101.731 180.319 101.867 180.665Z" fill="url(#paint14_linear_7199_47871)"/>
<path d="M78.8738 197.107C78.6299 196.981 79.2989 210.598 79.2989 210.598C79.2989 210.598 82.1485 213.498 86.4007 213.65L85.8916 200.025C85.8916 200.025 81.529 198.48 78.8738 197.107Z" fill="white"/>
<path d="M56.7612 178.063C56.7612 178.063 54.5126 179.899 56.283 182.564C58.0534 185.228 63.4588 192.171 64.9229 192.528C66.387 192.885 70.3347 190.179 69.0781 187.681C67.8215 185.182 61.7374 177.898 60.6244 177.163C60.0603 176.791 58.034 176.617 56.7612 178.063Z" fill="url(#paint15_linear_7199_47871)"/>
<path d="M59.9182 186.668C60.4232 184.407 62.3216 182.596 64.6011 182.188C64.9665 182.123 64.8117 181.567 64.4477 181.632C61.9843 182.073 59.9058 184.075 59.3615 186.515C59.2807 186.877 59.8369 187.032 59.9182 186.668Z" fill="#421B36"/>
<path d="M46.9035 201.977C46.9035 201.977 46.6984 204.872 49.852 205.41C53.0056 205.947 61.7651 206.771 63.0292 205.95C64.2932 205.129 65.0292 200.4 62.3486 199.602C59.6681 198.804 50.1943 198.24 48.8961 198.547C48.2387 198.702 46.7229 200.059 46.9035 201.977Z" fill="white"/>
<path d="M55.3351 205.581C54.0392 203.658 54.0134 201.054 55.2751 199.107C55.4779 198.795 54.978 198.505 54.7766 198.816C53.4105 200.924 53.4326 203.789 54.8366 205.873C55.0432 206.18 55.5435 205.891 55.3351 205.581Z" fill="#421B36"/>
<path d="M48.1949 13.364C48.1949 13.364 43.387 166.958 49.0597 168.473C58.6339 171.028 155.732 173.985 159.685 167.895C163.639 161.805 165.172 19.4566 162.759 13.5831C160.746 8.68475 48.2224 10.1496 48.1949 13.364Z" fill="#421B36"/>
<path d="M53.7438 16.6321C53.7438 16.6321 49.3551 157.438 54.5337 158.826C63.2728 161.169 151.903 163.879 155.512 158.296C159.12 152.714 160.52 22.2173 158.317 16.8328C156.48 12.3423 53.769 13.6853 53.7438 16.6321Z" fill="white"/>
<path d="M84.0442 33.1635C84.0442 33.1635 80.9996 33.2647 77.2664 33.4026C77.1268 29.8518 76.9901 26.9937 76.9061 26.7689C76.6859 26.1826 69.8257 26.6082 69.8308 27.3117C69.8308 27.3117 69.8377 30.1332 69.936 33.692C66.5975 33.8361 63.9281 33.9763 63.7153 34.0638C63.1548 34.2937 63.5615 41.4673 64.2341 41.4622C64.2341 41.4622 66.9109 41.4553 70.2947 41.353C70.5538 44.8723 70.9576 47.7361 71.5856 47.9895C72.3286 48.2886 77.7663 48.0255 77.7663 48.0255C77.7663 48.0255 77.6702 44.8683 77.5392 40.9863C80.9607 40.7158 83.7634 40.2914 84.0088 39.6262C84.2959 38.85 84.0442 33.1635 84.0442 33.1635Z" fill="#E75634"/>
<path d="M99.5996 31.0231C99.5996 31.0231 99.6522 35.5091 100.153 35.584C102.413 35.9232 152.297 36.0588 152.633 34.8896C152.813 34.2622 152.926 30.2962 152.131 30.271C149.893 30.2001 99.7106 29.9095 99.5996 31.0231Z" fill="white"/>
<path d="M127.685 40.234C135.412 40.234 143.138 40.234 150.865 40.234C151.325 40.234 151.326 39.519 150.865 39.519C143.138 39.519 135.412 39.519 127.685 39.519C127.225 39.519 127.224 40.234 127.685 40.234Z" fill="#421B36"/>
<path d="M112.189 44.1407C122.27 44.1407 132.352 44.1407 142.433 44.1407C145.32 44.1407 148.207 44.1407 151.094 44.1407C151.554 44.1407 151.555 43.4258 151.094 43.4258C141.013 43.4258 130.932 43.4258 120.85 43.4258C117.963 43.4258 115.076 43.4258 112.189 43.4258C111.729 43.4258 111.728 44.1407 112.189 44.1407Z" fill="#421B36"/>
<path d="M158.705 24.9523C158.537 20.6214 158.313 17.8353 158.029 17.1398C156.894 14.3657 117.254 13.8178 87.1152 14.4996C87.1684 14.634 90.8159 23.7918 95.2578 24.7573C99.7323 25.7296 158.38 26.1472 158.38 26.1472L158.705 24.9523Z" fill="#FFD5CC"/>
<path d="M150.187 160.327C149.872 158.79 147.339 147.751 139.273 145.763C130.903 143.698 57.2925 143.924 52.1797 143.942C52.5623 153.054 53.2138 158.856 54.2445 159.132C61.8894 161.181 130.661 163.512 150.187 160.327Z" fill="#FFD5CC"/>
<path d="M52.8179 16.6376C52.7905 17.5127 52.7647 18.3884 52.7384 19.2635C52.6669 21.6778 52.5983 24.0927 52.5314 26.507C52.4301 30.1658 52.3335 33.8253 52.2408 37.4848C52.1241 42.0943 52.0138 46.7037 51.9102 51.3132C51.7924 56.5782 51.6832 61.8438 51.5842 67.1093C51.4784 72.7598 51.3846 78.4103 51.3062 84.0613C51.2273 89.7547 51.1638 95.4475 51.1226 101.141C51.0832 106.606 51.0631 112.071 51.0763 117.535C51.0877 122.496 51.1249 127.457 51.2124 132.417C51.2845 136.538 51.388 140.659 51.5739 144.776C51.7095 147.785 51.8736 150.8 52.2054 153.795C52.3827 155.397 52.4822 157.258 53.1851 158.742C53.3973 159.189 53.649 159.422 54.1335 159.535C55.0927 159.759 56.0805 159.876 57.0568 159.994C60.5269 160.413 64.0217 160.646 67.5095 160.864C72.5263 161.179 77.5487 161.41 82.5718 161.602C88.4647 161.826 94.3595 161.99 100.256 162.1C106.284 162.212 112.314 162.268 118.344 162.246C123.844 162.225 129.345 162.145 134.842 161.934C139.128 161.77 143.424 161.55 147.686 161.057C149.178 160.884 150.672 160.682 152.143 160.369C153.092 160.167 154.082 159.936 154.948 159.481C156.121 158.864 156.262 157.579 156.466 156.381C156.888 153.902 157.095 151.382 157.295 148.877C157.602 145.039 157.82 141.194 158.012 137.348C158.253 132.512 158.443 127.672 158.609 122.833C158.798 117.317 158.953 111.799 159.085 106.281C159.226 100.392 159.341 94.5015 159.435 88.6108C159.529 82.7286 159.601 76.8459 159.651 70.9627C159.699 65.394 159.727 59.8253 159.729 54.2566C159.731 49.3319 159.714 44.4079 159.663 39.4832C159.623 35.5332 159.563 31.5826 159.449 27.6337C159.372 24.9804 159.289 22.3224 159.078 19.6759C159.018 18.9232 158.954 18.1659 158.824 17.4218C158.746 16.9751 158.662 16.5661 158.281 16.2807C157.768 15.8975 157.059 15.7408 156.448 15.5972C155.349 15.3381 154.226 15.1808 153.107 15.039C149.604 14.5951 146.068 14.3852 142.543 14.2056C137.757 13.962 132.965 13.8235 128.174 13.7286C122.652 13.6194 117.128 13.5736 111.605 13.5696C105.873 13.5656 100.14 13.6085 94.4081 13.696C89.0619 13.7772 83.7157 13.8973 78.3718 14.0724C73.9345 14.2176 69.4971 14.3967 65.0649 14.6649C62.069 14.8462 59.061 15.0367 56.0856 15.4451C55.4479 15.5326 52.8591 15.6247 52.8179 16.6376C52.7991 17.0975 53.514 17.0969 53.5329 16.6376C53.5277 16.7606 53.4671 16.7417 53.514 16.7446C53.5163 16.7446 53.4391 16.7761 53.5329 16.7366C53.5752 16.7189 53.6135 16.6914 53.6564 16.6731C53.5901 16.7011 53.816 16.6148 53.8995 16.5884C54.0402 16.5438 54.1838 16.5078 54.3268 16.4735C55.1887 16.267 56.0747 16.1543 56.9533 16.0485C60.098 15.6699 63.2672 15.4783 66.4285 15.3004C70.9534 15.0464 75.4828 14.8743 80.0122 14.7353C85.375 14.5711 90.74 14.4596 96.1045 14.3864C101.771 14.3091 107.439 14.2748 113.106 14.2868C118.543 14.2983 123.981 14.3515 129.417 14.4693C134.092 14.5705 138.768 14.7152 143.437 14.9675C146.807 15.1499 150.19 15.357 153.536 15.81C154.566 15.9496 155.602 16.1074 156.608 16.3734C156.896 16.4495 157.344 16.5907 157.511 16.6674C157.761 16.7818 157.87 16.8487 157.982 16.9682C157.978 16.9642 157.977 16.9345 158 17.026C158.022 17.1141 158.049 17.2004 158.07 17.2885C158.125 17.523 158.172 17.8393 158.196 18.0252C158.299 18.7888 158.368 19.7045 158.424 20.5259C158.613 23.3222 158.696 26.126 158.768 28.927C158.873 32.9776 158.927 37.03 158.963 41.0819C159.007 46.0534 159.018 51.0261 159.011 55.9977C159.003 61.5681 158.971 67.1385 158.919 72.7083C158.865 78.555 158.789 84.4011 158.692 90.2472C158.596 96.0475 158.478 101.848 158.335 107.648C158.201 113.08 158.045 118.512 157.854 123.944C157.688 128.686 157.496 133.429 157.254 138.168C157.063 141.9 156.847 145.631 156.54 149.356C156.345 151.734 156.152 154.133 155.724 156.484C155.623 157.038 155.484 157.774 155.29 158.212C155.224 158.36 155.163 158.473 154.998 158.605C154.87 158.709 154.445 158.941 154.225 159.032C151.809 160.031 148.96 160.222 146.389 160.482C141.981 160.929 137.548 161.134 133.121 161.281C127.579 161.465 122.034 161.53 116.489 161.535C110.494 161.541 104.499 161.474 98.5057 161.351C92.7534 161.233 87.0017 161.064 81.2522 160.836C76.3619 160.641 71.4721 160.408 66.5881 160.09C63.2558 159.873 59.9138 159.648 56.6004 159.221C55.7504 159.112 54.8873 159.002 54.058 158.779C54.0814 158.786 54.0471 158.772 54.0454 158.77C53.935 158.641 54.0088 158.75 53.943 158.647C53.7863 158.404 53.7783 158.347 53.6953 158.104C53.1159 156.406 52.981 154.52 52.8105 152.748C52.5074 149.605 52.3512 146.448 52.2242 143.294C52.0549 139.088 51.9611 134.88 51.8976 130.672C51.8221 125.696 51.7924 120.719 51.7873 115.743C51.7815 110.286 51.8061 104.827 51.8502 99.3695C51.8959 93.7167 51.9623 88.0645 52.0435 82.4118C52.1236 76.8517 52.2179 71.2915 52.3243 65.7314C52.4233 60.5505 52.532 55.3702 52.6492 50.1899C52.7516 45.6759 52.8603 41.1619 52.9752 36.6485C53.0662 33.0886 53.1605 29.5287 53.2595 25.9687C53.3241 23.6494 53.3905 21.3306 53.4591 19.0119C53.4826 18.2197 53.506 17.427 53.5312 16.6348C53.5472 16.1772 52.8322 16.1778 52.8179 16.6376Z" fill="#421B36"/>
<path d="M62.2804 57.6072C62.2804 57.6072 61.0123 61.8849 62.2804 62.3945C63.5484 62.9042 127.492 63.2016 128.398 62.0428C129.303 60.884 128.398 59.0725 128.398 58.2952C128.398 57.5174 62.2804 57.6072 62.2804 57.6072Z" fill="white"/>
<path d="M66.6162 72.9313C66.6162 72.9313 66.2405 77.2091 66.6162 77.7187C66.992 78.2283 85.9356 78.5258 86.2039 77.367C86.4721 76.2081 86.2039 74.3967 86.2039 73.6194C86.2039 72.8421 66.6162 72.9313 66.6162 72.9313Z" fill="white"/>
<path d="M66.6162 83.0193C66.6162 83.0193 66.2405 87.297 66.6162 87.8066C66.992 88.3163 85.9356 88.6137 86.2039 87.4549C86.4721 86.2961 86.2039 84.4847 86.2039 83.7074C86.2039 82.9295 66.6162 83.0193 66.6162 83.0193Z" fill="white"/>
<path d="M61.3455 134.703C61.3455 134.703 59.6628 138.981 61.3455 139.491C63.0283 140 147.889 140.298 149.091 139.139C150.292 137.98 149.091 136.169 149.091 135.391C149.091 134.614 61.3455 134.703 61.3455 134.703Z" fill="white"/>
<path d="M121.315 129.239C115.32 129.239 109.044 129.198 103.039 129.13C88.5682 128.966 60.8998 128.429 59.7615 127.57L59.6494 127.485L59.6477 127.345C59.4184 107.295 59.3114 84.552 60.2557 67.8865L60.2654 67.7138L60.4227 67.6423C62.1232 66.8701 90.331 66.9531 106.732 67.1241C123.125 67.2945 151.295 67.7944 152.89 68.5872C153.128 68.7056 153.306 69.0087 153.469 69.5704C155.508 76.6354 154.355 125.695 153.007 127.904C152.906 128.068 152.689 128.206 151.955 128.346C148.498 129.003 135.721 129.239 121.315 129.239ZM60.218 127.154C62.1913 127.716 82.912 128.369 106.313 128.592C132.951 128.845 151.528 128.439 152.538 127.581C153.123 126.616 153.797 112.808 153.96 98.0584C154.175 78.7408 153.449 69.5933 152.635 69.0979C150.153 67.8654 65.6688 66.9885 60.8162 68.1142C59.8874 84.6944 59.9909 107.238 60.218 127.154Z" fill="#421B36"/>
<path d="M121.608 110.854C121.026 110.893 120.683 111.354 120.677 111.926C120.669 112.633 121.214 113.097 121.882 113.192C123.566 113.429 125.507 112.083 126.573 110.908C127.629 109.744 128.831 107.588 127.239 106.332C125.712 105.127 123.455 106.295 121.968 107.012C120.106 107.911 118.385 109.105 116.878 110.521C115.389 111.918 114.003 113.567 113.356 115.534C112.774 117.301 112.994 119.212 114.19 120.672C115.474 122.24 117.449 122.925 119.425 123.017C123.587 123.213 127.89 121.559 131.151 119.041C132.421 118.061 134.41 116.348 133.321 114.553C132.272 112.823 129.977 113.424 128.542 114.236C127.043 115.084 125.743 116.803 126.422 118.597C127.146 120.511 129.41 120.67 131.146 120.545C135.227 120.254 139.64 119.02 141.899 115.305C142.683 114.016 143.341 111.437 141.343 110.814C140.472 110.542 139.628 111.11 138.936 111.575C138.2 112.068 137.489 112.665 137.055 113.451C136.204 114.99 136.683 116.927 137.918 118.115C139.344 119.485 141.476 119.662 143.325 119.272C144.511 119.022 145.635 118.552 146.749 118.087C147.168 117.913 146.985 117.221 146.56 117.398C143.905 118.505 139.488 120.052 137.722 116.672C136.94 115.175 137.446 113.672 138.693 112.637C139.23 112.192 140.12 111.476 140.832 111.481C141.98 111.489 142.102 112.888 141.855 113.728C140.967 116.749 137.631 118.584 134.796 119.289C133.2 119.686 131.446 119.947 129.796 119.872C128.081 119.793 126.419 118.616 127.133 116.716C127.679 115.259 129.733 114.047 131.273 114.134C132.157 114.183 132.977 114.822 132.89 115.77C132.815 116.593 132.155 117.258 131.568 117.78C129.266 119.827 126.371 121.252 123.369 121.915C120.405 122.57 116.437 122.733 114.503 119.904C112.551 117.05 114.742 113.691 116.79 111.604C118.036 110.335 119.448 109.235 120.986 108.342C121.66 107.95 122.357 107.597 123.073 107.288C123.923 106.923 124.94 106.448 125.885 106.542C127.031 106.656 127.511 107.643 127.16 108.678C126.883 109.493 126.297 110.215 125.679 110.799C125.032 111.41 124.259 111.903 123.423 112.211C123.071 112.341 122.692 112.469 122.316 112.492C122.088 112.505 121.871 112.499 121.675 112.37C121.529 112.275 121.112 111.602 121.609 111.568C122.065 111.538 122.068 110.823 121.608 110.854Z" fill="#E75634"/>
<path d="M68.4492 153.396C68.4492 155.341 66.9421 156.916 65.082 156.916C63.2225 156.916 61.7148 155.34 61.7148 153.396C61.7148 151.451 63.222 149.875 65.082 149.875C66.9421 149.875 68.4492 151.452 68.4492 153.396Z" fill="white"/>
<path d="M72.185 153.025C74.0336 153.025 75.8822 153.025 77.7302 153.025C78.1901 153.025 78.1912 152.31 77.7302 152.31C75.8816 152.31 74.033 152.31 72.185 152.31C71.7251 152.31 71.7245 153.025 72.185 153.025Z" fill="#421B36"/>
<path d="M79.5834 153.025C81.432 153.025 83.2806 153.025 85.1286 153.025C85.5885 153.025 85.5896 152.31 85.1286 152.31C83.28 152.31 81.4314 152.31 79.5834 152.31C79.1235 152.31 79.123 153.025 79.5834 153.025Z" fill="#421B36"/>
<path d="M86.6771 153.025C88.5257 153.025 90.3744 153.025 92.2224 153.025C92.6822 153.025 92.6834 152.31 92.2224 152.31C90.3738 152.31 88.5252 152.31 86.6771 152.31C86.2173 152.31 86.2167 153.025 86.6771 153.025Z" fill="#421B36"/>
<path d="M72.185 155.43C78.6745 155.43 85.1646 155.43 91.6542 155.43C92.1141 155.43 92.1152 154.715 91.6542 154.715C85.1646 154.715 78.6745 154.715 72.185 154.715C71.7251 154.715 71.7245 155.43 72.185 155.43Z" fill="#421B36"/>
<path d="M112.459 153.396C112.459 155.341 110.951 156.916 109.092 156.916C107.232 156.916 105.725 155.34 105.725 153.396C105.725 151.451 107.232 149.875 109.092 149.875C110.951 149.875 112.459 151.452 112.459 153.396Z" fill="white"/>
<path d="M116.193 153.025C118.042 153.025 119.89 153.025 121.738 153.025C122.198 153.025 122.199 152.31 121.738 152.31C119.89 152.31 118.041 152.31 116.193 152.31C115.733 152.31 115.732 153.025 116.193 153.025Z" fill="#421B36"/>
<path d="M123.592 153.025C125.44 153.025 127.289 153.025 129.137 153.025C129.597 153.025 129.598 152.31 129.137 152.31C127.288 152.31 125.44 152.31 123.592 152.31C123.131 152.31 123.131 153.025 123.592 153.025Z" fill="#421B36"/>
<path d="M130.685 153.025C132.534 153.025 134.383 153.025 136.231 153.025C136.69 153.025 136.692 152.31 136.231 152.31C134.382 152.31 132.533 152.31 130.685 152.31C130.225 152.31 130.224 153.025 130.685 153.025Z" fill="#421B36"/>
<path d="M116.193 155.43C122.683 155.43 129.173 155.43 135.662 155.43C136.122 155.43 136.123 154.715 135.662 154.715C129.173 154.715 122.683 154.715 116.193 154.715C115.733 154.715 115.732 155.43 116.193 155.43Z" fill="#421B36"/>
<path d="M91.4935 75.4786C101.453 75.4786 111.413 75.4786 121.373 75.4786C124.218 75.4786 127.064 75.4786 129.909 75.4786C130.369 75.4786 130.37 74.7637 129.909 74.7637C119.95 74.7637 109.99 74.7637 100.03 74.7637C97.1846 74.7637 94.3391 74.7637 91.4935 74.7637C91.0337 74.7637 91.0331 75.4786 91.4935 75.4786Z" fill="#421B36"/>
<path d="M107.726 94.2052C112.126 94.2052 116.526 94.2052 120.926 94.2052C121.386 94.2052 121.387 93.4902 120.926 93.4902C116.526 93.4902 112.126 93.4902 107.726 93.4902C107.266 93.4902 107.266 94.2052 107.726 94.2052Z" fill="#421B36"/>
<path d="M124.886 94.2052C131.588 94.2052 138.289 94.2052 144.991 94.2052C145.451 94.2052 145.452 93.4902 144.991 93.4902C138.289 93.4902 131.588 93.4902 124.886 93.4902C124.426 93.4902 124.426 94.2052 124.886 94.2052Z" fill="#421B36"/>
<path d="M93.2655 85.6735C101.414 85.6735 109.563 85.6735 117.711 85.6735C118.171 85.6735 118.172 84.9585 117.711 84.9585C109.563 84.9585 101.414 84.9585 93.2655 84.9585C92.805 84.9585 92.8045 85.6735 93.2655 85.6735Z" fill="#421B36"/>
<path d="M66.3885 94.2037C76.3482 94.2037 86.3079 94.2037 96.2676 94.2037C99.1131 94.2037 101.959 94.2037 104.804 94.2037C105.264 94.2037 105.265 93.4888 104.804 93.4888C94.8445 93.4888 84.8848 93.4888 74.9251 93.4888C72.0796 93.4888 69.2341 93.4888 66.3885 93.4888C65.9281 93.4888 65.9275 94.2037 66.3885 94.2037Z" fill="#421B36"/>
<path d="M66.3885 103.314C76.3482 103.314 86.3079 103.314 96.2676 103.314C99.1131 103.314 101.959 103.314 104.804 103.314C105.264 103.314 105.265 102.599 104.804 102.599C94.8445 102.599 84.8848 102.599 74.9251 102.599C72.0796 102.599 69.2341 102.599 66.3885 102.599C65.9281 102.599 65.9275 103.314 66.3885 103.314Z" fill="#421B36"/>
<path d="M107.726 103.316C112.126 103.316 116.526 103.316 120.926 103.316C121.386 103.316 121.387 102.601 120.926 102.601C116.526 102.601 112.126 102.601 107.726 102.601C107.266 102.601 107.266 103.316 107.726 103.316Z" fill="#421B36"/>
<path d="M124.886 102.892C131.588 102.892 138.289 102.892 144.991 102.892C145.451 102.892 145.452 102.177 144.991 102.177C138.289 102.177 131.588 102.177 124.886 102.177C124.426 102.177 124.426 102.892 124.886 102.892Z" fill="#421B36"/>
<path d="M131.884 98.5655C136.253 98.5655 140.622 98.5655 144.991 98.5655C145.451 98.5655 145.452 97.8506 144.991 97.8506C140.622 97.8506 136.253 97.8506 131.884 97.8506C131.424 97.8506 131.424 98.5655 131.884 98.5655Z" fill="#421B36"/>
<path d="M66.3885 98.5655C71.3292 98.5655 76.2693 98.5655 81.2099 98.5655C81.6698 98.5655 81.6709 97.8506 81.2099 97.8506C76.2693 97.8506 71.3292 97.8506 66.3885 97.8506C65.9281 97.8506 65.9275 98.5655 66.3885 98.5655Z" fill="#421B36"/>
<path d="M84.7377 98.5655C96.2028 98.5655 107.668 98.5655 119.134 98.5655C122.355 98.5655 125.577 98.5655 128.799 98.5655C129.259 98.5655 129.26 97.8506 128.799 97.8506C117.334 97.8506 105.868 97.8506 94.4028 97.8506C91.1809 97.8506 87.9596 97.8506 84.7377 97.8506C84.2778 97.8506 84.2773 98.5655 84.7377 98.5655Z" fill="#421B36"/>
<path d="M66.3885 107.79C74.5368 107.79 82.6856 107.79 90.8339 107.79C91.2937 107.79 91.2949 107.075 90.8339 107.075C82.6856 107.075 74.5368 107.075 66.3885 107.075C65.9281 107.075 65.9275 107.79 66.3885 107.79Z" fill="#421B36"/>
<path d="M87.7158 4.84165C87.654 5.62811 85.8134 17.6086 89.0347 17.8534C92.2561 18.0982 124.97 18.8932 125.574 17.8534C126.178 16.8135 127.737 5.10132 124.942 4.84165C122.148 4.58197 87.8542 3.08513 87.7158 4.84165Z" fill="#421B36"/>
<path d="M141.818 92.1621C141.818 92.1621 149.021 65.756 156.591 64.2383C164.16 62.7207 151.964 97.7592 151.964 97.7592L141.818 92.1621Z" fill="white"/>
<path d="M161.986 61.4944C158.856 61.954 155.933 64.2627 155.001 66.4378C155.001 66.4378 151.525 89.6306 151.331 92.4645C151.137 95.2984 145.492 146.86 148.596 150.643C151.701 154.427 157.698 150.65 157.698 150.65L164.49 61.4209" fill="white"/>
<path d="M189.808 193.645C189.693 193.996 189.59 198.585 191.209 201.968C192.828 205.351 183.472 206.725 183.472 206.725C183.472 206.725 181.438 197.422 180.512 194.617C179.587 191.812 189.808 193.645 189.808 193.645Z" fill="#421B36"/>
<path d="M201.375 212.866C201.375 212.866 201.395 213.966 201.176 214.958C200.957 215.951 197.229 216.546 192.33 216.372C187.431 216.198 184.626 214.155 184.428 213.93C184.229 213.706 183.748 210.318 183.748 210.318L201.375 212.866Z" fill="url(#paint16_linear_7199_47871)"/>
<path d="M190.984 201.71C191.164 201.838 195.974 208.019 197.532 208.949C199.09 209.878 201.553 211.239 201.369 213.214C201.184 215.19 191.962 214.937 188.375 214.138C184.788 213.339 184.866 213.741 184.254 212.605C183.642 211.468 183.476 206.784 183.453 206.147C183.43 205.51 185.639 197.904 190.984 201.71Z" fill="#421B36"/>
<path d="M152.175 206.511C152.55 206.27 153.016 206.137 153.399 205.834C155.14 204.454 156.777 202.344 157.617 200.358C158.64 197.936 156.236 188.311 156.016 188.064L166.368 190.839C166.368 190.839 165.156 199.375 165.376 202.147C165.596 204.92 167.551 211.811 166.617 213.443C165.684 215.076 153.427 216.615 148.844 216.757C141.723 216.976 139.368 213.82 139.375 212.908C139.38 212.282 150.089 207.845 152.175 206.511Z" fill="#421B36"/>
<path d="M152.871 125.467C153.156 119.28 152.29 111.82 153.562 106.727C154.387 103.422 155.883 96.4691 155.883 96.4691L177.767 96.1831C177.767 96.1831 182.73 102.764 184.895 110.418C187.094 118.191 187.325 125.232 188.926 135.836C190.411 145.672 191.224 155.731 191.499 159.266C191.789 162.989 194.95 193.684 194.883 196.383C194.818 198.981 177.312 198.751 175.603 196.383C174.061 194.245 167.975 133.786 167.012 124.366L167.406 124.299C167.621 124.18 169.179 159.206 169.179 159.206L170.722 197.017C169.725 198.85 151.913 198.594 151.415 196.913C150.916 195.232 152.587 131.654 152.871 125.467Z" fill="url(#paint17_linear_7199_47871)"/>
<g opacity="0.2">
<path d="M190.978 153.187H190.984L191.01 153.498C190.986 153.407 190.976 153.302 190.978 153.187ZM190.034 153.982C189.521 154.363 189.624 154.459 189.812 154.924C190.296 155.488 190.899 154.956 190.775 154.338C190.566 154.14 190.333 153.988 190.034 153.982ZM191.385 158.873C191.415 158.86 191.435 158.844 191.463 158.83L191.367 157.693C191.304 157.684 191.247 157.671 191.176 157.669C191.044 157.951 190.918 158.218 190.784 158.504C190.991 158.631 191.177 158.745 191.385 158.873ZM175.681 159.988C175.865 159.88 175.834 159.577 175.892 159.38C175.748 159.245 175.543 158.744 175.316 158.953C175.044 159.16 174.84 159.179 174.781 159.58C174.85 160.086 175.283 160.05 175.681 159.988ZM187.046 158.535C187.221 158.088 186.781 157.747 186.349 157.658C185.359 158.208 186.44 159.11 187.046 158.535ZM185.602 154.118C185.203 153.734 184.875 154.153 184.605 154.419C184.694 154.789 184.81 154.923 185.108 155.181C185.311 155.047 185.499 154.944 185.724 154.85C185.65 154.594 185.611 154.347 185.602 154.118ZM189.034 155.202C188.797 155.349 188.571 155.488 188.292 155.661C188.765 157.233 190.103 155.861 189.034 155.202ZM174.262 157.734C174.311 158.03 174.365 158.322 174.424 158.601C174.746 158.407 174.774 157.986 174.262 157.734ZM184.004 155.205C183.768 155.268 183.582 155.373 183.447 155.653C183.562 156.163 183.897 156.561 184.412 156.148C184.458 156.003 184.504 155.861 184.556 155.695C184.361 155.552 184.229 155.324 184.004 155.205ZM185.71 159.214C185.578 158.922 184.881 159.052 184.73 159.302C184.604 159.567 184.967 159.686 184.939 159.94C184.972 159.99 185.006 160.026 185.043 160.051C185.189 160.035 185.334 160.018 185.478 160.002C185.615 159.922 185.753 159.812 185.88 159.736C185.798 159.54 185.57 159.426 185.71 159.214ZM177.283 156.826C177.27 157.066 177.472 157.259 177.49 157.525C178.052 157.694 178.146 157.41 178.365 156.99C178.253 156.467 177.497 156.319 177.283 156.826ZM176.052 155.548C176.075 155.734 176.092 155.881 176.109 156.022C176.466 156.31 176.775 156.414 177.156 156.087C177.108 155.445 176.497 154.921 176.052 155.548ZM175.881 154.493C175.522 153.985 175.052 153.859 174.774 154.521C175.046 155.416 175.567 155.316 175.881 154.493ZM183.349 154.561C183.15 153.996 182.602 153.873 182.277 154.382C182.103 155.135 183.193 155.326 183.349 154.561ZM187.992 154.072C187.648 154.169 187.374 154.317 187.074 154.549C187.331 155.728 189.027 154.626 187.992 154.072ZM188.206 159.667C188.231 159.205 188.127 158.907 187.617 159.007C187.247 159.016 187.297 159.361 187.111 159.651C187.156 159.704 187.204 159.752 187.252 159.795C187.58 159.755 187.894 159.717 188.196 159.681C188.199 159.675 188.202 159.673 188.206 159.667ZM174.717 157.089C174.8 157.211 174.875 157.322 174.942 157.421C175.095 157.455 175.228 157.485 175.402 157.525C175.574 157.393 175.811 157.383 175.894 157.181C175.656 156.453 174.938 156.216 174.717 157.089ZM190.605 159.18C190.272 158.662 189.943 159.081 189.648 159.401C189.659 159.436 189.674 159.465 189.687 159.496C190.078 159.447 190.412 159.405 190.689 159.369C190.668 159.309 190.643 159.247 190.605 159.18ZM177.138 158.432C177.094 158.252 177.056 158.09 177.014 157.917C175.69 157.172 175.994 159.79 177.138 158.432ZM183.752 158.668C184.208 158.852 184.8 158.328 184.435 157.912C183.739 157.305 183.237 158.022 183.752 158.668ZM188.212 157.27C188.315 156.68 188.065 156.426 187.466 156.533C187.353 156.706 187.263 156.846 187.162 157C187.283 157.509 187.84 157.602 188.212 157.27ZM189.727 157.317C189.961 157.618 190.748 157.681 190.694 157.053C190.506 156.153 189.539 156.432 189.727 157.317ZM179.912 159.945C180.383 160.239 180.756 159.773 180.732 159.285C180.175 158.666 179.349 159.327 179.912 159.945ZM176.049 160.515C176.035 160.617 176.041 160.708 176.059 160.792C176.338 160.798 176.685 160.792 177.083 160.776C176.877 160.319 176.387 159.984 176.049 160.515ZM191.248 156.302L191.178 155.471C191.033 155.564 190.923 155.696 190.905 155.941C191.009 156.051 191.127 156.175 191.248 156.302ZM181.337 160.329C181.337 160.367 181.337 160.408 181.337 160.446C181.546 160.426 181.757 160.405 181.971 160.383C181.965 160.348 181.96 160.318 181.953 160.28C181.765 160.244 181.495 160.186 181.337 160.329ZM184.454 153.522C184.452 153.512 184.45 153.506 184.448 153.497L183.475 153.543C183.694 153.986 184.181 153.851 184.454 153.522ZM179.046 153.752L178.857 153.761C178.88 153.779 178.903 153.797 178.927 153.814C178.969 153.792 179.006 153.773 179.046 153.752ZM181.006 158.42C181.288 159.614 182.661 158.197 181.531 157.829C181.307 157.964 181.061 158.072 181.006 158.42ZM180.355 157.533C180.525 157.469 180.737 157.493 180.851 157.3C180.824 156.332 179.978 156.462 179.761 157.266C179.889 157.539 180.177 157.408 180.355 157.533ZM177.327 159.145C177.327 159.427 177.327 159.639 177.327 159.887C177.591 159.948 177.836 159.954 178.081 159.903C178.152 159.717 178.216 159.551 178.267 159.416C178.185 159.227 178.117 159.07 178.049 158.913C177.89 159.035 177.524 159.03 177.327 159.145ZM184.613 157C184.817 157.849 185.952 157.501 185.607 156.6C185.313 156.457 184.711 156.707 184.613 157ZM189.421 153.558C189.436 153.446 189.435 153.347 189.422 153.261L188.514 153.304C188.504 153.341 188.494 153.38 188.488 153.421C188.512 154.052 189.103 153.81 189.421 153.558ZM179.25 158.691C179.81 158.606 179.414 157.914 179.15 157.671C178.294 157.845 178.396 158.738 179.25 158.691ZM173.994 155.234C173.98 155.242 173.97 155.253 173.957 155.261C173.984 155.563 174.019 155.907 174.061 156.273C174.727 156.116 174.647 155.441 173.994 155.234ZM186.744 153.572C186.916 153.553 186.972 153.476 186.973 153.377L185.993 153.423C186.358 153.701 186.116 154.071 186.744 153.572ZM177.84 153.992C177.49 154.084 177.355 154.331 177.25 154.645C177.775 155.674 178.675 154.446 177.84 153.992ZM189.125 158.768C189.69 158.384 189.423 157.831 188.816 157.796C188.245 158.085 188.571 158.741 189.125 158.768ZM182.233 159.512C182.349 159.903 182.997 160.149 183.198 159.714C183.161 159.523 183.129 159.361 183.086 159.143C182.796 158.837 182.191 159.157 182.233 159.512ZM179.529 160.604C179.364 160.502 179.21 160.406 179.023 160.288C178.849 160.398 178.683 160.503 178.527 160.601C178.528 160.633 178.532 160.661 178.535 160.69C178.851 160.667 179.182 160.641 179.527 160.612C179.527 160.609 179.528 160.607 179.529 160.604ZM186.729 156.191C187.325 155.51 186.74 155.27 186.182 155.476C186.052 155.703 185.855 155.904 186.121 156.191C186.342 156.191 186.543 156.191 186.729 156.191ZM178.715 155.353C178.259 155.699 178.571 156.154 179.057 156.217C179.694 155.898 179.376 155.03 178.715 155.353ZM182.721 157.427C182.725 157.425 182.728 157.424 182.732 157.422C182.729 157.424 182.725 157.425 182.721 157.427ZM182.732 157.416C182.732 157.418 182.732 157.42 182.732 157.422C182.802 157.386 182.874 157.351 182.945 157.316C183.013 157.23 183.082 157.144 183.157 157.049C183.035 156.874 182.921 156.711 182.813 156.556C182.348 156.703 182.348 156.703 182.173 157.397C182.478 157.516 182.478 157.516 182.732 157.416ZM181.544 155.271C181.339 155.445 180.813 155.58 181.051 155.906C181.255 156.083 181.44 156.421 181.748 156.278C181.91 155.917 181.979 155.573 181.544 155.271ZM180.123 154.154C179.751 154.234 180.097 154.717 180.304 154.76C180.922 154.707 180.476 154.137 180.123 154.154ZM182.732 157.416L182.721 157.427C182.725 157.425 182.728 157.424 182.732 157.422C182.732 157.42 182.732 157.418 182.732 157.416ZM182.732 157.422C182.732 157.484 182.732 157.546 182.732 157.623C182.916 157.666 183.071 157.692 183.225 157.595C183.121 157.337 183.121 157.337 182.934 157.329L182.948 157.315C182.947 157.315 182.946 157.315 182.945 157.316C182.874 157.351 182.802 157.386 182.732 157.422ZM180.068 155.141C180.186 155.141 180.285 155.141 180.422 155.141C180.21 154.957 180.21 154.957 180.068 155.141Z" fill="#421B36"/>
</g>
<path d="M184.024 68.2535C182.779 64.3732 179.354 61.6035 175.297 61.2168C168.773 60.5954 161.841 60.6698 160.386 62.3543C156.66 66.6661 154.214 82.327 153.961 87.5772C153.669 93.6423 151.505 106.045 152.054 106.186C156.957 107.445 188.913 106.4 186.936 106.186L183.928 84.4004C183.995 79.9606 185.593 73.1401 184.024 68.2535Z" fill="url(#paint18_linear_7199_47871)"/>
<path d="M177.195 61.4216C177.195 61.4216 183.344 63.0247 184.361 63.9242C184.86 64.3664 184.17 82.2185 187.023 99.9099C190.579 121.958 197.757 145.719 197.893 149.798C197.893 149.798 192.888 155.964 173.412 154.536L168.381 96.1834C168.381 96.1834 169.731 72.0919 170.552 68.7323C171.287 65.7214 170.898 59.4244 171.469 58.6459C172.295 57.52 177.195 61.4216 177.195 61.4216Z" fill="white"/>
<path d="M162.565 116.06C163.153 117.149 163.739 118.238 164.326 119.327C164.757 120.124 165.187 120.922 165.617 121.721C165.889 122.223 166.127 122.78 166.445 123.255C166.567 123.438 166.475 123.258 166.478 123.284C166.486 123.361 166.495 123.438 166.503 123.516C166.537 123.826 166.569 124.137 166.602 124.448C166.725 125.619 166.846 126.791 166.967 127.962C167.336 131.531 167.702 135.1 168.068 138.669C168.425 142.152 168.782 145.634 169.138 149.117C169.277 150.476 169.419 151.836 169.555 153.196C169.707 154.716 169.86 156.236 170.016 157.756C170.349 160.99 170.693 164.223 171.049 167.455C171.476 171.335 171.921 175.213 172.398 179.088C172.831 182.604 173.284 186.119 173.826 189.62C174.149 191.703 174.381 193.932 175.088 195.931C175.159 196.132 175.233 196.351 175.363 196.524C175.575 196.809 176.061 196.53 175.846 196.242C175.544 195.837 175.437 195.179 175.311 194.65C175.055 193.574 174.861 192.482 174.675 191.391C174.117 188.1 173.678 184.787 173.256 181.476C172.759 177.577 172.303 173.673 171.865 169.767C171.478 166.317 171.106 162.864 170.746 159.41C170.543 157.458 170.343 155.506 170.149 153.553C170.053 152.584 169.952 151.615 169.853 150.646C169.525 147.435 169.196 144.224 168.867 141.013C168.488 137.309 168.108 133.605 167.726 129.902C167.504 127.74 167.298 125.576 167.052 123.417C166.971 122.711 166.407 122.007 166.078 121.397C165.242 119.846 164.406 118.295 163.569 116.744C163.396 116.422 163.222 116.1 163.049 115.779C162.878 115.461 162.394 115.743 162.565 116.06Z" fill="#421B36"/>
<path d="M152.093 106.494C157.416 107.496 162.875 107.52 168.207 106.565C168.561 106.502 168.411 105.963 168.058 106.026C162.83 106.962 157.46 106.938 152.241 105.955C151.889 105.889 151.739 106.428 152.093 106.494Z" fill="#421B36"/>
<path d="M152.129 73.1556C152.316 73.5151 152.504 73.8741 152.691 74.2335C152.741 74.3296 152.785 74.4395 152.845 74.5301C152.874 74.5731 152.911 74.7154 152.887 74.5763C152.861 74.4252 152.874 74.5698 152.864 74.5999C152.805 74.78 152.835 75.0411 152.822 75.2286C152.796 75.6149 152.769 76.0011 152.741 76.3869C152.541 79.1593 152.304 81.9295 152.026 84.6955C151.502 89.9059 150.647 95.0665 150.021 100.263C149.385 105.548 148.868 110.847 148.425 116.152C147.942 121.926 147.546 127.711 147.334 133.503C147.172 137.912 147.014 142.392 147.468 146.79C147.506 147.164 147.552 147.536 147.605 147.908C147.656 148.263 148.195 148.112 148.145 147.759C147.554 143.618 147.715 139.332 147.838 135.165C148.006 129.429 148.378 123.699 148.835 117.979C149.269 112.543 149.783 107.112 150.411 101.695C150.985 96.7352 151.815 91.8117 152.359 86.8493C152.695 83.7849 152.971 80.714 153.207 77.6403C153.273 76.7796 153.335 75.9189 153.393 75.0577C153.426 74.5707 153.407 74.3989 153.173 73.9507C152.986 73.5913 152.799 73.2323 152.612 72.8729C152.445 72.5541 151.963 72.8364 152.129 73.1556Z" fill="#421B36"/>
<path d="M171.857 96.4845C171.857 96.4845 170.808 88.1574 171.232 87.6728C171.656 87.1881 172.08 87.6658 172.08 87.6658C172.08 87.6658 172.464 95.6418 172.697 96.3912C172.929 97.141 175.549 99.0689 177.689 99.3295L177.74 100.046C177.74 100.046 172.246 98.8305 171.857 96.4845Z" fill="#421B36"/>
<path d="M179.846 99.6294C179.887 100.202 179.371 100.704 178.695 100.753C178.019 100.801 177.437 100.376 177.397 99.8031C177.356 99.2307 177.872 98.728 178.548 98.68C179.224 98.6319 179.806 99.057 179.846 99.6294Z" fill="#421B36"/>
<path d="M173.401 100.594C173.442 101.166 172.926 101.669 172.25 101.717C171.573 101.765 170.992 101.34 170.951 100.767C170.911 100.195 171.426 99.6923 172.103 99.6443C172.779 99.5967 173.36 100.022 173.401 100.594Z" fill="#421B36"/>
<path d="M173.184 100.103C173.301 100.164 176.54 98.4078 177.164 97.2325C177.787 96.0576 178.961 88.3778 178.961 88.3778L179.962 88.3066C179.962 88.3066 178.784 96.156 178.018 97.3129C177.252 98.4697 175.371 100.158 173.38 100.836L173.184 100.103Z" fill="#421B36"/>
<path d="M177.699 61.2467C177.699 61.2467 178.139 64.155 177.647 66.155C177.155 68.1549 175.316 79.7581 175.316 79.7581L176.578 79.6685C176.578 79.6685 178.606 67.164 179.004 64.7274C179.401 62.2903 178.895 61.7429 178.895 61.7429C178.895 61.7429 178.037 60.6461 177.699 61.2467Z" fill="url(#paint19_linear_7199_47871)"/>
<path d="M171.075 88.3538C170.996 88.3062 171.006 87.9144 171.012 87.8225C171.019 87.7005 171.032 87.5199 171.054 87.2935C171.247 85.3115 172.127 79.8119 175.984 79.3305C180.696 78.7423 180.813 87.536 180.099 88.1935C179.528 88.7188 179.064 88.4614 178.9 88.3371C178.86 88.3062 178.84 88.2609 178.845 88.2101C178.929 87.4095 179.574 80.2766 175.938 80.4748C172.086 80.6846 172.706 88.0549 172.225 88.364C171.84 88.612 171.374 88.5349 171.075 88.3538Z" fill="url(#paint20_linear_7199_47871)"/>
<path d="M168.893 87.66C168.893 87.66 176.085 71.9784 176.567 70.5245C177.049 69.0705 171.507 66.8035 171.349 66.8298C171.192 66.8562 175.99 67.8555 176.568 67.7081C177.957 67.3547 177.605 61.8818 177.355 61.3579" fill="white"/>
<path d="M169.134 87.8014C170.529 84.7591 171.917 81.7132 173.296 78.663C174.19 76.6838 175.084 74.7037 175.953 72.7134C176.211 72.123 176.472 71.533 176.71 70.9347C176.945 70.3429 176.866 69.8892 176.433 69.3939C175.646 68.4958 174.451 67.9067 173.397 67.3916C172.915 67.1565 172.426 66.9352 171.928 66.736C171.723 66.6538 171.425 66.4801 171.204 66.5905C171.035 66.6746 171.034 66.9051 171.147 67.0299C171.275 67.1703 171.585 67.1893 171.756 67.2276C172.203 67.3283 172.653 67.4193 173.104 67.5076C174.097 67.7016 175.108 67.9137 176.118 67.9899C177.988 68.1308 177.873 65.0715 177.866 63.8435C177.861 63.0303 177.922 61.9839 177.595 61.217C177.454 60.8871 176.973 61.1717 177.113 61.4993C177.314 61.9714 177.282 62.8386 177.298 63.3939C177.326 64.3369 177.314 65.3085 177.121 66.2348C176.999 66.8164 176.847 67.4748 176.187 67.4355C175.335 67.3842 174.48 67.2017 173.643 67.0433C173.152 66.9504 172.661 66.8525 172.172 66.7471C172.011 66.712 171.849 66.6778 171.688 66.6386C171.542 66.603 171.426 66.506 171.543 66.6344C171.524 66.7809 171.505 66.9273 171.486 67.0738C171.296 67.1685 171.275 67.0654 171.468 67.1565C171.61 67.2234 171.765 67.2692 171.91 67.3292C172.351 67.5113 172.785 67.7118 173.212 67.9229C174.144 68.3835 175.15 68.8936 175.892 69.6365C176.344 70.0883 176.342 70.365 176.124 70.9033C175.88 71.5048 175.617 72.0994 175.357 72.694C173.65 76.5859 171.88 80.4505 170.117 84.317C169.629 85.3851 169.141 86.4528 168.652 87.52C168.502 87.8439 168.984 88.1285 169.134 87.8014Z" fill="#421B36"/>
<path d="M163.046 61.2433C162.963 61.2604 163.994 68.5258 164.988 68.1424C165.982 67.7589 171.104 61.4212 171.104 61.4212C171.104 61.4212 165.257 60.7846 163.046 61.2433Z" fill="#FFAE7A"/>
<path d="M171.837 58.4507C171.837 58.4507 161.422 59.9596 159.744 61.0739C158.067 62.1883 156.144 65.4255 155.826 66.8055C155.507 68.1855 153.919 87.7138 153.96 87.577C155.246 83.2947 159.607 64.8665 161.293 63.0901C163.046 61.243 171.837 61.0481 171.837 61.0481V58.4507Z" fill="white"/>
<path d="M154.103 86.8537C154.251 84.5215 154.404 82.1893 154.562 79.8576C154.681 78.1066 154.802 76.3556 154.934 74.6051C155.012 73.567 155.029 72.4901 155.206 71.4626C155.338 70.6952 156.282 70.0128 156.918 69.5624C157.332 69.269 157.762 68.9983 158.203 68.7474C158.353 68.662 158.504 68.5779 158.658 68.5003C158.721 68.4684 158.923 68.4088 158.803 68.4111C158.709 68.3178 158.616 68.2244 158.523 68.1316C158.523 68.133 158.523 68.1339 158.523 68.1353C158.569 68.0549 158.616 67.9745 158.662 67.8937C158.393 68.0641 157.752 68.1662 157.381 68.2572C157.075 68.3326 156.767 68.4051 156.457 68.4554C156.363 68.4707 156.19 68.5247 156.098 68.4966C155.936 68.4471 156.075 68.5649 156.011 68.3672C155.77 67.6229 156.013 66.7391 156.278 66.0369C156.697 64.9308 157.388 63.9412 158.181 63.0727C158.423 62.8075 158.029 62.4106 157.785 62.6772C156.842 63.7102 156.034 64.9059 155.613 66.2508C155.46 66.741 155.355 67.2658 155.366 67.7819C155.374 68.1103 155.405 68.6841 155.659 68.9308C156.043 69.3041 157.106 68.9004 157.529 68.7964C157.816 68.7262 159.087 68.5793 159.082 68.1311C159.08 67.9824 158.956 67.8484 158.803 67.8516C158.634 67.8553 158.461 67.9727 158.317 68.0475C157.947 68.2392 157.588 68.4527 157.238 68.6758C156.465 69.1674 155.66 69.7236 155.091 70.4536C154.465 71.2575 154.544 72.4453 154.466 73.4159C154.186 76.9267 153.96 80.442 153.731 83.9565C153.667 84.922 153.605 85.8876 153.544 86.8532C153.521 87.2131 154.08 87.2117 154.103 86.8537Z" fill="#421B36"/>
<path d="M174.394 190.765C180.93 191.777 187.601 191.612 194.077 190.269C194.429 190.196 194.28 189.657 193.928 189.73C187.557 191.051 180.973 191.222 174.542 190.226C174.19 190.172 174.039 190.71 174.394 190.765Z" fill="#421B36"/>
<path d="M151.554 189.689C157.667 190.711 163.892 190.908 170.055 190.258C170.41 190.221 170.413 189.661 170.055 189.699C163.944 190.343 157.764 190.163 151.702 189.149C151.351 189.09 151.199 189.629 151.554 189.689Z" fill="#421B36"/>
<path d="M139.535 213.462C139.679 213.258 138.274 211.082 143.788 208.522C147.16 206.956 150.2 204.712 152.674 205.455C155.148 206.198 161.831 213.948 161.831 213.948C161.831 213.948 152.144 217.506 146.784 215.975C141.425 214.444 139.535 213.462 139.535 213.462Z" fill="url(#paint21_linear_7199_47871)"/>
<path d="M156.459 210.655C156.511 210.5 165.101 204.063 165.978 204.786C166.856 205.509 166.123 207.447 166.123 207.447L157.054 212.439L156.459 210.655Z" fill="url(#paint22_linear_7199_47871)"/>
<path d="M139.519 212.704C139.744 212.537 139.964 212.412 140.369 212.189C140.514 212.289 144.683 214.382 152.48 214.406C160.409 214.43 166.892 210.06 166.892 210.06C166.979 211.115 166.888 213.038 166.63 213.488C166.601 213.539 166.56 213.589 166.511 213.639C166.41 213.742 166.266 213.844 166.085 213.944C163.465 215.394 153.009 216.674 148.856 216.802C143.381 216.972 140.782 215.163 139.815 213.897C139.332 213.23 139.286 212.876 139.519 212.704Z" fill="url(#paint23_linear_7199_47871)"/>
<path d="M184.557 213.36C184.557 213.36 186.728 205.582 193.75 205.04C200.773 204.497 203.633 213.85 201.177 214.958C198.72 216.067 187.844 217.621 184.557 213.36Z" fill="url(#paint24_linear_7199_47871)"/>
<path d="M139.254 212.317C140.563 213.623 142.39 214.255 144.148 214.692C146.091 215.176 148.102 215.364 150.101 215.344C154.227 215.301 158.067 214.126 161.905 212.709C162.24 212.586 162.095 212.045 161.757 212.17C158.105 213.518 154.441 214.68 150.518 214.777C148.567 214.825 146.606 214.681 144.701 214.249C142.907 213.843 140.983 213.252 139.65 211.922C139.394 211.667 138.999 212.062 139.254 212.317Z" fill="#421B36"/>
<path d="M158.446 208.46C157.973 208.79 157.5 209.119 157.028 209.449C156.604 209.744 156.15 210.019 155.76 210.359C155.455 210.626 155.189 210.986 155.204 211.41C155.218 211.816 155.503 212.166 155.858 212.338C156.658 212.726 157.728 212.519 158.522 212.218C159.42 211.877 160.226 211.347 161.058 210.877C161.371 210.7 161.09 210.216 160.776 210.394C159.483 211.124 158.069 212.177 156.494 211.949C156.175 211.903 155.735 211.728 155.763 211.334C155.787 210.993 156.172 210.727 156.424 210.549C157.188 210.008 157.96 209.478 158.728 208.943C159.022 208.739 158.742 208.254 158.446 208.46Z" fill="#421B36"/>
<path d="M158.609 210.906C158.609 211.143 158.336 211.335 158.001 211.335C157.665 211.335 157.393 211.143 157.393 210.906C157.393 210.669 157.665 210.478 158.001 210.478C158.336 210.478 158.609 210.67 158.609 210.906Z" fill="#421B36"/>
<path d="M184.666 213.163C190.21 215.217 196.371 215.361 202.006 213.576C202.348 213.467 202.202 212.927 201.857 213.036C196.307 214.795 190.274 214.646 184.815 212.624C184.477 212.498 184.331 213.039 184.666 213.163Z" fill="#421B36"/>
<path d="M161.86 38.0631C163.199 37.0153 164.404 36.2188 166.004 35.6057C166.127 35.5586 166.081 35.3807 165.95 35.4075C164.384 35.7277 162.719 36.6845 161.778 37.9993C161.74 38.052 161.817 38.0964 161.86 38.0631Z" fill="#421B36"/>
<path d="M173.173 72.1814C173.173 72.1814 168.268 71.4801 168.101 72.0844C167.875 72.9026 167.951 74.5787 168.376 74.6915C169.125 74.8906 172.898 75.0213 173.23 74.5931C173.696 73.9906 173.173 72.1814 173.173 72.1814Z" fill="white"/>
<path d="M156.36 40.0581C155.711 40.6901 155.204 41.5116 155.126 42.4139C155.055 43.233 155.343 44.053 155.791 44.7423C156.239 45.4316 156.84 46.0073 157.454 46.5552L158.574 38.4961C157.795 38.9581 157.008 39.4261 156.36 40.0581Z" fill="#421B36"/>
<path d="M158.247 40.3006C158.046 39.4662 158.289 37.4556 158.744 36.7284C159.2 36.0012 159.883 35.4371 160.632 35.018C162.607 33.9125 165.108 33.8039 167.171 34.7335C168.273 35.2301 169.236 35.9929 170.321 36.526C171.406 37.0587 172.637 37.5558 173.73 37.0398L172.907 39.1982L171.077 40.8734" fill="#421B36"/>
<path d="M176.754 40.2638C176.162 39.8711 175.435 39.7427 174.728 39.6748C175.298 39.6752 175.843 39.2668 176.003 38.7203C176.163 38.1737 175.923 37.5352 175.443 37.2294C174.751 36.7882 173.801 36.9277 173.058 37.2765C171.464 38.025 170.76 38.0846 169.24 37.4544L173.743 46.0776C174.583 45.9358 175.48 45.7653 176.085 45.1647C176.69 44.5641 176.773 43.3782 176.031 42.9577C176.659 43.2922 177.501 42.7674 177.637 42.0698C177.774 41.3721 177.346 40.6565 176.754 40.2638Z" fill="#421B36"/>
<path d="M170.314 39.8142C165.878 35.4127 158.175 37.3998 156.404 43.3928C155.844 45.2884 155.864 47.6733 156.458 50.7613C158.114 59.3776 164.49 58.1958 164.49 58.1958L163.993 62.2937L165.168 67.1882L171.106 61.421L172.095 54.5719C173.092 52.9604 174.054 46.376 171.75 42.1062C171.31 41.2894 170.964 40.4587 170.314 39.8142Z" fill="#FFAE7A"/>
<path d="M163.692 36.7568C168.322 35.7317 173.881 38.8816 174.822 41.6383C177.503 49.4965 172.095 54.5716 172.095 54.5716C173.261 51.3288 173.603 49.0419 172.531 45.6744C172.531 45.6744 169.387 47.9104 169.372 44.6404C169.364 42.9398 169.335 42.0712 168.937 40.6972C167.651 36.2657 160.336 38.3614 160.336 38.3614C160.336 38.3614 160.152 37.5408 163.692 36.7568Z" fill="#421B36"/>
<path d="M158.626 45.9901C158.675 46.3079 158.946 46.5306 159.232 46.4876C159.519 46.4442 159.712 46.1518 159.664 45.8334C159.616 45.5156 159.345 45.2929 159.058 45.3359C158.772 45.3788 158.578 45.6717 158.626 45.9901Z" fill="#421B36"/>
<path d="M164.289 45.1053C164.337 45.4232 164.608 45.6458 164.894 45.6029C165.181 45.5594 165.374 45.267 165.327 44.9487C165.279 44.6308 165.007 44.4081 164.721 44.4511C164.434 44.4945 164.241 44.787 164.289 45.1053Z" fill="#421B36"/>
<path d="M167.458 41.6537C166.867 41.4167 166.097 41.3696 165.47 41.4264C164.886 41.4791 164.39 41.73 163.834 41.8741C163.513 41.9573 163.36 41.498 163.586 41.3105C164.728 40.368 166.411 40.7039 167.586 41.3299C167.78 41.4324 167.671 41.7397 167.458 41.6537Z" fill="#421B36"/>
<g opacity="0.2">
<path d="M165.464 47.0701C165.535 47.5413 166.331 47.8125 167.241 47.6753C168.152 47.5381 168.833 47.0442 168.761 46.573C168.69 46.1017 167.895 45.8305 166.984 45.9678C166.073 46.1054 165.393 46.5989 165.464 47.0701Z" fill="#421B36"/>
</g>
<g opacity="0.2">
<path d="M157.124 48.4539C157.195 48.9252 157.991 49.1964 158.902 49.0591C159.812 48.9219 160.493 48.428 160.422 47.9568C160.35 47.4851 159.555 47.2144 158.644 47.3516C157.734 47.4888 157.053 47.9822 157.124 48.4539Z" fill="#421B36"/>
</g>
<path d="M172.521 45.6097C173.488 44.8483 174.233 45.0257 174.719 45.2845C175.204 45.5432 175.554 46.0117 175.764 46.5203C176.113 47.3658 176.092 48.39 175.581 49.1491C175.071 49.9082 174.035 50.3175 173.182 49.9881L172.521 45.6097Z" fill="#FFAE7A"/>
<path d="M174.604 47.6575C174.439 47.5831 174.078 47.5864 173.905 47.6127C173.616 47.6561 173.458 47.8275 173.287 48.0451C173.087 48.3002 172.655 48.0779 172.783 47.7647C172.938 47.3859 173.328 47.1174 173.73 47.0676C173.921 47.044 174.144 47.0685 174.318 47.1549C174.525 47.2584 174.55 47.3956 174.666 47.5734C174.692 47.615 174.657 47.682 174.604 47.6575Z" fill="#421B36"/>
<path d="M158.139 42.1172C158.94 40.8725 160.664 40.8116 161.566 41.9453C162.834 43.5383 162.436 46.4909 161.617 48.192C161.428 48.5829 160.876 48.356 160.996 47.9448C161.384 46.6175 161.78 45.274 161.6 43.8709C161.475 42.8956 161.063 41.7961 159.89 41.7531C159.4 41.7351 158.727 42.0155 158.33 42.3001C158.206 42.3902 158.056 42.2461 158.139 42.1172Z" fill="#421B36"/>
<path d="M169.208 56.2808C168.016 57.6446 166.297 58.4194 164.496 58.5492C164.141 58.5746 164.051 58.0526 164.412 57.9953C166.145 57.7199 167.66 57.1147 169.177 56.2415C169.199 56.2291 169.224 56.2619 169.208 56.2808Z" fill="#421B36"/>
<path d="M169.374 44.6411C169.358 45.6607 169.711 47.4658 170.06 48.4235C170.179 48.7497 170.354 49.0777 170.654 49.2519C170.955 49.426 171.403 49.3785 171.572 49.0754C171.63 48.971 171.834 48.6956 171.884 48.5871C172.519 47.202 172.485 46.3912 172.7 45.0467" fill="#421B36"/>
<path d="M158.702 38.8712C158.212 37.4108 158.054 35.9629 159.023 34.6642C159.475 34.059 158.445 33.2551 157.969 33.8511C156.707 35.4311 156.44 37.9624 158.394 39.1087C158.545 39.1969 158.761 39.0486 158.702 38.8712Z" fill="#421B36"/>
<path d="M158.906 38.8852C158.61 38.5669 158.117 38.4523 157.727 38.2846C157.263 38.085 156.816 37.8309 156.393 37.5556C155.698 37.1028 155.021 38.2513 155.742 38.6694C156.507 39.1125 158.035 39.7561 158.869 39.1735C158.967 39.1046 158.991 38.9771 158.906 38.8852Z" fill="#421B36"/>
<path d="M183.707 63.5648C183.707 63.5648 186.494 63.9903 188.261 67.4876C189.96 70.8501 195.142 92.2554 194.997 96.4573C194.884 99.7168 192.854 102.471 186.323 102.855C180.942 103.172 171.779 103.56 170.613 101.704C168.892 98.9646 168.997 91.7228 171.287 91.1808C173.577 90.6389 184.085 91.5883 184.22 91.1808C184.354 90.7734 182.174 82.6703 181.636 79.3024C181.097 75.9348 180.069 63.2954 183.707 63.5648Z" fill="white"/>
<path d="M188.02 67.6284C188.412 68.4124 188.672 69.2694 188.939 70.101C189.374 71.4561 189.763 72.825 190.14 74.1971C191.077 77.6201 191.921 81.0694 192.698 84.5321C193.386 87.6011 194.052 90.6887 194.493 93.8044C194.824 96.1311 194.938 98.6023 193.068 100.358C191.586 101.751 189.435 102.259 187.473 102.478C185.354 102.716 183.19 102.756 181.059 102.81C178.967 102.863 176.863 102.878 174.776 102.696C173.954 102.624 173.127 102.525 172.328 102.317C171.85 102.192 171.24 102.033 170.908 101.635C170.454 101.092 170.248 100.255 170.084 99.5836C169.863 98.6767 169.753 97.7444 169.721 96.812C169.669 95.2921 169.701 93.33 170.611 92.028C171.258 91.1036 172.724 91.2958 173.716 91.2893C175.414 91.2777 177.113 91.3503 178.809 91.42C180.253 91.4792 181.7 91.5637 183.146 91.5651C183.678 91.5656 184.564 91.6963 184.49 90.9433C184.363 89.6621 183.949 88.3699 183.652 87.1225C183.207 85.2565 182.754 83.3919 182.351 81.5166C182.187 80.7571 182.03 79.9952 181.906 79.2279C181.848 78.8735 181.309 79.0237 181.367 79.3766C181.942 82.9252 182.956 86.3939 183.724 89.9028C183.75 90.0193 183.867 91.0976 183.946 91.1322C184.002 91.1567 184.072 90.9751 184.053 90.9617C184.034 90.9488 183.96 90.9825 183.937 90.9811C183.725 90.9691 183.499 91.0042 183.286 91.0056C181.835 91.0153 180.381 90.9252 178.932 90.8656C177.195 90.794 175.455 90.7183 173.716 90.7298C172.724 90.7363 171.266 90.5852 170.479 91.3249C169.425 92.3149 169.245 94.1361 169.173 95.488C169.077 97.3022 169.248 99.2574 169.932 100.956C170.139 101.47 170.371 101.988 170.841 102.309C171.348 102.656 171.982 102.821 172.573 102.948C174.45 103.351 176.414 103.387 178.326 103.399C180.544 103.413 182.762 103.327 184.977 103.21C187.154 103.094 189.367 102.958 191.394 102.079C192.836 101.453 194.091 100.422 194.736 98.9627C195.199 97.9162 195.332 96.764 195.256 95.6298C195.069 92.8495 194.449 90.0728 193.88 87.3521C193.119 83.7037 192.261 80.0742 191.324 76.4669C190.615 73.7398 189.919 70.9696 188.921 68.3302C188.795 67.9971 188.663 67.6645 188.504 67.3457C188.342 67.0241 187.86 67.3073 188.02 67.6284Z" fill="#421B36"/>
<path d="M174.013 92.3587C173.582 91.6707 172.705 91.2942 171.91 91.4564C171.115 91.6185 170.455 92.3083 170.328 93.1099L169.945 97.1265C169.981 98.525 170.365 99.9128 171.054 101.131C171.261 101.497 171.572 101.892 171.993 101.875C172.422 101.859 172.701 101.43 172.887 101.042C173.879 98.974 174.361 96.6779 174.406 94.3845C174.42 93.6869 174.383 92.9505 174.013 92.3587Z" fill="#421B36"/>
<path d="M173.421 91.9705L169.544 90.8506C169.544 90.8506 168.424 86.6293 166.96 85.6818C166.96 85.6818 162.165 85.168 160.876 85.4203C159.588 85.673 159.487 87.5422 159.689 87.9968C159.689 87.9968 158.603 87.5422 158.022 88.3757C157.441 89.2091 158.552 90.9019 158.552 90.9019C158.552 90.9019 157.946 92.2911 158.552 93.15L159.259 93.6046C159.259 93.6046 159.815 95.4484 160.421 96.0042C161.027 96.56 165.322 97.52 166.559 97.4946C167.797 97.4692 169.313 97.1916 169.389 97.217C169.465 97.2424 173.203 98.7328 173.203 98.7328C173.203 98.7328 175.255 93.1407 173.421 91.9705Z" fill="#FFAE7A"/>
<path d="M155.757 95.3097L155.945 92.9142C155.947 92.881 155.957 92.8486 155.973 92.8195C156.494 91.8729 165.239 76.0203 166.032 76.0332C166.695 76.0438 167.516 76.9595 167.802 77.3042C167.865 77.3804 167.874 77.4876 167.823 77.5731C166.896 79.1466 158.456 93.464 157.796 94.182C157.789 94.1903 157.805 94.175 157.796 94.182L156.139 95.512C155.978 95.6414 155.74 95.5157 155.757 95.3097Z" fill="white"/>
<path d="M155.808 95.9505C155.824 95.896 155.844 95.842 155.866 95.7893C155.87 95.7782 155.875 95.7667 155.88 95.7556C155.865 95.7884 155.887 95.7403 155.89 95.7348C155.902 95.7108 155.914 95.6872 155.926 95.6636C155.979 95.5648 156.042 95.471 156.112 95.3837C156.159 95.3254 156.127 95.222 156.066 95.1882C155.992 95.1466 155.921 95.1725 155.87 95.2344C155.719 95.4225 155.606 95.6405 155.535 95.8711C155.513 95.9422 155.557 96.0295 155.631 96.0475C155.707 96.0656 155.784 96.0268 155.808 95.9505Z" fill="#421B36"/>
<path d="M155.976 93.0395C156.65 93.1874 157.264 93.5764 157.669 94.1386C157.715 94.2014 157.789 94.2342 157.862 94.195C157.924 94.1622 157.964 94.0642 157.919 94.0019C157.469 93.3786 156.809 92.9314 156.056 92.7665C155.877 92.7277 155.796 93.0002 155.976 93.0395Z" fill="#421B36"/>
<path d="M156.448 89.3393C156.448 89.3393 156.906 85.4997 158.65 85.283C160.69 85.0298 164.086 84.7295 165.06 85.8725C166.034 87.016 165.06 87.8549 165.06 87.8549C165.06 87.8549 167.919 91.2534 166.976 93.7995C166.034 96.346 161.395 95.7242 160.385 94.735C159.374 93.7464 158.564 92.8325 158.661 91.4465C158.758 90.0605 162.63 88.541 162.63 88.541C162.63 88.541 160.005 87.7048 159.445 87.9423C159.252 88.0236 158.84 89.3971 158.313 89.9654C157.856 90.4597 156.347 91.0986 156.448 89.3393Z" fill="#FFAE7A"/>
<path d="M159.763 88.2671C160.008 88.2274 160.431 88.262 160.731 88.2823C161.232 88.3161 161.732 88.3669 162.231 88.4195C163.05 88.5055 163.882 88.6482 164.707 88.657C164.707 88.4704 164.707 88.2842 164.707 88.0975C163.655 88.2375 162.606 88.4948 161.606 88.8483C160.317 89.3043 158.686 90.0144 158.48 91.5477C158.437 91.8684 158.448 92.2347 158.571 92.5397C158.631 92.6861 158.752 92.7702 158.915 92.7351C161.009 92.2833 163.103 91.8319 165.196 91.38C165.548 91.3043 165.399 90.7647 165.047 90.8409C162.953 91.2927 160.86 91.7441 158.766 92.1955C158.881 92.2606 158.996 92.3258 159.111 92.3909C158.991 92.0975 158.99 91.7446 159.066 91.4419C159.284 90.578 160.107 90.0998 160.86 89.7492C161.684 89.3657 162.565 89.1038 163.449 88.8996C163.752 88.8298 164.057 88.767 164.363 88.7134C164.461 88.6963 164.559 88.6801 164.658 88.6644C164.692 88.6589 164.863 88.6353 164.707 88.6566C165.052 88.6104 165.08 88.1012 164.707 88.0971C163.858 88.0883 163 87.94 162.157 87.8517C161.34 87.7667 160.436 87.5944 159.616 87.7275C159.26 87.7848 159.411 88.3239 159.763 88.2671Z" fill="#421B36"/>
<path d="M160.22 94.7228C161.928 94.8392 163.647 94.6401 165.284 94.1384C165.627 94.033 165.481 93.493 165.135 93.5992C163.542 94.0876 161.883 94.277 160.22 94.1633C159.861 94.1388 159.862 94.6983 160.22 94.7228Z" fill="#421B36"/>
<path d="M151.222 82.4681C151.557 82.762 169.582 100.372 168.685 101.42C167.788 102.468 151.54 100.372 149.618 99.1486C147.842 98.0186 133.669 84.6885 131.828 81.8051C131.677 81.5681 132.028 80.8585 132.101 80.8128C132.795 80.3808 150.527 81.8583 151.222 82.4681Z" fill="#421B36"/>
<path d="M152.384 98.7324C152.384 98.7324 154.709 101.108 152.648 103.75C150.587 106.393 146.761 103.984 144.51 102.429C142.503 101.042 140.683 94.622 141.819 92.1614C141.839 92.1175 152.384 98.7324 152.384 98.7324Z" fill="white"/>
<path d="M152.208 99.9451C151.971 99.8925 153.721 104.469 150.614 104.331C147.507 104.194 144.879 96.457 144.879 96.457L152.488 100.005" fill="#421B36"/>
<path d="M184.025 91.3918C186.418 91.2476 188.783 91.9665 190.696 93.4107C190.983 93.6279 191.262 93.1423 190.978 92.9279C188.996 91.4315 186.503 90.6831 184.025 90.8328C183.668 90.854 183.665 91.4135 184.025 91.3918Z" fill="#421B36"/>
<path d="M144.547 96.0529C144.547 96.0529 143.597 93.8921 143.541 92.5962C143.485 91.3003 141.975 89.6791 142.591 88.896C143.205 88.1134 144.547 88.6789 144.939 89.1755C145.776 90.2367 146.225 93.3141 146.225 93.3141C146.225 93.3141 146.225 93.7798 146.896 92.5957C147.567 91.4116 148.804 87.8334 150.002 87.8893C151.201 87.9452 151.089 89.249 150.586 90.4701C150.083 91.6911 148.629 94.1624 149.524 94.6881C150.418 95.2139 153.946 89.5017 155.115 90.8526C156.284 92.2035 152.208 96.0524 152.208 96.0524C152.208 96.0524 156.186 92.6442 157.272 93.3137C158.358 93.9836 157.827 95.1552 157.827 95.1552C157.827 95.1552 159.14 95.996 158.693 96.611C158.246 97.2259 150.754 102.09 149.188 101.867C147.622 101.644 144.408 97.4393 144.547 96.0529Z" fill="#FFAE7A"/>
<path d="M145.847 94.9378C146.485 93.9233 146.787 92.7262 147.425 91.7121C147.617 91.4068 147.133 91.1254 146.942 91.4299C146.304 92.4444 146.003 93.6415 145.365 94.6555C145.172 94.9614 145.656 95.2423 145.847 94.9378Z" fill="#421B36"/>
<path d="M152.511 98.4213C154.369 97.634 156.133 96.6435 157.773 95.4668C158.062 95.2589 157.784 94.7733 157.49 94.984C155.851 96.1607 154.087 97.1512 152.229 97.9385C151.899 98.0785 152.183 98.5603 152.511 98.4213Z" fill="#421B36"/>
<path d="M151.036 97.07C152.526 95.9058 154.049 94.7845 155.601 93.7048C155.895 93.5006 155.616 93.0155 155.319 93.222C153.728 94.3285 152.168 95.4807 150.64 96.6745C150.357 96.8958 150.755 97.2895 151.036 97.07Z" fill="#421B36"/>
<path d="M172.79 100.978C173.535 99.5065 174.022 98.0419 174.168 96.3963C174.253 95.4367 174.343 94.4554 174.219 93.4959C174.123 92.7571 173.882 91.8082 173.161 91.4344C172.842 91.269 172.559 91.7514 172.879 91.9172C173.628 92.3058 173.7 93.5388 173.716 94.2679C173.733 95.0556 173.665 95.853 173.586 96.6365C173.44 98.0891 172.963 99.3979 172.306 100.696C172.144 101.016 172.626 101.3 172.79 100.978Z" fill="#421B36"/>
<path d="M182.018 75.7861C182.397 71.9436 184.08 68.3007 186.748 65.5112C186.997 65.2511 186.602 64.8547 186.352 65.1157C183.576 68.0185 181.853 71.7907 181.459 75.7861C181.424 76.1441 181.983 76.1413 182.018 75.7861Z" fill="#421B36"/>
<path d="M162.761 50.5301C163.197 50.8055 163.839 50.538 164.257 50.3384C164.782 50.088 165.283 49.7008 165.572 49.1899C165.773 48.8369 165.316 48.5052 165.024 48.7667C164.652 49.0989 164.315 49.4375 163.872 49.6791C163.516 49.8732 163.003 49.9489 162.726 50.2534C162.648 50.3393 162.662 50.4678 162.761 50.5301Z" fill="#421B36"/>
<path d="M143.294 91.1014C143.673 90.7438 143.822 90.1441 143.627 89.6558C143.424 89.1472 142.924 88.7997 142.374 88.7983C142.227 88.7979 142.087 88.9272 142.094 89.0779C142.101 89.2299 142.217 89.3569 142.374 89.3574C142.4 89.3574 142.426 89.3588 142.453 89.3597C142.506 89.3615 142.438 89.3551 142.47 89.3606C142.517 89.3689 142.564 89.3795 142.61 89.3939C142.635 89.4017 142.66 89.4105 142.684 89.4202C142.647 89.4054 142.685 89.4216 142.702 89.4294C142.745 89.4512 142.787 89.4752 142.827 89.502C142.832 89.5052 142.887 89.5459 142.863 89.5269C142.839 89.508 142.89 89.5514 142.895 89.5556C142.931 89.5879 142.963 89.623 142.996 89.6595C143.015 89.6817 142.981 89.635 143.008 89.6757C143.023 89.6974 143.038 89.7191 143.051 89.7417C143.062 89.7607 143.073 89.7796 143.083 89.7995C143.089 89.811 143.095 89.8231 143.101 89.8351C143.092 89.8124 143.091 89.8106 143.098 89.8291C143.115 89.8743 143.129 89.9205 143.139 89.9677C143.14 89.9741 143.153 90.043 143.147 90.0079C143.142 89.9728 143.15 90.0425 143.151 90.049C143.154 90.097 143.153 90.1455 143.15 90.1936C143.148 90.2144 143.143 90.2518 143.149 90.2107C143.145 90.2366 143.14 90.2624 143.134 90.2883C143.125 90.3313 143.11 90.3724 143.097 90.4149C143.079 90.4754 143.111 90.3936 143.085 90.4454C143.074 90.4689 143.062 90.4925 143.049 90.5156C143.028 90.5535 143.005 90.5909 142.978 90.6256C143.01 90.584 142.956 90.6477 142.954 90.65C142.936 90.6694 142.917 90.6875 142.898 90.7059C142.788 90.8099 142.793 90.997 142.898 91.1014C143.008 91.2109 143.184 91.2054 143.294 91.1014Z" fill="#421B36"/>
<path d="M162.344 80.7248C162.344 80.7248 165.13 82.9063 165.572 82.3889C166.015 81.8719 168 77.8715 168.257 77.2006C168.726 75.9754 166.872 74.6532 165.314 76.2475C163.757 77.8419 162.344 80.7248 162.344 80.7248Z" fill="#421B36"/>
<path d="M160.746 82.5727C162.004 80.5566 163.315 78.5741 164.678 76.6277C164.573 76.6707 164.468 76.7137 164.362 76.7562C164.553 76.819 164.743 76.8823 164.934 76.9451C165.277 77.0583 165.423 76.5182 165.083 76.406C164.892 76.3431 164.701 76.2798 164.511 76.217C164.386 76.1759 164.264 76.2466 164.195 76.3454C162.832 78.2918 161.52 80.2738 160.262 82.2905C160.072 82.5968 160.555 82.8781 160.746 82.5727Z" fill="#421B36"/>
<path d="M137.558 82.3695C137.558 82.3695 135.426 80.2697 135.62 79.8175C135.814 79.3652 136.621 78.9775 136.718 78.9775C136.816 78.9775 142.598 79.2358 143.212 79.5269C143.826 79.8175 145.312 82.2083 144.666 82.37C144.02 82.5312 137.558 82.3695 137.558 82.3695Z" fill="#421B36"/>
<path d="M167.271 101.109C163.848 97.7728 160.61 94.25 157.417 90.6954C155.826 88.9241 154.248 87.1412 152.672 85.3561C152.303 84.9384 151.935 84.5203 151.566 84.1027C151.334 83.8393 151.109 83.4397 150.766 83.3408C150.664 83.3112 150.535 83.3191 150.43 83.3094C145.965 82.8904 141.501 82.4713 137.037 82.0518C135.457 81.9035 133.877 81.7552 132.297 81.6069C131.939 81.5732 131.941 82.1327 132.297 82.1664C136.129 82.5263 139.961 82.8857 143.793 83.2456C145.855 83.4392 147.918 83.6328 149.98 83.8264C150.183 83.8453 150.426 83.8319 150.622 83.8864C150.658 83.8961 150.717 83.8804 150.75 83.8984C150.852 83.9539 150.369 83.6462 150.689 83.953C150.905 84.1604 151.093 84.4103 151.292 84.6353C152.821 86.3678 154.349 88.1013 155.888 89.825C159.446 93.812 163.047 97.7728 166.875 101.504C167.133 101.756 167.529 101.361 167.271 101.109Z" fill="url(#paint25_linear_7199_47871)"/>
<path d="M176.563 114.828C176.563 114.828 176.502 128.318 180.068 129.354C183.634 130.39 192.255 129.296 192.687 127.249C193.12 125.202 191.081 111.715 189.433 111.715C187.784 111.715 176.563 114.828 176.563 114.828Z" fill="white"/>
<path d="M176.282 114.828C176.268 118.393 176.49 122.119 177.398 125.575C177.8 127.107 178.442 129.221 180.177 129.674C182.772 130.353 185.746 130.084 188.351 129.607C189.521 129.393 190.739 129.112 191.793 128.541C192.424 128.201 192.927 127.753 193.001 127.012C193.078 126.239 193.002 125.441 192.937 124.67C192.84 123.509 192.695 122.353 192.528 121.199C192.175 118.774 191.753 116.32 191.028 113.975C190.809 113.27 190.576 112.484 190.127 111.885C189.779 111.422 189.415 111.413 188.877 111.489C186.758 111.79 184.662 112.395 182.593 112.927C180.663 113.424 178.737 113.939 176.815 114.468C176.706 114.498 176.597 114.528 176.487 114.558C176.141 114.654 176.288 115.194 176.636 115.097C180.155 114.122 183.687 113.154 187.253 112.37C187.916 112.224 188.643 112.001 189.327 111.998C189.49 111.998 189.512 112.01 189.652 112.178C189.838 112.402 189.963 112.695 190.076 112.961C190.895 114.882 191.261 117.044 191.624 119.087C192.013 121.274 192.347 123.495 192.448 125.716C192.471 126.212 192.592 126.96 192.319 127.41C191.871 128.148 190.666 128.456 189.903 128.675C187.345 129.41 184.514 129.644 181.867 129.391C181.028 129.311 180.031 129.247 179.407 128.613C178.819 128.014 178.484 127.173 178.222 126.39C177.513 124.271 177.246 121.998 177.059 119.781C176.928 118.215 176.852 116.643 176.842 115.072C176.841 114.991 176.841 114.909 176.841 114.827C176.843 114.468 176.283 114.468 176.282 114.828Z" fill="#421B36"/>
<defs>
<linearGradient id="paint0_linear_7199_47871" x1="114.791" y1="8.22168" x2="114.791" y2="196.88" gradientUnits="userSpaceOnUse">
<stop stop-color="#FFB198"/>
<stop offset="1" stop-color="#E75634"/>
</linearGradient>
<linearGradient id="paint1_linear_7199_47871" x1="189.775" y1="31.5903" x2="189.775" y2="49.8585" gradientUnits="userSpaceOnUse">
<stop stop-color="#107649"/>
<stop offset="1" stop-color="#00C36D"/>
</linearGradient>
<linearGradient id="paint2_linear_7199_47871" x1="71.7268" y1="207.729" x2="71.7268" y2="215.634" gradientUnits="userSpaceOnUse">
<stop stop-color="#107649"/>
<stop offset="1" stop-color="#00C36D"/>
</linearGradient>
<linearGradient id="paint3_linear_7199_47871" x1="119.057" y1="170.107" x2="119.057" y2="179.811" gradientUnits="userSpaceOnUse">
<stop stop-color="#107649"/>
<stop offset="1" stop-color="#00C36D"/>
</linearGradient>
<linearGradient id="paint4_linear_7199_47871" x1="118.983" y1="168.763" x2="118.983" y2="175.168" gradientUnits="userSpaceOnUse">
<stop stop-color="#107649"/>
<stop offset="1" stop-color="#00C36D"/>
</linearGradient>
<linearGradient id="paint5_linear_7199_47871" x1="119.057" y1="165.137" x2="119.057" y2="173.641" gradientUnits="userSpaceOnUse">
<stop stop-color="#107649"/>
<stop offset="1" stop-color="#00C36D"/>
</linearGradient>
<linearGradient id="paint6_linear_7199_47871" x1="91.4078" y1="196.184" x2="91.4078" y2="220.216" gradientUnits="userSpaceOnUse">
<stop stop-color="#107649"/>
<stop offset="1" stop-color="#00C36D"/>
</linearGradient>
<linearGradient id="paint7_linear_7199_47871" x1="91.2882" y1="171.5" x2="91.2882" y2="181.821" gradientUnits="userSpaceOnUse">
<stop stop-color="#107649"/>
<stop offset="1" stop-color="#00C36D"/>
</linearGradient>
<linearGradient id="paint8_linear_7199_47871" x1="91.3946" y1="192.785" x2="91.3946" y2="199.583" gradientUnits="userSpaceOnUse">
<stop stop-color="#107649"/>
<stop offset="1" stop-color="#00C36D"/>
</linearGradient>
<linearGradient id="paint9_linear_7199_47871" x1="75.9425" y1="179.032" x2="75.9425" y2="185.877" gradientUnits="userSpaceOnUse">
<stop stop-color="#107649"/>
<stop offset="1" stop-color="#00C36D"/>
</linearGradient>
<linearGradient id="paint10_linear_7199_47871" x1="80.4586" y1="180.126" x2="80.4586" y2="187.647" gradientUnits="userSpaceOnUse">
<stop stop-color="#107649"/>
<stop offset="1" stop-color="#00C36D"/>
</linearGradient>
<linearGradient id="paint11_linear_7199_47871" x1="86.4014" y1="181.316" x2="86.4014" y2="188.008" gradientUnits="userSpaceOnUse">
<stop stop-color="#107649"/>
<stop offset="1" stop-color="#00C36D"/>
</linearGradient>
<linearGradient id="paint12_linear_7199_47871" x1="92.2579" y1="181.63" x2="92.2579" y2="189.018" gradientUnits="userSpaceOnUse">
<stop stop-color="#107649"/>
<stop offset="1" stop-color="#00C36D"/>
</linearGradient>
<linearGradient id="paint13_linear_7199_47871" x1="97.7335" y1="181.29" x2="97.7335" y2="188.391" gradientUnits="userSpaceOnUse">
<stop stop-color="#107649"/>
<stop offset="1" stop-color="#00C36D"/>
</linearGradient>
<linearGradient id="paint14_linear_7199_47871" x1="102.985" y1="180.318" x2="102.985" y2="186.844" gradientUnits="userSpaceOnUse">
<stop stop-color="#107649"/>
<stop offset="1" stop-color="#00C36D"/>
</linearGradient>
<linearGradient id="paint15_linear_7199_47871" x1="62.4625" y1="176.902" x2="62.4625" y2="192.56" gradientUnits="userSpaceOnUse">
<stop stop-color="#107649"/>
<stop offset="1" stop-color="#00C36D"/>
</linearGradient>
<linearGradient id="paint16_linear_7199_47871" x1="192.562" y1="210.318" x2="192.562" y2="216.402" gradientUnits="userSpaceOnUse">
<stop stop-color="#107649"/>
<stop offset="1" stop-color="#00C36D"/>
</linearGradient>
<linearGradient id="paint17_linear_7199_47871" x1="173.103" y1="96.1831" x2="173.103" y2="198.286" gradientUnits="userSpaceOnUse">
<stop stop-color="#107649"/>
<stop offset="1" stop-color="#00C36D"/>
</linearGradient>
<linearGradient id="paint18_linear_7199_47871" x1="169.494" y1="60.8589" x2="169.494" y2="106.796" gradientUnits="userSpaceOnUse">
<stop stop-color="#107649"/>
<stop offset="1" stop-color="#00C36D"/>
</linearGradient>
<linearGradient id="paint19_linear_7199_47871" x1="177.236" y1="61.0669" x2="177.236" y2="79.7581" gradientUnits="userSpaceOnUse">
<stop stop-color="#107649"/>
<stop offset="1" stop-color="#00C36D"/>
</linearGradient>
<linearGradient id="paint20_linear_7199_47871" x1="175.715" y1="79.3022" x2="175.715" y2="88.5215" gradientUnits="userSpaceOnUse">
<stop stop-color="#107649"/>
<stop offset="1" stop-color="#00C36D"/>
</linearGradient>
<linearGradient id="paint21_linear_7199_47871" x1="150.653" y1="205.308" x2="150.653" y2="216.358" gradientUnits="userSpaceOnUse">
<stop stop-color="#107649"/>
<stop offset="1" stop-color="#00C36D"/>
</linearGradient>
<linearGradient id="paint22_linear_7199_47871" x1="161.434" y1="204.729" x2="161.434" y2="212.439" gradientUnits="userSpaceOnUse">
<stop stop-color="#107649"/>
<stop offset="1" stop-color="#00C36D"/>
</linearGradient>
<linearGradient id="paint23_linear_7199_47871" x1="153.153" y1="210.06" x2="153.153" y2="216.813" gradientUnits="userSpaceOnUse">
<stop stop-color="#107649"/>
<stop offset="1" stop-color="#00C36D"/>
</linearGradient>
<linearGradient id="paint24_linear_7199_47871" x1="193.3" y1="205.017" x2="193.3" y2="216.173" gradientUnits="userSpaceOnUse">
<stop stop-color="#107649"/>
<stop offset="1" stop-color="#00C36D"/>
</linearGradient>
<linearGradient id="paint25_linear_7199_47871" x1="149.692" y1="81.6055" x2="149.692" y2="101.585" gradientUnits="userSpaceOnUse">
<stop stop-color="#107649"/>
<stop offset="1" stop-color="#00C36D"/>
</linearGradient>
</defs>
</svg>
