<svg width="72" height="72" viewBox="0 0 72 72" fill="none" xmlns="http://www.w3.org/2000/svg">
<path d="M33.3821 68.7272C51.4568 68.7272 66.1093 54.0747 66.1093 36C66.1093 17.9252 51.4568 3.27271 33.3821 3.27271C15.3073 3.27271 0.654785 17.9252 0.654785 36C0.654785 54.0747 15.3073 68.7272 33.3821 68.7272Z" fill="#D3FFE8"/>
<path d="M33.3822 60.2181C46.7576 60.2181 57.6004 49.3753 57.6004 35.9999C57.6004 22.6246 46.7576 11.7817 33.3822 11.7817C20.0069 11.7817 9.16406 22.6246 9.16406 35.9999C9.16406 49.3753 20.0069 60.2181 33.3822 60.2181Z" fill="#78FFB9"/>
<path d="M11.782 4.58181C12.8665 4.58181 13.7456 3.70266 13.7456 2.61818C13.7456 1.53369 12.8665 0.654541 11.782 0.654541C10.6975 0.654541 9.81836 1.53369 9.81836 2.61818C9.81836 3.70266 10.6975 4.58181 11.782 4.58181Z" fill="#FF4D69"/>
<path d="M69.3821 10.4727C70.4666 10.4727 71.3457 9.59353 71.3457 8.50905C71.3457 7.42456 70.4666 6.54541 69.3821 6.54541C68.2976 6.54541 67.4185 7.42456 67.4185 8.50905C67.4185 9.59353 68.2976 10.4727 69.3821 10.4727Z" fill="#00C99F"/>
<path d="M58.2547 71.3455C59.3391 71.3455 60.2183 70.4663 60.2183 69.3818C60.2183 68.2974 59.3391 67.4182 58.2547 67.4182C57.1702 67.4182 56.291 68.2974 56.291 69.3818C56.291 70.4663 57.1702 71.3455 58.2547 71.3455Z" fill="#FFA100"/>
<path d="M8.50953 68.7273C9.59402 68.7273 10.4732 67.8482 10.4732 66.7637C10.4732 65.6792 9.59402 64.8 8.50953 64.8C7.42505 64.8 6.5459 65.6792 6.5459 66.7637C6.5459 67.8482 7.42505 68.7273 8.50953 68.7273Z" fill="#00C99F"/>
<path d="M66.764 39.9273C66.7634 40.4673 66.9297 40.9943 67.2403 41.436C67.5508 41.8778 67.9903 42.2127 68.4986 42.395C68.7506 42.4743 68.9713 42.6306 69.1298 42.842C69.2884 43.0533 69.3766 43.309 69.3822 43.5732V53.6728C69.3822 54.02 69.2443 54.353 68.9988 54.5985C68.7533 54.844 68.4203 54.9819 68.0731 54.9819H53.3917C53.1276 54.9763 52.8718 54.888 52.6605 54.7295C52.4492 54.571 52.2928 54.3502 52.2135 54.0983C52.0327 53.5884 51.6984 53.147 51.2565 52.8348C50.8146 52.5227 50.2869 52.3551 49.7459 52.3551C49.2048 52.3551 48.6771 52.5227 48.2352 52.8348C47.7934 53.147 47.459 53.5884 47.2782 54.0983C47.1989 54.3502 47.0426 54.571 46.8312 54.7295C46.6199 54.888 46.3642 54.9763 46.1 54.9819H13.0913C12.7441 54.9819 12.4112 54.844 12.1657 54.5985C11.9201 54.353 11.7822 54.02 11.7822 53.6728V24.8728H47.1277C47.1277 25.5672 47.4035 26.2331 47.8945 26.7241C48.3855 27.2151 49.0515 27.491 49.7459 27.491C50.4402 27.491 51.1062 27.2151 51.5972 26.7241C52.0882 26.2331 52.364 25.5672 52.364 24.8728H68.0731C68.4203 24.8728 68.7533 25.0107 68.9988 25.2562C69.2443 25.5017 69.3822 25.8347 69.3822 26.1819V36.2815C69.3766 36.5456 69.2884 36.8014 69.1298 37.0127C68.9713 37.224 68.7506 37.3804 68.4986 37.4597C67.9903 37.642 67.5508 37.9769 67.2403 38.4187C66.9297 38.8604 66.7634 39.3874 66.764 39.9273Z" fill="#00602E"/>
<path d="M55.6367 32.0726C55.6361 32.6126 55.8024 33.1395 56.1129 33.5813C56.4234 34.0231 56.8629 34.358 57.3712 34.5402C57.6232 34.6196 57.844 34.7759 58.0025 34.9873C58.161 35.1986 58.2493 35.4543 58.2549 35.7184V45.8181C58.2549 46.1653 58.117 46.4982 57.8715 46.7437C57.6259 46.9892 57.293 47.1272 56.9458 47.1272H42.2643C42.0002 47.1216 41.7445 47.0333 41.5331 46.8748C41.3218 46.7163 41.1655 46.4955 41.0861 46.2435C40.9053 45.7336 40.571 45.2922 40.1291 44.9801C39.6872 44.6679 39.1595 44.5004 38.6185 44.5004C38.0775 44.5004 37.5498 44.6679 37.1079 44.9801C36.666 45.2922 36.3317 45.7336 36.1509 46.2435C36.0715 46.4955 35.9152 46.7163 35.7039 46.8748C35.4925 47.0333 35.2368 47.1216 34.9727 47.1272H2.61851C0.819818 42.1491 0.255374 36.809 0.973587 31.5649C1.6918 26.3209 3.67124 21.3292 6.74215 17.0181H34.9727C35.2368 17.0237 35.4925 17.1119 35.7039 17.2704C35.9152 17.4289 36.0715 17.6497 36.1509 17.9017C36.3317 18.4116 36.666 18.853 37.1079 19.1651C37.5498 19.4773 38.0775 19.6449 38.6185 19.6449C39.1595 19.6449 39.6872 19.4773 40.1291 19.1651C40.571 18.853 40.9053 18.4116 41.0861 17.9017C41.1655 17.6497 41.3218 17.4289 41.5331 17.2704C41.7445 17.1119 42.0002 17.0237 42.2643 17.0181H56.9458C57.293 17.0181 57.6259 17.156 57.8715 17.4015C58.117 17.647 58.2549 17.98 58.2549 18.3272V28.4268C58.2493 28.6909 58.161 28.9466 58.0025 29.158C57.844 29.3693 57.6232 29.5256 57.3712 29.605C56.8629 29.7872 56.4234 30.1222 56.1129 30.5639C55.8024 31.0057 55.6361 31.5326 55.6367 32.0726Z" fill="#009045"/>
<path d="M39.273 23.5637C39.273 23.2022 38.9799 22.9092 38.6184 22.9092C38.2569 22.9092 37.9639 23.2022 37.9639 23.5637V24.8728C37.9639 25.2343 38.2569 25.5274 38.6184 25.5274C38.9799 25.5274 39.273 25.2343 39.273 24.8728V23.5637Z" fill="#8FA2FF"/>
<path d="M39.273 28.8001C39.273 28.4386 38.9799 28.1455 38.6184 28.1455C38.2569 28.1455 37.9639 28.4386 37.9639 28.8001V30.1091C37.9639 30.4706 38.2569 30.7637 38.6184 30.7637C38.9799 30.7637 39.273 30.4706 39.273 30.1091V28.8001Z" fill="#8FA2FF"/>
<path d="M39.273 34.0364C39.273 33.6749 38.9799 33.3818 38.6184 33.3818C38.2569 33.3818 37.9639 33.6749 37.9639 34.0364V35.3455C37.9639 35.707 38.2569 36 38.6184 36C38.9799 36 39.273 35.707 39.273 35.3455V34.0364Z" fill="#8FA2FF"/>
<path d="M39.273 39.2727C39.273 38.9112 38.9799 38.6182 38.6184 38.6182C38.2569 38.6182 37.9639 38.9112 37.9639 39.2727V40.5818C37.9639 40.9433 38.2569 41.2363 38.6184 41.2363C38.9799 41.2363 39.273 40.9433 39.273 40.5818V39.2727Z" fill="#8FA2FF"/>
<path d="M43.2004 26.8364H52.364C52.7255 26.8364 53.0186 26.5434 53.0186 26.1819C53.0186 25.8204 52.7255 25.5273 52.364 25.5273H43.2004C42.8389 25.5273 42.5458 25.8204 42.5458 26.1819C42.5458 26.5434 42.8389 26.8364 43.2004 26.8364Z" fill="white"/>
<path d="M43.2004 30.7637H52.364C52.7255 30.7637 53.0186 30.4706 53.0186 30.1091C53.0186 29.7476 52.7255 29.4546 52.364 29.4546H43.2004C42.8389 29.4546 42.5458 29.7476 42.5458 30.1091C42.5458 30.4706 42.8389 30.7637 43.2004 30.7637Z" fill="white"/>
<path d="M43.2004 34.6909H52.364C52.7255 34.6909 53.0186 34.3979 53.0186 34.0364C53.0186 33.6749 52.7255 33.3818 52.364 33.3818H43.2004C42.8389 33.3818 42.5458 33.6749 42.5458 34.0364C42.5458 34.3979 42.8389 34.6909 43.2004 34.6909Z" fill="white"/>
<path d="M5.23704 44.5093H7.85522C8.21672 44.5093 8.50977 44.2162 8.50977 43.8547C8.50977 43.4932 8.21672 43.2002 7.85522 43.2002H5.23704C4.87554 43.2002 4.58249 43.4932 4.58249 43.8547C4.58249 44.2162 4.87554 44.5093 5.23704 44.5093Z" fill="white"/>
<path d="M43.2004 38.6182H52.364C52.7255 38.6182 53.0186 38.3251 53.0186 37.9636C53.0186 37.6021 52.7255 37.3091 52.364 37.3091H43.2004C42.8389 37.3091 42.5458 37.6021 42.5458 37.9636C42.5458 38.3251 42.8389 38.6182 43.2004 38.6182Z" fill="white"/>
<path d="M11.7821 39.9272C11.524 39.9262 11.272 39.8488 11.0577 39.7049C10.8434 39.561 10.6765 39.3569 10.5779 39.1184C10.4792 38.8799 10.4533 38.6175 10.5034 38.3643C10.5534 38.1111 10.6772 37.8783 10.8592 37.6952L23.9501 24.6043C24.2005 24.3899 24.5227 24.2778 24.8521 24.2905C25.1816 24.3033 25.4941 24.4398 25.7273 24.673C25.9604 24.9061 26.097 25.2187 26.1097 25.5481C26.1225 25.8776 26.0104 26.1997 25.7959 26.4501L12.705 39.5411C12.4606 39.7869 12.1287 39.9258 11.7821 39.9272Z" fill="white"/>
<path d="M12.4366 31.4183C11.6598 31.4183 10.9005 31.1879 10.2547 30.7564C9.60884 30.3249 9.10547 29.7115 8.80822 28.9939C8.51098 28.2763 8.43321 27.4866 8.58474 26.7248C8.73628 25.963 9.11031 25.2632 9.65955 24.714C10.2088 24.1648 10.9086 23.7907 11.6704 23.6392C12.4322 23.4876 13.2218 23.5654 13.9395 23.8627C14.6571 24.1599 15.2704 24.6633 15.702 25.3091C16.1335 25.955 16.3638 26.7143 16.3638 27.491C16.3638 28.5326 15.9501 29.5315 15.2136 30.268C14.477 31.0045 13.4781 31.4183 12.4366 31.4183ZM12.4366 26.1819C12.1776 26.1819 11.9245 26.2587 11.7093 26.4025C11.494 26.5464 11.3262 26.7508 11.2271 26.99C11.128 27.2292 11.1021 27.4924 11.1526 27.7464C11.2031 28.0003 11.3278 28.2336 11.5109 28.4167C11.694 28.5997 11.9272 28.7244 12.1812 28.7749C12.4351 28.8254 12.6983 28.7995 12.9375 28.7004C13.1767 28.6014 13.3812 28.4336 13.525 28.2183C13.6689 28.003 13.7456 27.7499 13.7456 27.491C13.7456 27.1438 13.6077 26.8108 13.3622 26.5653C13.1167 26.3198 12.7837 26.1819 12.4366 26.1819Z" fill="white"/>
<path d="M25.5279 40.5818C24.7511 40.5818 23.9918 40.3515 23.346 39.92C22.7001 39.4884 22.1968 38.8751 21.8995 38.1575C21.6023 37.4399 21.5245 36.6502 21.676 35.8884C21.8276 35.1266 22.2016 34.4268 22.7509 33.8776C23.3001 33.3283 23.9999 32.9543 24.7617 32.8028C25.5235 32.6512 26.3131 32.729 27.0308 33.0262C27.7484 33.3235 28.3617 33.8269 28.7933 34.4727C29.2248 35.1185 29.4551 35.8778 29.4551 36.6546C29.4551 37.6961 29.0414 38.6951 28.3049 39.4316C27.5684 40.1681 26.5694 40.5818 25.5279 40.5818ZM25.5279 35.3455C25.2689 35.3455 25.0158 35.4223 24.8006 35.5661C24.5853 35.7099 24.4175 35.9144 24.3184 36.1536C24.2193 36.3928 24.1934 36.656 24.2439 36.91C24.2944 37.1639 24.4191 37.3972 24.6022 37.5802C24.7853 37.7633 25.0185 37.888 25.2725 37.9385C25.5264 37.989 25.7896 37.9631 26.0288 37.864C26.268 37.7649 26.4725 37.5971 26.6163 37.3819C26.7602 37.1666 26.837 36.9135 26.837 36.6546C26.837 36.3074 26.699 35.9744 26.4535 35.7289C26.208 35.4834 25.8751 35.3455 25.5279 35.3455Z" fill="white"/>
</svg>
