<svg width="413" height="146" viewBox="0 0 413 146" fill="none" xmlns="http://www.w3.org/2000/svg">
<path d="M208.35 137.053C207.613 137.053 206.914 137.053 204.961 129.271C198.362 128.003 197.787 127.231 197.594 126.971C197.41 126.722 197.331 126.267 197.415 125.971C197.533 125.55 197.809 124.573 205.343 121.535C208.047 114.484 208.96 114.484 209.569 114.484C209.882 114.484 210.315 114.709 210.502 114.961C210.986 115.612 211.424 117.299 212.089 120.003C212.298 120.851 212.55 121.877 212.695 122.324C213.089 122.5 213.964 122.814 214.691 123.074C218.561 124.461 219.561 124.934 219.74 125.853C219.807 126.196 219.632 126.699 219.372 126.932C218.584 127.637 214.837 129.029 212.876 129.729C209.688 136.983 209.009 137.02 208.409 137.051C208.389 137.053 208.367 137.053 208.35 137.053ZM200.11 126.117C201.425 126.498 203.843 127.046 205.951 127.44C206.333 127.509 206.639 127.799 206.732 128.176C207.271 130.361 207.976 132.85 208.482 134.258C209.213 132.947 210.326 130.608 211.228 128.539C211.339 128.287 211.549 128.091 211.808 128C213.61 127.366 215.646 126.585 216.905 126.033C216.02 125.658 214.804 125.223 214.02 124.941C211.811 124.149 211.394 123.978 211.111 123.599C210.863 123.266 210.71 122.709 210.161 120.477C209.952 119.626 209.631 118.32 209.346 117.35C208.688 118.602 207.762 120.747 207.043 122.645C206.944 122.907 206.741 123.112 206.483 123.215C204.144 124.152 201.489 125.341 200.11 126.117Z" fill="white"/>
<path d="M37.6948 79.8894C37.64 79.8894 37.5824 79.8858 37.5258 79.8757C36.9852 79.7826 36.6226 79.2693 36.7158 78.7287L41.5824 50.3993C41.6746 49.8604 42.1906 49.4942 42.7276 49.5892C43.2682 49.6824 43.6308 50.1956 43.5376 50.7362L38.671 79.0657C38.5888 79.5488 38.1696 79.8894 37.6948 79.8894Z" fill="#F1F3F6"/>
<path d="M23.3713 68.4437C22.9312 68.4437 22.5284 68.1496 22.4124 67.7012C22.2736 67.1725 22.5914 66.63 23.1211 66.4921L55.3912 58.073C55.919 57.9278 56.4652 58.2492 56.6021 58.7826C56.741 59.3113 56.4231 59.8538 55.8926 59.9917L23.6225 68.4108C23.5394 68.4336 23.4544 68.4437 23.3713 68.4437Z" fill="#F1F3F6"/>
<path d="M49.9128 75.809C49.648 75.809 49.3841 75.704 49.1877 75.4948L28.6107 53.5142C28.2363 53.1133 28.2573 52.4849 28.6573 52.1114C29.0582 51.7416 29.6865 51.7571 30.06 52.158L50.637 74.1387C51.0114 74.5396 50.9904 75.1679 50.5904 75.5414C50.3996 75.7195 50.1557 75.809 49.9128 75.809Z" fill="#F1F3F6"/>
<path d="M43.9364 52.0821C42.2469 52.9899 40.1419 52.3552 39.2341 50.6666C38.3264 48.9771 38.9611 46.8721 40.6497 45.9644C42.3391 45.0566 44.4442 45.6913 45.3519 47.3799C46.2597 49.0694 45.6259 51.1744 43.9364 52.0821Z" fill="white"/>
<path d="M42.2963 53.4887C40.6479 53.4887 39.1401 52.5874 38.3602 51.1381C37.7959 50.086 37.6744 48.8787 38.0178 47.7354C38.3621 46.5938 39.1301 45.6541 40.1812 45.0906C42.2862 43.9573 45.0999 44.8176 46.2259 46.9116C46.7894 47.96 46.9109 49.1673 46.5666 50.3107C46.2223 51.4522 45.4552 52.3919 44.404 52.9554C43.7575 53.3043 43.0278 53.4887 42.2963 53.4887ZM42.2899 46.5436C41.8789 46.5436 41.4844 46.6422 41.1191 46.8376C40.5356 47.1518 40.1082 47.6733 39.9173 48.308C39.7264 48.9417 39.7931 49.6121 40.1073 50.1974C40.7356 51.3655 42.2853 51.8467 43.4652 51.2066C44.0497 50.8924 44.4762 50.3709 44.667 49.7362C44.8588 49.1025 44.7912 48.4321 44.478 47.8486C44.0451 47.044 43.2068 46.5436 42.2899 46.5436Z" fill="#F1F3F6"/>
<path d="M39.8843 82.9759C38.1948 83.8836 36.0898 83.2489 35.1821 81.5604C34.2743 79.8709 34.9081 77.7659 36.5976 76.8581C38.2871 75.9503 40.3921 76.5842 41.2998 78.2736C42.2076 79.9631 41.5738 82.0681 39.8843 82.9759Z" fill="white"/>
<path d="M38.2442 84.3811C36.5949 84.3811 35.0881 83.4798 34.3091 82.0287C33.1447 79.8625 33.9602 77.1492 36.1282 75.983C38.2387 74.8497 41.0488 75.7082 42.1739 77.8049C43.3382 79.9711 42.5227 82.6844 40.3547 83.8506C39.7054 84.1994 38.9766 84.3811 38.2442 84.3811ZM38.2378 77.4369C37.8259 77.4369 37.4323 77.5356 37.0661 77.7319C35.8616 78.3794 35.4086 79.8862 36.0561 81.0917C36.6844 82.2597 38.2342 82.7346 39.415 82.1035C40.6195 81.4561 41.0725 79.9492 40.4259 78.7438C39.9931 77.9365 39.1547 77.4369 38.2378 77.4369Z" fill="#F1F3F6"/>
<path d="M25.9449 69.7904C24.5888 71.1465 22.3906 71.1465 21.0344 69.7904C19.6783 68.4342 19.6783 66.2361 21.0344 64.8799C22.3906 63.5238 24.5888 63.5238 25.9449 64.8799C27.3011 66.2361 27.3011 68.4342 25.9449 69.7904Z" fill="white"/>
<path d="M23.4892 71.8002C22.2965 71.8002 21.1741 71.3354 20.3321 70.4925C18.5924 68.75 18.5924 65.9199 20.3321 64.1775C22.0189 62.4916 24.9577 62.4916 26.6462 64.1775C27.4901 65.0204 27.954 66.1418 27.954 67.3336C27.954 68.5272 27.4901 69.6487 26.6462 70.4916C25.8033 71.3354 24.681 71.8002 23.4892 71.8002ZM23.4892 64.8551C22.8253 64.8551 22.2024 65.1126 21.7349 65.5802C20.7677 66.5473 20.7677 68.1226 21.7349 69.0888C22.6718 70.0267 24.3056 70.0267 25.2435 69.0888C25.7129 68.6203 25.9704 67.9975 25.9704 67.3336C25.9704 66.6706 25.7129 66.0487 25.2435 65.5802C24.775 65.1126 24.1522 64.8551 23.4892 64.8551Z" fill="#F1F3F6"/>
<path d="M57.9801 60.4368C56.6239 61.793 54.4258 61.793 53.0696 60.4368C51.7135 59.0807 51.7135 56.8825 53.0696 55.5264C54.4258 54.1702 56.6239 54.1702 57.9801 55.5264C59.3362 56.8816 59.3362 59.0807 57.9801 60.4368Z" fill="white"/>
<path d="M55.5254 62.4449C54.3327 62.4449 53.2122 61.9819 52.3693 61.139C51.5254 60.2961 51.0615 59.1738 51.0615 57.9829C51.0615 56.7893 51.5254 55.6669 52.3693 54.8249C54.0551 53.1391 56.9966 53.1391 58.6825 54.8249C59.5263 55.6678 59.9902 56.7902 59.9902 57.9829C59.9902 59.1747 59.5263 60.2961 58.6825 61.139C57.8386 61.9819 56.7181 62.4449 55.5254 62.4449ZM55.5254 55.4998C54.8624 55.4998 54.2405 55.7573 53.772 56.2267C53.3026 56.6961 53.0451 57.3181 53.0451 57.982C53.0451 58.645 53.3026 59.2669 53.772 59.7354C54.7081 60.6696 56.3437 60.6696 57.2788 59.7354C57.7482 59.266 58.0058 58.6441 58.0058 57.982C58.0058 57.3171 57.7482 56.6952 57.2788 56.2267C56.8103 55.7583 56.1884 55.4998 55.5254 55.4998Z" fill="#F1F3F6"/>
<path d="M30.3878 54.1224C29.0316 55.4786 26.8335 55.4786 25.4773 54.1224C24.1212 52.7662 24.1212 50.5681 25.4773 49.2119C26.8335 47.8558 29.0316 47.8558 30.3878 49.2119C31.7439 50.5681 31.7439 52.7662 30.3878 54.1224Z" fill="white"/>
<path d="M27.9331 56.1319C26.7404 56.1319 25.6189 55.6671 24.776 54.8241C23.0372 53.0844 23.0372 50.2516 24.776 48.511C26.4619 46.827 29.4043 46.8233 31.0901 48.511C32.8289 50.2507 32.8289 53.0835 31.0901 54.8241C30.2463 55.6671 29.1248 56.1319 27.9331 56.1319ZM27.9331 49.1877C27.2701 49.1877 26.6472 49.4452 26.1788 49.9146C25.2125 50.8817 25.2125 52.4552 26.1788 53.4214C27.1157 54.3593 28.7477 54.3593 29.6865 53.4214C30.6527 52.4543 30.6527 50.8808 29.6865 49.9146C29.2171 49.4452 28.5943 49.1877 27.9331 49.1877Z" fill="#F1F3F6"/>
<path d="M53.6544 77.39C52.2982 78.7461 50.1001 78.7461 48.7439 77.39C47.3878 76.0338 47.3878 73.8357 48.7439 72.4795C50.1001 71.1234 52.2982 71.1234 53.6544 72.4795C55.0105 73.8348 55.0105 76.0338 53.6544 77.39Z" fill="white"/>
<path d="M51.1995 79.3986C50.0068 79.3986 48.8863 78.9337 48.0433 78.0908C47.1995 77.2479 46.7356 76.1264 46.7356 74.9347C46.7356 73.7411 47.2004 72.6205 48.0433 71.7785C49.7292 70.0945 52.6698 70.0909 54.3565 71.7785C55.1995 72.6215 55.6643 73.7411 55.6643 74.9347C55.6643 76.1264 55.2004 77.2479 54.3565 78.0908C53.5127 78.9337 52.3913 79.3986 51.1995 79.3986ZM51.1995 72.4543C50.5365 72.4543 49.9146 72.7119 49.4461 73.1813C48.9767 73.6498 48.7191 74.2726 48.7191 74.9347C48.7191 75.5977 48.9767 76.2196 49.4461 76.6881C50.384 77.626 52.015 77.626 52.9529 76.6881C53.4223 76.2196 53.6798 75.5968 53.6798 74.9347C53.6798 74.2717 53.4223 73.6498 52.9529 73.1813C52.4844 72.7119 51.8616 72.4543 51.1995 72.4543Z" fill="#F1F3F6"/>
<path d="M90.1088 31.4521C90.0806 31.4521 90.0509 31.4502 90.0217 31.445C89.7431 31.397 89.5562 31.1324 89.6042 30.8538L92.1127 16.2514C92.1602 15.9737 92.4262 15.7849 92.703 15.8339C92.9816 15.8819 93.1685 16.1465 93.1205 16.4251L90.612 31.0275C90.5697 31.2765 90.3536 31.4521 90.1088 31.4521Z" fill="white"/>
<path d="M82.7264 25.5525C82.4995 25.5525 82.2919 25.4009 82.2321 25.1698C82.1606 24.8973 82.3244 24.6176 82.5974 24.5466L99.2309 20.207C99.503 20.1321 99.7845 20.2978 99.8551 20.5727C99.9267 20.8453 99.7628 21.1249 99.4893 21.1959L82.8558 25.5356C82.813 25.5473 82.7692 25.5525 82.7264 25.5525Z" fill="white"/>
<path d="M96.4072 29.3486C96.2706 29.3486 96.1346 29.2945 96.0334 29.1867L85.427 17.8568C85.234 17.6502 85.2449 17.3263 85.451 17.1338C85.6577 16.9432 85.9815 16.9512 86.1741 17.1578L96.7804 28.4877C96.9734 28.6943 96.9626 29.0182 96.7564 29.2107C96.6581 29.3025 96.5324 29.3486 96.4072 29.3486Z" fill="white"/>
<path d="M93.3264 17.1188C92.4556 17.5867 91.3705 17.2595 90.9026 16.3891C90.4347 15.5183 90.7619 14.4333 91.6323 13.9654C92.5031 13.4975 93.5881 13.8246 94.056 14.695C94.5239 15.5658 94.1972 16.6509 93.3264 17.1188Z" fill="white"/>
<path d="M92.481 17.8435C91.6313 17.8435 90.8542 17.3789 90.4522 16.6319C90.1613 16.0896 90.0986 15.4673 90.2756 14.878C90.4531 14.2896 90.849 13.8052 91.3908 13.5147C92.4758 12.9306 93.9261 13.374 94.5065 14.4534C94.7969 14.9938 94.8596 15.6161 94.6821 16.2054C94.5046 16.7938 94.1092 17.2782 93.5674 17.5686C93.2341 17.7484 92.858 17.8435 92.481 17.8435ZM92.4777 14.2637C92.2659 14.2637 92.0625 14.3145 91.8742 14.4152C91.5734 14.5772 91.3531 14.846 91.2547 15.1731C91.1564 15.4998 91.1907 15.8453 91.3527 16.147C91.6765 16.7491 92.4753 16.9972 93.0835 16.6672C93.3848 16.5053 93.6046 16.2365 93.703 15.9093C93.8018 15.5826 93.767 15.2371 93.6055 14.9363C93.3824 14.5216 92.9503 14.2637 92.4777 14.2637Z" fill="white"/>
<path d="M91.2379 33.0427C90.367 33.5106 89.282 33.1834 88.8141 32.3131C88.3462 31.4422 88.6729 30.3572 89.5437 29.8893C90.4146 29.4214 91.4996 29.7481 91.9675 30.6189C92.4354 31.4898 92.1087 32.5748 91.2379 33.0427Z" fill="white"/>
<path d="M90.3923 33.7665C89.5421 33.7665 88.7654 33.3019 88.3639 32.554C87.7637 31.4374 88.1841 30.0389 89.3016 29.4378C90.3894 28.8536 91.8379 29.2961 92.4178 30.3769C93.018 31.4934 92.5976 32.8919 91.4801 33.493C91.1454 33.6729 90.7698 33.7665 90.3923 33.7665ZM90.389 30.1872C90.1767 30.1872 89.9738 30.238 89.785 30.3392C89.1641 30.6729 88.9307 31.4496 89.2644 32.071C89.5883 32.673 90.3871 32.9178 90.9957 32.5926C91.6166 32.2588 91.8501 31.4821 91.5168 30.8608C91.2937 30.4446 90.8616 30.1872 90.389 30.1872Z" fill="white"/>
<path d="M84.0527 26.2463C83.3536 26.9453 82.2206 26.9453 81.5216 26.2463C80.8226 25.5472 80.8226 24.4142 81.5216 23.7152C82.2206 23.0162 83.3536 23.0162 84.0527 23.7152C84.7517 24.4142 84.7517 25.5472 84.0527 26.2463Z" fill="white"/>
<path d="M82.7869 27.282C82.1721 27.282 81.5936 27.0424 81.1596 26.608C80.2629 25.7098 80.2629 24.251 81.1596 23.3529C82.029 22.4839 83.5438 22.4839 84.4142 23.3529C84.8491 23.7874 85.0883 24.3654 85.0883 24.9797C85.0883 25.5949 84.8491 26.173 84.4142 26.6075C83.9797 27.0424 83.4012 27.282 82.7869 27.282ZM82.7869 23.7022C82.4447 23.7022 82.1237 23.8349 81.8826 24.0759C81.3841 24.5744 81.3841 25.3864 81.8826 25.8844C82.3656 26.3679 83.2077 26.3679 83.6912 25.8844C83.9331 25.643 84.0659 25.3219 84.0659 24.9797C84.0659 24.638 83.9331 24.3174 83.6912 24.0759C83.4497 23.8349 83.1286 23.7022 82.7869 23.7022Z" fill="white"/>
<path d="M100.565 21.425C99.8661 22.124 98.7331 22.124 98.034 21.425C97.335 20.726 97.335 19.5929 98.034 18.8939C98.7331 18.1949 99.8661 18.1949 100.565 18.8939C101.264 19.5925 101.264 20.726 100.565 21.425Z" fill="white"/>
<path d="M99.3002 22.4598C98.6854 22.4598 98.1078 22.2212 97.6733 21.7867C97.2384 21.3522 96.9993 20.7737 96.9993 20.1599C96.9993 19.5446 97.2384 18.9661 97.6733 18.5321C98.5423 17.6631 100.059 17.6631 100.927 18.5321C101.362 18.9666 101.602 19.5451 101.602 20.1599C101.602 20.7742 101.362 21.3522 100.927 21.7867C100.493 22.2212 99.9149 22.4598 99.3002 22.4598ZM99.3002 18.8799C98.9584 18.8799 98.6379 19.0127 98.3964 19.2547C98.1544 19.4966 98.0217 19.8172 98.0217 20.1594C98.0217 20.5011 98.1544 20.8217 98.3964 21.0632C98.8789 21.5447 99.7219 21.5447 100.204 21.0632C100.446 20.8212 100.579 20.5007 100.579 20.1594C100.579 19.8167 100.446 19.4961 100.204 19.2547C99.9625 19.0132 99.6419 18.8799 99.3002 18.8799Z" fill="white"/>
<path d="M86.343 18.1701C85.6439 18.8691 84.5109 18.8691 83.8119 18.1701C83.1128 17.4711 83.1128 16.338 83.8119 15.639C84.5109 14.94 85.6439 14.94 86.343 15.639C87.042 16.338 87.042 17.4711 86.343 18.1701Z" fill="white"/>
<path d="M85.0778 19.2059C84.463 19.2059 83.885 18.9663 83.4505 18.5318C82.5543 17.6351 82.5543 16.1749 83.4505 15.2777C84.3195 14.4097 85.8361 14.4078 86.7051 15.2777C87.6014 16.1744 87.6014 17.6346 86.7051 18.5318C86.2702 18.9663 85.6921 19.2059 85.0778 19.2059ZM85.0778 15.6265C84.7361 15.6265 84.415 15.7592 84.1735 16.0012C83.6755 16.4997 83.6755 17.3108 84.1735 17.8088C84.6565 18.2922 85.4977 18.2922 85.9816 17.8088C86.4796 17.3103 86.4796 16.4992 85.9816 16.0012C85.7396 15.7592 85.4186 15.6265 85.0778 15.6265Z" fill="white"/>
<path d="M98.3354 30.1633C97.6364 30.8623 96.5033 30.8623 95.8043 30.1633C95.1053 29.4642 95.1053 28.3312 95.8043 27.6322C96.5033 26.9332 97.6364 26.9332 98.3354 27.6322C99.0344 28.3307 99.0344 29.4642 98.3354 30.1633Z" fill="white"/>
<path d="M97.0702 31.1991C96.4554 31.1991 95.8778 30.9595 95.4434 30.525C95.0084 30.0905 94.7693 29.5125 94.7693 28.8982C94.7693 28.2829 95.0089 27.7054 95.4434 27.2713C96.3123 26.4033 97.8281 26.4014 98.6975 27.2713C99.132 27.7058 99.3716 28.2829 99.3716 28.8982C99.3716 29.5125 99.1324 30.0905 98.6975 30.525C98.2625 30.9595 97.6845 31.1991 97.0702 31.1991ZM97.0702 27.6197C96.7284 27.6197 96.4079 27.7524 96.1664 27.9944C95.9244 28.2359 95.7917 28.5569 95.7917 28.8982C95.7917 29.2399 95.9244 29.5605 96.1664 29.802C96.6498 30.2854 97.4905 30.2854 97.974 29.802C98.2159 29.5605 98.3487 29.2394 98.3487 28.8982C98.3487 28.5564 98.2159 28.2359 97.974 27.9944C97.7325 27.7524 97.4115 27.6197 97.0702 27.6197Z" fill="white"/>
<path d="M387.718 60.7948C390.206 63.2829 394.277 63.2829 396.765 60.7948C399.253 58.3067 399.253 54.2357 396.765 51.748L392.795 47.7783L383.748 56.8255L387.718 60.7948Z" fill="#E75634"/>
<path d="M392.795 47.7773L387.163 42.1459C384.675 39.6578 380.604 39.6578 378.116 42.1459C375.628 44.634 375.628 48.7049 378.116 51.193L383.748 56.8245L392.795 47.7773Z" fill="white"/>
<path d="M383.749 57.3367C383.613 57.3367 383.483 57.2829 383.387 57.1867L377.755 51.5549C375.062 48.8607 375.062 44.4776 377.755 41.7842C379.055 40.4836 380.79 39.7676 382.641 39.7676C384.491 39.7676 386.227 40.4832 387.527 41.7842L393.157 47.4149C393.357 47.6147 393.357 47.9389 393.157 48.1388L384.111 57.1867C384.014 57.2825 383.885 57.3367 383.749 57.3367ZM382.641 40.7918C381.064 40.7918 379.585 41.4018 378.479 42.5085C376.184 44.8031 376.184 48.536 378.479 50.8314L383.749 56.1013L392.072 47.7772L386.803 42.5085C385.696 41.4015 384.217 40.7918 382.641 40.7918Z" fill="#241726"/>
<path d="M1.40674 18.2116C1.40674 21.3395 3.96582 23.8986 7.09374 23.8986C10.2217 23.8986 12.7807 21.3395 12.7807 18.2116V13.2212H1.40674V18.2116Z" fill="#E75634"/>
<path d="M12.7805 13.221V6.14159C12.7805 3.01367 10.2214 0.45459 7.0935 0.45459C3.96558 0.45459 1.40649 3.01367 1.40649 6.14159V13.221H12.7805Z" fill="white"/>
<path d="M12.7804 13.6766H1.406C1.15438 13.6766 0.950928 13.4731 0.950928 13.2215V6.14208C0.950928 2.75486 3.70614 0 7.09301 0C10.4799 0 13.2351 2.75521 13.2351 6.14208V13.2219C13.2354 13.4731 13.032 13.6766 12.7804 13.6766ZM1.86107 12.7664H12.3253V6.14208C12.3253 3.25705 9.97804 0.910145 7.09336 0.910145C4.20832 0.910145 1.86142 3.2574 1.86142 6.14208L1.86107 12.7664Z" fill="#241726"/>
<path d="M159.793 54.4069C157.16 57.1658 157.263 61.577 160.022 64.21C162.78 66.8429 167.192 66.7399 169.825 63.9811L174.025 59.5795L163.993 50.0054L159.793 54.4069Z" fill="#E75634"/>
<path d="M174.023 59.5798L179.982 53.3357C182.615 50.5769 182.512 46.1656 179.754 43.5327C176.995 40.8997 172.583 41.0027 169.95 43.7616L163.991 50.0056L174.023 59.5798Z" fill="white"/>
<path d="M173.641 59.9808L163.609 50.4063C163.387 50.1945 163.379 49.8438 163.59 49.6219L169.55 43.3778C172.401 40.3902 177.15 40.2797 180.137 43.1306C183.124 45.9815 183.235 50.7308 180.384 53.7181L174.425 59.9625C174.214 60.1844 173.863 60.1926 173.641 59.9808ZM164.776 49.9866L174.006 58.7949L179.582 52.9522C182.01 50.4076 181.916 46.3618 179.371 43.9336C176.827 41.5051 172.781 41.5999 170.353 44.1442L164.776 49.9866Z" fill="#241726"/>
<path d="M100.207 132.317C99.5294 132.026 98.8882 131.751 100.161 123.831C94.5991 120.063 94.3751 119.126 94.2998 118.811C94.2282 118.51 94.3346 118.06 94.5288 117.821C94.8044 117.482 95.4424 116.692 103.563 116.873C108.829 111.46 109.667 111.819 110.226 112.059C110.514 112.183 110.823 112.562 110.896 112.865C111.085 113.651 110.822 115.375 110.369 118.117C110.226 118.981 110.052 120.026 110.008 120.494C110.301 120.812 110.982 121.446 111.547 121.971C114.557 124.772 115.288 125.6 115.09 126.517C115.017 126.856 114.657 127.25 114.327 127.362C113.327 127.7 109.333 127.501 107.254 127.37C101.463 132.779 100.825 132.545 100.261 132.337C100.244 132.332 100.223 132.324 100.207 132.317ZM96.9489 119.017C98.0069 119.887 100.011 121.346 101.794 122.538C102.117 122.756 102.284 123.139 102.221 123.523C101.855 125.742 101.521 128.308 101.432 129.8C102.619 128.885 104.565 127.173 106.211 125.626C106.412 125.438 106.682 125.342 106.956 125.36C108.862 125.488 111.041 125.574 112.416 125.562C111.75 124.869 110.806 123.99 110.196 123.422C108.478 121.822 108.162 121.501 108.052 121.041C107.956 120.639 108.035 120.066 108.411 117.791C108.553 116.931 108.773 115.605 108.893 114.604C107.796 115.492 106.097 117.101 104.688 118.562C104.494 118.763 104.226 118.872 103.948 118.867C101.43 118.803 98.5208 118.851 96.9489 119.017Z" fill="white"/>
<path d="M133.642 133.695C133.271 133.536 132.92 133.385 133.617 129.046C130.57 126.981 130.447 126.468 130.406 126.295C130.366 126.13 130.425 125.884 130.531 125.753C130.682 125.567 131.032 125.134 135.481 125.233C138.366 122.267 138.825 122.465 139.132 122.596C139.289 122.664 139.458 122.871 139.499 123.038C139.602 123.468 139.458 124.413 139.21 125.915C139.131 126.388 139.036 126.961 139.012 127.218C139.173 127.391 139.546 127.739 139.855 128.026C141.504 129.561 141.905 130.015 141.796 130.517C141.756 130.703 141.559 130.919 141.378 130.98C140.83 131.166 138.642 131.056 137.503 130.985C134.33 133.948 133.981 133.82 133.672 133.706C133.662 133.704 133.651 133.699 133.642 133.695ZM131.857 126.408C132.437 126.885 133.535 127.684 134.512 128.338C134.689 128.457 134.78 128.667 134.746 128.877C134.545 130.093 134.362 131.499 134.313 132.316C134.964 131.815 136.03 130.877 136.932 130.029C137.042 129.926 137.19 129.873 137.34 129.883C138.384 129.954 139.578 130 140.331 129.994C139.967 129.614 139.449 129.133 139.115 128.822C138.174 127.945 138.001 127.769 137.94 127.517C137.888 127.297 137.931 126.983 138.137 125.737C138.215 125.265 138.336 124.539 138.401 123.99C137.8 124.477 136.869 125.358 136.097 126.159C135.991 126.269 135.844 126.328 135.692 126.326C134.312 126.291 132.718 126.317 131.857 126.408Z" fill="white"/>
<path d="M120.959 72.7821C120.587 72.6227 120.236 72.4719 120.933 68.1327C117.886 66.0682 117.763 65.5549 117.722 65.382C117.682 65.2171 117.741 64.9709 117.847 64.8396C117.998 64.654 118.348 64.2213 122.797 64.3203C125.682 61.3544 126.142 61.5515 126.448 61.6829C126.605 61.7506 126.775 61.9582 126.815 62.1246C126.918 62.555 126.774 63.4994 126.526 65.0018C126.447 65.4751 126.352 66.0479 126.328 66.3044C126.489 66.4784 126.862 66.8258 127.171 67.1133C128.82 68.6479 129.221 69.1018 129.113 69.6042C129.072 69.7901 128.875 70.006 128.694 70.0672C128.147 70.2525 125.958 70.1433 124.819 70.0714C121.646 73.0354 121.297 72.9071 120.988 72.7931C120.978 72.7906 120.967 72.7858 120.959 72.7821ZM119.173 65.4952C119.753 65.9715 120.851 66.7711 121.828 67.4244C122.005 67.5434 122.096 67.7537 122.062 67.9637C121.861 69.1796 121.678 70.5858 121.629 71.4032C122.28 70.9017 123.346 69.9637 124.248 69.1163C124.358 69.0133 124.506 68.9602 124.656 68.9703C125.7 69.0405 126.894 69.0874 127.647 69.0811C127.283 68.7014 126.765 68.2196 126.431 67.9085C125.49 67.0319 125.317 66.8559 125.256 66.6039C125.204 66.3837 125.247 66.0696 125.453 64.8235C125.531 64.3522 125.652 63.6254 125.717 63.0769C125.116 63.5639 124.185 64.4451 123.413 65.2457C123.307 65.3559 123.16 65.4154 123.008 65.4126C121.629 65.3777 120.034 65.4041 119.173 65.4952Z" fill="white"/>
<path d="M354.785 136.045C354.308 136.04 353.924 135.649 353.926 135.171C353.929 134.694 354.321 134.306 354.8 134.309C356.857 134.321 358.154 134.18 358.167 134.178C358.649 134.116 359.073 134.468 359.127 134.943C359.18 135.42 358.838 135.849 358.362 135.904C358.306 135.909 356.959 136.059 354.789 136.046C354.787 136.046 354.786 136.046 354.785 136.045ZM351.312 135.887C351.29 135.886 351.269 135.886 351.248 135.884C350.062 135.785 348.878 135.638 347.729 135.447C347.256 135.369 346.936 134.921 347.014 134.449C347.092 133.975 347.54 133.661 348.012 133.734C349.115 133.917 350.252 134.059 351.392 134.153C351.87 134.194 352.225 134.612 352.185 135.091C352.147 135.547 351.763 135.892 351.312 135.887ZM344.46 134.75C344.392 134.749 344.323 134.74 344.254 134.722C343.085 134.425 341.94 134.074 340.853 133.684C340.402 133.522 340.168 133.024 340.331 132.573C340.493 132.12 340.995 131.894 341.441 132.049C342.477 132.423 343.567 132.756 344.683 133.041C345.148 133.158 345.429 133.631 345.31 134.096C345.209 134.492 344.851 134.754 344.46 134.75ZM337.938 132.386C337.813 132.385 337.688 132.356 337.568 132.297C336.483 131.768 335.435 131.177 334.454 130.542C334.052 130.282 333.937 129.743 334.198 129.34C334.458 128.936 334.997 128.825 335.398 129.084C336.321 129.683 337.307 130.239 338.329 130.737C338.76 130.949 338.939 131.468 338.729 131.899C338.576 132.209 338.263 132.39 337.938 132.386ZM332.134 128.61C331.938 128.608 331.742 128.54 331.581 128.402C330.672 127.626 329.81 126.78 329.021 125.89C328.702 125.53 328.736 124.982 329.094 124.665C329.451 124.347 330.001 124.38 330.32 124.738C331.055 125.568 331.859 126.357 332.707 127.082C333.071 127.392 333.115 127.94 332.804 128.305C332.63 128.509 332.383 128.613 332.134 128.61ZM327.548 123.434C327.27 123.431 326.999 123.296 326.834 123.047C326.182 122.068 325.584 121.024 325.054 119.941C324.843 119.511 325.022 118.991 325.452 118.78C325.879 118.565 326.401 118.747 326.614 119.178C327.109 120.191 327.67 121.17 328.279 122.086C328.545 122.484 328.437 123.024 328.038 123.289C327.887 123.389 327.715 123.436 327.548 123.434ZM324.495 117.231C324.139 117.227 323.808 117.003 323.684 116.649C323.305 115.558 322.973 114.408 322.698 113.231C322.59 112.764 322.88 112.298 323.347 112.189C323.812 112.078 324.281 112.369 324.39 112.837C324.651 113.955 324.965 115.046 325.324 116.077C325.482 116.53 325.242 117.026 324.789 117.184C324.692 117.215 324.592 117.232 324.495 117.231ZM322.907 110.494C322.484 110.489 322.117 110.176 322.057 109.745C321.941 108.905 321.848 108.039 321.779 107.144L321.716 106.223C321.687 105.745 322.051 105.333 322.53 105.304C323.017 105.272 323.42 105.641 323.449 106.12L323.51 107.01C323.576 107.868 323.666 108.699 323.777 109.506C323.843 109.981 323.512 110.42 323.036 110.485C322.992 110.491 322.949 110.494 322.907 110.494ZM322.51 103.568C322.506 103.568 322.502 103.568 322.498 103.568C322.019 103.556 321.639 103.158 321.651 102.679C321.681 101.458 321.77 100.266 321.914 99.1328C321.974 98.6573 322.405 98.3296 322.884 98.3804C323.36 98.4416 323.696 98.876 323.636 99.3516C323.5 100.425 323.416 101.559 323.387 102.721C323.375 103.196 322.984 103.573 322.51 103.568ZM323.412 96.7025C323.343 96.7017 323.274 96.6922 323.204 96.6746C322.741 96.556 322.461 96.0831 322.58 95.6185C322.888 94.4184 323.277 93.2696 323.735 92.2078C323.926 91.7672 324.437 91.5643 324.876 91.7561C325.317 91.9456 325.52 92.4568 325.329 92.8975C324.906 93.8765 324.547 94.937 324.261 96.051C324.16 96.4462 323.802 96.7068 323.412 96.7025ZM337.742 94.8378C337.328 94.8332 336.911 94.8063 336.49 94.7577C336.013 94.7029 335.672 94.2724 335.728 93.7967C335.782 93.3211 336.201 92.9709 336.689 93.0338C337.782 93.1577 338.86 93.1105 339.852 92.8904C340.323 92.775 340.784 93.0789 340.889 93.5475C340.993 94.0154 340.698 94.4796 340.231 94.5831C339.434 94.7614 338.597 94.8472 337.742 94.8378ZM333.225 93.9098C333.123 93.9087 333.019 93.8892 332.918 93.8505C331.821 93.4197 330.733 92.8515 329.685 92.1615C329.285 91.8974 329.174 91.3592 329.437 90.9585C329.7 90.5579 330.239 90.4471 330.639 90.7105C331.587 91.3346 332.566 91.8473 333.551 92.2329C333.997 92.4088 334.217 92.9115 334.042 93.3594C333.908 93.7032 333.575 93.9137 333.225 93.9098ZM343.191 93.2221C342.921 93.2191 342.656 93.0907 342.489 92.8516C342.214 92.4602 342.309 91.9186 342.701 91.6433C343.538 91.0571 344.275 90.3005 344.894 89.3939C345.163 88.9981 345.703 88.8946 346.1 89.1667C346.496 89.4372 346.598 89.9777 346.327 90.3735C345.591 91.4537 344.706 92.3598 343.697 93.0655C343.544 93.174 343.366 93.224 343.191 93.2221ZM326.171 90.3728C326.008 90.371 325.843 90.3236 325.698 90.2253C325.299 89.958 325.193 89.4198 325.46 89.0208C325.531 88.9161 325.603 88.8122 325.676 88.7076C325.246 88.2345 324.833 87.7417 324.439 87.2308C324.148 86.8496 324.218 86.3061 324.598 86.0131C324.977 85.7208 325.523 85.7907 325.816 86.1703C326.118 86.5652 326.434 86.9467 326.76 87.3155C327.092 86.9323 327.437 86.5686 327.795 86.2217C328.14 85.8867 328.69 85.8991 329.023 86.2416C329.356 86.5857 329.347 87.1354 329.003 87.4688C328.642 87.8157 328.298 88.185 327.97 88.573C327.995 88.5989 328.021 88.6231 328.048 88.6466C328.396 88.9756 328.411 89.5256 328.08 89.8744C327.771 90.2034 327.267 90.237 326.919 89.9631C326.914 89.9718 326.909 89.9797 326.904 89.9885C326.733 90.2415 326.454 90.3759 326.171 90.3728ZM346.457 87.4869C346.059 87.4825 345.703 87.2037 345.617 86.7976C345.407 85.7948 344.586 85.0993 343.935 84.6918C343.529 84.438 343.404 83.9028 343.659 83.4949C343.913 83.0893 344.451 82.9658 344.855 83.2196C346.199 84.0599 347.05 85.1736 347.317 86.4392C347.415 86.9085 347.115 87.3695 346.646 87.4674C346.582 87.4811 346.52 87.4876 346.457 87.4869ZM331.134 85.6024C330.844 85.5992 330.561 85.4506 330.4 85.182C330.153 84.7709 330.285 84.2378 330.695 83.9898C331.736 83.3635 332.857 82.8525 334.025 82.4698C334.484 82.327 334.972 82.5697 335.12 83.026C335.268 83.48 335.02 83.9711 334.565 84.1203C333.52 84.4612 332.52 84.9185 331.591 85.478C331.448 85.5635 331.289 85.6041 331.134 85.6024ZM323.207 84.6752C322.907 84.6719 322.618 84.5129 322.46 84.2331C321.882 83.2078 321.361 82.1201 320.913 80.9996C320.736 80.5549 320.953 80.0491 321.398 79.8726C321.842 79.6913 322.349 79.9103 322.526 80.3565C322.944 81.4039 323.431 82.4218 323.971 83.3819C324.207 83.7984 324.059 84.329 323.641 84.5633C323.504 84.6417 323.355 84.6768 323.207 84.6752ZM341.145 83.6374C341.096 83.6369 341.048 83.6331 341 83.6238C339.982 83.44 338.891 83.3872 337.763 83.4811C337.276 83.5165 336.866 83.1627 336.828 82.686C336.79 82.2078 337.145 81.7889 337.623 81.7503C338.904 81.6477 340.142 81.7037 341.308 81.9147C341.779 81.9998 342.093 82.4524 342.008 82.9229C341.931 83.3456 341.561 83.642 341.145 83.6374ZM320.626 78.2499C320.245 78.2457 319.898 77.9894 319.796 77.6015C319.621 76.9315 319.466 76.2409 319.333 75.5347L319.072 74.1397C318.983 73.6689 319.294 73.2144 319.765 73.1269C320.24 73.0323 320.688 73.3472 320.778 73.8197L321.039 75.2146C321.163 75.8809 321.31 76.5298 321.476 77.1629C321.597 77.6253 321.32 78.1001 320.856 78.2229C320.78 78.2412 320.702 78.2507 320.626 78.2499ZM319.27 71.4273C318.867 71.4229 318.508 71.1361 318.429 70.7244C318.222 69.6554 317.998 68.5173 317.75 67.3239C317.653 66.853 317.954 66.3936 318.423 66.2973C318.889 66.1969 319.351 66.5009 319.449 66.9695C319.699 68.1725 319.925 69.3177 320.133 70.3932C320.224 70.8641 319.916 71.3202 319.445 71.4117C319.386 71.4238 319.328 71.428 319.27 71.4273ZM317.856 64.6129C317.463 64.6086 317.109 64.3354 317.02 63.9356C316.773 62.8429 316.509 61.7189 316.224 60.5666C316.108 60.1027 316.393 59.6311 316.858 59.5156C317.324 59.4024 317.794 59.6857 317.909 60.1513C318.198 61.314 318.465 62.4516 318.712 63.5547C318.818 64.0218 318.524 64.4868 318.057 64.592C317.989 64.6072 317.921 64.6136 317.856 64.6129ZM316.182 57.8596C315.804 57.8554 315.458 57.6023 315.354 57.22C315.056 56.1267 314.738 55.0172 314.401 53.8995C314.263 53.4417 314.523 52.9563 314.981 52.8191C315.443 52.6716 315.924 52.9398 316.063 53.3992C316.405 54.5305 316.726 55.6528 317.029 56.7637C317.155 57.2262 316.882 57.7035 316.42 57.8286C316.341 57.8509 316.26 57.8604 316.182 57.8596ZM314.17 51.2024C313.811 51.1984 313.477 50.9694 313.356 50.6101C312.994 49.5257 312.612 48.4419 312.209 47.3586C312.041 46.9109 312.269 46.41 312.718 46.2415C313.165 46.077 313.667 46.3015 313.835 46.7525C314.246 47.8526 314.635 48.9572 315.004 50.0577C315.156 50.514 314.911 51.0044 314.455 51.1568C314.361 51.1893 314.265 51.2034 314.17 51.2024ZM311.74 44.694C311.404 44.6903 311.085 44.4902 310.948 44.1611C310.505 43.1014 310.041 42.0518 309.556 41.0124C309.352 40.5795 309.539 40.0629 309.973 39.8591C310.41 39.6554 310.925 39.8424 311.127 40.277C311.625 41.3373 312.099 42.4101 312.55 43.4907C312.735 43.9339 312.526 44.4414 312.084 44.6267C311.97 44.6742 311.854 44.6953 311.74 44.694ZM308.777 38.4068C308.471 38.4034 308.175 38.2371 308.02 37.9477C307.481 36.9365 306.916 35.9418 306.325 34.9723C306.076 34.5644 306.205 34.0297 306.614 33.7801C307.023 33.5288 307.558 33.6578 307.807 34.0697C308.416 35.0665 308.997 36.0886 309.552 37.1303C309.779 37.5532 309.618 38.0788 309.195 38.3051C309.062 38.3755 308.918 38.4083 308.777 38.4068ZM305.152 32.483C304.884 32.48 304.62 32.3532 304.452 32.1157C303.783 31.1709 303.086 30.2626 302.382 29.4174C302.075 29.0497 302.125 28.5028 302.493 28.1944C302.858 27.89 303.409 27.9384 303.715 28.3062C304.449 29.1861 305.174 30.1298 305.869 31.114C306.146 31.5054 306.054 32.047 305.662 32.324C305.507 32.4325 305.329 32.4849 305.152 32.483ZM300.704 27.1638C300.485 27.1614 300.267 27.0759 300.1 26.9094C299.284 26.095 298.441 25.3345 297.593 24.6523C297.219 24.3533 297.16 23.8069 297.461 23.4314C297.761 23.0599 298.309 22.9981 298.682 23.301C299.578 24.0213 300.469 24.823 301.328 25.682C301.667 26.0213 301.667 26.5711 301.328 26.9094C301.156 27.0825 300.929 27.1663 300.704 27.1638ZM262.138 23.9549C261.816 23.9513 261.509 23.7681 261.362 23.4565C261.158 23.0235 261.343 22.5069 261.777 22.3015C262.207 22.1009 262.758 22.2564 262.969 22.6822C263.178 23.1065 263.053 23.5989 262.631 23.8149C262.622 23.8195 262.528 23.8681 262.518 23.8727C262.394 23.9313 262.265 23.9563 262.138 23.9549ZM295.307 22.8283C295.153 22.8266 294.998 22.7842 294.857 22.6963C293.906 22.1009 292.915 21.5642 291.91 21.104C291.475 20.9026 291.283 20.3883 291.484 19.951C291.684 19.5161 292.2 19.3268 292.635 19.5249C293.707 20.0186 294.765 20.5896 295.778 21.2249C296.184 21.4787 296.308 22.0155 296.054 22.4218C295.888 22.6877 295.6 22.8316 295.307 22.8283ZM265.376 22.4594C265.042 22.4558 264.726 22.2589 264.587 21.9337C264.398 21.4929 264.602 20.9829 265.044 20.7944C266.162 20.3153 267.257 19.8878 268.329 19.5081C268.781 19.3516 269.277 19.5865 269.437 20.0373C269.597 20.4882 269.36 20.9858 268.908 21.1455C267.87 21.512 266.809 21.9262 265.726 22.389C265.612 22.4389 265.493 22.4607 265.376 22.4594ZM271.921 20.1566C271.543 20.1524 271.199 19.9009 271.093 19.5186C270.967 19.0561 271.24 18.5772 271.702 18.4521C272.871 18.1325 274.034 17.8656 275.16 17.6607C275.627 17.5763 276.083 17.8882 276.168 18.3598C276.255 18.8323 275.941 19.2835 275.47 19.3694C274.394 19.5645 273.28 19.8184 272.161 20.1249C272.081 20.148 272 20.1575 271.921 20.1566ZM289.03 19.9583C288.95 19.9574 288.868 19.9445 288.787 19.9221C287.729 19.6003 286.634 19.347 285.532 19.1694C285.059 19.0931 284.737 18.6484 284.814 18.1746C284.89 17.7023 285.332 17.382 285.809 17.4568C286.988 17.6463 288.159 17.9166 289.293 18.2599C289.751 18.4008 290.01 18.8847 289.87 19.3427C289.756 19.7202 289.406 19.9624 289.03 19.9583ZM278.744 18.9292C278.3 18.9243 277.925 18.5814 277.889 18.1295C277.851 17.6528 278.207 17.234 278.686 17.1953C279.699 17.1146 280.696 17.0832 281.684 17.0957C281.871 17.0977 282.061 17.103 282.252 17.1091C282.731 17.1264 283.107 17.5269 283.09 18.007C283.074 18.4847 282.76 18.8728 282.193 18.8449C281.979 18.8362 281.763 18.8338 281.552 18.8315C280.658 18.8216 279.742 18.8539 278.822 18.9269C278.797 18.9282 278.771 18.9295 278.744 18.9292Z" fill="white"/>
<path d="M38.9314 132.748C42.6188 131.275 44.4304 127.053 42.9575 123.366C41.4849 119.679 37.2629 117.867 33.5755 119.34L27.6924 121.69L33.0485 135.098L38.9314 132.748Z" fill="#41C30E"/>
<path d="M27.6926 121.69L19.3468 125.024C15.66 126.496 13.8482 130.718 15.3209 134.405C16.7936 138.092 21.0157 139.904 24.7025 138.431L33.0484 135.097L27.6926 121.69Z" fill="white"/>
<path d="M18.9533 138.884C17.0342 138.06 15.5539 136.546 14.7851 134.619C14.0149 132.692 14.0441 130.575 14.8676 128.656C15.6911 126.737 17.2056 125.256 19.1332 124.487L27.4778 121.153C27.774 121.035 28.1102 121.179 28.2285 121.475L33.5855 134.883C33.6424 135.026 33.6404 135.185 33.5799 135.325C33.5195 135.466 33.4059 135.577 33.2633 135.634L24.9178 138.967C22.9908 139.737 20.8723 139.707 18.9533 138.884ZM27.37 122.44L19.5617 125.559C17.9216 126.215 16.6309 127.477 15.9293 129.112C15.2278 130.746 15.2024 132.55 15.858 134.19C16.5131 135.83 17.774 137.121 19.4089 137.822C21.0438 138.524 22.8486 138.55 24.4889 137.894L32.2984 134.775L27.37 122.44Z" fill="#241726"/>
<path d="M246.063 33.635C250.78 27.2623 249.438 18.2719 243.066 13.5544C236.693 8.83695 227.702 10.1788 222.985 16.5515C218.268 22.9242 219.609 31.9146 225.982 36.6321C232.355 41.3496 241.345 40.0078 246.063 33.635Z" fill="#E75634"/>
<path d="M238.776 38.4774C238.571 38.3895 238.4 38.224 238.311 38.0005L228.367 13.1114C228.189 12.6653 228.406 12.1594 228.853 11.9806C229.299 11.8024 229.805 12.0195 229.983 12.4658L239.927 37.3549C240.105 37.801 239.888 38.307 239.442 38.4858C239.218 38.5751 238.98 38.565 238.776 38.4774Z" fill="white"/>
<path d="M249.008 91.9218C251.971 87.9183 251.128 82.2703 247.125 79.3067C243.121 76.343 237.473 77.186 234.51 81.1895C231.546 85.193 232.389 90.841 236.393 93.8046C240.396 96.7683 246.044 95.9253 249.008 91.9218Z" fill="#41C30E"/>
<path d="M244.429 94.9646C244.301 94.9093 244.193 94.8054 244.137 94.665L237.89 79.029C237.778 78.7488 237.915 78.4309 238.195 78.3186C238.475 78.2066 238.793 78.343 238.906 78.6234L245.152 94.2594C245.264 94.5397 245.128 94.8575 244.848 94.9698C244.707 95.0259 244.558 95.0196 244.429 94.9646Z" fill="white"/>
<g clip-path="url(#clip0_6997_114708)">
<path d="M401.599 126.161L377.734 122.712C375.666 122.41 374.232 120.492 374.528 118.423L374.941 115.569L372.119 93.6194C372.011 92.9909 371.512 92.5034 370.88 92.4121L366.318 91.7473C365.882 91.6842 365.578 91.2785 365.641 90.8416C365.705 90.4048 366.11 90.1015 366.547 90.1647L371.108 90.824C372.436 91.0133 373.486 92.0437 373.701 93.3673C376.593 115.868 376.527 115.345 376.527 115.348C376.597 115.621 376.542 115.532 376.113 118.646C375.942 119.841 376.769 120.95 377.964 121.122L401.829 124.572C402.266 124.635 402.569 125.041 402.506 125.478C402.443 125.915 402.037 126.218 401.6 126.155L401.599 126.161Z" fill="white"/>
<path d="M399.668 120.103L375.597 116.623C375.161 116.56 374.857 116.154 374.921 115.717C374.984 115.281 375.389 114.977 375.826 115.041L399.897 118.52C400.42 118.594 400.919 118.27 401.062 117.76L404.908 103.911C405.063 103.351 404.736 102.771 404.176 102.615C404.05 102.581 405.488 102.8 373.291 98.1428C372.854 98.0797 372.551 97.674 372.614 97.2371C372.677 96.8003 373.083 96.497 373.52 96.5602L404.268 101.005C405.853 101.234 406.872 102.809 406.443 104.339L402.597 118.187C402.24 119.469 400.986 120.289 399.668 120.103Z" fill="white"/>
<path d="M394.652 119.278L394.607 119.271C394.229 119.191 393.988 118.821 394.066 118.443L397.774 100.83C397.854 100.452 398.226 100.209 398.604 100.288C398.982 100.368 399.225 100.74 399.146 101.118L395.439 118.731C395.362 119.092 395.017 119.332 394.652 119.278Z" fill="white"/>
<path d="M388.011 118.318C387.629 118.262 387.363 117.907 387.418 117.524L389.988 99.7474C390.043 99.3655 390.398 99.099 390.781 99.1544C391.163 99.2096 391.43 99.5646 391.375 99.9478L388.805 117.726C388.749 118.108 388.395 118.373 388.011 118.318Z" fill="white"/>
<path d="M381.372 117.358C381.006 117.307 380.743 116.979 380.772 116.611L382.204 98.6692C382.235 98.2837 382.573 97.9948 382.959 98.0266C383.345 98.057 383.634 98.3952 383.602 98.7818L382.17 116.723C382.14 117.109 381.802 117.395 381.416 117.365L381.372 117.358Z" fill="white"/>
<path d="M403.713 111.511L374.494 107.287C374.112 107.232 373.846 106.877 373.901 106.494C373.956 106.111 374.311 105.846 374.694 105.901L403.913 110.125C404.295 110.18 404.562 110.535 404.506 110.918C404.451 111.301 404.096 111.567 403.713 111.511Z" fill="white"/>
<path d="M397.342 135.02C395.295 134.724 393.877 132.824 394.174 130.777C394.471 128.731 396.369 127.312 398.416 127.609C400.462 127.905 401.881 129.804 401.585 131.85C401.287 133.895 399.388 135.314 397.342 135.02ZM398.185 129.191C397.013 129.022 395.926 129.836 395.756 131.008C395.587 132.179 396.401 133.267 397.573 133.436C398.745 133.605 399.832 132.792 400.001 131.62C400.171 130.447 399.357 129.358 398.185 129.187L398.185 129.191Z" fill="white"/>
<path d="M377.224 132.112C375.177 131.816 373.759 129.918 374.054 127.871C374.35 125.824 376.249 124.405 378.296 124.701C380.343 124.997 381.761 126.895 381.465 128.942C381.167 130.987 379.27 132.405 377.224 132.112ZM378.067 126.283C376.895 126.114 375.807 126.926 375.637 128.099C375.468 129.271 376.28 130.359 377.453 130.529C378.625 130.698 379.713 129.886 379.883 128.713C380.052 127.541 379.24 126.452 378.067 126.281L378.067 126.283Z" fill="white"/>
</g>
<defs>
<clipPath id="clip0_6997_114708">
<rect width="51.1846" height="51.1846" fill="white" transform="translate(362.178 83.8765) rotate(8.22538)"/>
</clipPath>
</defs>
</svg>
