<svg width="55" height="55" viewBox="0 0 55 55" fill="none" xmlns="http://www.w3.org/2000/svg">
<circle cx="27.5" cy="27.5" r="27.5" fill="white"/>
<g filter="url(#filter0_d_7441_73144)">
<path d="M27.1231 6.02734C26.7852 6.02734 26.4492 6.03601 26.1154 6.05309L8.58565 19.5354C7.98206 21.414 7.65491 23.4164 7.65491 25.4956C7.65491 36.2477 16.3712 44.9639 27.1232 44.9639C37.8752 44.9639 46.5915 36.2477 46.5915 25.4956C46.5915 14.7436 37.8751 6.02734 27.1231 6.02734Z" fill="#FFDD40"/>
<path d="M44.7887 33.4976L33.1802 13.3911C33.7194 14.8046 34.0157 16.337 34.0157 17.9377V42.5753C34.0157 43.4427 33.7468 44.2483 33.2888 44.9141L43.2743 39.1489C45.2499 38.0083 45.9293 35.4732 44.7887 33.4976Z" fill="#5C5C87"/>
<path d="M42.2938 39.5219C41.7664 39.3547 41.6999 38.9014 41.7182 38.6039C41.7273 38.4568 41.636 38.3185 41.4963 38.2715C41.0806 38.1314 40.9852 37.8004 40.9744 37.5617C40.9673 37.4025 40.8548 37.2685 40.6982 37.2385C35.7506 36.2915 34.4737 31.9432 34.2244 30.8223C34.1993 30.7095 34.119 30.6214 34.0161 30.5815V42.5742C34.0161 43.4416 33.7472 44.2472 33.2892 44.913L42.4504 39.6237C42.4092 39.5777 42.356 39.5416 42.2938 39.5219Z" fill="#41416B"/>
<path d="M42.9595 34.5525L34.0161 19.062V42.0538L42.2185 37.3181C43.1852 36.76 43.5177 35.5193 42.9595 34.5525Z" fill="#41416B"/>
<path d="M40.9744 37.5617C40.9673 37.4025 40.8548 37.2685 40.6982 37.2385C35.7506 36.2915 34.4737 31.9432 34.2244 30.8223C34.1993 30.7095 34.119 30.6214 34.0161 30.5815V42.054L41.093 37.9682C41.0088 37.8341 40.98 37.6856 40.9744 37.5617Z" fill="#35355E"/>
<path d="M33.3365 43.1575C33.1162 43.1575 32.9018 43.0439 32.7825 42.84C32.6037 42.5344 32.7064 42.1416 33.0121 41.9627L41.8946 36.765C42.5585 36.3817 42.7856 35.534 42.4042 34.8735L32.7812 18.28C32.6035 17.9736 32.7079 17.5813 33.0142 17.4036C33.3205 17.2258 33.7129 17.3302 33.8906 17.6366L43.5143 34.2312C44.2498 35.5051 43.8122 37.1387 42.5393 37.8737L33.6598 43.0696C33.558 43.1292 33.4465 43.1575 33.3365 43.1575Z" fill="#35355E"/>
<path d="M41.4962 38.2735C41.0805 38.1334 40.9851 37.8024 40.9744 37.5637C40.9708 37.484 40.9408 37.4106 40.8921 37.3535L33.012 41.9647C32.7064 42.1435 32.6036 42.5363 32.7825 42.8419C32.9017 43.0458 33.1162 43.1594 33.3365 43.1594C33.4465 43.1594 33.558 43.1311 33.6597 43.0716L41.6555 38.3927C41.6166 38.3385 41.5621 38.2956 41.4962 38.2735Z" fill="#28284C"/>
<path d="M26.1149 6.05371C25.8217 6.06865 25.5304 6.09082 25.2409 6.11863L25.2412 6.11887L23.7931 6.31276V6.31204C16.6092 7.55023 10.7731 12.7255 8.58508 19.536V42.5757C8.58508 44.857 10.4409 46.7129 12.7222 46.7129H30.0353C32.3165 46.7129 34.1723 44.857 34.1723 42.5758V17.9381C34.1723 12.5561 30.8315 7.94 26.1149 6.05371ZM21.3787 16.0724C20.0285 16.0724 18.934 14.9779 18.934 13.6278C18.934 12.2776 20.0285 11.1831 21.3787 11.1831C22.7288 11.1831 23.8233 12.2776 23.8233 13.6278C23.8233 14.9779 22.7288 16.0724 21.3787 16.0724Z" fill="#FF7186"/>
<path d="M30.2991 46.7029C30.2717 46.6449 30.2305 46.5929 30.1741 46.5545C29.7471 46.2633 29.7822 45.8492 29.8788 45.5643C29.9355 45.3971 29.8737 45.2083 29.7223 45.1175C29.3479 44.8932 29.3063 44.496 29.3276 44.2301C29.3409 44.0648 29.2405 43.9137 29.0869 43.8513C26.9115 42.9666 26.704 41.0545 26.7315 40.1781C26.7388 39.9447 26.5368 39.7622 26.3043 39.785C22.3186 40.176 22.4964 36.4106 22.6508 35.2177C22.6736 35.0411 22.572 34.8755 22.4071 34.8084C22.0814 34.676 22.0037 34.3329 21.9854 34.1666C21.9782 34.102 21.9558 34.0401 21.9179 33.9873L20.913 32.5866C20.8529 32.503 20.7613 32.448 20.6597 32.431C20.4297 32.3924 20.3203 32.2642 20.2693 32.1361C20.2007 31.9639 20.013 31.8704 19.8308 31.9047L18.0847 32.233C18.0139 32.2463 17.9402 32.2403 17.8733 32.2134C15.3246 31.1859 16.4186 28.5935 16.7888 27.8644C16.8514 27.7411 16.8418 27.5934 16.7652 27.4781L16.4587 27.0172C16.3942 26.9202 16.2892 26.859 16.1732 26.8468C12.7171 26.4839 11.6918 23.887 11.424 22.8923C11.3724 22.7006 11.1832 22.5836 10.9871 22.6142C10.5163 22.6878 10.2737 22.4011 10.156 22.1659C10.0818 22.0175 9.92204 21.9292 9.75811 21.9548C8.98589 22.076 8.7096 21.6239 8.62172 21.4012C8.61202 21.3765 8.59923 21.3536 8.58508 21.3315V42.5754C8.58532 44.8563 10.4412 46.7122 12.7224 46.7122H30.0355C30.1241 46.7122 30.2118 46.7085 30.2991 46.7029Z" fill="#FF4155"/>
<path d="M20.0988 12.8409C20.3042 13.3758 20.8071 13.7213 21.38 13.7213H21.3801C21.7343 13.7213 22.0213 13.4342 22.0212 13.0801C22.0212 12.726 21.7341 12.439 21.38 12.439H21.38C21.3181 12.439 21.303 12.4 21.2959 12.3812L19.4586 7.59619C19.0636 7.76553 18.6752 7.9471 18.2942 8.14131L20.0988 12.8409Z" fill="#C8CEFC"/>
<path d="M32.0603 17.9389C32.0603 12.0493 27.2688 7.25781 21.3793 7.25781C20.9471 7.25781 20.5211 7.28435 20.1021 7.33449C16.6513 8.66931 13.6759 10.9585 11.5004 13.8792C10.9839 15.1315 10.6981 16.5024 10.6981 17.939V42.5766C10.6981 43.693 11.6064 44.6012 12.7227 44.6012H30.0358C31.1521 44.6012 32.0603 43.693 32.0603 42.5766V17.9389ZM21.3792 16.0732C20.029 16.0732 18.9345 14.9787 18.9345 13.6286C18.9345 12.2784 20.029 11.1839 21.3792 11.1839C22.7293 11.1839 23.8239 12.2784 23.8239 13.6286C23.8239 14.9787 22.7293 16.0732 21.3792 16.0732Z" fill="#FF4155"/>
<path d="M29.3281 44.2291C29.3414 44.0638 29.2409 43.9128 29.0873 43.8503C26.9119 42.9657 26.7045 41.0535 26.732 40.1772C26.7393 39.9437 26.5372 39.7612 26.3048 39.784C22.319 40.175 22.4968 36.4097 22.6512 35.2167C22.674 35.0401 22.5724 34.8745 22.4075 34.8075C22.0818 34.675 22.0042 34.3319 21.9858 34.1656C21.9787 34.101 21.9562 34.0391 21.9183 33.9864L20.9135 32.5857C20.8534 32.502 20.7618 32.447 20.6601 32.43C20.4302 32.3914 20.3207 32.2632 20.2697 32.1351C20.2012 31.9629 20.0135 31.8695 19.8313 31.9037L18.0851 32.232C18.0143 32.2453 17.9406 32.2394 17.8738 32.2124C15.3251 31.1849 16.419 28.5925 16.7893 27.8634C16.8519 27.7401 16.8423 27.5924 16.7657 27.4772L16.4592 27.0162C16.3946 26.9192 16.2896 26.858 16.1737 26.8458C12.7175 26.4829 11.6923 23.886 11.4244 22.8913C11.3728 22.6996 11.1836 22.5826 10.9875 22.6133C10.8792 22.6302 10.7835 22.6274 10.6981 22.6112V42.5744C10.6981 43.6908 11.6064 44.5989 12.7227 44.5989H29.3519C29.3216 44.4675 29.3194 44.3374 29.3281 44.2291Z" fill="#E80054"/>
<path d="M18.5684 39.9933C18.133 39.8106 17.9282 39.3095 18.1109 38.8741L22.9311 27.3886C23.1138 26.9532 23.615 26.7483 24.0503 26.9311C24.4857 27.1138 24.6905 27.6149 24.5078 28.0503L19.6875 39.5359C19.5057 39.969 19.0059 40.1768 18.5684 39.9933Z" fill="#E3E7FC"/>
<path d="M17.9768 32.9884C16.331 32.9884 14.9921 31.4946 14.9921 29.6585C14.9921 27.8224 16.331 26.3286 17.9768 26.3286C19.6227 26.3286 20.9616 27.8224 20.9616 29.6585C20.9616 31.4946 19.6226 32.9884 17.9768 32.9884ZM17.9768 28.0385C17.2738 28.0385 16.7019 28.7653 16.7019 29.6585C16.7019 30.5518 17.2739 31.2785 17.9768 31.2785C18.6799 31.2785 19.2517 30.5517 19.2517 29.6585C19.2517 28.7653 18.6798 28.0385 17.9768 28.0385Z" fill="#E3E7FC"/>
<path d="M24.487 40.8404C22.8411 40.8404 21.5022 39.3466 21.5022 37.5106C21.5022 35.6745 22.8411 34.1807 24.487 34.1807C26.1328 34.1807 27.4718 35.6745 27.4718 37.5106C27.4718 39.3466 26.1328 40.8404 24.487 40.8404ZM24.487 35.8905C23.784 35.8905 23.2121 36.6172 23.2121 37.5105C23.2121 38.4037 23.7841 39.1305 24.487 39.1305C25.19 39.1305 25.7619 38.4037 25.7619 37.5105C25.762 36.6173 25.19 35.8905 24.487 35.8905Z" fill="#E3E7FC"/>
<path d="M22.4698 19.4469H20.1479C19.7938 19.4469 19.5067 19.1598 19.5067 18.8057C19.5067 18.4516 19.7938 18.1646 20.1479 18.1646H22.4698C22.8239 18.1646 23.111 18.4516 23.111 18.8057C23.111 19.1599 22.8239 19.4469 22.4698 19.4469Z" fill="#FF7186"/>
<path d="M24.3354 21.7633H18.285C17.9309 21.7633 17.6438 21.4762 17.6438 21.1221C17.6438 20.7681 17.9309 20.481 18.285 20.481H24.3354C24.6894 20.481 24.9765 20.7681 24.9765 21.1221C24.9765 21.4762 24.6895 21.7633 24.3354 21.7633Z" fill="#FF7186"/>
<path d="M24.3354 24.0792H18.285C17.9309 24.0792 17.6438 23.7921 17.6438 23.4381C17.6438 23.084 17.9309 22.7969 18.285 22.7969H24.3354C24.6894 22.7969 24.9765 23.084 24.9765 23.4381C24.9765 23.7921 24.6895 24.0792 24.3354 24.0792Z" fill="#FF7186"/>
<path d="M32.7012 42.5765V17.9387C32.7012 11.9825 28.078 7.08588 22.2316 6.64844C20.221 7.16868 18.3364 8.00193 16.6331 9.09343C18.0471 8.3317 19.6633 7.89886 21.3789 7.89886C26.9149 7.89886 31.4188 12.4027 31.4188 17.9387V42.5765C31.4188 43.3393 30.7982 43.9598 30.0354 43.9598H12.7223C11.9594 43.9598 11.3389 43.3392 11.3389 42.5765V17.9387C11.3389 15.2508 12.4008 12.8063 14.127 11.0024C12.6066 12.3665 11.302 13.9658 10.2708 15.7438C10.1307 16.4542 10.0565 17.188 10.0565 17.9388V42.5766C10.0565 44.0465 11.2524 45.2423 12.7223 45.2423H30.0354C31.5053 45.2422 32.7012 44.0464 32.7012 42.5765Z" fill="#E80054"/>
<path d="M29.7224 45.1172C29.348 44.8929 29.3064 44.4957 29.3277 44.2298C29.3359 44.1281 29.3007 44.0318 29.2369 43.9583H12.7223C11.9595 43.9583 11.339 43.3377 11.339 42.575V22.7381C11.2531 22.6428 11.1224 22.5926 10.9872 22.6137C10.5164 22.6873 10.2738 22.4006 10.1561 22.1654C10.1315 22.1163 10.0969 22.0745 10.0565 22.0405V42.5749C10.0565 44.0448 11.2524 45.2406 12.7223 45.2406H29.8442C29.8146 45.1914 29.7742 45.1483 29.7224 45.1172Z" fill="#CC0053"/>
<path d="M23.7924 6.31254L21.4623 12.3809C21.455 12.3996 21.4401 12.4386 21.3781 12.4386C21.024 12.4386 20.7369 12.7257 20.7369 13.0798C20.7369 13.4339 21.024 13.721 21.3781 13.721C21.951 13.721 22.454 13.3754 22.6594 12.8406L25.2404 6.11865C24.7522 6.16546 24.2693 6.23038 23.7924 6.31254Z" fill="#E3E7FC"/>
</g>
<defs>
<filter id="filter0_d_7441_73144" x="3.65491" y="6.02734" width="46.9366" height="48.6855" filterUnits="userSpaceOnUse" color-interpolation-filters="sRGB">
<feFlood flood-opacity="0" result="BackgroundImageFix"/>
<feColorMatrix in="SourceAlpha" type="matrix" values="0 0 0 0 0 0 0 0 0 0 0 0 0 0 0 0 0 0 127 0" result="hardAlpha"/>
<feOffset dy="4"/>
<feGaussianBlur stdDeviation="2"/>
<feComposite in2="hardAlpha" operator="out"/>
<feColorMatrix type="matrix" values="0 0 0 0 0 0 0 0 0 0 0 0 0 0 0 0 0 0 0.25 0"/>
<feBlend mode="normal" in2="BackgroundImageFix" result="effect1_dropShadow_7441_73144"/>
<feBlend mode="normal" in="SourceGraphic" in2="effect1_dropShadow_7441_73144" result="shape"/>
</filter>
</defs>
</svg>
