<svg width="55" height="55" viewBox="0 0 55 55" fill="none" xmlns="http://www.w3.org/2000/svg">
<circle cx="27.5" cy="27.5" r="27.5" fill="white"/>
<g filter="url(#filter0_d_7441_73115)">
<path fill-rule="evenodd" clip-rule="evenodd" d="M39.2982 29.3962C41.0071 26.4361 35.6621 20.1491 27.3594 15.3553C19.0542 10.5616 10.9384 9.07559 9.22948 12.0357C8.28033 13.6752 7.33357 15.317 6.38681 16.9589C4.67787 19.919 10.0229 26.2036 18.328 30.9974C26.6308 35.7911 34.7489 37.2796 36.4579 34.3194C37.4047 32.6775 38.3514 31.0381 39.2982 29.3962Z" fill="#FE9923"/>
<path fill-rule="evenodd" clip-rule="evenodd" d="M39.2992 29.3965C40.6031 27.1411 37.8059 22.9513 32.727 18.9653C31.3536 19.6053 29.9514 20.3339 28.5445 21.1464C23.607 23.9964 19.5922 27.3112 17.1642 30.3049C17.5453 30.5398 17.9336 30.7699 18.3291 30.9976C22.9215 33.6485 27.4563 35.2879 30.8815 35.7242C32.4154 35.0291 33.9877 34.2238 35.5673 33.3129C36.3487 32.8599 37.1061 32.3973 37.8396 31.9251L39.2992 29.3965Z" fill="#CE7C1D"/>
<path fill-rule="evenodd" clip-rule="evenodd" d="M27.36 15.3554C19.0548 10.5616 10.939 9.07559 9.23007 12.0357C7.52114 14.9934 12.8661 21.2804 21.1712 26.0742C29.474 30.8679 37.5922 32.3564 39.2988 29.3962C41.0077 26.4361 35.6627 20.1491 27.36 15.3554Z" fill="#FECD3D"/>
<path fill-rule="evenodd" clip-rule="evenodd" d="M21.3198 26.1608C29.5723 30.885 37.6017 32.3375 39.2987 29.3965C40.6026 27.1411 37.8054 22.9513 32.7265 18.9653C31.3531 19.6053 29.9509 20.3339 28.544 21.1464C25.8163 22.7188 23.3715 24.435 21.3198 26.1608Z" fill="#CEA732"/>
<path fill-rule="evenodd" clip-rule="evenodd" d="M25.9111 17.8609C19.3052 14.0474 13.2124 12.233 12.3016 13.8102C11.3931 15.3873 16.0095 19.7568 22.6153 23.5702C29.2211 27.3836 35.314 29.1981 36.2247 27.621C37.1356 26.0462 32.5168 21.6767 25.9111 17.8609Z" fill="#FEA832"/>
<path fill-rule="evenodd" clip-rule="evenodd" d="M23.792 24.2294C29.9304 27.5875 35.3712 29.1046 36.2269 27.621C36.9389 26.3867 34.264 23.4409 29.8993 20.3896C29.4487 20.6341 28.9956 20.8858 28.545 21.147C26.8408 22.1298 25.2493 23.1676 23.792 24.2294Z" fill="#CE8829"/>
<path d="M33.0767 33.7605L31.8854 35.8218C31.3797 35.7906 30.8405 35.7307 30.2771 35.6396L31.792 33.015L33.0767 33.7605ZM15.4237 29.1849C15.8288 29.4581 16.2435 29.7289 16.6677 29.995L18.0436 27.6125L16.7589 26.8742L15.4237 29.1849ZM7.37268 21.6682C7.65311 22.0925 7.97433 22.5287 8.33625 22.9721L9.85112 20.35L8.56402 19.6069L7.37268 21.6682ZM11.143 25.8699C11.5097 26.1959 11.8908 26.5243 12.2887 26.8502L13.7316 24.3527L12.4469 23.6145L11.143 25.8699ZM20.0258 31.9364C20.4716 32.169 20.915 32.3943 21.3537 32.6075L22.6887 30.2969L21.404 29.5515L20.0258 31.9364ZM24.9418 34.1559C25.4235 34.3381 25.8981 34.5035 26.3631 34.6569L27.667 32.399L26.3823 31.6608L24.9418 34.1559Z" fill="#C85929"/>
<path d="M10.0482 30.6758V32.1762H11.5487V33.3603H10.0482V34.8608H8.86421V33.3603H7.36377V32.1762H8.86421V30.6758H10.0482Z" fill="#FEA832"/>
<path d="M36.4859 12.7847V14.2827H37.9864V15.4668H36.4859V16.9672H35.3018V15.4668H33.8014V14.2827H35.3018V12.7847H36.4859Z" fill="#FEA832"/>
<path fill-rule="evenodd" clip-rule="evenodd" d="M14.9454 37.2868C13.2364 34.3267 18.5839 28.0421 26.8866 23.2483C35.1894 18.4522 43.3076 16.9661 45.0166 19.9263C45.9633 21.5681 46.9101 23.2076 47.8592 24.8494C49.5683 27.8095 44.2208 34.0941 35.9181 38.8903C27.6129 43.684 19.4971 45.1701 17.7881 42.2099C16.8414 40.5705 15.8922 38.9286 14.9454 37.2868Z" fill="#FE9923"/>
<path fill-rule="evenodd" clip-rule="evenodd" d="M26.8866 23.2483C35.1894 18.4522 43.3076 16.9661 45.0166 19.9263C46.7256 22.8864 41.3781 29.1709 33.0754 33.9647C24.7702 38.7608 16.6545 40.2469 14.9454 37.2868C13.2364 34.3266 18.5838 28.0421 26.8866 23.2483Z" fill="#FECD3D"/>
<path fill-rule="evenodd" clip-rule="evenodd" d="M28.3319 25.7524C34.9376 21.9366 41.0329 20.1245 41.9413 21.6992C42.8521 23.2764 38.2357 27.6459 31.6275 31.4593C25.0218 35.2751 18.929 37.0871 18.0205 35.5124C17.1097 33.9353 21.7261 29.5658 28.3319 25.7524Z" fill="#FEA832"/>
<path d="M27.8671 39.548L29.3076 42.0431C28.8259 42.2253 28.3513 42.393 27.8839 42.544L26.58 40.2862L27.8671 39.548ZM31.5607 38.1842L32.8934 40.4947C33.3344 40.2814 33.7778 40.0585 34.2212 39.8236L32.8454 37.4411L31.5607 38.1842ZM21.1726 41.6476L22.3614 43.709C22.8696 43.6802 23.4065 43.6178 23.9721 43.5268L22.4572 40.9046L21.1726 41.6476ZM45.683 27.4941L44.3983 28.2372L45.9107 30.8593C46.2726 30.416 46.5962 29.9821 46.8742 29.5578L45.683 27.4941ZM36.2057 35.4997L37.5816 37.8846C38.0059 37.6161 38.4205 37.3453 38.8256 37.0721L37.4905 34.7615L36.2057 35.4997ZM40.5178 32.2399L41.9607 34.7398C42.3586 34.4115 42.7397 34.0855 43.104 33.7571L41.8025 31.5017L40.5178 32.2399Z" fill="#C85929"/>
</g>
<defs>
<filter id="filter0_d_7441_73115" x="2.0686" y="10.5127" width="50.1088" height="41.2202" filterUnits="userSpaceOnUse" color-interpolation-filters="sRGB">
<feFlood flood-opacity="0" result="BackgroundImageFix"/>
<feColorMatrix in="SourceAlpha" type="matrix" values="0 0 0 0 0 0 0 0 0 0 0 0 0 0 0 0 0 0 127 0" result="hardAlpha"/>
<feOffset dy="4"/>
<feGaussianBlur stdDeviation="2"/>
<feComposite in2="hardAlpha" operator="out"/>
<feColorMatrix type="matrix" values="0 0 0 0 0 0 0 0 0 0 0 0 0 0 0 0 0 0 0.25 0"/>
<feBlend mode="normal" in2="BackgroundImageFix" result="effect1_dropShadow_7441_73115"/>
<feBlend mode="normal" in="SourceGraphic" in2="effect1_dropShadow_7441_73115" result="shape"/>
</filter>
</defs>
</svg>
