<svg width="55" height="55" viewBox="0 0 55 55" fill="none" xmlns="http://www.w3.org/2000/svg">
<circle cx="27.5" cy="27.5" r="27.5" fill="white"/>
<g clip-path="url(#clip0_7441_73230)">
<path d="M22.5345 30.3866C22.4464 30.3854 22.3622 30.3499 22.2998 30.2876C22.2375 30.2253 22.202 30.1411 22.2009 30.053V28.1722C22.2009 28.0837 22.2361 27.9988 22.2987 27.9362C22.3612 27.8736 22.4461 27.8385 22.5346 27.8385C22.6232 27.8385 22.7081 27.8736 22.7706 27.9362C22.8332 27.9988 22.8684 28.0837 22.8684 28.1722V30.0526C22.8674 30.1409 22.8319 30.2252 22.7695 30.2876C22.7071 30.35 22.6227 30.3855 22.5345 30.3866ZM30.6983 34.1224C30.6102 34.1235 30.526 34.159 30.4636 34.2214C30.4013 34.2837 30.3658 34.3679 30.3647 34.4561V36.3363C30.3647 36.4248 30.3998 36.5097 30.4624 36.5722C30.525 36.6348 30.6099 36.67 30.6984 36.67C30.7869 36.67 30.8718 36.6348 30.9344 36.5722C30.997 36.5097 31.0322 36.4248 31.0322 36.3363V34.4558C31.0311 34.3676 30.9956 34.2833 30.9332 34.221C30.8708 34.1586 30.7865 34.1231 30.6983 34.1221V34.1224ZM42.8963 32.8258C42.6227 36.8196 40.8448 40.5611 37.921 43.2955C34.9973 46.03 31.1454 47.5539 27.1422 47.5599C26.7763 47.5599 26.409 47.5473 26.0405 47.5222C23.4059 47.3406 20.8586 46.5024 18.6309 45.084C16.4033 43.6656 14.5661 41.7121 13.2869 39.4017C12.0078 37.0912 11.3273 34.4974 11.3076 31.8565C11.2878 29.2157 11.9295 26.612 13.174 24.2827C13.1763 24.2782 13.1787 24.2739 13.1812 24.2695C13.9386 22.8978 14.5009 20.0984 14.0629 18.6793C13.9956 18.461 13.99 18.2282 14.047 18.007C14.1039 17.7857 14.2211 17.5845 14.3854 17.4258C14.5498 17.2671 14.7549 17.157 14.9781 17.1078C15.2012 17.0587 15.4336 17.0723 15.6495 17.1472C16.7102 17.5281 17.6553 18.1751 18.3942 19.0261C19.0803 17.6764 19.8396 16.5979 20.5386 15.6052C22.2152 13.2236 23.2272 11.7866 22.1515 8.28606C22.0846 8.06857 22.0791 7.83684 22.1354 7.61639C22.1918 7.39594 22.3079 7.19533 22.471 7.03666C22.6341 6.87798 22.8378 6.76741 23.0597 6.7171C23.2817 6.6668 23.5131 6.67873 23.7287 6.75158C29.3121 8.63727 32.884 12.5328 34.6293 18.6495C34.7639 17.7781 34.7991 16.8943 34.7343 16.015C34.718 15.7483 34.7885 15.4835 34.9353 15.2602C35.0821 15.0369 35.2972 14.8673 35.5486 14.7766C35.7999 14.6859 36.0739 14.6791 36.3294 14.7572C36.5849 14.8353 36.8083 14.9941 36.966 15.2098C38.9475 17.9205 40.4686 20.7327 41.4872 23.5685C42.6259 26.7387 43.0999 29.8533 42.8963 32.8258ZM22.5346 32.8587C23.2785 32.8579 23.9917 32.562 24.5177 32.036C25.0437 31.51 25.3396 30.7969 25.3405 30.053V28.1722C25.3405 27.4281 25.0449 26.7144 24.5186 26.1881C23.9924 25.6619 23.2787 25.3663 22.5346 25.3663C21.7904 25.3663 21.0767 25.6619 20.5505 26.1881C20.0243 26.7144 19.7286 27.4281 19.7286 28.1722V30.0526C19.7294 30.7966 20.0252 31.5099 20.5513 32.0359C21.0773 32.562 21.7905 32.8579 22.5345 32.8587H22.5346ZM31.6866 27.4218C31.7825 27.2908 31.8516 27.1423 31.8901 26.9845C31.9285 26.8268 31.9356 26.6631 31.9108 26.5026C31.8859 26.3422 31.8298 26.1882 31.7454 26.0495C31.6611 25.9108 31.5503 25.79 31.4193 25.6941C31.2883 25.5982 31.1397 25.5291 30.982 25.4906C30.8243 25.4521 30.6605 25.4451 30.5001 25.4699C30.3397 25.4947 30.1857 25.5509 30.047 25.6352C29.9082 25.7196 29.7875 25.8304 29.6916 25.9614L21.5464 37.0869C21.4506 37.2179 21.3814 37.3665 21.3429 37.5242C21.3045 37.6819 21.2975 37.8456 21.3223 38.006C21.3471 38.1664 21.4033 38.3204 21.4876 38.4591C21.5719 38.5978 21.6827 38.7186 21.8137 38.8144C21.9447 38.9103 22.0932 38.9795 22.2509 39.0179C22.4087 39.0564 22.5724 39.0634 22.7328 39.0386C22.8932 39.0138 23.0472 38.9576 23.1859 38.8733C23.3246 38.789 23.4453 38.6782 23.5412 38.5472L31.6866 27.4218ZM33.5043 34.4561C33.5043 33.7119 33.2087 32.9982 32.6825 32.472C32.1563 31.9458 31.4426 31.6502 30.6984 31.6502C29.9543 31.6502 29.2406 31.9458 28.7143 32.472C28.1881 32.9982 27.8925 33.7119 27.8925 34.4561V36.3363C27.8925 37.0804 28.1881 37.7941 28.7143 38.3203C29.2406 38.8465 29.9543 39.1422 30.6984 39.1422C31.4426 39.1422 32.1563 38.8465 32.6825 38.3203C33.2087 37.7941 33.5043 37.0804 33.5043 36.3363V34.4561Z" fill="url(#paint0_linear_7441_73230)"/>
</g>
<defs>
<linearGradient id="paint0_linear_7441_73230" x1="13.4506" y1="16.0573" x2="39.3119" y2="41.9187" gradientUnits="userSpaceOnUse">
<stop stop-color="#FF9B8C"/>
<stop offset="1" stop-color="#FD4D86"/>
</linearGradient>
<clipPath id="clip0_7441_73230">
<rect width="42.1918" height="42.1918" fill="white" transform="translate(6.02734 6.02734)"/>
</clipPath>
</defs>
</svg>
