<svg width="55" height="55" viewBox="0 0 55 55" fill="none" xmlns="http://www.w3.org/2000/svg">
<circle cx="27.5" cy="27.5" r="27.5" fill="white"/>
<g clip-path="url(#clip0_7441_73236)">
<path d="M27.0996 6.02757C22.5181 6.06105 18.8533 9.85847 18.8533 14.44V17.8109C19.4121 17.3561 20.2011 16.927 21.1326 17.0567H22.7112C22.9169 17.0567 24.0725 16.9627 23.9875 16.9692C25.4364 16.8581 26.7108 15.8564 27.0633 14.4014C27.0745 14.3557 27.1148 14.3229 27.1621 14.3229C27.2091 14.3229 27.2493 14.3557 27.2606 14.4014C27.6124 15.8503 28.8733 16.842 30.3028 16.9631C31.3493 17.0519 31.3635 17.0567 31.5524 17.0567H33.1909C34.1402 16.9215 34.9491 17.3368 35.4706 17.8109C35.4706 16.5034 35.4706 14.8025 35.4706 14.3361C35.4706 9.72649 31.7172 5.99377 27.0996 6.02757Z" fill="#685E68"/>
<path d="M21.3995 14.4401C21.3995 10.2689 24.4375 6.748 28.4394 6.12545C28.0029 6.05817 27.5554 6.02405 27.0996 6.02759C22.5181 6.06107 18.8533 9.85849 18.8533 14.4401V17.811C19.4121 17.3561 20.2011 16.927 21.1326 17.0568H21.3995V14.4401Z" fill="#554E56"/>
<path d="M30.2569 28.3534C30.2575 28.6061 30.413 28.8321 30.6483 28.9235C31.0867 29.0931 34.6086 30.3585 35.9094 30.8623C38.9388 29.6465 38.6931 25.3099 37.2089 24.5447C36.7334 24.2994 36.3114 24.0197 35.9998 23.6553C35.4001 22.9542 35.0786 21.6325 35.0493 20.6958C34.5368 21.0451 33.6236 21.2144 32.9267 21.1046C32.86 23.0914 31.8103 25.1103 30.2517 26.1561L30.2569 28.3534Z" fill="#685E68"/>
<path d="M18.2779 30.8838C21.1215 29.7817 20.7275 30.0331 23.3902 29.0007C23.5596 28.9351 23.987 28.8234 23.987 28.3499V26.1178C22.3946 25.0437 21.4383 23.0054 21.3922 21.1053C20.696 21.2141 19.7834 21.0447 19.2716 20.6958C19.2426 21.6325 18.9207 22.9542 18.3213 23.6553C18.0094 24.0197 17.5877 24.2994 17.112 24.5447C15.6187 25.3147 15.2083 29.6973 18.2779 30.8838Z" fill="#685E68"/>
<path d="M19.6582 24.5447C20.1339 24.2994 20.5556 24.0197 20.8675 23.6553C21.1579 23.316 21.3822 22.8309 21.5406 22.3149C21.4524 21.9126 21.4019 21.5057 21.3922 21.1053C20.696 21.2144 19.7834 21.0447 19.2716 20.6958C19.2426 21.6325 18.9207 22.9542 18.3213 23.6553C18.0094 24.0197 17.5877 24.2994 17.112 24.5447C15.6187 25.3147 15.2083 29.6973 18.2779 30.8842C18.9458 30.625 19.4338 30.4416 19.8262 30.2977C17.8752 28.6515 18.3529 25.2178 19.6582 24.5447Z" fill="#554E56"/>
<path d="M22.479 29.084C22.6477 29.6148 23.1624 31.2372 23.7927 33.2227C24.7571 33.4351 25.8963 33.5581 27.1175 33.5581C28.3765 33.5581 29.5482 33.4271 30.5309 33.2021L31.8295 29.1124L30.9018 28.7531C30.6671 28.6623 30.511 28.4364 30.5103 28.183L30.5055 25.9014C29.5617 26.5349 28.4322 26.9054 27.2206 26.9012C25.8673 26.8967 24.6843 26.5076 23.7296 25.8638L23.7299 28.1795C23.7299 28.6485 23.3114 28.7615 23.1331 28.8307L22.479 29.084Z" fill="#FFBD86"/>
<path d="M25.1878 30.7711C25.0683 30.3951 25.2621 29.9918 25.6297 29.8492C25.8081 29.7803 26.2262 29.6673 26.2262 29.1983V26.8259C25.2831 26.683 24.4429 26.3444 23.7299 25.8638V28.1795C23.7299 28.6485 23.3114 28.7615 23.1331 28.8307L22.479 29.084C22.6477 29.6148 23.1627 31.2372 23.7927 33.2227C24.4728 33.3723 25.2409 33.4766 26.062 33.5256C25.7015 32.3902 25.3931 31.4184 25.1878 30.7711Z" fill="#F6A96C"/>
<path d="M27.1197 33.5089C25.8536 33.5089 24.6778 33.3728 23.7034 33.1397C25.1104 37.5723 27.0141 43.5695 27.1596 44.0276L30.6229 33.1182C29.6314 33.3641 28.424 33.5089 27.1197 33.5089Z" fill="#60B8FF"/>
<path d="M26.2905 34.2415C26.2071 33.9785 26.1256 33.7219 26.0468 33.4734C25.1909 33.4197 24.3958 33.3044 23.7034 33.1387C25.1104 37.5715 27.0141 43.5685 27.1596 44.0265L28.2659 40.541C27.6611 38.6244 27.0038 36.5292 26.2905 34.2415Z" fill="#22A7FF"/>
<path d="M27.1598 43.4763L22.5796 29.0479L14.7803 32.0718C13.3633 32.6547 11.4661 34.4895 11.4661 37.2121V47.1166C11.4661 47.7266 11.9605 48.221 12.5705 48.221H27.4145L27.1598 43.4763Z" fill="#D9EDFF"/>
<path d="M14.0129 47.1999V35.7671C14.0129 34.0021 14.8106 32.6106 15.7579 31.6909L14.7803 32.0701C13.3633 32.6531 11.4661 34.4879 11.4661 37.2105V47.1149C11.4661 47.7249 11.9605 48.2194 12.5705 48.2194H14.6928C14.2936 48.053 14.0129 47.6593 14.0129 47.1999Z" fill="#B4DBFF"/>
<path d="M17.3013 48.2187V38.2344C17.3013 37.8829 17.0161 37.5977 16.6645 37.5977C16.3127 37.5977 16.0278 37.8829 16.0278 38.2344V48.2187H17.3013Z" fill="#B4DBFF"/>
<path d="M21.8149 42.7751C21.4634 42.7751 21.1782 42.4899 21.1782 42.1384V36.2744C21.1782 35.9229 21.4634 35.6377 21.8149 35.6377C22.1668 35.6377 22.452 35.9229 22.452 36.2744V42.1384C22.4516 42.4899 22.1668 42.7751 21.8149 42.7751Z" fill="#685E68"/>
<path d="M23.9108 43.6728C23.9108 44.832 22.9709 45.7716 21.8117 45.7716C20.6526 45.7716 19.7126 44.832 19.7126 43.6728C19.7126 42.5133 20.6526 41.5737 21.8117 41.5737C22.9709 41.5737 23.9108 42.5133 23.9108 43.6728Z" fill="#60B8FF"/>
<path d="M21.812 44.307C21.4566 44.307 21.1753 44.018 21.1753 43.6703C21.1753 43.2683 21.5455 42.9651 21.9359 43.0465C22.2343 43.1025 22.4487 43.3732 22.4487 43.6703C22.4487 44.0099 22.1732 44.307 21.812 44.307Z" fill="#8BCAFF"/>
<path d="M19.6948 30.1671V32.0016C19.6948 32.2211 19.7982 32.4281 19.9742 32.5598L21.3635 33.5998C21.6252 33.7958 21.7157 34.1473 21.5808 34.4454L20.9657 35.8054C20.8314 36.1019 20.9203 36.4521 21.1797 36.6485L27.1616 43.4763C26.9543 42.8234 22.8932 30.0306 22.5813 29.0479L19.6948 30.1671Z" fill="#B4DBFF"/>
<path d="M25.9071 39.525L23.387 36.6485C23.1275 36.4521 23.0387 36.1019 23.1729 35.8054L23.7881 34.4454C23.9229 34.1473 23.8325 33.7958 23.5708 33.5998L22.1815 32.5598C22.0057 32.4281 21.9021 32.2211 21.9021 32.0016V31.1547C21.9021 30.5595 22.2681 30.0251 22.823 29.8101C22.7013 29.4267 22.6167 29.1599 22.5813 29.0479L19.6948 30.1671V32.0016C19.6948 32.2211 19.7982 32.4281 19.9742 32.5598L21.3635 33.5998C21.6252 33.7958 21.7157 34.1473 21.5808 34.4454L20.9657 35.8054C20.8314 36.1019 20.9203 36.4521 21.1797 36.6485L27.1616 43.4763C27.0907 43.2538 26.5722 41.6202 25.9071 39.525Z" fill="#8BCAFF"/>
<path d="M21.3035 21.216L21.1338 16.8018H21.1306C20.1997 16.6721 19.4111 17.1006 18.8526 17.5548C18.4763 17.9616 18.2471 18.4921 18.2471 19.0732C18.2471 20.4863 19.7693 21.601 21.307 21.3596C21.3057 21.3116 21.3035 21.264 21.3035 21.216Z" fill="#FFBD86"/>
<path d="M21.2977 21.066C20.5267 20.6617 19.9779 19.9214 19.9779 19.0732C19.9779 18.4921 20.2071 17.9616 20.5834 17.5548C20.7514 17.4183 20.9404 17.284 21.1477 17.1669L21.1338 16.8018H21.1306C20.1997 16.6721 19.4114 17.1006 18.8526 17.5548C18.4763 17.9616 18.2471 18.4921 18.2471 19.0732C18.2471 20.4863 19.7693 21.601 21.307 21.3593C21.3057 21.3116 21.3035 21.264 21.3035 21.216L21.2977 21.066Z" fill="#F6A96C"/>
<path d="M35.4637 17.5527C34.9423 17.0798 34.1346 16.6662 33.1873 16.8014H33.1841L33.0144 21.1573C33.0144 21.2246 33.0115 21.2915 33.0093 21.3585C34.5473 21.6012 36.0708 20.4864 36.0708 19.0727C36.0705 18.4907 35.841 17.9596 35.4637 17.5527Z" fill="#FFBD86"/>
<path d="M34.9181 17.155C34.4424 16.8808 33.8491 16.707 33.1873 16.8013H33.1841L33.0144 21.1572C33.0144 21.2245 33.0115 21.2914 33.0093 21.3584C33.6927 21.4662 34.3728 21.3056 34.9181 20.9702V17.155Z" fill="#F6A96C"/>
<path d="M31.5506 16.8017C31.3617 16.8017 31.3475 16.7969 30.301 16.7081C28.8943 16.5886 27.6766 15.632 27.2919 14.2736C27.28 14.2314 27.2691 14.1889 27.2585 14.1464C27.2475 14.1007 27.2073 14.0679 27.1599 14.0679C27.113 14.0679 27.0727 14.1007 27.0614 14.1464C27.0511 14.1895 27.0399 14.2324 27.0276 14.2749C26.6391 15.6445 25.4053 16.6054 23.9857 16.7139C24.0707 16.7074 22.9148 16.8014 22.7094 16.8014H21.134V21.2159C21.134 24.3126 23.5547 27.1437 27.2218 27.1559C30.5019 27.1668 33.1859 24.4378 33.1859 21.1573V16.8014H31.5506V16.8017Z" fill="#FED2A4"/>
<path d="M23.6809 21.2178V16.7402C23.3448 16.7663 22.8388 16.8036 22.7094 16.8036H21.134V21.2178C21.134 24.3148 23.5547 27.1456 27.2218 27.1578C27.6473 27.1594 28.0622 27.1137 28.4633 27.0277C25.5382 26.4387 23.6809 23.9305 23.6809 21.2178Z" fill="#FFBD86"/>
<path d="M42.7785 47.1151V37.2107C42.7785 34.866 41.2772 32.8164 39.4643 32.0703L31.7297 29.0747L27.1584 43.4748V48.2195H41.6741C42.2841 48.2195 42.7785 47.7251 42.7785 47.1151Z" fill="#D9EDFF"/>
<path d="M38.2916 48.2187V38.2344C38.2916 37.8829 38.0064 37.5977 37.6549 37.5977C37.303 37.5977 37.0178 37.8829 37.0178 38.2344V48.2187H38.2916Z" fill="#B4DBFF"/>
<path d="M32.4277 42.0145C32.0762 42.0145 31.791 41.7293 31.791 41.3778V36.5628C31.791 36.211 32.0762 35.9258 32.4277 35.9258C32.7796 35.9258 33.0644 36.211 33.0644 36.5628V41.3778C33.0644 41.7293 32.7796 42.0145 32.4277 42.0145Z" fill="#685E68"/>
<path d="M35.7092 48.2184V44.0212C35.7092 42.2124 34.2375 40.7407 32.4284 40.7407C30.6197 40.7407 29.1479 42.2124 29.1479 44.0212V48.2184H30.4214V44.0212C30.4214 42.9145 31.3217 42.0141 32.4284 42.0141C33.5354 42.0141 34.4358 42.9145 34.4358 44.0212V48.2184H35.7092Z" fill="#685E68"/>
<path d="M32.9565 33.5983L34.3458 32.5583C34.5215 32.4266 34.6252 32.2196 34.6252 32.0001V30.1962L31.7297 29.0747L27.1584 43.4748L33.1399 36.647C33.3994 36.4507 33.4886 36.1004 33.3543 35.804L32.7392 34.444C32.6043 34.1459 32.6948 33.7944 32.9565 33.5983Z" fill="#B4DBFF"/>
</g>
<defs>
<clipPath id="clip0_7441_73236">
<rect width="42.1918" height="42.1918" fill="white" transform="translate(6.02734 6.02734)"/>
</clipPath>
</defs>
</svg>
