<svg width="55" height="55" viewBox="0 0 55 55" fill="none" xmlns="http://www.w3.org/2000/svg">
<circle cx="27.5" cy="27.5" r="27.5" fill="white"/>
<g filter="url(#filter0_d_7441_73073)">
<path d="M42.0033 26.3696H34.0924V39.5546H9.04102V42.1915H44.6403C45.3688 42.1915 45.9588 41.6015 45.9588 40.8731V32.9621L42.0033 26.3696Z" fill="#64C8F0"/>
<path d="M27.4999 22.4145C24.8029 22.4145 22.4817 20.7841 21.4619 18.459H9.04102V39.5549H34.0924V18.459H33.538C32.5181 20.7841 30.1969 22.4145 27.4999 22.4145Z" fill="#FA6450"/>
<path d="M9.04102 18.459H11.678V39.5549H9.04102V18.459Z" fill="#DC4632"/>
<path d="M15.6332 27.6881V26.3696H11.6777V32.9621H12.9962V30.3251H15.6332V29.0066H12.9962V27.6881H15.6332Z" fill="#F0F0F0"/>
<path d="M26.1813 27.6881V26.3696H22.2258V32.9621H26.1813V31.6436H23.5443V30.3251H26.1813V29.0066H23.5443V27.6881H26.1813Z" fill="#F0F0F0"/>
<path d="M31.4554 27.6881V26.3696H27.4999V32.9621H31.4554V31.6436H28.8184V30.3251H31.4554V29.0066H28.8184V27.6881H31.4554Z" fill="#F0F0F0"/>
<path d="M20.9073 28.9499V27.7448C20.9073 26.9854 20.2915 26.3696 19.5321 26.3696H17.0085C16.9775 26.3696 16.9518 26.3947 16.9518 26.4263V32.9054C16.9518 32.9364 16.9775 32.9621 17.0085 32.9621H18.2136C18.2446 32.9621 18.2703 32.9364 18.2703 32.9054V30.3818C18.2703 30.3699 18.2769 30.36 18.2828 30.3508L19.5888 32.9621H20.9073L19.5861 30.3198C20.3199 30.2908 20.9073 29.6909 20.9073 28.9499ZM18.9295 29.0066H18.2703V27.6881H18.9295C19.2934 27.6881 19.5888 27.9835 19.5888 28.3474C19.5888 28.7113 19.2934 29.0066 18.9295 29.0066Z" fill="#F0F0F0"/>
<path d="M9.04102 39.5547H11.678V42.1917H9.04102V39.5547Z" fill="#46AAD2"/>
<path d="M42.0036 26.3699H34.0927V23.7329H42.0036C42.7321 23.7329 43.3221 24.3229 43.3221 25.0514C43.3221 25.7799 42.7321 26.3699 42.0036 26.3699Z" fill="#505050"/>
<path d="M45.9589 32.9621H38.048V26.3696H42.0035L45.9589 32.9621Z" fill="#F0F0F0"/>
<path d="M42.6627 38.2361H45.9589V35.5991H42.6627C42.2988 35.5991 42.0034 35.8945 42.0034 36.2584V37.5769C42.0034 37.9408 42.2988 38.2361 42.6627 38.2361Z" fill="#FAB400"/>
<path d="M40.0256 44.8288C38.2054 44.8288 36.7294 43.3527 36.7294 41.5326C36.7294 39.7124 38.2054 38.2363 40.0256 38.2363C41.8458 38.2363 43.3218 39.7124 43.3218 41.5326C43.3218 43.3527 41.8458 44.8288 40.0256 44.8288Z" fill="#505050"/>
<path d="M14.974 44.8288C13.1538 44.8288 11.6777 43.3527 11.6777 41.5326C11.6777 39.7124 13.1538 38.2363 14.974 38.2363C16.7941 38.2363 18.2702 39.7124 18.2702 41.5326C18.2702 43.3527 16.7941 44.8288 14.974 44.8288Z" fill="#505050"/>
<path d="M40.0255 42.8509C39.2971 42.8509 38.707 42.2608 38.707 41.5324C38.707 40.8039 39.2971 40.2139 40.0255 40.2139C40.754 40.2139 41.344 40.8039 41.344 41.5324C41.344 42.2608 40.754 42.8509 40.0255 42.8509Z" fill="#F0F0F0"/>
<path d="M14.9739 42.8509C14.2454 42.8509 13.6554 42.2608 13.6554 41.5324C13.6554 40.8039 14.2454 40.2139 14.9739 40.2139C15.7024 40.2139 16.2924 40.8039 16.2924 41.5324C16.2924 42.2608 15.7024 42.8509 14.9739 42.8509Z" fill="#F0F0F0"/>
<path d="M27.4998 21.0958C30.4125 21.0958 32.7738 18.7346 32.7738 15.8218C32.7738 12.9091 30.4125 10.5479 27.4998 10.5479C24.5871 10.5479 22.2258 12.9091 22.2258 15.8218C22.2258 18.7346 24.5871 21.0958 27.4998 21.0958Z" fill="#3CC8B4"/>
<path d="M23.5331 15.8218C23.5331 13.1308 25.5498 10.9151 28.1538 10.5927C27.9389 10.5657 27.7213 10.5479 27.4998 10.5479C24.5873 10.5479 22.2258 12.9093 22.2258 15.8218C22.2258 18.7344 24.5873 21.0958 27.4998 21.0958C27.7213 21.0958 27.9389 21.078 28.1531 21.051C25.5498 20.7286 23.5331 18.5129 23.5331 15.8218Z" fill="#1EAA96"/>
<path d="M30.7961 14.5036L26.8406 18.459L24.2036 15.822L25.5221 14.5036L26.8406 15.822L29.4776 13.1851L30.7961 14.5036Z" fill="#F0F0F0"/>
</g>
<defs>
<filter id="filter0_d_7441_73073" x="5.04102" y="10.5479" width="44.918" height="42.2808" filterUnits="userSpaceOnUse" color-interpolation-filters="sRGB">
<feFlood flood-opacity="0" result="BackgroundImageFix"/>
<feColorMatrix in="SourceAlpha" type="matrix" values="0 0 0 0 0 0 0 0 0 0 0 0 0 0 0 0 0 0 127 0" result="hardAlpha"/>
<feOffset dy="4"/>
<feGaussianBlur stdDeviation="2"/>
<feComposite in2="hardAlpha" operator="out"/>
<feColorMatrix type="matrix" values="0 0 0 0 0 0 0 0 0 0 0 0 0 0 0 0 0 0 0.25 0"/>
<feBlend mode="normal" in2="BackgroundImageFix" result="effect1_dropShadow_7441_73073"/>
<feBlend mode="normal" in="SourceGraphic" in2="effect1_dropShadow_7441_73073" result="shape"/>
</filter>
</defs>
</svg>
