<svg width="329" height="71" viewBox="0 0 329 71" fill="none" xmlns="http://www.w3.org/2000/svg">
<path d="M72.9475 21.4868H49.6492L38 41.6787L49.6492 62H72.9475L84.7261 41.6787L72.9475 21.4868Z" fill="url(#paint0_linear_3714_169960)"/>
<path d="M72.9475 21.4868H49.6492L38 41.6787L49.6492 62H72.9475L84.7261 41.6787L72.9475 21.4868Z" fill="white"/>
<g opacity="0.49">
<path d="M149.198 -22.478H125.77L114.121 -2.28616L125.77 18.0352H149.198L160.847 -2.28616L149.198 -22.478Z" fill="url(#paint1_linear_3714_169960)"/>
<path d="M149.198 -22.478H125.77L114.121 -2.28616L125.77 18.0352H149.198L160.847 -2.28616L149.198 -22.478Z" fill="white"/>
</g>
<g opacity="0.49">
<path d="M111.077 0.486813H87.6492L76 20.6787L87.6492 41H111.077L122.726 20.6787L111.077 0.486813Z" fill="url(#paint2_linear_3714_169960)"/>
<path d="M111.077 0.486813H87.6492L76 20.6787L87.6492 41H111.077L122.726 20.6787L111.077 0.486813Z" fill="white"/>
</g>
<path d="M186.994 -0.216312H163.696L152.047 19.9756L163.696 40.2969H186.994L198.773 19.9756L186.994 -0.216312Z" fill="url(#paint3_linear_3714_169960)"/>
<path d="M186.994 -0.216312H163.696L152.047 19.9756L163.696 40.2969H186.994L198.773 19.9756L186.994 -0.216312Z" fill="white"/>
<path d="M301.284 22.0454H277.986L266.207 42.2373L277.986 62.5586H301.284L312.933 42.2373L301.284 22.0454Z" fill="white"/>
<path d="M225.311 -22.478H201.884L190.234 -2.28616L201.884 18.0352H225.311L236.96 -2.28616L225.311 -22.478Z" fill="url(#paint4_linear_3714_169960)"/>
<path d="M225.311 -22.478H201.884L190.234 -2.28616L201.884 18.0352H225.311L236.96 -2.28616L225.311 -22.478Z" fill="white"/>
<path d="M301.284 22.0454H277.986L266.207 42.2373L277.986 62.5586H301.284L312.933 42.2373L301.284 22.0454Z" fill="white"/>
<g opacity="0.49">
<path d="M263.233 -0.216312H239.805L228.156 19.9756L239.805 40.2969H263.233L274.882 19.9756L263.233 -0.216312Z" fill="url(#paint5_linear_3714_169960)"/>
<path d="M263.233 -0.216312H239.805L228.156 19.9756L239.805 40.2969H263.233L274.882 19.9756L263.233 -0.216312Z" fill="white"/>
</g>
<g opacity="0.49">
<path d="M186.994 44.3071H163.696L152.047 64.499L163.696 84.8203H186.994L198.773 64.499L186.994 44.3071Z" fill="url(#paint6_linear_3714_169960)"/>
<path d="M186.994 44.3071H163.696L152.047 64.499L163.696 84.8203H186.994L198.773 64.499L186.994 44.3071Z" fill="white"/>
</g>
<path d="M225.311 66.5688H201.884L190.234 86.7607L201.884 107.082H225.311L236.96 86.7607L225.311 66.5688Z" fill="url(#paint7_linear_3714_169960)"/>
<path d="M225.311 66.5688H201.884L190.234 86.7607L201.884 107.082H225.311L236.96 86.7607L225.311 66.5688Z" fill="white"/>
<path d="M225.311 22.0454H201.884L190.234 42.2373L201.884 62.5586H225.311L236.96 42.2373L225.311 22.0454Z" fill="url(#paint8_linear_3714_169960)"/>
<path d="M225.311 22.0454H201.884L190.234 42.2373L201.884 62.5586H225.311L236.96 42.2373L225.311 22.0454Z" fill="white"/>
<path d="M263.233 44.3071H239.805L228.156 64.499L239.805 84.8203H263.233L274.882 64.499L263.233 44.3071Z" fill="white"/>
<path d="M301.284 66.5688H277.986L266.207 86.7607L277.986 107.082H301.284L312.933 86.7607L301.284 66.5688Z" fill="url(#paint9_linear_3714_169960)"/>
<path d="M301.284 66.5688H277.986L266.207 86.7607L277.986 107.082H301.284L312.933 86.7607L301.284 66.5688Z" fill="white"/>
<path d="M301.284 22.0454H277.986L266.207 42.2373L277.986 62.5586H301.284L312.933 42.2373L301.284 22.0454Z" fill="white"/>
<defs>
<linearGradient id="paint0_linear_3714_169960" x1="37.9362" y1="41.7252" x2="84.6644" y2="41.7252" gradientUnits="userSpaceOnUse">
<stop offset="0.373" stop-color="#2185FF"/>
<stop offset="0.6993" stop-color="#1278FF"/>
<stop offset="1" stop-color="#0068FF"/>
</linearGradient>
<linearGradient id="paint1_linear_3714_169960" x1="114.11" y1="-2.25185" x2="160.838" y2="-2.25185" gradientUnits="userSpaceOnUse">
<stop offset="0.373" stop-color="#2185FF"/>
<stop offset="0.6993" stop-color="#1278FF"/>
<stop offset="1" stop-color="#0068FF"/>
</linearGradient>
<linearGradient id="paint2_linear_3714_169960" x1="75.9889" y1="20.713" x2="122.717" y2="20.713" gradientUnits="userSpaceOnUse">
<stop offset="0.373" stop-color="#2185FF"/>
<stop offset="0.6993" stop-color="#1278FF"/>
<stop offset="1" stop-color="#0068FF"/>
</linearGradient>
<linearGradient id="paint3_linear_3714_169960" x1="152.004" y1="20.0152" x2="198.732" y2="20.0152" gradientUnits="userSpaceOnUse">
<stop offset="0.373" stop-color="#2185FF"/>
<stop offset="0.6993" stop-color="#1278FF"/>
<stop offset="1" stop-color="#0068FF"/>
</linearGradient>
<linearGradient id="paint4_linear_3714_169960" x1="190.241" y1="-2.25186" x2="236.969" y2="-2.25186" gradientUnits="userSpaceOnUse">
<stop offset="0.373" stop-color="#2185FF"/>
<stop offset="0.6993" stop-color="#1278FF"/>
<stop offset="1" stop-color="#0068FF"/>
</linearGradient>
<linearGradient id="paint5_linear_3714_169960" x1="228.131" y1="20.0152" x2="274.859" y2="20.0152" gradientUnits="userSpaceOnUse">
<stop offset="0.373" stop-color="#2185FF"/>
<stop offset="0.6993" stop-color="#1278FF"/>
<stop offset="1" stop-color="#0068FF"/>
</linearGradient>
<linearGradient id="paint6_linear_3714_169960" x1="152.004" y1="64.5492" x2="198.732" y2="64.5492" gradientUnits="userSpaceOnUse">
<stop offset="0.373" stop-color="#2185FF"/>
<stop offset="0.6993" stop-color="#1278FF"/>
<stop offset="1" stop-color="#0068FF"/>
</linearGradient>
<linearGradient id="paint7_linear_3714_169960" x1="190.241" y1="86.8162" x2="236.969" y2="86.8162" gradientUnits="userSpaceOnUse">
<stop offset="0.373" stop-color="#2185FF"/>
<stop offset="0.6993" stop-color="#1278FF"/>
<stop offset="1" stop-color="#0068FF"/>
</linearGradient>
<linearGradient id="paint8_linear_3714_169960" x1="190.241" y1="42.2823" x2="236.969" y2="42.2823" gradientUnits="userSpaceOnUse">
<stop offset="0.373" stop-color="#2185FF"/>
<stop offset="0.6993" stop-color="#1278FF"/>
<stop offset="1" stop-color="#0068FF"/>
</linearGradient>
<linearGradient id="paint9_linear_3714_169960" x1="266.259" y1="86.8162" x2="312.987" y2="86.8162" gradientUnits="userSpaceOnUse">
<stop offset="0.373" stop-color="#2185FF"/>
<stop offset="0.6993" stop-color="#1278FF"/>
<stop offset="1" stop-color="#0068FF"/>
</linearGradient>
</defs>
</svg>
