<svg width="60" height="60" viewBox="0 0 60 60" fill="none" xmlns="http://www.w3.org/2000/svg">
<g clip-path="url(#clip0_3064_83086)">
<path d="M30 60C46.5685 60 60 46.5685 60 30C60 13.4315 46.5685 0 30 0C13.4315 0 0 13.4315 0 30C0 46.5685 13.4315 60 30 60Z" fill="url(#paint0_linear_3064_83086)"/>
<path d="M60.0002 30.0004C60.0002 46.5707 46.5705 60.0004 30.0002 60.0004C25.0556 60.0038 20.1869 58.7835 15.8284 56.4485C11.4698 54.1134 7.75687 50.736 5.02051 46.6176C22.1803 46.3574 29.0006 36.0004 29.0006 36.0004C38.7635 21.2348 50.6967 18.0836 57.3107 17.5703C59.0901 21.4723 60.0074 25.7119 60.0002 30.0004Z" fill="url(#paint1_linear_3064_83086)"/>
<path d="M56.6801 43.7369C54.1747 48.5981 50.3886 52.6825 45.7309 55.5486C41.0732 58.4147 35.7208 59.9537 30.2521 59.9993C24.7834 60.0449 19.4061 58.5954 14.7013 55.8073C9.99641 53.0193 6.14276 48.9987 3.55664 44.1798C9.65039 45.7501 20.1035 47.3767 27.1629 42.6669C27.1629 42.6669 45.1969 29.1072 56.6801 43.7369Z" fill="url(#paint2_linear_3064_83086)"/>
<path d="M29.516 27.6844C33.0834 27.6844 35.9754 24.7924 35.9754 21.225C35.9754 17.6576 33.0834 14.7656 29.516 14.7656C25.9486 14.7656 23.0566 17.6576 23.0566 21.225C23.0566 24.7924 25.9486 27.6844 29.516 27.6844Z" fill="white"/>
<path d="M30.0001 30.1621C26.9877 30.1621 24.0987 31.3587 21.9685 33.4887C19.8383 35.6186 18.6414 38.5075 18.6411 41.5199C18.6411 42.5052 19.0325 43.45 19.7292 44.1467C20.4258 44.8434 21.3707 45.2348 22.356 45.2348H37.6442C38.6295 45.2348 39.5744 44.8434 40.271 44.1467C40.9677 43.45 41.3591 42.5052 41.3591 41.5199C41.3588 38.5075 40.1619 35.6186 38.0317 33.4887C35.9015 31.3587 33.0125 30.1621 30.0001 30.1621Z" fill="white"/>
</g>
<defs>
<linearGradient id="paint0_linear_3064_83086" x1="15.6141" y1="5.16562" x2="44.209" y2="54.5273" gradientUnits="userSpaceOnUse">
<stop stop-color="#FAAD5F"/>
<stop offset="0.09" stop-color="#FBA659"/>
<stop offset="0.69" stop-color="#FE7E35"/>
<stop offset="1" stop-color="#FF6F27"/>
</linearGradient>
<linearGradient id="paint1_linear_3064_83086" x1="20.4412" y1="57.3719" x2="49.2635" y2="25.7113" gradientUnits="userSpaceOnUse">
<stop stop-color="#FF6F27"/>
<stop offset="1" stop-color="#FF5E1F"/>
</linearGradient>
<linearGradient id="paint2_linear_3064_83086" x1="17.1926" y1="56.522" x2="40.9371" y2="36.0962" gradientUnits="userSpaceOnUse">
<stop stop-color="#FF6B2C"/>
<stop offset="1" stop-color="#FF2D0F"/>
</linearGradient>
<clipPath id="clip0_3064_83086">
<rect width="60" height="60" fill="white"/>
</clipPath>
</defs>
</svg>
