<svg width="40" height="40" viewBox="0 0 40 40" fill="none" xmlns="http://www.w3.org/2000/svg">
<path d="M29.9955 28.1326C29.8655 28.1326 29.733 28.0913 29.6205 28.0063C29.3443 27.7988 29.2893 27.4076 29.4968 27.1313C31.053 25.0626 31.8755 22.5963 31.8755 20.0001C31.8755 19.1851 31.7918 18.3688 31.6268 17.5751C31.5568 17.2363 31.7743 16.9063 32.1118 16.8363C32.448 16.7663 32.7805 16.9838 32.8505 17.3213C33.033 18.1988 33.1255 19.1001 33.1255 20.0001C33.1255 22.8688 32.2155 25.5963 30.4955 27.8838C30.3718 28.0476 30.1843 28.1326 29.9955 28.1326Z" fill="white"/>
<path d="M7.77 23.2299C7.48125 23.2299 7.22125 23.0274 7.15875 22.7337C6.97125 21.8374 6.875 20.9174 6.875 19.9999C6.875 17.1437 7.77625 14.4274 9.4825 12.1474C9.68875 11.8699 10.0813 11.8124 10.3575 12.0212C10.6338 12.2287 10.6913 12.6199 10.4838 12.8962C8.94 14.9587 8.125 17.4149 8.125 19.9999C8.125 20.8312 8.21125 21.6649 8.3825 22.4762C8.45375 22.8137 8.2375 23.1449 7.9 23.2162C7.85625 23.2262 7.8125 23.2299 7.77 23.2299Z" fill="white"/>
<path d="M21.875 26.25H18.125C17.78 26.25 17.5 25.97 17.5 25.625V22.5H14.375C14.03 22.5 13.75 22.22 13.75 21.875V18.125C13.75 17.78 14.03 17.5 14.375 17.5H17.5V14.375C17.5 14.03 17.78 13.75 18.125 13.75H21.875C22.22 13.75 22.5 14.03 22.5 14.375V17.5H25.625C25.97 17.5 26.25 17.78 26.25 18.125V21.875C26.25 22.22 25.97 22.5 25.625 22.5H22.5V25.625C22.5 25.97 22.22 26.25 21.875 26.25ZM18.75 25H21.25V21.875C21.25 21.53 21.53 21.25 21.875 21.25H25V18.75H21.875C21.53 18.75 21.25 18.47 21.25 18.125V15H18.75V18.125C18.75 18.47 18.47 18.75 18.125 18.75H15V21.25H18.125C18.47 21.25 18.75 21.53 18.75 21.875V25Z" fill="white"/>
<path d="M22.6763 37.5H16.125C14.9037 37.5 13.7113 37.2275 12.58 36.69L8.20125 34.5625C7.07875 34.0237 5.8825 33.75 4.65125 33.75H1.875C1.53 33.75 1.25 33.47 1.25 33.125C1.25 32.78 1.53 32.5 1.875 32.5H4.65125C6.07125 32.5 7.44875 32.815 8.745 33.4375L13.1225 35.5637C14.08 36.0175 15.0912 36.25 16.125 36.25H22.5513L28.01 33.9975C28.01 33.945 28.0837 33.4612 27.8438 33.05C27.4775 32.42 26.6313 32.4 25.99 32.4937C25.0588 32.6375 24.2887 32.8962 23.61 33.125L23.3525 33.2112C23.0237 33.3175 22.6712 33.1437 22.5625 32.815C22.4537 32.4875 22.6313 32.1337 22.9588 32.025L23.2113 31.9412C23.9388 31.6962 24.7625 31.4187 25.805 31.2587C28.3825 30.8837 29.0263 32.4937 29.165 32.995C29.3938 33.8212 29.2038 34.855 28.49 35.1537L22.9137 37.455C22.8387 37.4837 22.7575 37.5 22.6763 37.5Z" fill="white"/>
<path d="M14.5438 28.5963C14.3088 28.5963 14.0825 28.4625 13.9762 28.235C12.7512 25.5988 9.56875 25.2213 7.2025 26.2025C7.12625 26.2338 7.045 26.25 6.9625 26.25H1.875C1.53 26.25 1.25 25.97 1.25 25.625C1.25 25.28 1.53 25 1.875 25H6.84125C10.225 23.6563 13.7612 24.81 15.1112 27.7088C15.2562 28.0213 15.1212 28.3938 14.8075 28.54C14.7212 28.5775 14.6325 28.5963 14.5438 28.5963Z" fill="white"/>
<path d="M20.4673 34.5289C20.386 34.5289 20.3048 34.5126 20.2285 34.4814L13.071 31.5101C12.7523 31.3776 12.601 31.0126 12.7335 30.6926C12.866 30.3739 13.2323 30.2239 13.551 30.3551L20.0798 33.0651C20.3535 31.7764 19.6485 30.7739 17.9735 30.0801L14.2948 28.5526C13.976 28.4201 13.8248 28.0539 13.9573 27.7351C14.0898 27.4164 14.456 27.2651 14.7748 27.3976L18.4523 28.9251C21.0285 29.9926 21.9735 31.8939 21.0448 34.1401C20.981 34.2939 20.8598 34.4164 20.706 34.4789C20.6298 34.5126 20.5485 34.5289 20.4673 34.5289Z" fill="white"/>
<path d="M13.4646 8.79875C11.4983 8.79875 10.9608 7.45625 10.8358 7.00625C10.6071 6.18 10.7971 5.14625 11.5108 4.8475L17.0871 2.54625C17.1621 2.51625 17.2433 2.5 17.3246 2.5H23.8746C25.0958 2.5 26.2883 2.7725 27.4196 3.31L31.7983 5.4375C32.9221 5.97625 34.1183 6.25 35.3496 6.25H38.1258C38.4708 6.25 38.7508 6.53 38.7508 6.875C38.7508 7.22 38.4708 7.5 38.1258 7.5H35.3496C33.9296 7.5 32.5521 7.185 31.2558 6.5625L26.8783 4.4375C25.9208 3.9825 24.9096 3.75 23.8758 3.75H17.4496L11.9896 6.0025C11.9896 6.055 11.9158 6.53875 12.1558 6.95C12.5233 7.58 13.3671 7.6 14.0096 7.50625C14.9408 7.3625 15.7108 7.10375 16.3896 6.875L16.6471 6.78875C16.9758 6.68125 17.3283 6.85625 17.4371 7.185C17.5458 7.5125 17.3683 7.86625 17.0408 7.975L16.7883 8.05875C16.0608 8.30375 15.2371 8.58125 14.1946 8.74125C13.9321 8.78125 13.6883 8.79875 13.4646 8.79875Z" fill="white"/>
<path d="M30.3252 15.5564C27.9627 15.5564 25.8602 14.3764 24.8902 12.2914C24.7452 11.9789 24.8802 11.6064 25.194 11.4601C25.5077 11.3151 25.879 11.4514 26.0252 11.7639C27.249 14.3989 30.4302 14.7751 32.799 13.7964C32.8752 13.7664 32.9565 13.7501 33.039 13.7501H38.1265C38.4715 13.7501 38.7515 14.0301 38.7515 14.3751C38.7515 14.7201 38.4715 15.0001 38.1265 15.0001H33.1602C32.2102 15.3764 31.2477 15.5564 30.3252 15.5564Z" fill="white"/>
<path d="M25.4665 12.65C25.3865 12.65 25.3052 12.635 25.2265 12.6025L21.549 11.075C18.9727 10.0075 18.0277 8.10622 18.9565 5.85997C19.0202 5.70622 19.1415 5.58372 19.2952 5.52122C19.449 5.45872 19.6202 5.45747 19.774 5.52122L26.9315 8.49247C27.2502 8.62497 27.4015 8.98997 27.269 9.30997C27.1365 9.62997 26.7727 9.77872 26.4515 9.64747L19.9227 6.93747C19.649 8.22622 20.354 9.22872 22.029 9.92247L25.7077 11.45C26.0265 11.5825 26.1777 11.9487 26.0452 12.2675C25.944 12.505 25.7115 12.65 25.4665 12.65Z" fill="white"/>
<path d="M28.1429 30.0436C27.9829 30.0436 27.8229 29.9824 27.7004 29.8611C27.4566 29.6174 27.4566 29.2211 27.7004 28.9774C27.9454 28.7336 28.3841 28.6899 28.6279 28.9336C28.8716 29.1774 28.9154 29.5299 28.6716 29.7736L28.5841 29.8611C28.4629 29.9824 28.3029 30.0436 28.1429 30.0436Z" fill="white"/>
<path d="M11.8947 11.2937C11.7335 11.2937 11.5722 11.2312 11.4497 11.1075C11.2072 10.8612 11.2097 10.4662 11.456 10.2237L11.5447 10.1362C11.7897 9.89373 12.186 9.89623 12.4285 10.1425C12.671 10.3887 12.6685 10.7837 12.4222 11.0262L12.3335 11.1137C12.2122 11.2337 12.0535 11.2937 11.8947 11.2937Z" fill="white"/>
</svg>
