<svg width="40" height="40" viewBox="0 0 40 40" fill="none" xmlns="http://www.w3.org/2000/svg">
<g clip-path="url(#clip0_4720_59618)">
<path d="M33.374 21.2242C36.581 21.2341 39.1813 23.925 39.2008 27.2533V33.1528C39.1813 36.4841 36.584 39.1803 33.374 39.2002H27.6898C24.4828 39.1796 21.89 36.4811 21.881 33.1528V27.2533C21.881 23.9235 24.4813 21.2242 27.6898 21.2242H33.374ZM8.96154 21.2242C9.2557 21.1926 9.55263 21.2469 9.8176 21.3805C10.0826 21.5142 10.3046 21.7218 10.4578 21.9791C10.6141 22.2391 10.6969 22.5379 10.6969 22.8426C10.6969 23.1474 10.6141 23.4462 10.4578 23.7062C10.3046 23.9634 10.0826 24.171 9.8176 24.3047C9.55263 24.4384 9.2557 24.4926 8.96154 24.461H6.62754C5.13879 24.461 3.92754 25.7077 3.91929 27.2533V33.0788C3.95679 34.6114 5.15079 35.8421 6.62754 35.8711H12.3508C12.707 35.873 13.06 35.8022 13.3887 35.6628C13.7175 35.5235 14.0154 35.3184 14.2648 35.0598C14.7754 34.5307 15.0607 33.8185 15.059 33.0773V24.3314L15.035 24.1141C15.0214 23.8292 15.0813 23.5457 15.2086 23.2916C15.336 23.0375 15.5264 22.8216 15.761 22.6653C16.0241 22.4916 16.333 22.4035 16.6466 22.4129C16.9602 22.4223 17.2635 22.5287 17.516 22.718C17.7714 22.9107 17.9651 23.1756 18.0732 23.4796C18.1812 23.7837 18.1987 24.1134 18.1235 24.4275V33.1345C18.1235 36.4742 15.515 39.1819 12.2968 39.1819H6.62754C3.43704 39.1132 0.86679 36.4452 0.80079 33.1345V27.2533C0.798173 25.6576 1.41134 24.1244 2.50854 22.9833C3.04502 22.4256 3.68582 21.9827 4.39321 21.6806C5.10059 21.3785 5.86028 21.2233 6.62754 21.2242H8.96154ZM33.374 24.461H27.6898C26.204 24.461 24.9988 25.7108 24.9988 27.2533V33.1528C24.9925 33.8927 25.2739 34.6053 25.7818 35.1353C26.0298 35.3941 26.3266 35.5994 26.6544 35.7389C26.9823 35.8784 27.3344 35.9493 27.6898 35.9473H33.374C33.7294 35.9493 34.0816 35.8783 34.4094 35.7388C34.7372 35.5993 35.034 35.394 35.282 35.1353C35.79 34.6053 36.0714 33.8927 36.065 33.1528V27.2533C36.0658 26.5157 35.7829 25.8069 35.2768 25.2784C35.0292 25.0202 34.7333 24.8149 34.4065 24.6745C34.0798 24.5342 33.7288 24.4616 33.374 24.461ZM33.374 0.160156C36.557 0.236406 39.1168 2.90516 39.1828 6.20754V12.0887C39.2048 13.6812 38.6125 15.2192 37.5328 16.3732C37.0049 16.9376 36.3716 17.3892 35.6698 17.7015C34.968 18.0137 34.212 18.1804 33.446 18.1918H31.0933C30.7063 18.1411 30.3507 17.9489 30.093 17.651C29.8353 17.3532 29.6931 16.97 29.6931 16.5734C29.6931 16.1767 29.8353 15.7935 30.093 15.4957C30.3507 15.1978 30.7063 15.0056 31.0933 14.9549H33.374C33.7325 14.9522 34.0869 14.8764 34.416 14.7319C34.7452 14.5874 35.0425 14.3773 35.2903 14.1139C35.7972 13.5747 36.0752 12.8544 36.0643 12.1085V6.20754C36.0455 4.67339 34.8508 3.43891 33.374 3.41527H27.6898C26.204 3.41527 24.9988 4.66501 24.9988 6.20754V15.0289L24.9808 15.2317C24.925 15.6183 24.734 15.9715 24.4427 16.2264C24.1515 16.4813 23.7796 16.6209 23.3953 16.6195C23.1893 16.6142 22.9865 16.5668 22.7989 16.4802C22.6113 16.3937 22.4428 16.2696 22.3033 16.1155C22.0168 15.7999 21.865 15.3818 21.881 14.9527V6.20754C21.8732 4.61169 22.4819 3.07649 23.576 1.93221C24.1107 1.3727 24.7502 0.927664 25.4567 0.623326C26.1632 0.318988 26.9225 0.161504 27.6898 0.160156L33.374 0.160156ZM12.3118 0.160156C15.5255 0.170069 18.1258 2.87161 18.1385 6.20754V12.107C18.1412 13.7028 17.528 15.2359 16.4308 16.377C15.8944 16.9347 15.2536 17.3777 14.5462 17.6798C13.8388 17.9819 13.0791 18.1371 12.3118 18.1361H6.62754C3.42054 18.1262 0.82029 15.4353 0.80079 12.107V6.20754C0.82029 2.87618 3.41754 0.179981 6.62754 0.160156H12.3118ZM12.3118 3.41527H6.62754C6.26838 3.40826 5.91155 3.47533 5.5786 3.61241C5.24564 3.74949 4.94345 3.95374 4.69029 4.21284C4.17205 4.74284 3.88181 5.46022 3.88329 6.20754V12.107C3.87557 12.4816 3.94123 12.8541 4.07642 13.2027C4.21162 13.5513 4.41366 13.8691 4.67079 14.1375C4.92492 14.402 5.22965 14.6108 5.56618 14.751C5.90271 14.8912 6.26392 14.9598 6.62754 14.9527H12.3118C12.6698 14.9499 13.0235 14.8743 13.3523 14.7302C13.681 14.5862 13.978 14.3766 14.2258 14.1139C14.7327 13.5746 15.0109 12.8544 15.0005 12.1085V6.20754C14.9908 4.66958 13.7915 3.42518 12.3095 3.41527H12.3118Z" fill="white"/>
</g>
<defs>
<clipPath id="clip0_4720_59618">
<rect width="38.4" height="39.04" fill="white" transform="translate(0.800781 0.160156)"/>
</clipPath>
</defs>
</svg>
