<svg width="46" height="46" viewBox="0 0 46 46" fill="none" xmlns="http://www.w3.org/2000/svg">
<path fill-rule="evenodd" clip-rule="evenodd" d="M22.9968 0C21.1615 0 19.3823 0.632324 17.9586 1.79028L17.4286 2.22363L16.7553 2.11377C14.9431 1.82251 13.0859 2.16479 11.4965 3.08252C9.90704 4.00024 8.6825 5.43774 8.02899 7.15283L7.78571 7.78931L7.14569 8.03271C5.43176 8.68726 3.99561 9.91211 3.07892 11.5012C2.16223 13.0903 1.82098 14.9465 2.11261 16.7578L2.2226 17.4309L1.78925 17.9641C0.631836 19.3875 0 21.1658 0 23C0 24.8342 0.631836 26.6125 1.78925 28.0359L2.2226 28.5691L2.11261 29.2422C1.82098 31.0535 2.16223 32.9097 3.07892 34.4988C3.99561 36.0879 5.43176 37.3127 7.14569 37.9673L7.78571 38.2107L8.02899 38.8506C8.68304 40.5649 9.9079 42.0017 11.4973 42.9187C13.0866 43.8359 14.9435 44.1777 16.7553 43.8862L17.4286 43.7764L17.9586 44.2097C19.3823 45.3677 21.1615 46 22.9968 46C24.832 46 26.6113 45.3677 28.0349 44.2097L28.5649 43.7798L29.2415 43.8862C31.0533 44.1777 32.9102 43.8359 34.4996 42.9187C36.0889 42.0017 37.3138 40.5649 37.9678 38.8506L38.2111 38.2107L38.8478 37.9673C40.563 37.314 42.0006 36.0896 42.9186 34.5005C43.8365 32.9111 44.1788 31.0542 43.8876 29.2422L43.7776 28.5691L44.2076 28.0391C46.5975 25.103 46.5975 20.897 44.2076 17.9641L43.7776 17.4343L43.8876 16.7578C44.1788 14.9458 43.8365 13.0889 42.9186 11.4995C42.0006 9.9104 40.563 8.68604 38.8478 8.03271L38.2111 7.78931L37.9678 7.15283C37.3143 5.43774 36.0898 4.00024 34.5004 3.08252C32.9109 2.16479 31.0537 1.82251 29.2415 2.11377L28.5682 2.22363L28.0349 1.79028C26.6113 0.632324 24.832 0 22.9968 0Z" fill="url(#paint0_linear_5619_18059)"/>
<defs>
<linearGradient id="paint0_linear_5619_18059" x1="22.5" y1="10" x2="22.5" y2="36" gradientUnits="userSpaceOnUse">
<stop stop-color="#AE004F"/>
<stop offset="1" stop-color="#D50060"/>
</linearGradient>
</defs>
</svg>
