<svg width="41" height="40" viewBox="0 0 41 40" fill="none" xmlns="http://www.w3.org/2000/svg">
<path d="M20.5 3C11.1258 3 3.5 10.6258 3.5 20C3.5 23.198 4.38858 26.3024 6.07419 28.9982C5.40269 31.3508 4.18981 35.8008 4.17673 35.8473C4.11396 36.0774 4.18131 36.3233 4.35327 36.4887C4.52523 36.6541 4.77369 36.713 4.99992 36.6437L11.7385 34.571C14.378 36.1611 17.4008 37 20.5 37C29.8742 37 37.5 29.3742 37.5 20C37.5 10.6258 29.8742 3 20.5 3ZM20.5 35.6923C17.5453 35.6923 14.667 34.8665 12.1759 33.3051C12.0706 33.2391 11.9497 33.2057 11.8287 33.2057C11.764 33.2057 11.6992 33.2155 11.6365 33.2345L5.7525 35.0457C6.18469 33.4679 6.96146 30.6459 7.41196 29.076C7.46427 28.8943 7.43485 28.6981 7.33219 28.5392C5.68058 25.9977 4.80769 23.045 4.80769 20C4.80769 11.3477 11.8477 4.30769 20.5 4.30769C29.1523 4.30769 36.1923 11.3477 36.1923 20C36.1923 28.6523 29.1523 35.6923 20.5 35.6923Z" fill="white"/>
<path d="M31.6065 24.0056C30.3995 23.3354 29.3716 22.6632 28.6217 22.1728C28.0489 21.7988 27.635 21.5288 27.3316 21.3765C26.4836 20.9534 25.8409 21.2522 25.5963 21.4994C25.5656 21.5301 25.5381 21.5635 25.5146 21.5988C24.6339 22.9202 23.4837 24.1841 23.147 24.2521C22.758 24.1913 20.937 23.1562 19.1272 21.6491C17.2794 20.1093 16.1169 18.6349 15.9462 17.6306C17.1316 16.4105 17.5586 15.6429 17.5586 14.7693C17.5586 13.869 15.4584 10.11 15.0786 9.73015C14.6974 9.34961 13.8389 9.29011 12.5266 9.55165C12.4004 9.57715 12.284 9.63926 12.1925 9.73015C12.0336 9.88903 8.31582 13.6794 10.0825 18.2733C12.0218 23.3151 16.9996 29.1755 23.3458 30.1275C24.067 30.2354 24.7431 30.289 25.376 30.289C29.1094 30.289 31.3129 28.4105 31.9334 24.6843C31.9798 24.4116 31.8484 24.1396 31.6065 24.0056ZM23.54 28.8342C16.8289 27.828 12.6018 21.179 11.3032 17.8038C10.0152 14.4561 12.3906 11.4713 12.9869 10.7966C13.4721 10.7142 13.9827 10.6795 14.1959 10.7129C14.6411 11.3321 16.1829 14.245 16.2509 14.7693C16.2509 15.1126 16.1391 15.5906 14.8079 16.9225C14.6849 17.0447 14.6163 17.2108 14.6163 17.3847C14.6163 20.8083 21.8374 25.5578 23.1163 25.5578C24.2285 25.5578 25.6787 23.6885 26.5045 22.4703C26.5522 22.4723 26.6327 22.4886 26.7471 22.5462C26.9825 22.6645 27.3905 22.9306 27.9064 23.268C28.5877 23.7133 29.4926 24.3044 30.561 24.917C30.0758 27.2513 28.7197 29.6123 23.54 28.8342Z" fill="white"/>
</svg>
