<svg width="55" height="55" viewBox="0 0 55 55" fill="none" xmlns="http://www.w3.org/2000/svg">
<circle cx="27.5" cy="27.5" r="27.5" fill="white"/>
<g clip-path="url(#clip0_7441_73180)">
<path d="M43.7743 39.4478C46.0056 36.2001 47.3124 32.2678 47.3124 28.0297C47.3124 16.8794 38.2733 7.84033 27.1231 7.84033C15.9728 7.84033 6.93384 16.8794 6.93384 28.0297C6.93384 32.2696 8.24187 36.2036 10.475 39.4521L43.7743 39.4478Z" fill="#FF4155"/>
<path d="M27.0137 7.55469C22.3279 7.55469 18.5157 11.3669 18.5157 16.0527C18.5266 16.2159 18.4855 16.3041 18.5674 16.3631C18.6764 16.4417 18.7414 16.5683 18.7414 16.7019V17.1835C18.7414 17.6205 19.2587 17.8405 19.3274 17.627C19.501 17.0877 19.9814 17.0422 20.1828 17.0455C20.1887 17.0456 20.1946 17.0459 20.2007 17.0456C20.3665 17.0463 20.5269 17.096 20.6648 17.1897C20.7322 17.2358 20.8276 17.2047 20.8531 17.1244C20.9289 16.8841 20.9547 16.6408 20.9379 16.413C20.8501 15.2177 20.9152 13.1171 22.3373 12.4771C23.6067 11.9053 24.8848 12.3016 25.725 12.4625C26.1997 12.6007 26.9817 12.9332 28.0783 12.5685C29.1096 12.2254 30.5938 11.9311 31.8075 12.477C33.2269 13.1158 33.2939 15.2111 33.2074 16.4033C33.1916 16.6232 33.214 16.8445 33.2739 17.0609C33.295 17.1372 33.3813 17.1741 33.4506 17.1382C33.8899 16.9122 34.5263 17.0881 34.7 17.6269C34.7191 17.6862 34.7787 17.7217 34.84 17.7112C35.0984 17.6655 35.286 17.4436 35.286 17.1834V16.7018C35.286 16.5683 35.351 16.4417 35.4601 16.363C35.5421 16.3039 35.5009 16.2142 35.5117 16.0526C35.5117 11.3669 31.6996 7.55469 27.0137 7.55469Z" fill="#41416B"/>
<path d="M26.7777 7.83458C26.8689 7.77113 26.8961 7.65502 26.8561 7.55762C22.2428 7.642 18.5157 11.4205 18.5157 16.0536C18.5266 16.2167 18.4855 16.305 18.5674 16.364C18.6764 16.4425 18.7414 16.5692 18.7414 16.7028V17.1843C18.7414 17.6213 19.2587 17.8414 19.3274 17.6279C19.501 17.0886 19.9814 17.043 20.1828 17.0464C20.1887 17.0465 20.1946 17.0468 20.2007 17.0465C20.3665 17.0471 20.5269 17.0969 20.6648 17.1905C20.7322 17.2368 20.8276 17.2056 20.8531 17.1253C20.9289 16.885 20.9547 16.6417 20.9379 16.4139C20.8501 15.2186 20.9152 13.1179 22.3373 12.478C23.5934 11.9122 24.8578 12.2941 25.6982 12.4581L25.7541 12.3424C25.7542 12.3424 24.1473 9.66358 26.7777 7.83458Z" fill="#35355E"/>
<path d="M10.4185 39.3696C14.0512 44.7106 20.1775 48.2189 27.1238 48.2189C34.0719 48.2189 40.1997 44.7087 43.832 39.3653C43.3345 37.7772 42.4168 36.223 40.7465 35.3632L40.747 35.362C40.6345 35.3085 40.4846 35.2296 40.2241 35.1275C34.8655 32.7454 34.248 32.8522 33.7048 32.6709C33.7212 32.687 33.7358 32.7049 33.7467 32.7265C33.7275 32.8872 33.8305 32.8608 33.4531 33.8311C32.6708 35.7722 31.2484 37.477 29.6001 38.7805C29.4335 38.912 29.2031 38.9207 29.0266 38.8029C28.7423 38.613 28.2419 40.4063 28.269 40.9151C28.2786 41.2204 28.2714 40.8572 28.2739 45.0059C28.2739 45.1694 28.1385 45.3024 27.9721 45.3024C27.9581 45.3024 26.2275 45.3024 26.2801 45.3024C26.1137 45.3024 25.9782 45.1694 25.9782 45.0059C25.9808 40.8573 25.9735 41.22 25.9831 40.9151C25.9834 40.9115 25.9832 40.9078 25.9829 40.9042C25.9133 40.0072 25.4825 38.6313 25.2255 38.8029C25.049 38.9208 24.8186 38.912 24.6521 38.7805C23.0037 37.4769 21.5813 35.7722 20.799 33.8311C20.4215 32.8608 20.5246 32.8872 20.5054 32.7265C20.5163 32.7049 20.531 32.687 20.5473 32.6709C20.0041 32.8522 19.3867 32.7454 14.028 35.1275C13.7675 35.2296 13.6175 35.3084 13.505 35.362L13.5056 35.3632C11.8337 36.2237 10.9159 37.78 10.4185 39.3696Z" fill="#FFDD40"/>
<path d="M20.5052 32.7265C20.5161 32.7049 20.5306 32.687 20.547 32.6709C20.0038 32.8522 19.3864 32.7454 14.0277 35.1275C13.7673 35.2296 13.6173 35.3084 13.5048 35.362L13.5054 35.3632C11.8337 36.2237 10.9159 37.78 10.4185 39.3696C11.7655 41.35 13.4552 43.0785 15.4028 44.4695L16.0536 42.3219C16.3314 41.4052 16.9825 40.6479 17.8471 40.2359L22.6615 37.9417V36.8629C21.8863 35.9474 21.2405 34.9269 20.7989 33.831C20.4212 32.8608 20.5243 32.8872 20.5052 32.7265Z" fill="#FFC839"/>
<path d="M22.1638 31.3023L22.2536 31.7969L22.2564 31.8086C22.2825 31.9224 22.3121 32.0368 22.3444 32.1489L22.3495 32.1659C22.3603 32.2032 22.3718 32.2412 22.3834 32.2784L22.3905 32.3011C22.403 32.3402 22.4158 32.3798 22.4297 32.4213L22.4344 32.4349C22.7303 33.3041 23.3768 34.5708 24.775 35.6699C25.1374 35.9548 25.5335 36.2167 25.9522 36.4483C26.1402 36.5523 26.2773 36.7104 26.3485 36.9056C26.3532 36.9185 26.3603 36.9305 26.3695 36.9409C26.5841 37.1825 26.7892 37.4481 26.9791 37.7302C27.0201 37.7909 27.1207 37.7909 27.1614 37.7302C27.3504 37.449 27.5561 37.183 27.7724 36.9397C27.7817 36.9294 27.7887 36.9175 27.7934 36.9045C27.865 36.7097 28.0018 36.5519 28.1892 36.4483C31.1959 34.7852 31.8425 32.3339 31.9801 31.2844C31.612 30.4418 31.4945 29.4002 31.467 28.6006C31.0229 29.1178 30.5569 29.5504 30.1116 29.8963C29.244 30.57 28.1734 30.9359 27.0707 30.9359C25.9681 30.9359 24.8975 30.5699 24.0299 29.8963C23.5846 29.5504 23.1185 29.1178 22.6744 28.6006C22.6469 29.4002 22.5293 30.4419 22.1613 31.2845L22.1638 31.3023Z" fill="#FCA870"/>
<path d="M24.0328 29.8963C23.5875 29.5504 23.1214 29.1178 22.6773 28.6006C22.6498 29.4002 22.5322 30.4419 22.1642 31.2845L22.1664 31.3023L22.2562 31.797L22.259 31.8087C22.2851 31.9224 22.3147 32.0369 22.347 32.149L22.3521 32.166C22.3629 32.2033 22.3743 32.2413 22.386 32.2785L22.3931 32.3012C22.4056 32.3402 22.4184 32.3799 22.4323 32.4213L22.437 32.4349C22.7329 33.3041 23.3794 34.5708 24.7776 35.6699C24.8916 35.7595 25.01 35.8459 25.1303 35.9308C26.3563 33.8662 26.7497 31.9487 26.876 30.9318C25.8436 30.8908 24.8485 30.5296 24.0328 29.8963Z" fill="#F9955F"/>
<path d="M33.907 18.1126C33.8202 17.8859 33.7167 17.6777 33.5993 17.4936C33.3987 17.1789 33.3036 16.7943 33.3314 16.4106C33.4201 15.186 33.3467 13.0318 31.8584 12.3621C30.6085 11.7999 29.0914 12.0989 28.0389 12.449C27.4155 12.6565 26.7289 12.6564 26.1055 12.449C25.053 12.0989 23.5359 11.7995 22.286 12.3621C21.646 12.6501 20.6037 13.5604 20.8137 16.4204C20.8414 16.7972 20.746 17.1784 20.5451 17.4938C20.4311 17.6725 20.3301 17.8742 20.2449 18.0931C19.9953 18.7344 19.9145 19.4461 20.0113 20.1513L20.3604 22.6899C20.3604 26.8941 22.9041 29.3231 23.9977 30.1724C24.8705 30.8504 25.9625 31.2237 27.0722 31.2237C28.1819 31.2237 29.2739 30.8504 30.1467 30.1724C31.2403 29.3232 33.784 26.8941 33.7834 22.6975L34.133 20.1519C34.2289 19.4536 34.1508 18.7485 33.907 18.1126Z" fill="#F9BD91"/>
<path d="M26.9344 30.1725C26.1564 29.3233 24.347 26.8942 24.347 22.69L24.0987 20.1514C24.0298 19.4461 24.0872 18.7345 24.2648 18.0932C24.3255 17.8742 24.3973 17.6725 24.4784 17.4938C24.6214 17.1784 24.6892 16.7973 24.6695 16.4204C24.5201 13.5604 25.2615 12.6501 25.7168 12.3621C25.7291 12.3544 25.7415 12.3474 25.7539 12.3399C24.7325 12.0449 23.4027 11.8594 22.2859 12.3621C21.646 12.6501 20.6037 13.5604 20.8137 16.4204C20.8414 16.7972 20.746 17.1784 20.5451 17.4938C20.4311 17.6725 20.3301 17.8742 20.2449 18.0932C19.9953 18.7345 19.9145 19.4461 20.0113 20.1514L20.3604 22.69C20.3604 26.8942 22.9041 29.3232 23.9977 30.1725C24.8705 30.8504 25.9625 31.2238 27.0722 31.2238C27.4771 31.2238 27.8794 31.1736 28.2697 31.0776C27.7862 30.9103 27.3288 30.6031 26.9344 30.1725Z" fill="#FCA870"/>
<path d="M27.1499 37.789C26.5507 36.8628 25.9599 36.3765 25.9599 36.3765L24.4333 38.8283C25.5331 39.5362 25.7295 41.2654 25.7645 41.8226C25.8558 40.032 26.5339 38.6712 27.1499 37.789Z" fill="#FF9100"/>
<path d="M28.3721 45.3944V41.9995C28.3721 41.9995 28.3912 39.6776 29.7109 38.8283L28.1844 36.3765C28.1844 36.3765 25.7518 38.3752 25.7518 41.9996V45.3945H28.3721V45.3944Z" fill="#FFB332"/>
<path d="M26.0057 36.3528C22.9612 34.669 22.3744 32.1621 22.2618 31.202C22.2419 31.0319 22.045 30.9479 21.907 31.0492L19.8462 32.5601C19.7362 32.6408 19.6834 32.7799 19.7166 32.9121C20.5366 36.1757 23.1724 38.5586 24.3343 39.4773C24.6301 39.7112 25.0614 39.6434 25.2719 39.3305C25.5695 38.8882 25.9905 38.2626 26.338 37.7462C26.6624 37.264 26.5142 36.6341 26.0057 36.3528Z" fill="#FFC839"/>
<path d="M24.8433 35.5842C22.8042 33.9814 22.3582 32.0244 22.2618 31.2019C22.2419 31.0319 22.045 30.9479 21.907 31.0492L19.8462 32.5601C19.7362 32.6408 19.6834 32.7799 19.7166 32.9122C20.2413 35.0007 21.5094 36.7276 22.6592 37.9418C23.572 34.9452 24.5901 35.4093 24.8433 35.5842Z" fill="#FFB332"/>
<path d="M34.2991 32.5601L32.2383 31.0492C32.1002 30.9479 31.9034 31.0319 31.8834 31.202C31.7708 32.1621 31.184 34.669 28.1396 36.3528C27.631 36.6341 27.4828 37.264 27.8073 37.7462C28.1547 38.2626 28.5757 38.8882 28.8735 39.3305C29.0839 39.6434 29.5153 39.7111 29.811 39.4773C30.9729 38.5586 33.6087 36.1757 34.4286 32.9121C34.4618 32.7799 34.4091 32.6407 34.2991 32.5601Z" fill="#FFC839"/>
<path d="M27.7026 41.0084C27.7026 41.2927 27.4721 41.5232 27.1878 41.5232C26.9035 41.5232 26.673 41.2927 26.673 41.0084C26.673 40.7241 26.9035 40.4937 27.1878 40.4937C27.4721 40.4937 27.7026 40.7241 27.7026 41.0084Z" fill="#FFC839"/>
<path d="M27.5878 43.5602C27.5878 43.8445 27.3573 44.075 27.073 44.075C26.7887 44.075 26.5582 43.8445 26.5582 43.5602C26.5582 43.2759 26.7887 43.0454 27.073 43.0454C27.3573 43.0454 27.5878 43.2759 27.5878 43.5602Z" fill="#FFC839"/>
<path d="M25.7518 45.2759V46.2377C25.7518 46.4785 25.9496 46.6736 26.1935 46.6736H27.9305C28.1744 46.6736 28.3722 46.4785 28.3722 46.2377V45.2759H25.7518Z" fill="#FF9100"/>
<path d="M27.0137 6.02734C21.5739 6.02734 17.1639 10.4372 17.1639 15.8771V17.048H18.64V16.0525C18.64 11.4279 22.389 7.67884 27.0137 7.67884C31.6384 7.67884 35.3874 11.4279 35.3874 16.0525V17.048H36.8635V15.8771C36.8635 10.4372 32.4536 6.02734 27.0137 6.02734Z" fill="#E3E7FC"/>
<path d="M17.1639 15.8771V17.048H18.64V16.0525C18.64 11.4754 22.3126 7.75647 26.8718 7.68065C26.8814 7.61629 26.8648 7.54781 26.8193 7.49351C26.5969 7.22824 26.3435 6.69755 27.0137 6.02734C21.5738 6.02734 17.1639 10.4372 17.1639 15.8771Z" fill="#C8CEFC"/>
<path d="M36.4789 16.1602H35.7044C35.4051 16.1602 35.1624 16.4028 35.1624 16.7021V17.1837C35.1624 17.4289 34.9505 17.6163 34.7064 17.5943L34.7017 17.5939C34.7319 17.6848 34.7485 17.7813 34.7485 17.8813V24.3382C34.7485 24.4382 34.732 24.5346 34.7017 24.6255C35.2282 24.5787 35.7228 24.4279 36.1626 24.195C36.6915 23.9148 37.0208 23.3635 37.0208 22.7649V19.0655V18.6496V16.7021C37.0209 16.4028 36.7782 16.1602 36.4789 16.1602Z" fill="#C8CEFC"/>
<path d="M36.1625 20.1772C35.7359 20.4033 35.2573 20.551 34.7484 20.6024V24.3377C34.7484 24.4377 34.7319 24.5342 34.7017 24.6251C35.2282 24.5783 35.7228 24.4276 36.1626 24.1945C36.6915 23.9143 37.0208 23.363 37.0208 22.7644V19.065V18.7471C37.0208 19.3457 36.6914 19.897 36.1625 20.1772Z" fill="#B8C0F4"/>
<path d="M33.9057 25.2986H33.8308C33.303 25.2986 32.8711 24.8668 32.8711 24.339V17.8821C32.8711 17.3543 33.303 16.9224 33.8308 16.9224H33.9057C34.4335 16.9224 34.8654 17.3543 34.8654 17.8821V24.339C34.8653 24.8668 34.4335 25.2986 33.9057 25.2986Z" fill="#E3E7FC"/>
<path d="M17.5498 16.1602H18.3244C18.6237 16.1602 18.8664 16.4028 18.8664 16.7021V17.1837C18.8664 17.4289 19.0782 17.6163 19.3224 17.5943L19.3271 17.5939C19.2968 17.6848 19.2804 17.7813 19.2804 17.8813V24.3382C19.2804 24.4382 19.2968 24.5346 19.3271 24.6255C18.8005 24.5787 18.3059 24.4279 17.8662 24.195C17.3372 23.9148 17.0079 23.3635 17.0079 22.7649V19.0655V18.6496V16.7021C17.0079 16.4028 17.2505 16.1602 17.5498 16.1602Z" fill="#B8C0F4"/>
<path d="M19.2803 20.5204C18.7713 20.469 18.2927 20.3212 17.8662 20.0952C17.3372 19.815 17.0079 19.2637 17.0079 18.665V19.0654V22.7647C17.0079 23.3633 17.3373 23.9146 17.8662 24.1949C18.3059 24.4278 18.8005 24.5786 19.3271 24.6255C19.2968 24.5346 19.2804 24.4381 19.2804 24.3381V20.5204H19.2803Z" fill="#A4B0EA"/>
<path d="M20.1218 25.2986H20.1968C20.7246 25.2986 21.1565 24.8668 21.1565 24.339V17.8821C21.1565 17.3543 20.7247 16.9224 20.1968 16.9224H20.1218C19.594 16.9224 19.1622 17.3543 19.1622 17.8821V24.339C19.1622 24.8668 19.594 25.2986 20.1218 25.2986Z" fill="#E3E7FC"/>
<path d="M33.9057 21.2228H33.8307C33.3029 21.2228 32.8711 20.7909 32.8711 20.2632V24.3387C32.8711 24.8665 33.3029 25.2984 33.8307 25.2984H33.9057C34.4335 25.2984 34.8653 24.8666 34.8653 24.3387V20.2632C34.8654 20.7909 34.4335 21.2228 33.9057 21.2228Z" fill="#C8CEFC"/>
<path d="M20.1968 21.2228H20.1218C19.594 21.2228 19.1622 20.7909 19.1622 20.2632V24.3387C19.1622 24.8665 19.594 25.2984 20.1218 25.2984H20.1968C20.7246 25.2984 21.1565 24.8666 21.1565 24.3387V20.2632C21.1565 20.7909 20.7246 21.2228 20.1968 21.2228Z" fill="#C8CEFC"/>
<path d="M30.606 31.4099C30.5051 31.0819 30.6894 30.7342 31.0174 30.6333C32.2577 30.2522 33.371 29.7752 34.0865 29.442C34.3511 29.3189 34.5545 29.0884 34.6446 28.8097L35.6242 25.7776C35.8158 25.1848 35.4634 24.7836 35.3897 24.5762C35.2379 24.2685 35.3644 23.8958 35.6722 23.7439C35.9801 23.5921 36.3525 23.7187 36.5045 24.0264C36.5612 24.2033 37.1774 25.0128 36.807 26.1597L35.8274 29.1918C35.6314 29.7984 35.188 30.3003 34.6111 30.5689C33.8601 30.9184 32.6904 31.4195 31.3826 31.8214C31.053 31.9228 30.7063 31.7366 30.606 31.4099Z" fill="#E3E7FC"/>
<path d="M27.6945 32.9642C27.0767 32.9642 26.5758 32.4634 26.5758 31.8456C26.5758 31.2278 27.0766 30.7269 27.6945 30.7269C28.4008 30.7269 29.2403 30.6002 30.1897 30.3506C30.7876 30.1932 31.3989 30.5504 31.5561 31.1479C31.7132 31.7454 31.3563 32.3571 30.7588 32.5143C29.6237 32.8128 28.5927 32.9642 27.6945 32.9642Z" fill="#FF4155"/>
<path d="M28.823 31.4881C28.823 31.1256 28.9767 30.7996 29.2214 30.5693C28.6614 30.6737 28.1498 30.7271 27.6945 30.7271C27.0767 30.7271 26.5758 31.2279 26.5758 31.8457C26.5758 32.4636 27.0766 32.9644 27.6945 32.9644C28.3445 32.9644 29.065 32.8839 29.8431 32.727C29.2618 32.6137 28.823 32.1024 28.823 31.4881Z" fill="#E80054"/>
<path d="M40.8505 7.55469H35.1702C32.143 7.55469 29.666 10.0316 29.666 13.0589C29.666 16.0862 32.1429 18.5631 35.1702 18.5631H39.041C39.2248 18.5631 39.3739 18.7122 39.3739 18.896V20.8264C39.3739 21.0445 39.6108 21.1811 39.7992 21.0713C40.8621 20.4516 41.3883 19.5893 41.6486 18.8638C41.7296 18.6379 41.9148 18.464 42.148 18.4071C44.5546 17.82 46.3548 15.6396 46.3548 13.0588C46.3548 10.0316 43.8779 7.55469 40.8505 7.55469Z" fill="#49DAFC"/>
<path d="M29.666 13.0589C29.666 16.0862 32.1429 18.5631 35.1701 18.5631H36.9312C34.7257 16.4015 36.7738 13.7417 36.7738 13.7417L36.3643 12.3852C34.2587 9.91397 36.3643 7.55741 36.3643 7.55741L36.3603 7.55469H35.1702C32.1429 7.55469 29.666 10.0316 29.666 13.0589Z" fill="#26C6F7"/>
<path d="M34.1424 13.1244C34.1424 13.5333 33.8111 13.8646 33.4022 13.8646C32.9934 13.8646 32.662 13.5333 32.662 13.1244C32.662 12.7156 32.9934 12.3843 33.4022 12.3843C33.8111 12.3843 34.1424 12.7156 34.1424 13.1244Z" fill="black"/>
<path d="M37.1031 13.1244C37.1031 13.5333 36.7718 13.8646 36.363 13.8646C35.9542 13.8646 35.6228 13.5333 35.6228 13.1244C35.6228 12.7156 35.9542 12.3843 36.363 12.3843C36.7718 12.3843 37.1031 12.7156 37.1031 13.1244Z" fill="black"/>
<path d="M40.0638 13.1244C40.0638 13.5333 39.7325 13.8646 39.3237 13.8646C38.9148 13.8646 38.5835 13.5333 38.5835 13.1244C38.5835 12.7156 38.9148 12.3843 39.3237 12.3843C39.7325 12.3843 40.0638 12.7156 40.0638 13.1244Z" fill="black"/>
<path d="M43.0246 13.1244C43.0246 13.5333 42.6933 13.8646 42.2845 13.8646C41.8757 13.8646 41.5443 13.5333 41.5443 13.1244C41.5443 12.7156 41.8757 12.3843 42.2845 12.3843C42.6933 12.3843 43.0246 12.7156 43.0246 13.1244Z" fill="black"/>
</g>
<defs>
<clipPath id="clip0_7441_73180">
<rect width="42.1918" height="42.1918" fill="white" transform="translate(6.02734 6.02734)"/>
</clipPath>
</defs>
</svg>
