<svg width="64" height="64" viewBox="0 0 64 64" fill="none" xmlns="http://www.w3.org/2000/svg">
<path d="M46.7793 45.8335L50.3238 42.289L55.3525 47.3178L51.808 50.8622L46.7793 45.8335Z" fill="#E6E2E6"/>
<path d="M46.7793 45.8335L50.3238 42.289L55.3525 47.3178L51.808 50.8622L46.7793 45.8335Z" fill="#ECDAEC"/>
<path d="M46.7793 45.8335L48.4666 44.1462L53.4953 49.175L51.808 50.8622L46.7793 45.8335Z" fill="#E2CBE2"/>
<path d="M1 2.875C1 1.8395 1.8395 1 2.875 1H34.4306L46.0477 12.6171V61.125C46.0477 62.1605 45.2082 63 44.1727 63H2.875C1.8395 63 1 62.1605 1 61.125V2.875Z" fill="#F9F6F6"/>
<path d="M44.1727 60.75H2.875C1.8395 60.75 1 59.9105 1 58.875V61.125C1 62.1605 1.8395 63 2.875 63H44.1727C45.2082 63 46.0477 62.1605 46.0477 61.125V58.875C46.0477 59.9105 45.2082 60.75 44.1727 60.75Z" fill="#ECDAEC"/>
<path d="M36.3066 12.6171H46.0488L34.4316 1V10.7421C34.4316 11.7776 35.2711 12.6171 36.3066 12.6171Z" fill="#E2CBE2"/>
<path d="M36.3066 12.6171H46.0488L34.4316 1V10.7421C34.4316 11.7776 35.2711 12.6171 36.3066 12.6171Z" fill="#E2CBE2"/>
<path d="M39.2421 50.3034C47.836 50.3034 54.8026 43.3367 54.8026 34.7429C54.8026 26.149 47.836 19.1824 39.2421 19.1824C30.6483 19.1824 23.6816 26.149 23.6816 34.7429C23.6816 43.3367 30.6483 50.3034 39.2421 50.3034Z" fill="#E2CBE2"/>
<path d="M50.245 43.4951C44.1682 49.5718 34.3159 49.5718 28.2391 43.4951C25.4871 40.7431 23.9814 37.2166 23.7221 33.6172C23.4089 37.9656 24.9145 42.4204 28.2391 45.7451C34.3159 51.8218 44.1682 51.8218 50.245 45.7451C53.5697 42.4203 55.0753 37.9656 54.762 33.6172C54.5026 37.2166 52.9971 40.7431 50.245 43.4951Z" fill="#DAB9D8"/>
<path d="M39.2431 46.0096C45.4654 46.0096 50.5096 40.9654 50.5096 34.7431C50.5096 28.5207 45.4654 23.4766 39.2431 23.4766C33.0207 23.4766 27.9766 28.5207 27.9766 34.7431C27.9766 40.9654 33.0207 46.0096 39.2431 46.0096Z" fill="#FFE27A"/>
<path d="M47.2086 40.4588C42.8087 44.8587 35.6752 44.8587 31.2755 40.4588C29.3621 38.5454 28.2818 36.1149 28.0326 33.6172C27.7087 36.8629 28.7891 40.2223 31.2755 42.7088C35.6752 47.1087 42.8088 47.1087 47.2086 42.7088C49.695 40.2223 50.7753 36.8629 50.4515 33.6172C50.2023 36.1149 49.122 38.5454 47.2086 40.4588Z" fill="#F9CF58"/>
<path d="M38.2348 39.3773C37.7398 39.3773 37.2444 39.1919 36.8617 38.8197L34.2763 36.3056C33.4963 35.5471 33.4788 34.2999 34.2373 33.5198C34.9958 32.7398 36.2431 32.7224 37.0231 33.4808L38.1981 34.6234L41.7281 31.0037C42.4877 30.2248 43.7351 30.2093 44.5139 30.9687C45.2928 31.7283 45.3084 32.9757 44.5489 33.7546L39.6453 38.7827C39.2594 39.1786 38.7474 39.3773 38.2348 39.3773Z" fill="#98DB7C"/>
<path d="M44.5477 31.5042L39.6441 36.5323C39.2581 36.9281 38.7461 37.1269 38.2336 37.1269C37.7386 37.1269 37.2432 36.9416 36.8604 36.5693L34.2751 34.0552C34.1836 33.9662 34.1034 33.8699 34.0329 33.7691C33.4909 34.5464 33.5734 35.6229 34.2751 36.3052L36.8604 38.8193C37.2433 39.1917 37.7386 39.3769 38.2336 39.3769C38.7461 39.3769 39.2581 39.1782 39.6441 38.7823L44.5477 33.7542C45.2188 33.0661 45.2837 32.0128 44.7528 31.2527C44.6917 31.3403 44.6247 31.4252 44.5477 31.5042Z" fill="#82D361"/>
<path d="M56.0606 46.6172L51.1172 51.5606L57.0318 57.4752C58.3969 58.8402 60.6101 58.8402 61.9752 57.4752C63.3402 56.1102 63.3402 53.8969 61.9752 52.5318L56.0606 46.6172Z" fill="#FF4755"/>
<path d="M58.7174 55.7878L52.8047 49.875L51.1172 51.5625L57.0318 57.4771C58.3968 58.8421 60.6101 58.8421 61.9751 57.4771C62.2724 57.1797 62.5049 56.8421 62.6728 56.4817C61.3777 57.0886 59.7872 56.8575 58.7174 55.7878Z" fill="#FC2B3A"/>
<path d="M12.673 24.6756H8.57161C7.93123 24.6756 7.41211 24.1565 7.41211 23.5161V19.4146C7.41211 18.7743 7.93123 18.2551 8.57161 18.2551H12.6731C13.3135 18.2551 13.8326 18.7743 13.8326 19.4146V23.5161C13.8325 24.1565 13.3134 24.6756 12.673 24.6756Z" fill="#98DB7C"/>
<path d="M12.673 37.8214H8.57161C7.93123 37.8214 7.41211 37.3023 7.41211 36.6619V32.5604C7.41211 31.92 7.93123 31.4009 8.57161 31.4009H12.6731C13.3135 31.4009 13.8326 31.92 13.8326 32.5604V36.6619C13.8325 37.3023 13.3134 37.8214 12.673 37.8214Z" fill="#98DB7C"/>
<path d="M12.673 51.233H8.57161C7.93123 51.233 7.41211 50.7139 7.41211 50.0735V45.972C7.41211 45.3316 7.93123 44.8125 8.57161 44.8125H12.6731C13.3135 44.8125 13.8326 45.3316 13.8326 45.972V50.0735C13.8325 50.7139 13.3134 51.233 12.673 51.233Z" fill="#98DB7C"/>
<path d="M12.673 22.425H8.57161C7.93123 22.425 7.41211 21.9059 7.41211 21.2656V23.5156C7.41211 24.156 7.93123 24.6751 8.57161 24.6751H12.6731C13.3135 24.6751 13.8325 24.156 13.8325 23.5156V21.2656C13.8325 21.9059 13.3134 22.425 12.673 22.425Z" fill="#82D361"/>
<path d="M12.673 35.5709H8.57161C7.93123 35.5709 7.41211 35.0518 7.41211 34.4114V36.6614C7.41211 37.3018 7.93123 37.8209 8.57161 37.8209H12.6731C13.3135 37.8209 13.8325 37.3018 13.8325 36.6614V34.4114C13.8325 35.0518 13.3134 35.5709 12.673 35.5709Z" fill="#82D361"/>
<path d="M12.673 48.9825H8.57161C7.93123 48.9825 7.41211 48.4634 7.41211 47.823V50.073C7.41211 50.7134 7.93123 51.2325 8.57161 51.2325H12.6731C13.3135 51.2325 13.8325 50.7134 13.8325 50.073V47.823C13.8325 48.4634 13.3134 48.9825 12.673 48.9825Z" fill="#82D361"/>
<path d="M34.4297 10.7422V12.9922C34.4297 14.0277 35.2692 14.8672 36.3047 14.8672H46.0468V12.6172H36.3047C35.2692 12.6172 34.4297 11.7777 34.4297 10.7422Z" fill="#ECDAEC"/>
<path d="M38.2508 40.3317C39.043 40.3317 39.7838 40.0195 40.337 39.4525L45.2508 34.4145C46.3723 33.2645 46.3491 31.4165 45.199 30.2948C44.0488 29.1735 42.2005 29.1967 41.079 30.3466L38.1963 33.3018L37.6913 32.8108C36.5396 31.6913 34.6913 31.717 33.5712 32.8686C32.4515 34.0202 32.4773 35.8682 33.6291 36.9881L36.2198 39.5071C36.7667 40.0388 37.4881 40.3317 38.2508 40.3317ZM34.9185 34.1783C35.3165 33.7691 35.9731 33.7606 36.3817 34.158L37.5591 35.3028C37.9306 35.6642 38.5246 35.6561 38.8866 35.2852L42.4241 31.6585C42.8226 31.2498 43.479 31.242 43.8872 31.64C44.2957 32.0383 44.3038 32.6946 43.9057 33.103L38.9918 38.1408C38.6121 38.547 37.9203 38.5556 37.5297 38.1603L34.939 35.6413C34.5301 35.2436 34.5207 34.5872 34.9185 34.1783Z" fill="black"/>
<path d="M30.9884 40.9709C30.6759 40.5568 30.087 40.4743 29.6725 40.7868C29.2583 41.0993 29.176 41.6883 29.4884 42.1024C29.8305 42.5558 30.209 42.9905 30.613 43.3945C32.9229 45.7042 35.994 46.976 39.2606 46.976C42.5273 46.976 45.5983 45.7042 47.9081 43.3945C50.2181 41.085 51.4901 38.0143 51.4901 34.7482C51.4901 31.4819 50.218 28.4113 47.9081 26.1018C43.1398 21.3342 35.3814 21.3343 30.613 26.1018C27.3621 29.3522 26.2118 34.0938 27.6109 38.4763C27.7686 38.9705 28.2976 39.243 28.7915 39.0855C29.2858 38.9278 29.5586 38.3992 29.4008 37.905C28.2164 34.1953 29.19 30.1815 31.9418 27.4303C35.9773 23.3952 42.544 23.3952 46.5795 27.4303C48.5345 29.385 49.6113 31.9839 49.6113 34.7483C49.6113 37.5127 48.5345 40.1115 46.5795 42.0663C44.6246 44.0209 42.0254 45.0975 39.2606 45.0975C36.496 45.0975 33.8966 44.021 31.9416 42.0663C31.5989 41.7233 31.2781 41.3549 30.9884 40.9709Z" fill="black"/>
<path d="M62.7076 51.9089L56.7808 45.9827C56.4137 45.616 55.819 45.6159 55.452 45.9827L55.4158 46.019L53.1349 43.7385C54.6681 41.3747 55.5816 38.6436 55.7614 35.7933C55.794 35.2755 55.4006 34.8294 54.8829 34.7966C54.3655 34.7651 53.919 35.1574 53.8861 35.675C53.6618 39.2336 52.1479 42.5836 49.6234 45.1077C46.7704 47.9605 43.0238 49.3885 39.276 49.3921C39.2713 49.392 39.2666 49.3914 39.2617 49.3914H39.1871C35.4596 49.3726 31.7379 47.9451 28.9001 45.1077C26.1324 42.3405 24.6081 38.6611 24.6081 34.7475C24.6081 30.8339 26.1324 27.1545 28.9001 24.3873C34.6135 18.6745 43.91 18.6745 49.6234 24.3873C51.7514 26.515 53.1556 29.1989 53.6845 32.149C53.7761 32.6596 54.2646 32.9989 54.775 32.9079C55.2858 32.8164 55.6255 32.3283 55.534 31.8175C54.937 28.4879 53.3526 25.4591 50.952 23.0588C49.7625 21.8694 48.435 20.9003 47.0209 20.1499V12.5791C47.0201 12.3319 46.9202 12.0899 46.7458 11.9149L35.1045 0.275125C34.9294 0.100875 34.6875 0.000625 34.44 0H2.8185C1.2645 0 0.000125 1.26413 0.000125 2.818V10.7134C0.000125 11.2321 0.420625 11.6528 0.939625 11.6528C1.4585 11.6528 1.87912 11.2323 1.87912 10.7134V2.818C1.87912 2.3 2.3005 1.87863 2.81862 1.87863H33.5009V10.7005C33.5009 12.2544 34.7653 13.5185 36.3193 13.5185H45.1423V19.2991C43.3092 18.6046 41.3768 18.2479 39.4411 18.227C39.4319 18.2257 39.4229 18.2239 39.4132 18.2239H18.4383C17.9194 18.2239 17.4988 18.6445 17.4988 19.1632C17.4988 19.682 17.9194 20.1026 18.4383 20.1026H31.5915C30.2514 20.8034 28.9881 21.7004 27.8441 22.7932H18.4383C17.9194 22.7932 17.4988 23.2139 17.4988 23.7326C17.4988 24.2514 17.9194 24.672 18.4383 24.672H26.1533C24.6198 26.6584 23.5718 28.9461 23.0701 31.3883H18.4384C17.9195 31.3883 17.4989 31.8089 17.4989 32.3276C17.4989 32.8464 17.9195 33.267 18.4384 33.267H22.7958C22.7525 33.7566 22.7296 34.2504 22.7296 34.7477C22.7296 35.1558 22.7445 35.5615 22.7736 35.9644H18.4385C17.9196 35.9644 17.499 36.385 17.499 36.9038C17.499 37.4225 17.9196 37.8431 18.4385 37.8431H23.0185C23.4976 40.3857 24.5659 42.7682 26.1561 44.8269H18.4385C17.9196 44.8269 17.499 45.2474 17.499 45.7663C17.499 46.2851 17.9196 46.7056 18.4385 46.7056H27.8479C28.9902 47.7965 30.2515 48.692 31.5893 49.3919H18.438C17.9191 49.3919 17.4985 49.8125 17.4985 50.3312C17.4985 50.85 17.9191 51.2706 18.438 51.2706H39.2617C41.257 51.2704 43.2524 50.912 45.142 50.1961V61.1825C45.142 61.7004 44.7206 62.1219 44.2025 62.1219H2.8185C2.3005 62.1219 1.879 61.7005 1.879 61.1825V14.4712C1.879 13.9525 1.45837 13.5319 0.9395 13.5319C0.420625 13.5319 0 13.9524 0 14.4712V61.1825C0.000125 62.7359 1.2645 64 2.8185 64H44.2026C45.7566 64 47.021 62.7359 47.021 61.182V49.3449C47.4403 49.1224 47.8517 48.8804 48.2544 48.6194L50.5348 50.8994C50.1401 51.2439 50.119 51.9004 50.4984 52.2641L56.4254 58.1904C58.0788 59.9135 61.0542 59.9134 62.7075 58.1904C64.431 56.5371 64.4309 53.562 62.7076 51.9089ZM36.3191 11.6399C35.8011 11.6399 35.3796 11.2185 35.3796 10.7005V3.20712L43.8135 11.6399H36.3191ZM49.7869 47.4948C50.1878 47.1634 50.577 46.8111 50.952 46.4362C51.3247 46.0635 51.6775 45.6744 52.0105 45.2713L54.087 47.3474L51.8633 49.5708L49.7869 47.4948ZM61.379 56.8619C60.425 57.8562 58.7081 57.856 57.754 56.8619L52.4912 51.5999L56.1164 47.9753L61.3791 53.2373C62.3734 54.1914 62.3735 55.9079 61.379 56.8619Z" fill="black"/>
<path d="M8.5252 25.6004H12.6352C13.794 25.6004 14.7367 24.6579 14.7367 23.4994V19.3899C14.7367 18.2313 13.7941 17.2888 12.6352 17.2888H8.5252C7.36658 17.2888 6.42383 18.2313 6.42383 19.3899V23.4994C6.42383 24.6579 7.36658 25.6004 8.5252 25.6004ZM8.30283 19.3899C8.30283 19.2673 8.4027 19.1676 8.5252 19.1676H12.6352C12.758 19.1676 12.8577 19.2673 12.8577 19.3899V23.4994C12.8577 23.6221 12.7578 23.7218 12.6352 23.7218H8.5252C8.40258 23.7218 8.30283 23.6221 8.30283 23.4994V19.3899Z" fill="black"/>
<path d="M6.42383 36.6714C6.42383 37.8299 7.36645 38.7724 8.5252 38.7724H12.6352C13.794 38.7724 14.7367 37.8299 14.7367 36.6714V32.5619C14.7367 31.4034 13.7941 30.4609 12.6352 30.4609H8.5252C7.36658 30.4609 6.42383 31.4034 6.42383 32.5619V36.6714ZM8.30283 32.5619C8.30283 32.4393 8.4027 32.3396 8.5252 32.3396H12.6352C12.758 32.3396 12.8577 32.4393 12.8577 32.5619V36.6714C12.8577 36.7941 12.7578 36.8938 12.6352 36.8938H8.5252C8.40258 36.8938 8.30283 36.7941 8.30283 36.6714V32.5619Z" fill="black"/>
<path d="M6.42383 50.1088C6.42383 51.2673 7.36645 52.2098 8.5252 52.2098H12.6352C13.794 52.2098 14.7367 51.2673 14.7367 50.1088V45.9993C14.7367 44.8407 13.7941 43.8982 12.6352 43.8982H8.5252C7.36658 43.8982 6.42383 44.8407 6.42383 45.9993V50.1088ZM8.30283 45.9993C8.30283 45.8767 8.4027 45.7769 8.5252 45.7769H12.6352C12.758 45.7769 12.8577 45.8767 12.8577 45.9993V50.1088C12.8577 50.2314 12.7578 50.3312 12.6352 50.3312H8.5252C8.40258 50.3312 8.30283 50.2314 8.30283 50.1088V45.9993Z" fill="black"/>
</svg>
