<svg width="32" height="32" viewBox="0 0 32 32" fill="none" xmlns="http://www.w3.org/2000/svg">
<path fill-rule="evenodd" clip-rule="evenodd" d="M26.6667 7.99841C26.6663 7.49875 26.5535 7.00558 26.3368 6.55538C26.12 6.10518 25.8048 5.70947 25.4145 5.3975C25.0242 5.08554 24.5688 4.86531 24.0819 4.7531C23.595 4.6409 23.0891 4.63959 22.6016 4.74927C22.1142 4.85895 21.6576 5.07682 21.2657 5.38675C20.8738 5.69669 20.5566 6.09077 20.3375 6.53984C20.1184 6.98891 20.0031 7.48149 20.0001 7.98114C19.9971 8.48078 20.1064 8.97472 20.32 9.42641L11.38 14.0624C10.9698 13.4874 10.3876 13.0575 9.71735 12.8348C9.04706 12.6121 8.32336 12.6081 7.65064 12.8233C6.97792 13.0385 6.39095 13.4619 5.9744 14.0323C5.55785 14.6027 5.33325 15.2907 5.33301 15.997C5.33276 16.7033 5.55689 17.3914 5.97304 17.9621C6.3892 18.5328 6.97588 18.9566 7.64845 19.1723C8.32103 19.3879 9.04473 19.3844 9.71517 19.1622C10.3856 18.9399 10.9681 18.5105 11.3787 17.9357L20.1187 23.1144C19.9837 23.6092 19.9645 24.1284 20.0626 24.6318C20.1608 25.1352 20.3735 25.6092 20.6844 26.017C20.9953 26.4249 21.396 26.7557 21.8554 26.9837C22.3148 27.2117 22.8205 27.3308 23.3334 27.3317C23.8975 27.3317 24.4525 27.1884 24.9462 26.9154C25.4399 26.6424 25.8562 26.2485 26.1562 25.7707C26.4561 25.2928 26.6299 24.7467 26.6612 24.1834C26.6925 23.6201 26.5803 23.058 26.3352 22.5499C26.09 22.0418 25.7199 21.6042 25.2595 21.2781C24.799 20.9521 24.2634 20.7482 23.7027 20.6856C23.142 20.6231 22.5746 20.7038 22.0536 20.9204C21.5326 21.1369 21.0752 21.4822 20.724 21.9237L12.0067 16.7584L11.9227 16.7157C12.0268 16.2432 12.0268 15.7536 11.9227 15.2811L11.9734 15.2571L20.9734 10.5904C21.0261 10.5632 21.075 10.5292 21.1187 10.4891C21.5989 10.916 22.1923 11.195 22.8274 11.2925C23.4626 11.3901 24.1123 11.3019 24.6985 11.0388C25.2847 10.7756 25.7824 10.3486 26.1316 9.80921C26.4807 9.26981 26.6666 8.64097 26.6667 7.99841ZM23.3334 5.99841C23.8638 5.99841 24.3725 6.20912 24.7476 6.58419C25.1226 6.95927 25.3334 7.46797 25.3334 7.99841C25.3334 8.52884 25.1226 9.03755 24.7476 9.41262C24.3725 9.78769 23.8638 9.99841 23.3334 9.99841C22.8029 9.99841 22.2942 9.78769 21.9191 9.41262C21.5441 9.03755 21.3334 8.52884 21.3334 7.99841C21.3334 7.46797 21.5441 6.95927 21.9191 6.58419C22.2942 6.20912 22.8029 5.99841 23.3334 5.99841ZM8.66669 13.9984C9.19712 13.9984 9.70583 14.2091 10.0809 14.5842C10.456 14.9593 10.6667 15.468 10.6667 15.9984C10.6667 16.5288 10.456 17.0375 10.0809 17.4126C9.70583 17.7877 9.19712 17.9984 8.66669 17.9984C8.13625 17.9984 7.62754 17.7877 7.25247 17.4126C6.8774 17.0375 6.66669 16.5288 6.66669 15.9984C6.66669 15.468 6.8774 14.9593 7.25247 14.5842C7.62754 14.2091 8.13625 13.9984 8.66669 13.9984ZM23.3334 21.9984C23.8638 21.9984 24.3725 22.2091 24.7476 22.5842C25.1226 22.9593 25.3334 23.468 25.3334 23.9984C25.3334 24.5288 25.1226 25.0375 24.7476 25.4126C24.3725 25.7877 23.8638 25.9984 23.3334 25.9984C22.8029 25.9984 22.2942 25.7877 21.9191 25.4126C21.5441 25.0375 21.3334 24.5288 21.3334 23.9984C21.3334 23.468 21.5441 22.9593 21.9191 22.5842C22.2942 22.2091 22.8029 21.9984 23.3334 21.9984Z" fill="#1E1E1E"/>
</svg>
