<svg width="41" height="40" viewBox="0 0 41 40" fill="none" xmlns="http://www.w3.org/2000/svg">
<g clip-path="url(#clip0_4720_64254)">
<path d="M36.2432 3.78223H27.4336C27.11 3.78223 26.8477 4.04449 26.8477 4.36816C26.8477 4.69184 27.11 4.9541 27.4336 4.9541H36.2431C36.5667 4.9541 36.8291 4.69184 36.8291 4.36816C36.8291 4.04449 36.5668 3.78223 36.2432 3.78223Z" fill="white"/>
<path d="M36.2432 7.40894H27.4336C27.11 7.40894 26.8477 7.6712 26.8477 7.99487C26.8477 8.31854 27.11 8.58081 27.4336 8.58081H36.2431C36.5667 8.58081 36.8291 8.31854 36.8291 7.99487C36.8291 7.6712 36.5668 7.40894 36.2432 7.40894Z" fill="white"/>
<path d="M23.2451 27.4969L20.5784 26.7726L19.7783 25.5761C19.2975 24.8572 18.307 24.6476 17.5688 25.1669V23.7536C19.1059 22.7217 20.173 21.0422 20.3766 19.109H20.8364C21.6627 19.109 22.335 18.4368 22.335 17.6104V16.5614C22.335 16.0165 22.0418 15.5401 21.6058 15.2778V12.2202C21.6058 9.16272 19.1184 6.67529 16.0609 6.67529H11.9574C8.9 6.67529 6.41258 9.16272 6.41258 12.2202V15.2778C5.97656 15.5401 5.68336 16.0165 5.68336 16.5614V17.6104C5.68336 18.4367 6.35563 19.109 7.18195 19.109H7.64172C7.84531 21.0422 8.9125 22.7217 10.4495 23.7536V25.1669C9.71242 24.648 8.72133 24.8565 8.24008 25.5761L7.43984 26.7726L4.7732 27.4969C2.25719 28.1803 0.5 30.4785 0.5 33.0857V33.6612C0.5 33.9849 0.762344 34.2472 1.08594 34.2472C1.40953 34.2472 1.67188 33.9849 1.67188 33.6612V33.0857C1.67188 31.0061 3.07352 29.173 5.08031 28.6277L7.65531 27.9283L10.51 30.4283C11.1884 31.0225 12.2144 31.0257 12.8962 30.4358L14.0091 29.4734L15.1219 30.4358C15.8052 31.0269 16.8313 31.0213 17.508 30.4284L20.3628 27.9283L22.9378 28.6277C24.9447 29.173 26.3463 31.006 26.3463 33.0857V36.9713C26.3463 37.988 25.5191 38.8151 24.5024 38.8151H23.2209V36.0043C23.2209 35.6806 22.9585 35.4183 22.6349 35.4183C22.3113 35.4183 22.049 35.6806 22.049 36.0043V38.8151H5.96906V36.0043C5.96906 35.6806 5.70672 35.4183 5.38313 35.4183C5.05953 35.4183 4.79719 35.6806 4.79719 36.0043V38.8151H3.5157C2.49898 38.8151 1.67188 37.988 1.67188 36.9713V36.4005C1.67188 36.0768 1.40953 35.8145 1.08594 35.8145C0.762344 35.8145 0.5 36.0768 0.5 36.4005V36.9713C0.5 38.6341 1.85281 39.987 3.5157 39.987H24.5026C26.1655 39.987 27.5183 38.6342 27.5183 36.9713V33.0857C27.5182 30.4785 25.761 28.1804 23.2451 27.4969ZM21.1631 16.5615V17.6105C21.1631 17.7906 21.0166 17.9372 20.8364 17.9372H20.4125V16.2348H20.8364C21.0166 16.2348 21.1631 16.3814 21.1631 16.5615ZM7.60578 17.9372H7.18188C7.00172 17.9372 6.85516 17.7906 6.85516 17.6105V16.5615C6.85516 16.3813 7.00172 16.2347 7.18188 16.2347H7.60578V17.9372ZM8.19172 15.063H7.58437V12.2203C7.58437 9.80904 9.54609 7.84725 11.9573 7.84725H16.0608C18.472 7.84725 20.4338 9.80896 20.4338 12.2203V15.063H19.8266C19.487 15.063 19.2107 14.7867 19.2107 14.4471V13.2112C19.2107 12.2392 18.4198 11.4483 17.4477 11.4483C17.1971 11.4483 16.9542 11.5004 16.7259 11.6029C14.9994 12.3778 13.0188 12.3777 11.2924 11.603C11.064 11.5005 10.8211 11.4483 10.5705 11.4483C9.59836 11.4483 8.8075 12.2392 8.8075 13.2112V14.4471C8.8075 14.7867 8.53125 15.063 8.19172 15.063ZM8.77766 18.4338V16.1362C9.47656 15.8931 9.97945 15.2277 9.97945 14.4471V13.2112C9.97945 12.8853 10.2446 12.6202 10.5705 12.6202C10.6546 12.6202 10.736 12.6376 10.8126 12.672C12.844 13.5836 15.1743 13.5837 17.2059 12.6719C17.2824 12.6376 17.3638 12.6202 17.4478 12.6202C17.7738 12.6202 18.0389 12.8854 18.0389 13.2112V14.4471C18.0389 15.2277 18.5418 15.8931 19.2407 16.1362V18.4338C19.2407 21.3109 16.8989 23.6653 14.0092 23.6653C11.1204 23.6653 8.77766 21.3119 8.77766 18.4338ZM12.1297 29.5494C11.8874 29.759 11.523 29.758 11.2821 29.5468L8.57797 27.1787L9.21398 26.2276C9.34391 26.0332 9.61016 25.9929 9.79203 26.1355L13.0878 28.7208L12.1297 29.5494ZM14.0091 27.954L11.6213 26.0809V24.3736C12.3598 24.6715 13.1653 24.8372 14.0092 24.8372C14.8531 24.8372 15.6586 24.6715 16.397 24.3736V26.0809L14.0091 27.954ZM16.736 29.5469C16.4952 29.7579 16.1309 29.759 15.8885 29.5494L14.9303 28.7208L18.2262 26.1354C18.4077 25.9931 18.674 26.0327 18.8042 26.2276L19.4402 27.1787L16.736 29.5469Z" fill="white"/>
<path d="M39.9138 3.58459C40.2374 3.58459 40.4998 3.32232 40.4998 2.99865V2.54061C40.4998 1.14701 39.366 0.0131836 37.9723 0.0131836H25.6583C24.2647 0.0131836 23.1309 1.14701 23.1309 2.54061V10.1192C23.1309 11.5128 24.2647 12.6466 25.6583 12.6466H26.2051L25.4402 16.2122C25.3647 16.5647 25.5266 16.9172 25.8434 17.0894C26.1593 17.2612 26.5434 17.2064 26.7987 16.9508L30.955 12.7883C31.0448 12.6983 31.1693 12.6468 31.2964 12.6468H37.9724C39.366 12.6468 40.4998 11.5129 40.4998 10.1194V5.73811C40.4998 5.41443 40.2375 5.15217 39.9139 5.15217C39.5903 5.15217 39.328 5.41443 39.328 5.73811V10.1194C39.328 10.8668 38.7198 11.4749 37.9724 11.4749H31.2964C30.8541 11.4749 30.4384 11.6472 30.1258 11.9603L26.8463 15.2446L27.4123 12.6057C27.5373 12.0233 27.0931 11.4749 26.4985 11.4749H25.6583C24.9109 11.4749 24.3027 10.8669 24.3027 10.1194V2.54061C24.3027 1.79318 24.9109 1.18506 25.6583 1.18506H37.9724C38.7198 1.18506 39.328 1.79311 39.328 2.54061V2.99865C39.3279 3.32225 39.5902 3.58459 39.9138 3.58459Z" fill="white"/>
</g>
<defs>
<clipPath id="clip0_4720_64254">
<rect width="40" height="40" fill="white" transform="translate(0.5)"/>
</clipPath>
</defs>
</svg>
