<svg width="41" height="40" viewBox="0 0 41 40" fill="none" xmlns="http://www.w3.org/2000/svg">
<g clip-path="url(#clip0_4720_64270)">
<path d="M30.0563 30.1863C30.0563 29.8407 30.3398 29.5663 30.6854 29.5663C31.031 29.5663 31.3054 29.8407 31.3054 30.1863V39.3713C31.3054 39.7166 31.0307 40.0004 30.6854 40.0004H4.06727C3.72195 40.0004 3.44727 39.7169 3.44727 39.3713V23.5785C3.44727 23.2329 3.72164 22.9585 4.06727 22.9585C4.41289 22.9585 4.69633 23.2329 4.69633 23.5785V38.751H30.0563V30.1863Z" fill="white"/>
<path d="M9.59445 37.7501C9.59445 38.0954 9.31102 38.3792 8.96539 38.3792C8.61977 38.3792 8.3457 38.0957 8.3457 37.7501V29.7698C8.3457 28.5829 8.82383 27.5023 9.61227 26.7229C10.392 25.9436 11.4726 25.4561 12.6595 25.4561C13.8463 25.4561 14.927 25.9436 15.7063 26.7229C16.486 27.5023 16.9732 28.5829 16.9732 29.7698V37.7501C16.9732 38.0954 16.6898 38.3792 16.3445 38.3792C15.9988 38.3792 15.7241 38.0957 15.7241 37.7501V29.7698C15.7241 28.9286 15.3788 28.1664 14.8207 27.6089C14.2626 27.0507 13.5007 26.7051 12.6591 26.7051C11.8176 26.7051 11.047 27.0504 10.4891 27.6089C9.93977 28.1664 9.59445 28.9286 9.59445 29.7698V37.7501Z" fill="white"/>
<path d="M20.9952 32.7633H26.7348V28.3965H20.9952V32.7633ZM27.3639 34.0124H20.3752C20.0298 34.0124 19.7461 33.7377 19.7461 33.3924V27.7677C19.7461 27.4224 20.0295 27.1477 20.3752 27.1477H27.3639C27.7092 27.1477 27.993 27.4224 27.993 27.7677V33.3921C27.993 33.7377 27.7092 34.0124 27.3639 34.0124Z" fill="white"/>
<path fill-rule="evenodd" clip-rule="evenodd" d="M13.7052 34.393C14.0418 34.393 14.3252 34.1099 14.3252 33.7733C14.3252 33.428 14.0418 33.1443 13.7052 33.1443C13.3599 33.1443 13.0762 33.4277 13.0762 33.7733C13.0762 34.1096 13.3596 34.393 13.7052 34.393Z" fill="white"/>
<path d="M14.4314 19.3623V19.3266L14.8479 11.5941H12.447L11.0298 19.3976C11.0386 19.8935 11.2248 20.3366 11.5348 20.6645C11.8358 20.9835 12.2611 21.1782 12.7304 21.1782C13.1914 21.1782 13.6161 20.9835 13.9173 20.6645C14.2364 20.3279 14.4223 19.8673 14.4223 19.3623H14.4314ZM16.0879 11.5945L15.6804 19.3623C15.6804 19.8673 15.8754 20.3279 16.1854 20.6645C16.4867 20.9835 16.9117 21.1782 17.3811 21.1782C17.8417 21.1782 18.2667 20.9835 18.5679 20.6645C18.887 20.3279 19.0729 19.8673 19.0729 19.3623H19.0817L18.8689 15.4651C18.8511 15.1198 19.117 14.8273 19.4626 14.8095C19.8079 14.7916 20.1004 15.0576 20.1179 15.4029L20.3217 19.3266V19.3623H20.3304C20.3304 19.8673 20.5254 20.3279 20.8354 20.6645C21.1364 20.9835 21.5617 21.1782 22.0311 21.1782C22.3761 21.1782 22.6508 21.4616 22.6508 21.807C22.6508 22.1523 22.3761 22.436 22.0311 22.436C21.2073 22.436 20.4629 22.0816 19.9317 21.5238C19.852 21.4354 19.7723 21.347 19.7014 21.2491C19.6308 21.347 19.5511 21.4354 19.4714 21.5238C18.9398 22.0816 18.1954 22.436 17.3808 22.436C16.557 22.436 15.8129 22.0816 15.2814 21.5238C15.2017 21.4354 15.122 21.347 15.0511 21.2491C14.9801 21.347 14.9008 21.4354 14.8211 21.5238C14.2895 22.0816 13.5454 22.436 12.7304 22.436C11.9067 22.436 11.1626 22.0816 10.6311 21.5238C10.5514 21.4354 10.4717 21.347 10.4008 21.2491C10.3298 21.347 10.2501 21.4354 10.1704 21.5238C9.63888 22.0816 8.89481 22.436 8.08013 22.436C7.25638 22.436 6.512 22.0816 5.98075 21.5238C5.90106 21.4354 5.82138 21.347 5.75044 21.2491C5.6795 21.347 5.59981 21.4354 5.52013 21.5238C4.98888 22.0816 4.24481 22.436 3.42981 22.436C2.73013 22.436 2.09231 22.1791 1.58731 21.7629C1.08231 21.347 0.710127 20.7535 0.559502 20.0713C0.506689 19.8501 0.488877 19.6373 0.506689 19.4248C0.524189 19.2123 0.577627 18.9998 0.666064 18.787L3.25263 12.4804C3.51825 11.8248 3.95231 11.2935 4.48388 10.9216C5.02419 10.5495 5.662 10.3457 6.35294 10.3457H17.7795C18.1248 10.3457 18.4083 10.6291 18.4083 10.9748C18.4083 11.3113 18.1248 11.5948 17.7795 11.5948L16.0879 11.5945ZM11.1895 11.5945H8.65606L6.37981 19.4332C6.39763 19.9116 6.58356 20.3457 6.88481 20.6645C7.18606 20.9832 7.61106 21.1782 8.08075 21.1782C8.54138 21.1782 8.96638 20.9835 9.26763 20.6645C9.58669 20.3279 9.77263 19.8673 9.77263 19.3623H9.78138C9.78138 19.3266 9.78138 19.2826 9.79013 19.247L11.1895 11.5945ZM7.36294 11.5945H6.35325C5.91919 11.5945 5.52044 11.7182 5.19294 11.9488C4.85638 12.1879 4.58169 12.5245 4.40481 12.9585L1.81794 19.256C1.78263 19.3445 1.75606 19.4332 1.747 19.522C1.747 19.6104 1.747 19.6991 1.77356 19.7963C1.862 20.2038 2.08356 20.5582 2.38481 20.806C2.677 21.0454 3.03138 21.1779 3.43013 21.1779C3.89075 21.1779 4.31575 20.9832 4.617 20.6641C4.93606 20.3276 5.122 19.867 5.122 19.362H5.13075C5.13075 19.2998 5.1395 19.2466 5.14856 19.1848L7.36294 11.5945Z" fill="white"/>
<path d="M19.4455 36.1203C19.1002 36.1203 18.8164 35.846 18.8164 35.5006C18.8164 35.1553 19.1002 34.8716 19.4455 34.8716H28.2942C28.6392 34.8716 28.9139 35.155 28.9139 35.5006C28.9139 35.8463 28.6392 36.1203 28.2942 36.1203H19.4455Z" fill="white"/>
<path d="M39.251 14.6147L31.2085 28.2197C31.0313 28.5206 30.6504 28.6181 30.3579 28.4409C30.2604 28.3878 30.181 28.3081 30.1279 28.2109L22.0935 14.6147C22.0848 14.5969 22.0757 14.5794 22.067 14.5703C21.6773 13.8616 21.376 13.0912 21.1635 12.2941C20.9598 11.4969 20.8535 10.6731 20.8535 9.82281C20.8535 7.1125 21.952 4.65906 23.7235 2.87875C25.5038 1.09812 27.9573 0 30.6766 0C33.387 0 35.8407 1.09813 37.6213 2.87844C39.402 4.65875 40.5001 7.1125 40.5001 9.82281C40.5001 10.6731 40.3851 11.4969 40.181 12.2941C39.9682 13.1088 39.6582 13.8794 39.2598 14.5969L39.251 14.6147ZM30.6766 3.86156C32.3238 3.86156 33.8123 4.52594 34.8929 5.60625C35.9735 6.68688 36.6379 8.175 36.6379 9.8225C36.6379 11.47 35.9735 12.9581 34.8929 14.0387C33.8123 15.1194 32.3238 15.7925 30.6766 15.7925C29.0288 15.7925 27.532 15.1194 26.4513 14.0387C25.3795 12.9581 24.7066 11.47 24.7066 9.8225C24.7066 8.175 25.3795 6.68688 26.4513 5.60625C27.5323 4.52594 29.0288 3.86156 30.6766 3.86156ZM34.0073 6.49219C33.157 5.63312 31.9788 5.11031 30.677 5.11031C29.3748 5.11031 28.1966 5.63312 27.3373 6.49219C26.487 7.3425 25.9554 8.52063 25.9554 9.8225C25.9554 11.1247 26.487 12.3028 27.3373 13.1619C28.1966 14.0122 29.3748 14.5347 30.677 14.5347C31.9788 14.5347 33.1573 14.0122 34.0073 13.1619C34.8579 12.3028 35.3895 11.1247 35.3895 9.8225C35.3895 8.52063 34.8576 7.34281 34.0073 6.49219ZM30.6766 26.6784L38.1791 13.9769C38.5245 13.3569 38.7904 12.6838 38.9763 11.975C39.1535 11.2928 39.251 10.5753 39.251 9.8225C39.251 7.45781 38.2854 5.31406 36.7357 3.76406C35.1851 2.21406 33.0416 1.24875 30.6766 1.24875C28.3026 1.24875 26.1591 2.21406 24.6091 3.76406C23.0585 5.31406 22.1023 7.45781 22.1023 9.8225C22.1023 10.5753 22.1907 11.2928 22.3679 11.975C22.5541 12.6747 22.8198 13.3391 23.1563 13.9591L23.1651 13.9769L30.6766 26.6784Z" fill="white"/>
<path d="M30.6773 6.96191C31.457 6.96191 32.1742 7.28973 32.6967 7.80348C33.2108 8.31723 33.5295 9.03441 33.5295 9.82285C33.5295 10.6113 33.2105 11.3285 32.6967 11.8422C32.1742 12.3647 31.4661 12.6838 30.6773 12.6838C29.8892 12.6838 29.1714 12.3647 28.6486 11.8422C28.6398 11.8335 28.6308 11.8157 28.6133 11.8069C28.1177 11.2932 27.8164 10.5935 27.8164 9.82285C27.8164 9.03473 28.1355 8.31723 28.6486 7.80348C28.6664 7.79473 28.6752 7.77691 28.693 7.76785C29.2067 7.27191 29.907 6.96191 30.6773 6.96191ZM31.8111 8.68004C31.5189 8.3966 31.1205 8.21941 30.6773 8.21941C30.2433 8.21941 29.8536 8.38785 29.5614 8.66223C29.5527 8.67098 29.5436 8.68004 29.5348 8.68879C29.242 8.98129 29.0648 9.37973 29.0648 9.82254C29.0648 10.2566 29.2333 10.6463 29.5083 10.9388C29.517 10.9475 29.5261 10.9566 29.5348 10.9654C29.8273 11.2488 30.2258 11.4347 30.6773 11.4347C31.1205 11.4347 31.5189 11.2488 31.8111 10.9654C32.1036 10.6729 32.2805 10.2744 32.2805 9.82254C32.2805 9.37973 32.1036 8.98129 31.8111 8.68879V8.68004Z" fill="white"/>
</g>
<defs>
<clipPath id="clip0_4720_64270">
<rect width="40" height="40" fill="white" transform="translate(0.5)"/>
</clipPath>
</defs>
</svg>
