<svg width="41" height="40" viewBox="0 0 41 40" fill="none" xmlns="http://www.w3.org/2000/svg">
<g clip-path="url(#clip0_4720_64312)">
<path d="M2.6393 24.5375C2.77 24.8918 2.97594 25.2108 3.23945 25.4721C3.70672 25.9393 4.34906 26.2294 5.05766 26.2294C5.76414 26.2294 6.40859 25.9393 6.87578 25.4721C7.34305 25.0049 7.63313 24.3604 7.63313 23.654V22.2211C7.09063 22.2676 6.61445 22.1503 6.24242 21.9952C6.20914 22.1568 6.17156 22.3141 6.12281 22.4691C5.93898 23.067 5.63117 23.6118 5.14398 24.0038C4.65016 24.4025 3.99469 24.6328 3.12648 24.5884C2.97148 24.5818 2.80977 24.5641 2.6393 24.5375ZM17.8182 20.6997H22.9693V19.0808H19.003C18.6774 19.0808 18.3806 19.216 18.1659 19.4308C17.951 19.6456 17.8182 19.9401 17.8182 20.2657V20.6997ZM22.9692 21.8712H17.8181V23.6539C17.8181 24.3604 18.1082 25.0048 18.5755 25.472C19.0427 25.9393 19.6871 26.2293 20.3936 26.2293C21.1022 26.2293 21.7466 25.9393 22.2118 25.472C22.679 25.0048 22.9691 24.3604 22.9691 23.6539L22.9692 21.8712ZM39.0251 25.7822C39.3395 25.9483 39.6163 26.1742 39.8445 26.4421C40.2541 26.9249 40.5 27.5472 40.5 28.2225V32.1733C40.5 32.4967 40.2387 32.7579 39.9154 32.7579C39.5921 32.7579 39.3285 32.4966 39.3285 32.1733V28.2225C39.3285 27.8329 39.1867 27.474 38.952 27.1972C38.7438 26.9514 38.4626 26.7698 38.1415 26.6835C37.5237 27.1352 36.7639 27.401 35.9446 27.401C35.0965 27.401 34.3124 27.1175 33.6813 26.637C33.5617 26.6503 33.4465 26.6836 33.3358 26.7345C33.1852 26.8053 33.0479 26.9139 32.9371 27.06L29.7902 31.2279C29.6795 31.374 29.5067 31.4626 29.323 31.4626H25.2902C24.9913 31.4626 24.7211 31.5822 24.5263 31.777C24.3313 31.9741 24.2095 32.2443 24.2095 32.5411C24.2095 32.84 24.3313 33.1102 24.5263 33.305C24.7211 33.4999 24.9913 33.6218 25.2902 33.6218H30.1069C30.2997 33.6218 30.448 33.6018 30.6319 33.5088C30.9729 33.3383 31.2918 32.8201 31.5243 32.51L33.6083 29.7529C33.8031 29.4939 34.1685 29.4429 34.4276 29.6378C34.6845 29.8326 34.7354 30.2002 34.5405 30.4572L32.5585 33.0836V38.1904H39.3285V34.8264C39.3285 34.503 39.592 34.2418 39.9154 34.2418C40.2388 34.2418 40.5 34.5031 40.5 34.8264V38.7772C40.5 39.1005 40.2387 39.3618 39.9154 39.3618C26.971 39.3618 14.029 39.3618 1.08688 39.3618C0.763594 39.3618 0.5 39.1004 0.5 38.7772V34.8264C0.5 34.503 0.763594 34.2418 1.08688 34.2418C1.41023 34.2418 1.67148 34.5031 1.67148 34.8264V38.1904H8.44375V33.0836L6.45953 30.4572C6.26469 30.2002 6.31563 29.8326 6.57477 29.6378C6.83164 29.4429 7.19922 29.4938 7.39414 29.7529L9.43148 32.4503C9.6175 32.6961 9.80359 32.944 9.98953 33.1922C10.0958 33.3316 10.2265 33.4379 10.3705 33.5088C10.5321 33.5908 10.6827 33.6218 10.8599 33.6218H15.712C16.0088 33.6218 16.279 33.4999 16.476 33.305C16.6709 33.1102 16.7905 32.84 16.7905 32.5411C16.7905 32.2443 16.6709 31.9741 16.476 31.777C16.279 31.5822 16.0088 31.4626 15.712 31.4626H11.6771C11.4999 31.4626 11.325 31.3807 11.2099 31.2279L8.06297 27.06C7.88352 26.823 7.61555 26.6703 7.31891 26.637C6.68992 27.1154 5.90602 27.401 5.05781 27.401C4.23844 27.401 3.47656 27.1353 2.85875 26.6858C2.5443 26.7677 2.26523 26.9471 2.05703 27.1862C1.81781 27.4652 1.67164 27.8262 1.67164 28.2226V32.1734C1.67164 32.4968 1.41031 32.758 1.08703 32.758C0.76375 32.758 0.500156 32.4967 0.500156 32.1734V28.2226C0.500156 27.5383 0.754844 26.9072 1.17336 26.4222C1.3993 26.1632 1.67164 25.9439 1.97727 25.7822C1.54102 25.1555 1.3107 24.4158 1.3107 23.654V20.2658C1.3107 19.6168 1.57422 19.0278 2.00164 18.6004C2.42914 18.1753 3.01594 17.9095 3.66477 17.9095H6.44844C7.09734 17.9095 7.68641 18.1752 8.11375 18.6004C8.54125 19.0279 8.80477 19.6169 8.80477 20.2658V23.654C8.80477 24.4047 8.58109 25.1068 8.19789 25.6936C8.51461 25.8531 8.7825 26.0723 8.99734 26.3558L11.9672 30.2889H14.3123V27.9127C14.3123 27.2395 14.6689 26.6304 15.2469 26.1144C15.6943 25.7158 16.2834 25.3681 16.9345 25.0936C16.7484 24.6484 16.6466 24.1634 16.6466 23.654V21.2866V20.2657C16.6466 19.6168 16.9123 19.0277 17.3377 18.6004C17.7651 18.1752 18.3541 17.9094 19.003 17.9094H23.5561C23.8795 17.9094 24.143 18.1729 24.143 18.4963V21.2867V23.654C24.143 24.1346 24.0501 24.5953 23.884 25.0204C24.5837 25.295 25.2171 25.6493 25.6955 26.0612C26.3089 26.5883 26.6877 27.2172 26.6877 27.9126V30.2888H29.0328L32.0027 26.3558C32.222 26.0678 32.4965 25.8464 32.8044 25.6958C32.419 25.1068 32.1953 24.4047 32.1953 23.654V20.2657C32.1953 19.6168 32.4611 19.0277 32.8863 18.6004C33.3138 18.1752 33.9028 17.9094 34.5516 17.9094H37.3355C37.9843 17.9094 38.5734 18.1751 39.0008 18.6004C39.4259 19.0278 39.6917 19.6168 39.6917 20.2657V23.654C39.6916 24.4157 39.4591 25.1554 39.0251 25.7822ZM38.3607 24.5375C38.1924 24.5641 38.0285 24.5818 37.8735 24.5884C37.0076 24.6327 36.352 24.4024 35.8582 24.0038C35.3687 23.6118 35.0609 23.0671 34.8771 22.4691C34.8305 22.3141 34.7908 22.1568 34.7597 21.9952C34.3855 22.1502 33.9116 22.2675 33.3668 22.2211V23.654C33.3668 24.3604 33.6569 25.0049 34.1241 25.4721C34.5913 25.9393 35.2359 26.2294 35.9445 26.2294C36.6509 26.2294 37.2955 25.9393 37.7627 25.4721C38.0241 25.2108 38.23 24.8918 38.3607 24.5375ZM33.3668 21.0474C34.1485 21.1581 34.7198 20.7041 34.8217 20.6155C34.937 20.5181 35.0454 20.4583 35.2027 20.4516C35.526 20.4361 35.7984 20.6842 35.8138 21.0075C35.8338 21.3884 35.8869 21.7738 35.9954 22.1258C36.115 22.5178 36.3032 22.8633 36.589 23.0936C36.8702 23.3195 37.2667 23.4479 37.8181 23.4213C38.0307 23.4102 38.2632 23.3771 38.5201 23.3194V20.2655C38.5201 19.94 38.385 19.6454 38.1702 19.4306C37.9554 19.2158 37.6608 19.0807 37.3353 19.0807H34.5516C34.226 19.0807 33.9314 19.2158 33.7166 19.4306C33.5018 19.6454 33.3668 19.94 33.3668 20.2655V21.0474ZM7.6332 21.0474V20.2656C7.6332 19.9401 7.50039 19.6455 7.28555 19.4307C7.07078 19.2159 6.77398 19.0808 6.44844 19.0808H3.66461C3.34133 19.0808 3.04453 19.2159 2.82969 19.4307C2.61492 19.6455 2.48203 19.9401 2.48203 20.2656V23.3195C2.73672 23.3771 2.96922 23.4103 3.18187 23.4214C3.73336 23.448 4.12977 23.3195 4.41094 23.0936C4.69664 22.8634 4.88484 22.5179 5.00672 22.1259C5.11523 21.7738 5.16836 21.3885 5.18609 21.0075C5.20156 20.6842 5.47617 20.4362 5.79727 20.4517C5.94789 20.4584 6.06297 20.5137 6.17375 20.6111C6.25578 20.6842 6.83602 21.1603 7.6332 21.0474ZM17.5613 26.1011C16.95 26.338 16.4097 26.6392 16.0243 26.9847C15.6899 27.2815 15.4839 27.6004 15.4839 27.9126V30.2888H15.712C16.3322 30.2888 16.8969 30.5412 17.3044 30.9487C17.7119 31.3562 17.9643 31.9187 17.9643 32.5411C17.9643 32.933 17.8624 33.3007 17.6875 33.6218H23.3125C23.1376 33.3007 23.0379 32.933 23.0379 32.5411C23.0379 31.9187 23.2903 31.3562 23.6979 30.9487C24.1054 30.5412 24.6678 30.2888 25.2902 30.2888H25.5161V27.9126C25.5161 27.5893 25.2946 27.2571 24.9359 26.9493C24.5151 26.5883 23.9304 26.2761 23.2793 26.0391C23.204 26.1299 23.1243 26.2185 23.0423 26.3004C22.3625 26.9803 21.4257 27.4011 20.3937 27.4011C19.3639 27.4011 18.425 26.9803 17.7473 26.3004C17.683 26.2361 17.621 26.1697 17.5613 26.1011ZM5.3832 4.97622C5.05984 4.97622 4.79859 4.71271 4.79859 4.38935C4.79859 4.06599 5.05992 3.80474 5.3832 3.80474H16.2302C16.5536 3.80474 16.8149 4.06606 16.8149 4.38935C16.8149 4.71271 16.5535 4.97622 16.2302 4.97622H5.3832ZM5.3832 11.1416C5.05984 11.1416 4.79859 10.8781 4.79859 10.5547C4.79859 10.2314 5.05992 9.96786 5.3832 9.96786H10.8068C11.1302 9.96786 11.3937 10.2314 11.3937 10.5547C11.3937 10.8781 11.1302 11.1416 10.8068 11.1416H5.3832ZM5.3832 8.05896C5.05984 8.05896 4.79859 7.79536 4.79859 7.47208C4.79859 7.14872 5.05992 6.88747 5.3832 6.88747H16.2302C16.5536 6.88747 16.8149 7.1488 16.8149 7.47208C16.8149 7.79536 16.5535 8.05896 16.2302 8.05896H5.3832ZM16.8304 14.3062C16.9123 14.5343 17.043 14.738 17.2091 14.9041C17.5059 15.2031 17.9178 15.3891 18.3762 15.3891H21.8198C22.1432 15.3891 22.4045 15.6504 22.4045 15.976C22.4045 16.2993 22.1431 16.5606 21.8198 16.5606H18.3762C17.5945 16.5606 16.8902 16.2418 16.3808 15.7279C15.9999 15.3449 15.7297 14.8533 15.6145 14.3062H7.445L4.79195 16.9593C4.6857 17.0656 4.53953 17.132 4.37563 17.132C4.05227 17.132 3.78875 16.8707 3.78875 16.5474V14.2575C3.04461 14.1335 2.37797 13.777 1.86648 13.2632C1.22203 12.6209 0.823437 11.7329 0.823437 10.754V4.19013C0.823437 3.21349 1.22211 2.32544 1.86648 1.68106C2.50867 1.0388 3.39672 0.637939 4.37563 0.637939H17.238C18.2168 0.637939 19.1049 1.0388 19.7471 1.68106C20.3916 2.32544 20.7902 3.21349 20.7902 4.19013V5.27528H30.7427C31.5199 5.27528 32.2242 5.592 32.7358 6.10356C33.2473 6.61513 33.5641 7.31935 33.5641 8.09669V13.7394C33.5641 14.5168 33.2473 15.221 32.7358 15.7325C32.357 16.1113 31.8699 16.3836 31.3273 16.4989V18.802C31.3273 18.9504 31.272 19.1009 31.1568 19.2161C30.9287 19.4442 30.5566 19.4442 30.3284 19.2161L27.6732 16.5608H24.4731C24.1498 16.5608 23.8862 16.2995 23.8862 15.9762C23.8862 15.6507 24.1498 15.3893 24.4731 15.3893H27.9168C28.0807 15.3893 28.2268 15.4558 28.3331 15.5643L30.1557 17.3868V15.9761C30.1557 15.6506 30.4192 15.3893 30.7427 15.3893C31.1944 15.3893 31.6085 15.2033 31.9075 14.9043C32.2065 14.6054 32.3925 14.1934 32.3925 13.7394V8.09669C32.3925 7.6427 32.2065 7.23083 31.9075 6.93185C31.6085 6.63286 31.1944 6.44685 30.7427 6.44685H20.7901V10.7542C20.7901 11.733 20.3915 12.6211 19.747 13.2633C19.1048 13.9077 18.2167 14.3064 17.238 14.3064H16.8304V14.3062ZM7.20133 13.1347H17.238C17.8935 13.1347 18.487 12.8668 18.9188 12.435C19.3506 12.0031 19.6186 11.4074 19.6186 10.754V4.19013C19.6186 3.53685 19.3506 2.94114 18.9188 2.50927C18.487 2.07739 17.8935 1.80942 17.238 1.80942H4.37555C3.72 1.80942 3.12648 2.07739 2.69461 2.50927C2.26281 2.94106 1.99477 3.53677 1.99477 4.19013V10.7541C1.99477 11.4074 2.26281 12.0031 2.69461 12.435C3.12641 12.8668 3.72 13.1348 4.37555 13.1348C4.69891 13.1348 4.96016 13.3983 4.96016 13.7217V15.1324L6.78719 13.3076C6.90242 13.1923 7.05078 13.1347 7.20133 13.1347ZM31.387 34.7932H9.61531V38.1903H31.387V34.7932H31.387Z" fill="white"/>
</g>
<defs>
<clipPath id="clip0_4720_64312">
<rect width="40" height="40" fill="white" transform="translate(0.5)"/>
</clipPath>
</defs>
</svg>
