<svg width="83" height="84" viewBox="0 0 83 84" fill="none" xmlns="http://www.w3.org/2000/svg">
<path d="M48.4165 7.875V21.7083C48.4165 22.6255 48.7809 23.5052 49.4294 24.1537C50.078 24.8023 50.9576 25.1667 51.8748 25.1667H65.7082" stroke="#888888" stroke-width="2" stroke-linecap="round" stroke-linejoin="round"/>
<path d="M41.4998 35.5417V56.2917M58.7915 70.125H24.2082C22.3738 70.125 20.6145 69.3963 19.3173 68.0992C18.0202 66.802 17.2915 65.0427 17.2915 63.2083V14.7917C17.2915 12.9573 18.0202 11.198 19.3173 9.90084C20.6145 8.60372 22.3738 7.875 24.2082 7.875H48.4165L65.7082 25.1667V63.2083C65.7082 65.0427 64.9795 66.802 63.6823 68.0992C62.3852 69.3963 60.6259 70.125 58.7915 70.125Z" stroke="#888888" stroke-width="2" stroke-linecap="round" stroke-linejoin="round"/>
<path d="M32.854 44.1888L41.4998 35.543L50.1457 44.1888" stroke="#888888" stroke-width="2" stroke-linecap="round" stroke-linejoin="round"/>
</svg>
