<svg width="32" height="32" viewBox="0 0 32 32" fill="none" xmlns="http://www.w3.org/2000/svg">
<g clip-path="url(#clip0_7374_78748)">
<path d="M31.503 24.4563L19.2625 3.85006C18.5875 2.65 17.3687 1.9375 16 1.9375C14.6313 1.9375 13.4125 2.65 12.7375 3.83125L0.480731 24.4751C-0.175581 25.6563 -0.156831 27.0438 0.518294 28.2063C1.19329 29.3688 2.41192 30.0626 3.74323 30.0626H28.2593C29.5906 30.0626 30.8093 29.3688 31.4842 28.2063C32.1593 27.0437 32.178 25.6563 31.503 24.4563Z" fill="#FFD400"/>
<path d="M31.4842 28.2063C30.8092 29.3688 29.5906 30.0625 28.2593 30.0625H16V1.9375C17.3687 1.9375 18.5875 2.65 19.2625 3.85006L31.503 24.4563C32.1781 25.6563 32.1593 27.0438 31.4842 28.2063Z" fill="#FDBF00"/>
<path d="M17.875 21.625H14.125V25.375H17.875V21.625Z" fill="#4A696F"/>
<path d="M17.875 10.375H14.125V19.75H17.875V10.375Z" fill="#4A696F"/>
<path d="M17.875 10.375H16V19.75H17.875V10.375Z" fill="#3E5959"/>
<path d="M17.875 21.625H16V25.375H17.875V21.625Z" fill="#3E5959"/>
</g>
<defs>
<clipPath id="clip0_7374_78748">
<rect width="32" height="32" fill="white"/>
</clipPath>
</defs>
</svg>
