<svg width="56" height="56" viewBox="0 0 56 56" fill="none" xmlns="http://www.w3.org/2000/svg">
<path d="M21.9096 32.3314C21.7926 32.3299 21.6808 32.2828 21.5981 32.2001C21.5154 32.1174 21.4683 32.0056 21.4668 31.8887V29.3924C21.4668 29.2749 21.5135 29.1622 21.5966 29.0792C21.6796 28.9961 21.7923 28.9494 21.9098 28.9494C22.0273 28.9494 22.1399 28.9961 22.223 29.0792C22.3061 29.1622 22.3528 29.2749 22.3528 29.3924V31.8882C22.3514 32.0053 22.3043 32.1173 22.2214 32.2001C22.1386 32.2829 22.0267 32.33 21.9096 32.3314ZM32.7452 37.2899C32.6282 37.2914 32.5164 37.3385 32.4337 37.4212C32.351 37.504 32.3038 37.6158 32.3024 37.7328V40.2283C32.3024 40.3458 32.3491 40.4584 32.4321 40.5415C32.5152 40.6246 32.6279 40.6712 32.7454 40.6712C32.8628 40.6712 32.9755 40.6246 33.0586 40.5415C33.1417 40.4584 33.1883 40.3458 33.1883 40.2283V37.7323C33.1869 37.6153 33.1397 37.5035 33.0569 37.4207C32.9741 37.338 32.8623 37.2909 32.7452 37.2895V37.2899ZM48.9353 35.5689C48.5722 40.8698 46.2123 45.8358 42.3317 49.4651C38.4511 53.0945 33.3386 55.1171 28.0253 55.1252C27.5396 55.1252 27.0522 55.1085 26.563 55.0751C23.0661 54.834 19.6852 53.7215 16.7285 51.8389C13.7718 49.9563 11.3333 47.3635 9.63554 44.2969C7.93774 41.2304 7.03458 37.7876 7.0084 34.2825C6.98222 30.7774 7.83386 27.3215 9.48567 24.2299C9.48873 24.224 9.4919 24.2182 9.49518 24.2124C10.5006 22.3917 11.2468 18.6763 10.6655 16.7927C10.5761 16.5029 10.5688 16.194 10.6443 15.9003C10.7199 15.6066 10.8754 15.3396 11.0936 15.1289C11.3117 14.9183 11.584 14.7722 11.8802 14.7069C12.1763 14.6416 12.4848 14.6598 12.7713 14.7592C14.1792 15.2648 15.4336 16.1234 16.4144 17.253C17.3249 15.4616 18.3328 14.0301 19.2605 12.7125C21.4859 9.55155 22.829 7.64416 21.4013 2.99802C21.3125 2.70936 21.3051 2.40179 21.3799 2.10919C21.4547 1.81659 21.6089 1.55033 21.8253 1.33972C22.0418 1.12912 22.3122 0.982353 22.6067 0.91559C22.9013 0.848827 23.2085 0.86466 23.4946 0.961344C30.9053 3.46417 35.6462 8.63466 37.9628 16.7531C38.1414 15.5966 38.1881 14.4235 38.1021 13.2564C38.0804 12.9024 38.174 12.5509 38.3688 12.2546C38.5636 11.9583 38.8492 11.7331 39.1828 11.6127C39.5164 11.4923 39.88 11.4833 40.2192 11.587C40.5584 11.6906 40.8548 11.9014 41.0641 12.1877C43.6941 15.7855 45.7131 19.5181 47.0651 23.2819C48.5764 27.4897 49.2055 31.6236 48.9353 35.5689ZM21.9098 35.6127C22.8971 35.6115 23.8437 35.2188 24.5419 34.5207C25.24 33.8225 25.6327 32.876 25.6339 31.8887V29.3924C25.6339 28.4047 25.2415 27.4574 24.5431 26.759C23.8447 26.0605 22.8974 25.6682 21.9097 25.6682C20.922 25.6682 19.9747 26.0605 19.2763 26.759C18.5778 27.4574 18.1855 28.4047 18.1855 29.3924V31.8882C18.1864 32.8756 18.5791 33.8223 19.2773 34.5206C19.9755 35.2188 20.9222 35.6116 21.9096 35.6127H21.9098ZM34.0569 28.3964C34.1842 28.2226 34.2759 28.0253 34.327 27.816C34.3781 27.6067 34.3874 27.3893 34.3544 27.1764C34.3215 26.9634 34.247 26.7591 34.135 26.575C34.0231 26.3908 33.876 26.2305 33.7022 26.1033C33.5283 25.976 33.3311 25.8842 33.1217 25.8331C32.9124 25.7821 32.6951 25.7728 32.4821 25.8057C32.2692 25.8386 32.0648 25.9132 31.8807 26.0251C31.6966 26.137 31.5363 26.2841 31.409 26.458L20.5982 41.2246C20.4709 41.3984 20.3791 41.5956 20.3281 41.805C20.277 42.0143 20.2677 42.2316 20.3006 42.4445C20.3336 42.6574 20.4081 42.8618 20.52 43.0459C20.6319 43.23 20.779 43.3902 20.9529 43.5175C21.1267 43.6448 21.3239 43.7366 21.5332 43.7876C21.7426 43.8387 21.9599 43.848 22.1728 43.815C22.3857 43.7821 22.5901 43.7076 22.7742 43.5956C22.9583 43.4837 23.1185 43.3367 23.2458 43.1628L34.0569 28.3964ZM36.4696 37.7328C36.4696 36.7451 36.0772 35.7978 35.3788 35.0994C34.6803 34.4009 33.7331 34.0086 32.7454 34.0086C31.7576 34.0086 30.8104 34.4009 30.1119 35.0994C29.4135 35.7978 29.0211 36.7451 29.0211 37.7328V40.2283C29.0211 41.216 29.4135 42.1633 30.1119 42.8617C30.8104 43.5601 31.7576 43.9525 32.7454 43.9525C33.7331 43.9525 34.6803 43.5601 35.3788 42.8617C36.0772 42.1633 36.4696 41.216 36.4696 40.2283V37.7328Z" fill="url(#paint0_linear_5708_49542)"/>
<defs>
<linearGradient id="paint0_linear_5708_49542" x1="9.85273" y1="13.3126" x2="44.1778" y2="47.6377" gradientUnits="userSpaceOnUse">
<stop stop-color="#FF9B8C"/>
<stop offset="1" stop-color="#FD4D86"/>
</linearGradient>
</defs>
</svg>
