<svg width="48" height="48" viewBox="0 0 48 48" fill="none" xmlns="http://www.w3.org/2000/svg">
<path d="M40.2278 0.762695H33.3326L32.8253 1.21458H28.5127L28.0516 0.762695H21.1564C20.4302 0.762695 19.8359 1.3569 19.8359 2.08319V21.1543C19.8359 21.8806 20.4302 22.475 21.1564 22.475H40.2277C40.954 22.475 41.5482 21.8807 41.5482 21.1543V2.08319C41.5482 1.3569 40.954 0.762695 40.2278 0.762695Z" fill="#FBC481"/>
<path d="M24.5379 21.1544V2.08319C24.5379 1.3569 25.1322 0.762695 25.8584 0.762695H21.1564C20.4302 0.762695 19.8359 1.3569 19.8359 2.08319V21.1543C19.8359 21.8806 20.4302 22.475 21.1564 22.475H25.8584C25.1322 22.475 24.5379 21.8807 24.5379 21.1544Z" fill="#DD9973"/>
<path d="M28.0518 0.762695V9.1235C28.0518 9.49063 28.4594 9.71104 28.7666 9.51004L30.4393 8.41539C30.593 8.3148 30.7916 8.3148 30.9452 8.41539L32.6179 9.51004C32.9252 9.71104 33.3328 9.49073 33.3328 9.1235V0.762695H28.0518Z" fill="#D6865F"/>
<path d="M30.6923 0.762695H28.0518V9.1235C28.0518 9.49063 28.4594 9.71104 28.7666 9.51004L30.4393 8.41539C30.5161 8.36514 30.6043 8.33992 30.6923 8.33992V0.762695Z" fill="#B97359"/>
<path d="M28.5773 12.6572H23.8068C23.1309 12.6572 22.583 13.2051 22.583 13.881V18.7394C22.583 19.4152 23.1309 19.9631 23.8068 19.9631H28.5773C29.2532 19.9631 29.8011 19.4152 29.8011 18.7394V13.881C29.8011 13.2051 29.2532 12.6572 28.5773 12.6572Z" fill="#FFEDDC"/>
<path d="M26.1924 18.7393V13.8809C26.1924 13.205 26.7403 12.6572 27.4161 12.6572H23.8071C23.1313 12.6572 22.5835 13.2051 22.5835 13.8809V18.7393C22.5835 19.4152 23.1314 19.963 23.8071 19.963H27.4161C26.7403 19.9629 26.1924 19.4152 26.1924 18.7393Z" fill="#FCD5AC"/>
<path d="M42.8158 25.783C41.7667 25.0328 40.3173 25.2883 39.5786 26.3536L35.342 32.4625C35.2871 32.5417 35.223 32.6124 35.1535 32.6766L35.019 32.788L35.2649 33.0338H36.4035L43.5912 28.3951L43.7985 27.9573C43.8185 27.166 43.4762 26.2553 42.8158 25.783Z" fill="#FFCEBE"/>
<path d="M42.2349 26.3534C42.3954 26.122 42.5894 25.9289 42.8056 25.7759C41.7574 25.0346 40.315 25.2915 39.5786 26.3534L35.342 32.4623C35.2871 32.5415 35.223 32.6122 35.1535 32.6764L35.019 32.7878L35.2649 33.0336H36.4035L38.5731 31.6334L42.2349 26.3534Z" fill="#FFB1A0"/>
<path d="M45.8688 28.9989C45.1431 27.899 43.6523 27.6252 42.5823 28.3792L36.5778 32.6096C36.3101 32.7982 35.9835 32.8841 35.6577 32.8517L31.2636 32.4141C31.2325 32.4111 31.2304 32.3656 31.2614 32.3606C32.3582 32.1861 33.2539 31.3091 33.3944 30.1557C33.5605 28.7927 32.6091 27.5447 31.245 27.3362L20.9214 25.7577C19.7538 25.5792 18.5621 25.859 17.5981 26.5382L12.0817 30.4249L11.7778 31.5161L17.2467 39.3477H18.4015C20.6291 38.0729 23.1659 37.4077 25.752 37.4393C26.7977 37.452 33.994 37.5397 35.0546 37.5526C36.6516 37.5924 38.2188 37.1175 39.5225 36.199L45.2225 32.183C46.2506 31.4586 46.5599 30.0465 45.8688 28.9989Z" fill="#FFDECF"/>
<path d="M17.161 32.0447C16.9273 31.7099 16.8553 31.2883 16.9648 30.8949C17.0494 30.591 17.2365 30.3256 17.4945 30.1438L22.612 26.5382C22.8394 26.378 23.0798 26.2409 23.3293 26.1258L20.9214 25.7577C19.7538 25.5792 18.5621 25.859 17.5981 26.5382L12.0817 30.4249L11.7778 31.5161L17.2467 39.3477H18.4015C19.3413 38.8099 20.3365 38.382 21.3668 38.0678L17.161 32.0447Z" fill="#FFCEBE"/>
<path d="M19.0488 40.2602L11.4098 29.4752C11.0767 29.005 10.4206 28.8972 9.94421 29.2347L7.71582 30.8131V31.7695L15.8094 42.9572L16.5609 43.3008L18.7892 41.7224C19.2657 41.3852 19.3819 40.7304 19.0488 40.2602Z" fill="#DBEDFF"/>
<path d="M12.527 31.0524L11.4098 29.4752C11.0767 29.005 10.4206 28.8972 9.94421 29.2347L7.71582 30.8131V31.7695L9.00285 33.5486L12.527 31.0524Z" fill="#B5DCFF"/>
<path d="M7.71578 30.8135L2.27713 34.6657C1.79121 35.0098 1.66737 35.67 2.00047 36.1403L9.63938 46.9252C9.97248 47.3955 10.6363 47.4977 11.1223 47.1535L16.5609 43.3013L7.71578 30.8135Z" fill="#80B4FB"/>
<path d="M6.29056 36.7486C5.95746 36.2784 6.14103 35.576 6.70044 35.1797L9.43603 33.2421L7.71578 30.8135L2.27713 34.6657C1.79121 35.0098 1.66737 35.67 2.00047 36.1403L9.63938 46.9252C9.97248 47.3955 10.6363 47.4977 11.1223 47.1535L12.8123 45.9564L6.29056 36.7486Z" fill="#61A2F9"/>
<path d="M27.6439 16.7246H24.6938C24.3054 16.7246 23.9907 17.0394 23.9907 17.4277C23.9907 17.816 24.3054 18.1309 24.6938 18.1309H27.6439C28.0323 18.1309 28.347 17.816 28.347 17.4277C28.347 17.0394 28.0322 16.7246 27.6439 16.7246Z" fill="black"/>
<path d="M27.6439 14.3711H24.6938C24.3054 14.3711 23.9907 14.6859 23.9907 15.0742C23.9907 15.4625 24.3054 15.7773 24.6938 15.7773H27.6439C28.0323 15.7773 28.347 15.4625 28.347 15.0742C28.347 14.6859 28.0322 14.3711 27.6439 14.3711Z" fill="black"/>
<path d="M23.7833 11.8945C22.7208 11.8945 21.8564 12.7589 21.8564 13.8214V18.6798C21.8564 19.7423 22.7208 20.6066 23.7833 20.6066H28.5539C29.6164 20.6066 30.4808 19.7422 30.4808 18.6798V13.8214C30.4808 12.7589 29.6164 11.8945 28.5539 11.8945H23.7833ZM29.0744 13.8214V18.6798C29.0744 18.9669 28.8409 19.2003 28.5538 19.2003H23.7832C23.4962 19.2003 23.2626 18.9668 23.2626 18.6798V13.8214C23.2626 13.5343 23.4962 13.3008 23.7832 13.3008H28.5538C28.8409 13.3008 29.0744 13.5343 29.0744 13.8214Z" fill="black"/>
<path d="M1.40332 36.4872L9.04224 47.2721C9.59903 48.0582 10.704 48.2352 11.5052 47.6678C12.2607 47.1326 18.2621 42.8819 19.1722 42.2373C19.9661 41.6749 20.1571 40.5825 19.5991 39.7947L19.4135 39.5326C21.3678 38.556 23.5303 38.0542 25.7204 38.0824L35.0141 38.1955C36.7493 38.2395 38.4869 37.7125 39.9044 36.7138L45.6044 32.6978C46.9458 31.7527 47.3173 29.8929 46.4325 28.5517C45.9774 27.862 45.2794 27.3975 44.4668 27.2439C44.4541 27.2414 44.4412 27.2399 44.4285 27.2376C44.2847 26.3844 43.8388 25.6071 43.2014 25.1512C41.8328 24.1724 39.9409 24.5038 38.9774 25.893L34.7445 31.9966L33.3479 31.8574C33.7333 31.3924 33.9918 30.8167 34.0692 30.1809C34.2826 28.43 33.0787 26.8488 31.3281 26.5812L21.0046 25.0028C19.6503 24.7956 18.2884 25.1156 17.1701 25.9036L12.227 29.3863L11.9603 29.0097C11.4014 28.2206 10.307 28.0403 9.51447 28.6018C8.60273 29.2476 2.75579 33.3889 1.84743 34.0323C1.04688 34.5994 0.843061 35.6963 1.40332 36.4872ZM40.1331 26.6945C40.6499 25.9495 41.6545 25.774 42.3835 26.2952C42.6802 26.5074 42.9085 26.8931 43.012 27.3231C42.6985 27.4196 42.4031 27.5691 42.1542 27.7444L36.7781 31.5322L40.1331 26.6945ZM17.98 27.0532C18.7999 26.4755 19.7984 26.2411 20.7921 26.3929L31.1157 27.9714C32.11 28.1235 32.7943 29.0192 32.6734 30.0108C32.5656 30.8964 31.8371 31.5758 30.9414 31.6263C30.8357 31.6322 31.2761 31.6631 27.034 31.3243C26.6457 31.2942 26.308 31.5821 26.277 31.9692C26.2462 32.3563 26.5349 32.6952 26.922 32.726C27.0161 32.7335 35.3687 33.3936 35.5642 33.4914C36.0497 33.5408 36.5587 33.4071 36.9597 33.1245L39.4521 31.3684L42.9642 28.8939C43.6954 28.3787 44.7423 28.5432 45.2587 29.326C45.7295 30.0393 45.5212 31.0362 44.7947 31.548L39.0946 35.564C37.9223 36.3901 36.4884 36.8253 35.0402 36.7893L25.7377 36.6761C23.2531 36.6476 20.796 37.2304 18.5912 38.3713C18.0431 37.5975 13.5966 31.3198 13.0397 30.5337L17.98 27.0532ZM10.3273 29.7494C10.4897 29.6346 10.706 29.672 10.8127 29.8225C11.3228 30.5426 17.4943 39.2557 17.8048 39.6942L18.4517 40.6075C18.558 40.7577 18.5222 40.9745 18.3596 41.0897L16.705 42.2616C16.5901 42.0996 8.78751 31.0834 8.67267 30.9213L10.3273 29.7494ZM2.66016 35.1799L7.52505 31.7341C7.63989 31.8962 15.4425 42.9124 15.5573 43.0745L10.6925 46.5201C10.5238 46.6395 10.2983 46.6123 10.1899 46.4592L2.55085 35.6743C2.44603 35.5263 2.48625 35.3033 2.66016 35.1799Z" fill="black"/>
<path d="M40.2043 21.7123H32.3094C31.921 21.7123 31.6062 22.0271 31.6062 22.4155C31.6062 22.8038 31.921 23.1186 32.3094 23.1186H40.2043C41.3202 23.1186 42.2281 22.2107 42.2281 21.0949V2.02364C42.2281 0.907801 41.3203 0 40.2043 0C39.4895 0 21.8642 0 21.1331 0C20.0173 0 19.1094 0.907801 19.1094 2.02364V21.0948C19.1094 22.2107 20.0173 23.1185 21.1331 23.1185H29.0281C29.4165 23.1185 29.7312 22.8037 29.7312 22.4154C29.7312 22.027 29.4165 21.7122 29.0281 21.7122H21.1331C20.7926 21.7122 20.5157 21.4352 20.5157 21.0948V2.02364C20.5157 1.68322 20.7926 1.40628 21.1331 1.40628H27.3251V9.06394C27.3251 9.99378 28.3594 10.5419 29.128 10.0388L30.6687 9.03057L32.2093 10.0387C32.983 10.5451 34.0124 9.98862 34.0124 9.06394V6.39211C34.0124 6.00379 33.6977 5.68897 33.3092 5.68897C32.9208 5.68897 32.6061 6.00379 32.6061 6.39211V8.61778L31.3067 7.76745C30.919 7.51385 30.4182 7.51394 30.0308 7.76745L28.7314 8.61778V1.40628H32.6062V3.11079C32.6062 3.49911 32.9209 3.81393 33.3093 3.81393C33.6978 3.81393 34.0125 3.49911 34.0125 3.11079V1.40628H40.2044C40.5449 1.40628 40.8219 1.68322 40.8219 2.02364V21.0948C40.8218 21.4354 40.5448 21.7123 40.2043 21.7123Z" fill="black"/>
</svg>
