<svg width="48" height="48" viewBox="0 0 48 48" fill="none" xmlns="http://www.w3.org/2000/svg">
<path fill-rule="evenodd" clip-rule="evenodd" d="M10.8359 17.4912H42.8824V43.6841C21.9461 43.6841 31.7722 43.6841 10.8359 43.6841V17.4912Z" fill="#ECEFF1"/>
<path fill-rule="evenodd" clip-rule="evenodd" d="M41.1895 17.4912H42.8825V43.6842H41.1895V17.4912Z" fill="#D1D1D6"/>
<path fill-rule="evenodd" clip-rule="evenodd" d="M18.7441 27.3232H34.9741V43.5391H18.7441V27.3232Z" fill="#D8ECFE"/>
<path fill-rule="evenodd" clip-rule="evenodd" d="M18.7446 27.7695H20.2445V42.9092H18.7446V27.7695Z" fill="#C4E2FF"/>
<path fill-rule="evenodd" clip-rule="evenodd" d="M26.8594 27.7695H33.907V42.9092H26.8594V27.7695Z" fill="#C4E2FF"/>
<path fill-rule="evenodd" clip-rule="evenodd" d="M33.4746 27.7695H34.9745V42.9092H33.4746V27.7695Z" fill="#ADD5FA"/>
<path fill-rule="evenodd" clip-rule="evenodd" d="M18.4351 26.3662H35.2838C35.5932 26.3662 35.8463 26.6193 35.8463 26.9287V27.924C35.8463 28.2333 35.5933 28.4865 35.2838 28.4865H18.4351C18.1257 28.4865 17.8726 28.2333 17.8726 27.924V26.9287C17.8726 26.6192 18.1257 26.3662 18.4351 26.3662Z" fill="#8AC9FE"/>
<path fill-rule="evenodd" clip-rule="evenodd" d="M34.9087 26.3662H35.2838C35.5932 26.3662 35.8463 26.6193 35.8463 26.9287V27.924C35.8463 28.2333 35.5933 28.4865 35.2838 28.4865H18.4351C18.1257 28.4865 17.8726 28.2333 17.8726 27.924V27.5489H34.3462C34.6556 27.5489 34.9087 27.2957 34.9087 26.9864V26.3662Z" fill="#60B7FF"/>
<path fill-rule="evenodd" clip-rule="evenodd" d="M14.1816 12.3535H39.3757C40.0967 12.3535 40.6867 11.7635 40.6867 11.0425V4.98776C40.6867 4.26663 40.0967 3.67676 39.3757 3.67676H14.1816C13.4606 3.67676 12.8706 4.26673 12.8706 4.98776V11.0425C12.8706 11.7634 13.4605 12.3535 14.1816 12.3535Z" fill="#8AC9FE"/>
<path fill-rule="evenodd" clip-rule="evenodd" d="M37.6826 12.3535H39.3757C40.0967 12.3535 40.6866 11.7635 40.6866 11.0425V4.98776C40.6866 4.26663 40.0967 3.67676 39.3757 3.67676H37.6826C38.4036 3.67676 38.9936 4.26673 38.9936 4.98776V11.0425C38.9936 11.7635 38.4036 12.3535 37.6826 12.3535Z" fill="#60B7FF"/>
<path fill-rule="evenodd" clip-rule="evenodd" d="M7.55078 18.1537L12.8707 9.35071C13.0107 9.11915 13.2702 8.9834 13.5729 8.9834H40.1462C40.4489 8.9834 40.7084 9.11915 40.8483 9.35071L46.1683 18.1537C46.1683 20.454 44.0072 22.3187 41.3411 22.3187C38.675 22.3187 36.5139 20.454 36.5139 18.1537C36.5139 20.454 34.3528 22.3187 31.6867 22.3187C29.0207 22.3187 26.8595 20.454 26.8595 18.1537C26.8595 20.454 24.6984 22.3187 22.0323 22.3187C19.3663 22.3187 17.2052 20.454 17.2052 18.1537C17.2052 20.454 15.044 22.3187 12.378 22.3187C9.71181 22.3187 7.55078 20.454 7.55078 18.1537Z" fill="#FFE177"/>
<path fill-rule="evenodd" clip-rule="evenodd" d="M12.378 22.3183C15.044 22.3183 17.2052 20.4536 17.2052 18.1533H10.8363H7.55078C7.55078 19.9885 8.92628 21.5463 10.8363 22.1013C11.3204 22.242 11.8388 22.3183 12.378 22.3183ZM26.8595 18.1533C26.8595 20.4536 29.0207 22.3183 31.6867 22.3183C34.3528 22.3183 36.5139 20.4536 36.5139 18.1533H26.8595Z" fill="#FFD064"/>
<path fill-rule="evenodd" clip-rule="evenodd" d="M46.1681 18.1538L40.8482 9.3508C40.7082 9.11924 40.4487 8.98349 40.146 8.98349H33.7127L36.5137 18.1539C36.5137 20.4542 38.6749 22.3189 41.3409 22.3189C41.88 22.3189 42.3984 22.2426 42.8825 22.1019C44.7926 21.5468 46.1681 19.989 46.1681 18.1538ZM22.0323 22.3188C24.6983 22.3188 26.8595 20.4541 26.8595 18.1538V8.9834H20.0061L17.2051 18.1538C17.205 20.4541 19.3662 22.3188 22.0323 22.3188Z" fill="#FE646F"/>
<path fill-rule="evenodd" clip-rule="evenodd" d="M36.5138 18.1533C36.5138 20.4536 38.675 22.3183 41.341 22.3183C41.8801 22.3183 42.3985 22.242 42.8826 22.1013C44.7927 21.5463 46.1682 19.9885 46.1682 18.1533H36.5138ZM22.0323 22.3183C24.6983 22.3183 26.8595 20.4536 26.8595 18.1533H17.2051C17.205 20.4536 19.3662 22.3183 22.0323 22.3183Z" fill="#FD4755"/>
<path fill-rule="evenodd" clip-rule="evenodd" d="M7.61563 40.7324H46.1031C46.3212 40.7324 46.499 40.9103 46.499 41.1283V43.9116C46.499 44.1296 46.3212 44.3075 46.1031 44.3075H7.61563C7.39757 44.3075 7.21973 44.1296 7.21973 43.9116V41.1283C7.21973 40.9103 7.39757 40.7324 7.61563 40.7324Z" fill="#9FACBA"/>
<path fill-rule="evenodd" clip-rule="evenodd" d="M45.6525 40.7324H46.1031C46.3212 40.7324 46.499 40.9103 46.499 41.1283V43.9116C46.499 44.1296 46.3212 44.3075 46.1031 44.3075H7.61563C7.39757 44.3075 7.21973 44.1296 7.21973 43.9116V43.461H45.2566C45.4747 43.461 45.6525 43.2832 45.6525 43.0651V40.7324Z" fill="#8D9CA8"/>
<path fill-rule="evenodd" clip-rule="evenodd" d="M17.1276 29.8074L15.7764 35.8506C15.6968 36.2111 15.3771 36.4566 15.0224 36.4562V36.4591H5.68538C5.29154 36.4591 4.96623 36.1653 4.91682 35.7849L3.28201 28.4739C3.19004 28.0575 3.45301 27.6454 3.86945 27.5534C3.92532 27.541 3.98101 27.5352 4.03595 27.5351V27.5322H15.3055C15.4174 27.5322 15.5434 27.5474 15.6783 27.5776C16.0156 27.6531 16.3819 27.8355 16.6634 28.121C16.967 28.4286 17.1798 28.8472 17.1798 29.3718C17.1798 29.5031 17.1633 29.648 17.1276 29.8074Z" fill="#FFE177"/>
<path fill-rule="evenodd" clip-rule="evenodd" d="M17.1276 29.8074L15.7764 35.8506C15.6968 36.2111 15.3771 36.4566 15.0225 36.4562V36.4591H13.7642V36.4562C14.1188 36.4566 14.4384 36.211 14.5181 35.8506L15.8694 29.8074C15.905 29.648 15.9215 29.5031 15.9215 29.3718C15.9215 28.8472 15.7088 28.4286 15.4052 28.121C15.1235 27.8355 14.7573 27.6531 14.42 27.5776C14.2872 27.5479 14.163 27.5327 14.0525 27.5322H15.3055C15.4173 27.5322 15.5433 27.5474 15.6783 27.5776C16.0156 27.6531 16.3818 27.8355 16.6634 28.121C16.9669 28.4286 17.1798 28.8472 17.1798 29.3718C17.1798 29.5031 17.1633 29.648 17.1276 29.8074Z" fill="#FFD064"/>
<path fill-rule="evenodd" clip-rule="evenodd" d="M7.3799 37.7092C8.29209 37.7092 9.03178 38.4489 9.03178 39.361C9.03178 40.2732 8.29209 41.0128 7.3799 41.0128C6.46772 41.0128 5.72803 40.2731 5.72803 39.361C5.72812 38.4489 6.46772 37.7092 7.3799 37.7092ZM14.2784 37.709C15.1907 37.709 15.9304 38.4487 15.9304 39.361C15.9304 40.2731 15.1906 41.0129 14.2784 41.0129C13.3661 41.0129 12.6264 40.2732 12.6264 39.361C12.6264 38.4488 13.3661 37.709 14.2784 37.709Z" fill="#9FACBA"/>
<path fill-rule="evenodd" clip-rule="evenodd" d="M31.6163 33.1484L29.9936 35.9593C29.8538 36.1998 29.6018 36.3343 29.3433 36.3343C29.2153 36.3343 29.087 36.3021 28.9691 36.2337C28.61 36.0264 28.4869 35.5679 28.6942 35.2092L30.3171 32.3983C30.5244 32.0392 30.9829 31.9165 31.342 32.1234C31.7005 32.3308 31.8237 32.7893 31.6163 33.1484ZM33.1372 34.0259C33.3441 33.6677 33.2214 33.2088 32.8623 33.0014C32.5031 32.7945 32.0447 32.9176 31.8374 33.2763L30.2146 36.0872C30.0077 36.4459 30.1303 36.9048 30.4895 37.1117C30.6077 37.1797 30.7361 37.2123 30.8636 37.2123C31.1231 37.2123 31.3746 37.0777 31.5144 36.8373L33.1372 34.0259ZM20.5839 35.2092L22.2067 32.3983C22.4136 32.0392 22.8725 31.9165 23.2316 32.1234C23.5903 32.3308 23.7134 32.7893 23.506 33.1484L21.8833 35.9593C21.7434 36.1998 21.4924 36.3343 21.2325 36.3343C21.105 36.3343 20.9766 36.3021 20.8583 36.2337C20.4997 36.0264 20.3766 35.5679 20.5839 35.2092ZM22.1044 36.0873C21.8975 36.446 22.0201 36.9049 22.3792 37.1118C22.4975 37.1798 22.6259 37.2124 22.7534 37.2124C23.0128 37.2124 23.2643 37.0778 23.4037 36.8374L25.0265 34.026C25.2338 33.6678 25.1112 33.2089 24.7521 33.0015C24.3929 32.7946 23.9345 32.9177 23.7271 33.2764L22.1044 36.0873ZM29.0626 6.33807C29.0626 5.92379 29.3984 5.58798 29.8127 5.58798H35.536C35.9495 5.58798 36.286 5.92379 36.286 6.33807C36.286 6.75235 35.9494 7.08807 35.536 7.08807H29.8127C29.3984 7.08807 29.0626 6.75235 29.0626 6.33807ZM17.4346 6.33807C17.4346 5.92379 17.7704 5.58798 18.1847 5.58798H23.9084C24.3227 5.58798 24.6584 5.92379 24.6584 6.33807C24.6584 6.75235 24.3227 7.08807 23.9084 7.08807H18.1847C17.7704 7.08807 17.4346 6.75235 17.4346 6.33807ZM45.7499 43.5661H7.97072V41.4907H45.7499V43.5661ZM9.37687 38.8214H12.2963C12.2421 39.0071 12.2121 39.2031 12.2121 39.406C12.2121 39.609 12.2421 39.8053 12.2963 39.9911H9.37687C9.43116 39.8054 9.46116 39.609 9.46116 39.406C9.46116 39.2031 9.43116 39.0071 9.37687 38.8214ZM7.37644 38.8214C7.69894 38.8214 7.96153 39.0835 7.96153 39.406C7.96153 39.7285 7.69903 39.9911 7.37644 39.9911C7.05394 39.9911 6.79228 39.7286 6.79228 39.406C6.79228 39.0835 7.05394 38.8214 7.37644 38.8214ZM14.2959 39.991C13.9748 39.9902 13.7123 39.7281 13.7123 39.4059C13.7123 39.0834 13.9747 38.8213 14.2972 38.8213C14.6193 38.8213 14.8819 39.0834 14.8819 39.4059C14.8819 39.7281 14.6207 39.9901 14.2982 39.991H14.2959ZM27.6106 29.2446V39.991H34.2207V29.2446H27.6106ZM26.1105 29.2446H19.5004V39.991H26.1105V29.2446ZM35.0974 27.7445H18.6236V27.1241H35.0974V27.7445ZM5.24944 36.8942C5.24944 37.1254 5.44537 37.3213 5.67694 37.3213H14.2972H14.299C15.4475 37.3226 16.382 38.2571 16.382 39.406C16.382 39.609 16.352 39.8053 16.2977 39.9911H18.0003V29.2446H17.8736C17.4593 29.2446 17.1235 28.9089 17.1235 28.4945V26.374C17.1235 25.9602 17.4592 25.624 17.8736 25.624H35.8475C36.2617 25.624 36.5971 25.9602 36.5971 26.374V28.4945C36.5971 28.9088 36.2617 29.2446 35.8475 29.2446H35.7208V39.991H42.1333V23.0258C41.8744 23.0589 41.6109 23.0765 41.3418 23.0765C39.2831 23.0765 37.4803 22.0882 36.515 20.6212C35.5483 22.0882 33.7464 23.0765 31.6877 23.0765C29.629 23.0765 27.8258 22.0882 26.8604 20.6212C25.8937 22.0882 24.0918 23.0765 22.0332 23.0765C19.9736 23.0765 18.1717 22.0882 17.2059 20.6212C16.2393 22.0882 14.4374 23.0765 12.3787 23.0765C12.1096 23.0765 11.8453 23.0589 11.5868 23.0258V27.5666H15.3273C15.8691 27.5666 16.4457 27.8499 16.7961 28.288C17.1375 28.7139 17.2567 29.2574 17.1309 29.8181L15.7751 35.8808C15.6983 36.2236 15.3948 36.4667 15.0431 36.4667H5.67694C5.44528 36.4667 5.24944 36.6626 5.24944 36.8942ZM15.3274 29.0668C15.3892 29.0668 15.5409 29.1202 15.6261 29.2261C15.6649 29.2747 15.7002 29.3439 15.6675 29.4912L14.4423 34.9671H6.27741L4.95778 29.0668H15.3274ZM8.40225 18.9115H16.3558C15.9459 20.4346 14.3192 21.5764 12.3787 21.5764C10.4384 21.5764 8.81081 20.4346 8.40225 18.9115ZM14.1825 4.43466C13.8732 4.43466 13.6213 4.68657 13.6213 4.99585V8.24091H39.9375V4.99595C39.9375 4.68666 39.6864 4.43476 39.3772 4.43476L14.1825 4.43466ZM44.8397 17.4114H37.0696L34.7268 9.7411H40.1466C40.1841 9.7411 40.2039 9.7486 40.2105 9.75216L44.8397 17.4114ZM35.6644 18.9115C35.2549 20.4346 33.6282 21.5764 31.6878 21.5764C29.7469 21.5764 28.1197 20.4345 27.7107 18.9115H35.6644ZM26.0104 18.9115C25.6005 20.4346 23.9738 21.5764 22.0333 21.5764C20.0929 21.5764 18.4648 20.4345 18.0563 18.9115H26.0104ZM26.1105 17.4114H18.2195L20.5623 9.7411H26.1105V17.4114ZM33.1588 9.7411H27.6107V17.4114H35.5013L33.1588 9.7411ZM13.5732 9.7411C13.5357 9.7411 13.5163 9.7486 13.5097 9.75216L8.88094 17.4115H16.651L18.9938 9.7412H13.5732V9.7411ZM41.3419 21.5764C39.4014 21.5764 37.7747 20.4345 37.3653 18.9115H45.3189C44.909 20.4346 43.2827 21.5764 41.3419 21.5764ZM46.1047 39.991H43.6335V22.6406C45.5695 21.8685 46.9192 20.1518 46.9192 18.1615C46.9192 18.0248 46.8817 17.8907 46.8115 17.7737L41.4909 8.97029C41.4742 8.94244 41.4565 8.91507 41.4376 8.88863V4.99595C41.4376 3.85941 40.5133 2.93457 39.3772 2.93457H14.1825C13.0464 2.93457 12.1211 3.85932 12.1211 4.99595V9.14945L6.90956 17.7737C6.83897 17.8906 6.80147 18.0248 6.80147 18.1615C6.80147 20.1518 8.15156 21.8686 10.0867 22.6406V27.5667H4.62291L4.05553 25.0298C3.97875 24.6869 3.67434 24.4434 3.32363 24.4434H1.5C1.08572 24.4434 0.75 24.7792 0.75 25.1934C0.75 25.6077 1.08572 25.9435 1.5 25.9435H2.72259L4.78875 35.1855C4.17197 35.5072 3.74925 36.1517 3.74925 36.8943C3.74925 37.8565 4.46006 38.6547 5.38303 38.7968C5.32387 38.9896 5.29219 39.1943 5.29219 39.406C5.29219 40.2311 5.77312 40.9458 6.47062 41.2834V43.92C6.47062 44.5518 6.98466 45.0658 7.61644 45.0658H46.1047C46.7364 45.0658 47.25 44.5518 47.25 43.92V41.1369C47.25 40.5046 46.7364 39.991 46.1047 39.991Z" fill="black"/>
</svg>
