<svg width="107" height="107" viewBox="0 0 107 107" fill="none" xmlns="http://www.w3.org/2000/svg">
<path d="M45.8771 49.7611C43.8413 49.7611 42.1909 48.1107 42.1909 46.0748C42.1909 44.039 43.8413 42.3885 45.8771 42.3885C47.913 42.3885 49.5634 44.039 49.5634 46.0748C49.5634 48.1107 47.913 49.7611 45.8771 49.7611Z" fill="#6B8DF2"/>
<path d="M82.0457 66.9363L106.713 91.6019C107.87 92.7584 105.424 97.0789 101.251 101.252C97.0777 105.425 92.7569 107.87 91.6002 106.713L84.682 99.7951L82.0457 66.9363Z" fill="#F2A7D0"/>
<path d="M75.4165 82.0477L97.7245 104.354C94.8725 106.525 92.4274 107.54 91.6002 106.713L84.682 99.7949L75.4165 82.0477Z" fill="#F294C7"/>
<path d="M73.6209 58.5123L99.7949 84.6836C100.952 85.8402 98.5061 90.1607 94.3329 94.3335C90.1595 98.5065 85.8387 100.952 84.682 99.7951L81.3784 96.4919L79.2948 92.3659L75.9067 91.0209L58.5078 73.6238L73.6209 58.5123Z" fill="#FFCA21"/>
<path d="M62.7499 69.3821L90.8063 97.4359C87.9543 99.6069 85.5091 100.622 84.682 99.7952L81.3784 96.4919L79.7815 92.3304L75.9067 91.0207L58.5077 73.6236L62.7499 69.3821Z" fill="#F2BB0C"/>
<path d="M58.6921 73.7947C57.5356 72.6383 59.9806 68.3183 64.1531 64.1458C68.3256 59.9733 72.6456 57.5283 73.8021 58.6847C74.9585 59.8412 72.5135 64.1612 68.341 68.3337C64.1685 72.5062 59.8485 74.9512 58.6921 73.7947Z" fill="#EB67A5"/>
<path d="M53.1128 70.0098C53.6821 70.0098 54.2328 69.7034 54.5187 69.1655C54.931 68.39 54.6367 67.4268 53.861 67.0142C47.0489 63.3919 32.9251 58.2942 14.8697 64.8496C14.044 65.1495 13.6177 66.0619 13.9174 66.8876C14.2173 67.7133 15.1295 68.1396 15.9554 67.8399C32.8535 61.7044 46.0216 66.4487 52.3672 69.8232C52.6054 69.9496 52.861 70.0098 53.1128 70.0098Z" fill="#B5C8FF"/>
<path d="M56.2296 57.8186C56.6367 57.8186 57.0438 57.6633 57.3546 57.3526C57.9757 56.7313 57.9757 55.7242 57.3544 55.1031L54.3686 52.1177C53.7477 51.4964 52.7404 51.4966 52.1191 52.1179C51.498 52.7393 51.498 53.7463 52.1193 54.3675L55.1051 57.3528C55.4156 57.6633 55.8227 57.8186 56.2296 57.8186Z" fill="#B5C8FF"/>
<path d="M39.4897 41.0792C39.8971 41.0792 40.3044 40.9237 40.6151 40.613C41.236 39.9914 41.2356 38.9843 40.6141 38.3632L18.5386 16.306C17.9173 15.6851 16.91 15.6855 16.2891 16.3068C15.6682 16.9283 15.6687 17.9354 16.2902 18.5565L38.3656 40.6138C38.676 40.9241 39.0831 41.0792 39.4897 41.0792Z" fill="#B5C8FF"/>
<path d="M26.8632 10.8719C24.8273 10.8719 23.1769 9.22154 23.1769 7.18566C23.1769 5.14979 24.8273 3.49939 26.8632 3.49939C28.899 3.49939 30.5494 5.14979 30.5494 7.18566C30.5494 9.22154 28.899 10.8719 26.8632 10.8719Z" fill="#6B8DF2"/>
<path d="M7.39832 30.4951C5.36244 30.4951 3.71204 28.8447 3.71204 26.8088C3.71204 24.773 5.36244 23.1226 7.39832 23.1226C9.43419 23.1226 11.0846 24.773 11.0846 26.8088C11.0846 28.8447 9.43419 30.4951 7.39832 30.4951Z" fill="#6B8DF2"/>
<path d="M40.8204 81.508C38.7845 81.508 37.1341 79.8576 37.1341 77.8218C37.1341 75.7859 38.7845 74.1355 40.8204 74.1355C42.8562 74.1355 44.5067 75.7859 44.5067 77.8218C44.5067 79.8576 42.8562 81.508 40.8204 81.508Z" fill="#6B8DF2"/>
<path d="M7.86726 53.0693L11.7583 50.9449L15.7176 52.9397L14.8956 48.5899L18.0201 45.4482L13.621 44.8842L11.5928 40.9478L9.69588 44.949L5.31787 45.6576L8.54458 48.6946L7.86726 53.0693Z" fill="#FFCA21"/>
<path d="M8.63406 14.1587L9.88337 9.90523L14.0936 8.51611L10.4366 6.02146L10.4244 1.59058L6.91496 4.30236L2.69724 2.95315L4.1852 7.12365L1.59087 10.7205L6.01987 10.5863L8.63406 14.1587Z" fill="#FFCA21"/>
<path d="M26.0157 98.4404L29.9068 96.316L33.866 98.311L33.0443 93.961L36.1686 90.8193L31.7697 90.2553L29.7413 86.3188L27.8445 90.3201L23.4665 91.0289L26.6932 94.0659L26.0157 98.4404Z" fill="#FFCA21"/>
<path d="M20.0749 36.5445C18.0279 36.5445 18.0246 33.3632 20.0749 33.3632C22.1221 33.3632 22.1255 36.5445 20.0749 36.5445Z" fill="#EB67A5"/>
<path d="M1.53674 61.0011C-0.510266 61.0011 -0.513819 57.8197 1.53674 57.8197C3.58374 57.8197 3.58708 61.0011 1.53674 61.0011Z" fill="#EB67A5"/>
<path d="M59.3859 3.18137C57.3389 3.18137 57.3356 0 59.3859 0C61.4329 0 61.4365 3.18137 59.3859 3.18137Z" fill="#EB67A5"/>
<path d="M7.47396 70.7628C5.42696 70.7628 5.42361 67.5814 7.47396 67.5814C9.52117 67.5814 9.52451 70.7628 7.47396 70.7628Z" fill="#EB67A5"/>
<path d="M68.3273 54.3625C68.5756 54.3625 68.8274 54.3041 69.0629 54.1813C69.8414 53.7744 70.1427 52.8133 69.7356 52.0346C66.4418 45.7329 61.8239 32.6709 67.9035 15.9929C68.2042 15.1676 67.7789 14.2546 66.9536 13.9536C66.1284 13.6525 65.2153 14.0782 64.9144 14.9033C58.4166 32.7288 63.3796 46.7418 66.9164 53.5081C67.2004 54.0517 67.7542 54.3625 68.3273 54.3625Z" fill="#B5C8FF"/>
<path d="M77.9087 44.4857C75.8689 44.4857 74.2153 42.8384 74.2153 40.8063C74.2153 38.7743 75.8689 37.127 77.9087 37.127C79.9485 37.127 81.6021 38.7743 81.6021 40.8063C81.6021 42.8384 79.9485 44.4857 77.9087 44.4857Z" fill="#6B8DF2"/>
<path d="M12.8428 79.2894C13.3586 79.1567 13.5128 78.9295 13.9229 78.2315C14.4046 77.4116 15.1325 76.1726 16.9533 75.704C18.7734 75.2355 20.0097 75.9686 20.8281 76.4534C21.5261 76.8672 21.7715 76.9916 22.2885 76.8589C22.8045 76.7262 22.9587 76.499 23.3685 75.8012C23.85 74.9814 24.5779 73.7423 26.3988 73.2738C27.2506 73.0543 28.1169 73.5672 28.3359 74.4177C28.5549 75.2685 28.0425 76.1358 27.1917 76.3546C26.6757 76.4873 26.5215 76.7145 26.1117 77.4125C25.6302 78.2323 24.9023 79.4712 23.0814 79.9397C21.2609 80.4083 20.0244 79.6754 19.2062 79.1903C18.5084 78.7767 18.263 78.6518 17.7462 78.7851C17.2302 78.9178 17.076 79.145 16.666 79.843C16.1843 80.6628 15.4564 81.9017 13.6355 82.3702C13.5026 82.4045 13.369 82.4208 13.238 82.4208C12.5293 82.4208 11.8832 81.9439 11.6984 81.226C11.4798 80.3755 11.9921 79.5082 12.8428 79.2894Z" fill="#F2A7D0"/>
<path d="M24.6753 52.2452C23.9043 51.8238 23.6212 50.8573 24.0425 50.0863C24.4642 49.3154 25.4308 49.032 26.2013 49.4538C26.6692 49.7093 26.9378 49.6492 27.7166 49.4197C28.6295 49.1509 30.0086 48.7445 31.657 49.6458C33.307 50.5478 33.707 51.9281 33.9715 52.8412C34.1964 53.618 34.2898 53.8757 34.7565 54.1308C35.2244 54.3866 35.493 54.3262 36.2716 54.0965C37.1843 53.8278 38.5631 53.4213 40.212 54.3227C40.983 54.744 41.2661 55.7105 40.8448 56.4815C40.4231 57.2524 39.4566 57.5356 38.686 57.1141C38.2177 56.8585 37.9494 56.9189 37.1709 57.1483C36.6808 57.2928 36.0566 57.4767 35.3281 57.4767C34.6999 57.4767 33.9937 57.3396 33.2303 56.9222C31.5801 56.02 31.1801 54.6399 30.9156 53.7266C30.6907 52.9501 30.5973 52.6922 30.1308 52.4372C29.6633 52.1816 29.3946 52.2418 28.6155 52.4713C27.7031 52.74 26.3238 53.1465 24.6753 52.2452Z" fill="#F2A7D0"/>
<path d="M75.8877 23.3848C76.587 22.9756 76.8144 22.8218 76.9469 22.3085C77.0792 21.7963 76.9548 21.552 76.5414 20.8573C76.0549 20.0396 75.3197 18.8038 75.7897 16.9838C76.2597 15.1646 77.5011 14.4382 78.3226 13.9573C79.0219 13.5481 79.2495 13.3941 79.382 12.881C79.6018 12.0307 80.4681 11.5189 81.3201 11.7387C82.1707 11.9586 82.682 12.8263 82.4624 13.6768C81.9924 15.496 80.751 16.2225 79.9295 16.7031C79.23 17.1123 79.0027 17.2661 78.8702 17.7794C78.7379 18.2916 78.8622 18.5359 79.2756 19.2306C79.7621 20.0483 80.4973 21.2841 80.0273 23.1041C79.5573 24.9233 78.3159 25.6498 77.4944 26.1304C76.7949 26.5396 76.5676 26.6936 76.4351 27.2067C76.2497 27.9239 75.6039 28.3998 74.8959 28.3998C74.7642 28.3998 74.6303 28.3833 74.497 28.3488C73.6464 28.1289 73.135 27.2612 73.3546 26.4107C73.8249 24.5919 75.066 23.8654 75.8877 23.3848Z" fill="#F2A7D0"/>
<path d="M49.4886 26.2198C49.0661 25.4497 49.3478 24.4828 50.1179 24.0602C50.888 23.6372 51.8548 23.9191 52.2778 24.6892C53.1822 26.3375 52.7745 27.716 52.5047 28.6282C52.2757 29.4029 52.2151 29.67 52.47 30.1341C52.7254 30.5995 52.9841 30.6929 53.7634 30.918C54.6781 31.182 56.06 31.5807 56.964 33.2277C57.8685 34.876 57.4608 36.2544 57.191 37.1666C56.9619 37.9413 56.9013 38.2084 57.1561 38.6726C57.5789 39.4427 57.2973 40.4097 56.527 40.8324C56.2842 40.9658 56.0219 41.0291 55.7632 41.0291C55.2012 41.0291 54.6568 40.7307 54.3674 40.2036C53.4625 38.5551 53.8702 37.1767 54.1402 36.2645C54.3693 35.4897 54.4297 35.2227 54.1749 34.7585C53.9195 34.2931 53.6608 34.1997 52.8815 33.9746C51.9668 33.7107 50.585 33.3119 49.6811 31.6649C48.7762 30.0165 49.184 28.638 49.454 27.7258C49.683 26.9511 49.7434 26.684 49.4886 26.2198Z" fill="#F2A7D0"/>
<path d="M53.1074 7.91759L50.9789 11.8011L52.9776 15.7526L48.6194 14.9324L45.4715 18.0506L44.9064 13.6603L40.962 11.636L44.9712 9.74286L45.6813 5.37341L48.7243 8.59386L53.1074 7.91759Z" fill="#FFCA21"/>
<path d="M98.5675 26.0307L96.4392 29.9141L98.4379 33.8655L94.0796 33.0455L90.9316 36.1637L90.3665 31.7732L86.4224 29.749L90.4313 27.8558L91.1415 23.4863L94.1845 26.7068L98.5675 26.0307Z" fill="#FFCA21"/>
<path d="M34.8998 21.7394C32.8528 21.7394 32.8495 18.558 34.8998 18.558C36.9468 18.558 36.9502 21.7394 34.8998 21.7394Z" fill="#EB67A5"/>
<path d="M69.3921 8.96482C67.3451 8.96482 67.3417 5.78345 69.3921 5.78345C71.4391 5.78345 71.4426 8.96482 69.3921 8.96482Z" fill="#EB67A5"/>
<path d="M79.7505 77.0025L78.75 72.4149L74.4034 70.6381L78.4577 68.2691L78.7975 63.6804L84.9659 69.8559L84.9843 69.8921L87.4565 73.8843L82.7837 73.418L79.7505 77.0025Z" fill="white"/>
<path d="M87.4565 92.7622L82.8177 93.4899L81.3784 96.492L75.9068 91.0208L77.3329 89.5986L76.487 84.9797L80.6675 87.1176L84.7985 84.8856L84.0572 89.5226L87.4565 92.7622Z" fill="white"/>
</svg>
