<svg width="107" height="107" viewBox="0 0 107 107" fill="none" xmlns="http://www.w3.org/2000/svg">
<g clip-path="url(#clip0_5314_36250)">
<path d="M61.123 49.7611C63.1589 49.7611 64.8093 48.1107 64.8093 46.0748C64.8093 44.039 63.1589 42.3885 61.123 42.3885C59.0871 42.3885 57.4367 44.039 57.4367 46.0748C57.4367 48.1107 59.0871 49.7611 61.123 49.7611Z" fill="#6B8DF2"/>
<path d="M24.9545 66.9363L0.286991 91.6019C-0.869737 92.7584 1.5758 97.0789 5.74901 101.252C9.92242 105.425 14.2432 107.87 15.3999 106.713L22.3181 99.7951L24.9545 66.9363Z" fill="#F2A7D0"/>
<path d="M31.5837 82.0477L9.27562 104.354C12.1276 106.525 14.5727 107.54 15.3999 106.713L22.3181 99.7949L31.5837 82.0477Z" fill="#F294C7"/>
<path d="M33.3792 58.5123L7.2052 84.6836C6.04848 85.8402 8.49401 90.1607 12.6672 94.3335C16.8406 98.5065 21.1614 100.952 22.3181 99.7951L25.6217 96.4919L27.7053 92.3659L31.0934 91.0209L48.4924 73.6238L33.3792 58.5123Z" fill="#FFCA21"/>
<path d="M44.2502 69.3821L16.1938 97.4359C19.0458 99.6069 21.491 100.622 22.3181 99.7952L25.6217 96.4919L27.2186 92.3304L31.0934 91.0207L48.4924 73.6236L44.2502 69.3821Z" fill="#F2BB0C"/>
<path d="M48.3081 73.7947C49.4645 72.6383 47.0195 68.3183 42.847 64.1458C38.6745 59.9733 34.3545 57.5283 33.1981 58.6847C32.0416 59.8412 34.4866 64.1612 38.6591 68.3337C42.8316 72.5062 47.1516 74.9512 48.3081 73.7947Z" fill="#EB67A5"/>
<path d="M53.8873 70.0098C53.318 70.0098 52.7674 69.7034 52.4815 69.1655C52.0691 68.39 52.3634 67.4268 53.1391 67.0142C59.9512 63.3919 74.075 58.2942 92.1304 64.8496C92.9561 65.1495 93.3824 66.0619 93.0827 66.8876C92.7829 67.7133 91.8706 68.1396 91.0447 67.8399C74.1467 61.7044 60.9786 66.4487 54.633 69.8232C54.3947 69.9496 54.1391 70.0098 53.8873 70.0098Z" fill="#B5C8FF"/>
<path d="M50.7705 57.8186C50.3634 57.8186 49.9563 57.6633 49.6455 57.3526C49.0244 56.7313 49.0244 55.7242 49.6458 55.1031L52.6315 52.1177C53.2524 51.4964 54.2597 51.4966 54.881 52.1179C55.5021 52.7393 55.5021 53.7463 54.8808 54.3675L51.8951 57.3528C51.5845 57.6633 51.1774 57.8186 50.7705 57.8186Z" fill="#B5C8FF"/>
<path d="M67.5104 41.0792C67.1031 41.0792 66.6958 40.9237 66.385 40.613C65.7641 39.9914 65.7645 38.9843 66.386 38.3632L88.4615 16.306C89.0828 15.6851 90.0901 15.6855 90.711 16.3068C91.3319 16.9283 91.3315 17.9354 90.7099 18.5565L68.6345 40.6138C68.3242 40.9241 67.9171 41.0792 67.5104 41.0792Z" fill="#B5C8FF"/>
<path d="M80.137 10.8719C82.1729 10.8719 83.8233 9.22154 83.8233 7.18566C83.8233 5.14979 82.1729 3.49939 80.137 3.49939C78.1011 3.49939 76.4507 5.14979 76.4507 7.18566C76.4507 9.22154 78.1011 10.8719 80.137 10.8719Z" fill="#6B8DF2"/>
<path d="M99.6018 30.4951C101.638 30.4951 103.288 28.8447 103.288 26.8088C103.288 24.773 101.638 23.1226 99.6018 23.1226C97.5659 23.1226 95.9155 24.773 95.9155 26.8088C95.9155 28.8447 97.5659 30.4951 99.6018 30.4951Z" fill="#6B8DF2"/>
<path d="M66.1797 81.508C68.2156 81.508 69.866 79.8576 69.866 77.8218C69.866 75.7859 68.2156 74.1355 66.1797 74.1355C64.1439 74.1355 62.4935 75.7859 62.4935 77.8218C62.4935 79.8576 64.1439 81.508 66.1797 81.508Z" fill="#6B8DF2"/>
<path d="M99.1328 53.0693L95.2417 50.9449L91.2825 52.9397L92.1045 48.5899L88.9799 45.4482L93.3791 44.8842L95.4073 40.9478L97.3042 44.949L101.682 45.6576L98.4555 48.6946L99.1328 53.0693Z" fill="#FFCA21"/>
<path d="M98.3661 14.1587L97.1168 9.90523L92.9066 8.51611L96.5636 6.02146L96.5757 1.59058L100.085 4.30236L104.303 2.95315L102.815 7.12365L105.409 10.7205L100.98 10.5863L98.3661 14.1587Z" fill="#FFCA21"/>
<path d="M80.9844 98.4404L77.0933 96.316L73.1341 98.311L73.9559 93.961L70.8315 90.8193L75.2305 90.2553L77.2589 86.3188L79.1556 90.3201L83.5336 91.0289L80.3069 94.0659L80.9844 98.4404Z" fill="#FFCA21"/>
<path d="M86.9252 36.5445C88.9722 36.5445 88.9756 33.3632 86.9252 33.3632C84.878 33.3632 84.8747 36.5445 86.9252 36.5445Z" fill="#EB67A5"/>
<path d="M105.463 61.0011C107.51 61.0011 107.514 57.8197 105.463 57.8197C103.416 57.8197 103.413 61.0011 105.463 61.0011Z" fill="#EB67A5"/>
<path d="M47.6142 3.18137C49.6612 3.18137 49.6646 0 47.6142 0C45.5672 0 45.5637 3.18137 47.6142 3.18137Z" fill="#EB67A5"/>
<path d="M99.5261 70.7628C101.573 70.7628 101.576 67.5814 99.5261 67.5814C97.4789 67.5814 97.4756 70.7628 99.5261 70.7628Z" fill="#EB67A5"/>
<path d="M38.6728 54.3625C38.4245 54.3625 38.1727 54.3041 37.9372 54.1813C37.1587 53.7744 36.8574 52.8133 37.2645 52.0346C40.5583 45.7329 45.1762 32.6709 39.0966 15.9929C38.7959 15.1676 39.2212 14.2546 40.0465 13.9536C40.8717 13.6525 41.7848 14.0782 42.0857 14.9033C48.5835 32.7288 43.6205 46.7418 40.0837 53.5081C39.7997 54.0517 39.2458 54.3625 38.6728 54.3625Z" fill="#B5C8FF"/>
<path d="M29.0915 44.4857C31.1313 44.4857 32.7849 42.8384 32.7849 40.8063C32.7849 38.7743 31.1313 37.127 29.0915 37.127C27.0517 37.127 25.3981 38.7743 25.3981 40.8063C25.3981 42.8384 27.0517 44.4857 29.0915 44.4857Z" fill="#6B8DF2"/>
<path d="M94.1573 79.2894C93.6416 79.1567 93.4873 78.9295 93.0773 78.2315C92.5956 77.4116 91.8677 76.1726 90.0468 75.704C88.2268 75.2355 86.9904 75.9686 86.172 76.4534C85.474 76.8672 85.2287 76.9916 84.7117 76.8589C84.1957 76.7262 84.0414 76.499 83.6316 75.8012C83.1501 74.9814 82.4222 73.7423 80.6013 73.2738C79.7495 73.0543 78.8833 73.5672 78.6643 74.4177C78.4453 75.2685 78.9577 76.1358 79.8085 76.3546C80.3244 76.4873 80.4787 76.7145 80.8885 77.4125C81.37 78.2323 82.0979 79.4712 83.9188 79.9397C85.7392 80.4083 86.9758 79.6754 87.794 79.1903C88.4918 78.7767 88.7371 78.6518 89.2539 78.7851C89.7699 78.9178 89.9241 79.145 90.3342 79.843C90.8159 80.6628 91.5438 81.9017 93.3646 82.3702C93.4976 82.4045 93.6311 82.4208 93.7621 82.4208C94.4708 82.4208 95.117 81.9439 95.3017 81.226C95.5203 80.3755 95.0081 79.5082 94.1573 79.2894Z" fill="#F2A7D0"/>
<path d="M82.3249 52.2452C83.0958 51.8238 83.379 50.8573 82.9577 50.0863C82.5359 49.3154 81.5694 49.032 80.7989 49.4538C80.3309 49.7093 80.0624 49.6492 79.2835 49.4197C78.3707 49.1509 76.9916 48.7445 75.3431 49.6458C73.6932 50.5478 73.2932 51.9281 73.0286 52.8412C72.8037 53.618 72.7103 53.8757 72.2437 54.1308C71.7757 54.3866 71.5072 54.3262 70.7285 54.0965C69.8159 53.8278 68.437 53.4213 66.7881 54.3227C66.0172 54.744 65.734 55.7105 66.1553 56.4815C66.5771 57.2524 67.5436 57.5356 68.3141 57.1141C68.7825 56.8585 69.0508 56.9189 69.8293 57.1483C70.3193 57.2928 70.9436 57.4767 71.6721 57.4767C72.3003 57.4767 73.0065 57.3396 73.7699 56.9222C75.42 56.02 75.82 54.6399 76.0846 53.7266C76.3095 52.9501 76.4029 52.6922 76.8693 52.4372C77.3368 52.1816 77.6056 52.2418 78.3847 52.4713C79.2971 52.74 80.6764 53.1465 82.3249 52.2452Z" fill="#F2A7D0"/>
<path d="M31.1124 23.3848C30.4131 22.9756 30.1858 22.8218 30.0533 22.3085C29.921 21.7963 30.0453 21.552 30.4587 20.8573C30.9452 20.0396 31.6804 18.8038 31.2104 16.9838C30.7404 15.1646 29.499 14.4382 28.6775 13.9573C27.9783 13.5481 27.7507 13.3941 27.6182 12.881C27.3983 12.0307 26.5321 11.5189 25.6801 11.7387C24.8295 11.9586 24.3181 12.8263 24.5377 13.6768C25.0077 15.496 26.2491 16.2225 27.0706 16.7031C27.7701 17.1123 27.9975 17.2661 28.13 17.7794C28.2623 18.2916 28.1379 18.5359 27.7245 19.2306C27.238 20.0483 26.5028 21.2841 26.9728 23.1041C27.4428 24.9233 28.6842 25.6498 29.5057 26.1304C30.2052 26.5396 30.4326 26.6936 30.5651 27.2067C30.7504 27.9239 31.3962 28.3998 32.1042 28.3998C32.2359 28.3998 32.3699 28.3833 32.5032 28.3488C33.3537 28.1289 33.8651 27.2612 33.6455 26.4107C33.1753 24.5919 31.9341 23.8654 31.1124 23.3848Z" fill="#F2A7D0"/>
<path d="M57.5115 26.2198C57.9341 25.4497 57.6524 24.4828 56.8822 24.0602C56.1121 23.6372 55.1454 23.9191 54.7224 24.6892C53.8179 26.3375 54.2256 27.716 54.4954 28.6282C54.7245 29.4029 54.7851 29.67 54.5301 30.1341C54.2748 30.5995 54.016 30.6929 53.2367 30.918C52.322 31.182 50.9402 31.5807 50.0361 33.2277C49.1316 34.876 49.5394 36.2544 49.8092 37.1666C50.0382 37.9413 50.0988 38.2084 49.8441 38.6726C49.4213 39.4427 49.7028 40.4097 50.4731 40.8324C50.716 40.9658 50.9782 41.0291 51.237 41.0291C51.7989 41.0291 52.3433 40.7307 52.6328 40.2036C53.5377 38.5551 53.1299 37.1767 52.8599 36.2645C52.6309 35.4897 52.5705 35.2227 52.8252 34.7585C53.0806 34.2931 53.3393 34.1997 54.1186 33.9746C55.0334 33.7107 56.4152 33.3119 57.319 31.6649C58.2239 30.0165 57.8162 28.638 57.5462 27.7258C57.3171 26.9511 57.2568 26.684 57.5115 26.2198Z" fill="#F2A7D0"/>
<path d="M53.8927 7.91759L56.0212 11.8011L54.0225 15.7526L58.3807 14.9324L61.5286 18.0506L62.0937 13.6603L66.0381 11.636L62.0289 9.74286L61.3188 5.37341L58.2758 8.59386L53.8927 7.91759Z" fill="#FFCA21"/>
<path d="M8.43257 26.0307L10.5609 29.9141L8.56214 33.8655L12.9205 33.0455L16.0684 36.1637L16.6335 31.7732L20.5777 29.749L16.5688 27.8558L15.8586 23.4863L12.8156 26.7068L8.43257 26.0307Z" fill="#FFCA21"/>
<path d="M72.1003 21.7394C74.1473 21.7394 74.1506 18.558 72.1003 18.558C70.0533 18.558 70.0499 21.7394 72.1003 21.7394Z" fill="#EB67A5"/>
<path d="M37.6081 8.96482C39.6551 8.96482 39.6584 5.78345 37.6081 5.78345C35.5611 5.78345 35.5575 8.96482 37.6081 8.96482Z" fill="#EB67A5"/>
<path d="M27.2497 77.0025L28.2501 72.4149L32.5968 70.6381L28.5425 68.2691L28.2027 63.6804L22.0343 69.8559L22.0159 69.8921L19.5436 73.8843L24.2165 73.418L27.2497 77.0025Z" fill="white"/>
<path d="M19.5436 92.7622L24.1825 93.4899L25.6217 96.492L31.0934 91.0208L29.6673 89.5986L30.5132 84.9797L26.3327 87.1176L22.2017 84.8856L22.943 89.5226L19.5436 92.7622Z" fill="white"/>
</g>
<defs>
<clipPath id="clip0_5314_36250">
<rect width="107" height="107" fill="white"/>
</clipPath>
</defs>
</svg>
