<svg width="1330" height="929" viewBox="0 0 1330 929" fill="none" xmlns="http://www.w3.org/2000/svg">
<g opacity="0.1" clip-path="url(#clip0_5781_115644)">
<g opacity="0.47">
<g opacity="0.49">
<path d="M407.02 169.462H256.302L181.359 299.327L256.302 430.024H407.02L481.963 299.327L407.02 169.462Z" fill="url(#paint0_linear_5781_115644)"/>
<path d="M407.02 169.462H256.302L181.359 299.327L256.302 430.024H407.02L481.963 299.327L407.02 169.462Z" fill="#E75634"/>
</g>
<g opacity="0.49">
<path d="M161.775 317.161H11.0572L-63.8855 447.026L11.0572 577.724H161.775L236.718 447.026L161.775 317.161Z" fill="url(#paint1_linear_5781_115644)"/>
<path d="M161.775 317.161H11.0572L-63.8855 447.026L11.0572 577.724H161.775L236.718 447.026L161.775 317.161Z" fill="#E75634"/>
</g>
<path d="M1385.44 455.816H1235.55L1159.78 585.681L1235.55 716.379H1385.44L1460.38 585.681L1385.44 455.816Z" fill="#E75634"/>
<path d="M896.681 169.462H745.963L671.021 299.327L745.963 430.024H896.681L971.624 299.327L896.681 169.462Z" fill="url(#paint2_linear_5781_115644)"/>
<path d="M896.681 169.462H745.963L671.021 299.327L745.963 430.024H896.681L971.624 299.327L896.681 169.462Z" fill="#2CA06D"/>
<path d="M1385.44 455.816H1235.55L1159.78 585.681L1235.55 716.379H1385.44L1460.38 585.681L1385.44 455.816Z" fill="#E75634"/>
<g opacity="0.49">
<path d="M1140.64 312.639H989.926L914.983 442.504L989.926 573.202H1140.64L1215.59 442.504L1140.64 312.639Z" fill="url(#paint3_linear_5781_115644)"/>
<path d="M1140.64 312.639H989.926L914.983 442.504L989.926 573.202H1140.64L1215.59 442.504L1140.64 312.639Z" fill="#E75634"/>
</g>
<path d="M1140.64 26.2841H989.926L914.983 156.149L989.926 286.847H1140.64L1215.59 156.149L1140.64 26.2841Z" fill="url(#paint4_linear_5781_115644)"/>
<path d="M1140.64 26.2841H989.926L914.983 156.149L989.926 286.847H1140.64L1215.59 156.149L1140.64 26.2841Z" fill="#2C9F6C"/>
<g opacity="0.49">
<path d="M650.176 598.994H500.291L425.348 728.859L500.291 859.557H650.176L725.952 728.859L650.176 598.994Z" fill="url(#paint5_linear_5781_115644)"/>
<path d="M650.176 598.994H500.291L425.348 728.859L500.291 859.557H650.176L725.952 728.859L650.176 598.994Z" fill="#E75634"/>
</g>
<path d="M896.681 742.171H745.963L671.021 872.036L745.963 1002.73H896.681L971.624 872.036L896.681 742.171Z" fill="url(#paint6_linear_5781_115644)"/>
<path d="M896.681 742.171H745.963L671.021 872.036L745.963 1002.73H896.681L971.624 872.036L896.681 742.171Z" fill="#2B9A69"/>
<path d="M896.681 455.816H745.963L671.021 585.682L745.963 716.379H896.681L971.624 585.682L896.681 455.816Z" fill="url(#paint7_linear_5781_115644)"/>
<path d="M896.681 455.816H745.963L671.021 585.682L745.963 716.379H896.681L971.624 585.682L896.681 455.816Z" fill="#E75634"/>
<path d="M1140.64 598.994H989.926L914.983 728.859L989.926 859.557H1140.64L1215.59 728.859L1140.64 598.994Z" fill="#E75634"/>
<path d="M1385.44 742.171H1235.55L1159.78 872.036L1235.55 1002.73H1385.44L1460.38 872.036L1385.44 742.171Z" fill="url(#paint8_linear_5781_115644)"/>
<path d="M1385.44 742.171H1235.55L1159.78 872.036L1235.55 1002.73H1385.44L1460.38 872.036L1385.44 742.171Z" fill="#E75634"/>
<path d="M1385.44 455.816H1235.55L1159.78 585.681L1235.55 716.379H1385.44L1460.38 585.681L1385.44 455.816Z" fill="#2CA06D"/>
</g>
</g>
<defs>
<linearGradient id="paint0_linear_5781_115644" x1="181.288" y1="299.547" x2="481.904" y2="299.547" gradientUnits="userSpaceOnUse">
<stop offset="0.373" stop-color="#2185FF"/>
<stop offset="0.6993" stop-color="#1278FF"/>
<stop offset="1" stop-color="#0068FF"/>
</linearGradient>
<linearGradient id="paint1_linear_5781_115644" x1="-63.9571" y1="447.247" x2="236.659" y2="447.247" gradientUnits="userSpaceOnUse">
<stop offset="0.373" stop-color="#2185FF"/>
<stop offset="0.6993" stop-color="#1278FF"/>
<stop offset="1" stop-color="#0068FF"/>
</linearGradient>
<linearGradient id="paint2_linear_5781_115644" x1="671.061" y1="299.547" x2="971.676" y2="299.547" gradientUnits="userSpaceOnUse">
<stop offset="0.373" stop-color="#2185FF"/>
<stop offset="0.6993" stop-color="#1278FF"/>
<stop offset="1" stop-color="#0068FF"/>
</linearGradient>
<linearGradient id="paint3_linear_5781_115644" x1="914.821" y1="442.759" x2="1215.44" y2="442.759" gradientUnits="userSpaceOnUse">
<stop offset="0.373" stop-color="#2185FF"/>
<stop offset="0.6993" stop-color="#1278FF"/>
<stop offset="1" stop-color="#0068FF"/>
</linearGradient>
<linearGradient id="paint4_linear_5781_115644" x1="914.821" y1="156.337" x2="1215.44" y2="156.337" gradientUnits="userSpaceOnUse">
<stop offset="0.373" stop-color="#2185FF"/>
<stop offset="0.6993" stop-color="#1278FF"/>
<stop offset="1" stop-color="#0068FF"/>
</linearGradient>
<linearGradient id="paint5_linear_5781_115644" x1="425.073" y1="729.182" x2="725.689" y2="729.182" gradientUnits="userSpaceOnUse">
<stop offset="0.373" stop-color="#2185FF"/>
<stop offset="0.6993" stop-color="#1278FF"/>
<stop offset="1" stop-color="#0068FF"/>
</linearGradient>
<linearGradient id="paint6_linear_5781_115644" x1="671.061" y1="872.394" x2="971.676" y2="872.394" gradientUnits="userSpaceOnUse">
<stop offset="0.373" stop-color="#2185FF"/>
<stop offset="0.6993" stop-color="#1278FF"/>
<stop offset="1" stop-color="#0068FF"/>
</linearGradient>
<linearGradient id="paint7_linear_5781_115644" x1="671.061" y1="585.971" x2="971.676" y2="585.971" gradientUnits="userSpaceOnUse">
<stop offset="0.373" stop-color="#2185FF"/>
<stop offset="0.6993" stop-color="#1278FF"/>
<stop offset="1" stop-color="#0068FF"/>
</linearGradient>
<linearGradient id="paint8_linear_5781_115644" x1="1160.11" y1="872.394" x2="1460.73" y2="872.394" gradientUnits="userSpaceOnUse">
<stop offset="0.373" stop-color="#2185FF"/>
<stop offset="0.6993" stop-color="#1278FF"/>
<stop offset="1" stop-color="#0068FF"/>
</linearGradient>
<clipPath id="clip0_5781_115644">
<rect width="1330" height="929" fill="white" transform="matrix(1 0 0 -1 0 929)"/>
</clipPath>
</defs>
</svg>
