<svg width="72" height="32" viewBox="0 0 72 32" fill="none" xmlns="http://www.w3.org/2000/svg">
<path d="M12.4694 12.4297H0V21.1638C0 23.2512 0.466626 25.0914 1.39988 26.6844C2.35484 28.2774 3.67875 29.5225 5.37163 30.4198C7.08621 31.317 9.09379 31.7656 11.3944 31.7656C13.7166 31.7656 15.7242 31.317 17.4171 30.4198C19.11 29.5225 20.423 28.2774 21.3563 26.6844C22.3113 25.0914 22.7887 23.2512 22.7887 21.1638V12.4297H20.7625L18.4589 16.8914V20.9441C18.4589 22.2258 18.1659 23.3336 17.5799 24.2674C17.0156 25.2196 16.2017 25.952 15.1382 26.4647C14.0965 26.9957 12.8485 27.2612 11.3944 27.2612C9.96193 27.2612 8.71398 26.9957 7.6505 26.4647C6.58703 25.952 5.76229 25.2196 5.1763 24.2674C4.61201 23.3336 4.32986 22.2258 4.32986 20.9441V16.8791L10.1721 16.8791L12.4694 12.4297Z" fill="white"/>
<path d="M12.4694 12.4297H0V21.1638C0 23.2512 0.466626 25.0914 1.39988 26.6844C2.35484 28.2774 3.67875 29.5225 5.37163 30.4198C7.08621 31.317 9.09379 31.7656 11.3944 31.7656C13.7166 31.7656 15.7242 31.317 17.4171 30.4198C19.11 29.5225 20.423 28.2774 21.3563 26.6844C22.3113 25.0914 22.7887 23.2512 22.7887 21.1638V12.4297H20.7625L18.4589 16.8914V20.9441C18.4589 22.2258 18.1659 23.3336 17.5799 24.2674C17.0156 25.2196 16.2017 25.952 15.1382 26.4647C14.0965 26.9957 12.8485 27.2612 11.3944 27.2612C9.96193 27.2612 8.71398 26.9957 7.6505 26.4647C6.58703 25.952 5.76229 25.2196 5.1763 24.2674C4.61201 23.3336 4.32986 22.2258 4.32986 20.9441V16.8791L10.1721 16.8791L12.4694 12.4297Z" fill="#E75634"/>
<path d="M10.8203 24.2569C9.80246 23.7343 9.4009 22.4856 9.92344 21.4677L17.6949 6.32913C18.2174 5.31125 19.4662 4.90969 20.4841 5.43223C21.502 5.95476 21.9035 7.20352 21.381 8.2214L13.6095 23.36C13.087 24.3778 11.8382 24.7794 10.8203 24.2569Z" fill="white"/>
<path d="M10.8203 24.2569C9.80246 23.7343 9.4009 22.4856 9.92344 21.4677L17.6949 6.32913C18.2174 5.31125 19.4662 4.90969 20.4841 5.43223C21.502 5.95476 21.9035 7.20352 21.381 8.2214L13.6095 23.36C13.087 24.3778 11.8382 24.7794 10.8203 24.2569Z" fill="#37582A"/>
<path d="M24 2.0717C24 3.21587 23.0725 4.14341 21.9283 4.14341C20.7842 4.14341 19.8566 3.21587 19.8566 2.0717C19.8566 0.927533 20.7842 0 21.9283 0C23.0725 0 24 0.927533 24 2.0717Z" fill="white"/>
<path d="M24 2.0717C24 3.21587 23.0725 4.14341 21.9283 4.14341C20.7842 4.14341 19.8566 3.21587 19.8566 2.0717C19.8566 0.927533 20.7842 0 21.9283 0C23.0725 0 24 0.927533 24 2.0717Z" fill="#37582A"/>
<path d="M56.46 13.98C56.46 13.34 56.8533 13.02 57.64 13.02C58.4267 13.02 58.82 13.34 58.82 13.98V27.78C58.82 28.2467 58.5733 28.5867 58.08 28.8H58.1C57.8867 28.8934 57.66 28.9667 57.42 29.02C57.18 29.0734 56.9467 29.1 56.72 29.1C56.5467 29.1 56.3667 29.08 56.18 29.04C55.9933 29.0134 55.8133 28.9667 55.64 28.9C55.48 28.82 55.3267 28.72 55.18 28.6C55.0467 28.4667 54.94 28.3067 54.86 28.12L50.52 17.3L49.98 17.36V28.16C49.98 28.8 49.58 29.12 48.78 29.12C47.9933 29.12 47.6 28.8 47.6 28.16V14.38C47.6 13.8334 47.84 13.4667 48.32 13.28C48.76 13.1067 49.2267 13.02 49.72 13.02C50.0667 13.02 50.4133 13.0934 50.76 13.24C51.12 13.3734 51.3933 13.6334 51.58 14.02L55.9 24.86L56.46 24.8V13.98Z" fill="#107649"/>
<path d="M63.0792 29.02C62.5859 29.02 62.2526 28.8934 62.0792 28.64C61.9059 28.3867 61.8192 28.1067 61.8192 27.8V14.32C61.8192 14.0134 61.9059 13.74 62.0792 13.5C62.2526 13.2467 62.5859 13.12 63.0792 13.12H70.0392C70.5326 13.12 70.7926 13.4534 70.8192 14.12C70.8459 14.8 70.5859 15.14 70.0392 15.14H64.1792V27H70.3992C70.8926 27 71.1459 27.3267 71.1592 27.98C71.1859 28.6734 70.9326 29.02 70.3992 29.02H63.0792ZM69.2992 20.74C69.2992 21.2067 69.1326 21.6 68.7992 21.92C68.4792 22.24 68.0859 22.4 67.6192 22.4C67.1659 22.4 66.7792 22.24 66.4592 21.92C66.1392 21.6 65.9792 21.2067 65.9792 20.74C65.9792 20.2734 66.1392 19.88 66.4592 19.56C66.7792 19.24 67.1659 19.08 67.6192 19.08C68.0859 19.08 68.4792 19.24 68.7992 19.56C69.1326 19.88 69.2992 20.2734 69.2992 20.74Z" fill="#107649"/>
<path d="M44 21C44 24.866 40.866 28 37 28C33.134 28 30 24.866 30 21C30 17.134 33.134 14 37 14C40.866 14 44 17.134 44 21Z" fill="white" stroke="#107649" stroke-width="2"/>
<path d="M41 21C41 23.2091 39.2091 25 37 25C34.7909 25 33 23.2091 33 21C33 18.7909 34.7909 17 37 17C39.2091 17 41 18.7909 41 21Z" fill="#107649"/>
</svg>
